<?xml version="1.0" encoding="UTF-8" standalone="no"?>
<!-- Generator: Adobe Illustrator 17.1.0, SVG Export Plug-In . SVG Version: 6.00 Build 0)  -->

<svg
   xmlns:dc="http://purl.org/dc/elements/1.1/"
   xmlns:cc="http://creativecommons.org/ns#"
   xmlns:rdf="http://www.w3.org/1999/02/22-rdf-syntax-ns#"
   xmlns:svg="http://www.w3.org/2000/svg"
   xmlns="http://www.w3.org/2000/svg"
   xmlns:sodipodi="http://sodipodi.sourceforge.net/DTD/sodipodi-0.dtd"
   xmlns:inkscape="http://www.inkscape.org/namespaces/inkscape"
   version="1.1"
   x="0px"
   y="0px"
   viewBox="0 0 649.99999 650.00001"
   enable-background="new 0 0 841.9 595.3"
   xml:space="preserve"
   id="svg2"
   inkscape:version="0.92.1 r15371"
   sodipodi:docname="2017-JP-02-q2.svg"
   width="693.33331"
   height="693.33331"><metadata
     id="metadata91"><rdf:RDF><cc:Work
         rdf:about=""><dc:format>image/svg+xml</dc:format><dc:type
           rdf:resource="http://purl.org/dc/dcmitype/StillImage" /><dc:title></dc:title></cc:Work></rdf:RDF></metadata><defs
     id="defs89" /><sodipodi:namedview
     pagecolor="#ffffff"
     bordercolor="#666666"
     borderopacity="1"
     objecttolerance="10"
     gridtolerance="10"
     guidetolerance="10"
     inkscape:pageopacity="0"
     inkscape:pageshadow="2"
     inkscape:window-width="1680"
     inkscape:window-height="987"
     id="namedview87"
     showgrid="false"
     inkscape:zoom="1.1639423"
     inkscape:cx="346.66666"
     inkscape:cy="346.66666"
     inkscape:window-x="-8"
     inkscape:window-y="222"
     inkscape:window-maximized="1"
     inkscape:current-layer="svg2"
     fit-margin-top="0"
     fit-margin-left="0"
     fit-margin-right="0"
     fit-margin-bottom="0"
     inkscape:snap-global="false" /><g
     id="レイヤー_1"
     transform="translate(-137.95788,138.86418)" /><g
     id="レイヤー_2"
     transform="translate(-66.579384,48.372527)"><g
       id="layer6"
       transform="translate(-263.96291,30.119517)"
       inkscape:groupmode="layer"
       inkscape:label="waku" /><g
       id="layer3"
       transform="translate(-263.96291,30.119517)"
       inkscape:groupmode="layer"
       inkscape:label="btaro"><path
         id="path4045-3-52-9"
         sodipodi:nodetypes="cccc"
         inkscape:connector-curvature="0"
         d="m 703.39751,222.74217 c 31.4,-5.4 68.2,1.1 91.3,17.6 10.4,12.2 29.1,51.5 -43,42.1 -5.3,6.1 -9.8,8.5 -16.5,6"
         style="fill:#dd8c56;stroke:#040000;stroke-width:5.36100006;stroke-linecap:round" /><path
         id="path4042-17-8"
         sodipodi:nodetypes="ccccc"
         inkscape:connector-curvature="0"
         d="m 795.49751,290.34217 3.9,-62.3 c 0,0 5.2,-6.4 9.8,0.4 l -4.6,65.5 c 0,-0.1 -6.6,-0.4 -9.1,-3.6 z"
         style="fill:#ecda9c;stroke:#000000;stroke-width:5" /><g
         id="g4118-3-9"
         transform="matrix(-2.1285263,-0.26042345,-0.26042345,2.1285263,1177.28,-842.70245)"><path
           id="path4049-49-6-0"
           inkscape:transform-center-x="-3.8627751"
           inkscape:transform-center-y="-7.0343703"
           sodipodi:nodetypes="ccscc"
           inkscape:connector-curvature="0"
           d="m 106.8,537.5 2.5,2.2 c 0,0 5.2,-0.9 5.3,-2.5 0.2,-1.6 -6.8,-1.6 -6.8,-1.6 z"
           style="fill:#ffffff;stroke:#040000;stroke-width:1.79999995;stroke-linecap:round;stroke-linejoin:round" /><path
           id="path4049-1-90-5-5"
           inkscape:transform-center-x="5.4775435"
           inkscape:transform-center-y="-5.8562951"
           sodipodi:nodetypes="ccscc"
           inkscape:connector-curvature="0"
           d="m 105.9,533.5 1.8,2.4 c 0,0 5.8,0.1 6.6,-1.4 0.8,-1.4 -6.5,-2.6 -6.5,-2.6 z"
           style="fill:#ffffff;stroke:#040000;stroke-width:1.79999995;stroke-linecap:round;stroke-linejoin:round" /><path
           id="path4049-1-2-3-58-2"
           inkscape:transform-center-x="6.5241965"
           inkscape:transform-center-y="6.5182001"
           sodipodi:nodetypes="ccscc"
           inkscape:connector-curvature="0"
           d="m 107.7,526 1.7,2.6 c 0,0 6,0.8 6.9,-0.4 0.9,-1.2 -6.5,-3.4 -6.5,-3.4 z"
           style="fill:#ffffff;stroke:#040000;stroke-width:1.79999995;stroke-linecap:round;stroke-linejoin:round" /><path
           id="path4049-1-6-0-1-2"
           inkscape:transform-center-x="7.6593808"
           inkscape:transform-center-y="1.4316544"
           sodipodi:nodetypes="ccscc"
           inkscape:connector-curvature="0"
           d="m 106.4,529.7 1.8,2.5 c 0,0 6,0.5 6.9,-0.8 0.8,-1.3 -6.7,-3 -6.7,-3 z"
           style="fill:#ffffff;stroke:#040000;stroke-width:1.79999995;stroke-linecap:round;stroke-linejoin:round" /></g></g></g><g
     id="g4292"
     transform="translate(78.345782,-68.72437)"><path
       style="fill:#dd8c56;stroke:#040000;stroke-width:5.36100006"
       d="m 650.09751,434.04217 c 0,0 -262,-36.4 -230.6,-200.1 14.5,-75.6 194.7,16.1 179,91.4 0.5,59.1 51.6,108.7 51.6,108.7 z"
       inkscape:connector-curvature="0"
       sodipodi:nodetypes="cssc"
       id="path4042-1-3"
       transform="translate(-401.92079,168.9837)" /><path
       style="fill:#dd8c56;stroke:#040000;stroke-width:5.10489988"
       d="m 611.29751,237.04217 c -1.1,-1.9 76.2,-118.6 112.1,24.8 0,0 0,0 0,0 58.4,58.1 46.8,174.6 -4.9,151 -0.6,-0.3 -17.4,4.5 -17.9,4.9 -39.6,35 -101.8,-4.9 -119.4,-47.3 0,0 -38.4,-93.1 -4.8,-104.9 1,-0.3 -10.4,10 -10.2,9 1.6,-7.3 -7.3,-10.9 5.4,-18.6 20.7,-12.5 39.7,-18.9 39.7,-18.9 z"
       inkscape:connector-curvature="0"
       sodipodi:nodetypes="cccsssc"
       id="path4016-5-9"
       transform="translate(-401.92079,168.9837)" /><path
       style="fill:#f4a876"
       d="m 612.69751,326.44217 c 19.3,49 51.4,51.7 91.4,31.1 39.8,-20.5 22.1,-59.5 1,-107.9 -23.3,-53.2 -38.7,-57.5 -38.7,-57.5 v 0 c 0,0 35,16.4 1.4,35.2 -9,5.1 -33.1,15.4 -53.5,25.3 -19,9.1 -8.6,56.1 -1.6,73.8 z"
       inkscape:connector-curvature="0"
       sodipodi:nodetypes="cssssc"
       id="path4016-7-58-0_1_"
       transform="translate(-401.92079,168.9837)" /><g
       transform="matrix(2.9855595,0,0,2.9855595,-1720.6054,-175.8021)"
       id="g3282"><path
         style="fill:#dd8c56;stroke:#040000;stroke-width:1.67472792;stroke-linecap:round;stroke-miterlimit:4;stroke-dasharray:none"
         d="m 631.5,219.6 c -13.1,0 -17.1,-11.7 -18.7,-17.9 -4.2,-18.4 7.6,-18.9 11.5,-10.5 7.1,3.8 7.7,0 14.1,8.5"
         inkscape:connector-curvature="0"
         sodipodi:nodetypes="cccc"
         id="path4045-3-52" /><path
         style="fill:#dd8c56;stroke:#040000;stroke-width:1.67472792;stroke-linecap:round;stroke-linejoin:round;stroke-miterlimit:4;stroke-dasharray:none"
         d="m 632.3,139.8 c 0,0 -9.5,-17.9 -13.1,-6.1 -1,3.3 8.1,8.9 8.1,8.9 z"
         inkscape:connector-curvature="0"
         sodipodi:nodetypes="cscc"
         id="path3874-0-0-6" /><path
         style="fill:#dd8c56;stroke:#040000;stroke-width:1.67472792;stroke-linecap:round;stroke-linejoin:round;stroke-miterlimit:4;stroke-dasharray:none"
         d="m 658.8,134.2 c 0,0 4.1,-19.6 11.4,-9.7 2.1,2.8 -5.5,10.8 -5.5,10.8 z"
         inkscape:connector-curvature="0"
         sodipodi:nodetypes="cscc"
         id="path3874-7-7-2-3" /><path
         style="fill:#dd8c56;stroke:#040000;stroke-width:1.67472792;stroke-linecap:round;stroke-linejoin:round;stroke-miterlimit:4;stroke-dasharray:none"
         d="m 676.2,154.9 c 0,0 2,-28.5 -29.8,-24.7 -22,2.7 -31.5,12 -24.2,35 0,0 -15.9,31.6 16.7,35.6 0,0 16,0.7 33.2,-5.3 0.1,0 29.9,-11.7 4.1,-40.6 z"
         inkscape:connector-curvature="0"
         sodipodi:nodetypes="cscccc"
         id="path3801-6-3-0" /><path
         style="fill:#ffffff;stroke:#040000;stroke-width:1.67472792;stroke-linecap:round;stroke-linejoin:round;stroke-miterlimit:4;stroke-dasharray:none"
         d="m 663.6,174.7 c 0,0 1.3,16.8 0.7,17.7 -0.6,0.9 -12.6,3 -13.6,2 -1,-1 -4.5,-17 -4.5,-17"
         inkscape:connector-curvature="0"
         sodipodi:nodetypes="cssc"
         id="path3830-7-9-8" /><path
         style="fill:none;stroke:#040000;stroke-width:1.67472792;stroke-linecap:round;stroke-linejoin:round;stroke-miterlimit:4;stroke-dasharray:none"
         d="m 657.9,193.1 c 0,0 -3,-18.5 -3.3,-18.4"
         inkscape:connector-curvature="0"
         id="path3850-83-9-4" /><path
         style="fill:#f4a876;stroke:#040000;stroke-width:1.67472792;stroke-linecap:square;stroke-linejoin:round;stroke-miterlimit:4;stroke-dasharray:none"
         d="m 654.7,174.5 c 0,0 21,13.6 23.2,-6.6"
         inkscape:connector-curvature="0"
         sodipodi:nodetypes="cc"
         id="path3812-1-3-6" /><path
         style="fill:#f4a876;stroke:#040000;stroke-width:1.67472792;stroke-linecap:square;stroke-linejoin:round;stroke-miterlimit:4;stroke-dasharray:none"
         d="m 653.2,175.7 c 0,0 -18.5,19.9 -27.7,1.5"
         inkscape:connector-curvature="0"
         sodipodi:nodetypes="cc"
         id="path3827-9-9-4" /><path
         style="fill:#f4a876"
         d="m 677.7,169.2 c 0,0 -1,-10.7 -8.8,-8.9 0,0 -9.2,0.9 -11.7,8.5 -2.6,8.1 -2.3,6.8 -2.3,6.8"
         inkscape:connector-curvature="0"
         sodipodi:nodetypes="ccsc"
         id="path3977-2-5-8-6" /><path
         style="fill:#f4a876"
         d="m 626.2,177.5 c 0,0 -5.7,-10.5 9.7,-11.4 0,0 11,1.4 13,4 5.4,6.9 4.9,5.6 4.9,5.6"
         inkscape:connector-curvature="0"
         sodipodi:nodetypes="ccsc"
         id="path3977-2-7-5-6-4" /><path
         style="fill:none;stroke:#040000;stroke-width:1.67472792;stroke-linecap:round;stroke-linejoin:round;stroke-miterlimit:4;stroke-dasharray:none"
         d="m 632.3,163.3 c 0,0 -19,-0.9 -35.9,2.1"
         inkscape:connector-curvature="0"
         id="path3895-7-5-3" /><path
         style="fill:none;stroke:#040000;stroke-width:1.67472792;stroke-linecap:round;stroke-linejoin:round;stroke-miterlimit:4;stroke-dasharray:none"
         d="m 632.9,169 c 0,0 -33.3,4 -34.3,4.7"
         inkscape:connector-curvature="0"
         id="path3897-4-7-8" /><path
         style="fill:none;stroke:#040000;stroke-width:1.67472792;stroke-linecap:round;stroke-linejoin:round;stroke-miterlimit:4;stroke-dasharray:none"
         d="m 634.2,173.5 -33.6,9.1"
         inkscape:connector-curvature="0"
         id="path3899-7-6-4" /><path
         style="fill:none;stroke:#040000;stroke-width:1.67472792;stroke-linecap:round;stroke-miterlimit:4;stroke-dasharray:none"
         d="m 670.8,156 c 0,0 16.4,-6.6 32.2,-8.9"
         inkscape:connector-curvature="0"
         id="path3895-4-3-2-0" /><path
         style="fill:none;stroke:#040000;stroke-width:1.67472792;stroke-linecap:round;stroke-miterlimit:4;stroke-dasharray:none"
         d="m 671.9,161.7 c 0,0 30.5,-6.2 31.6,-5.9"
         inkscape:connector-curvature="0"
         id="path3897-0-4-7-0" /><path
         style="fill:none;stroke:#040000;stroke-width:1.67472792;stroke-linecap:round;stroke-miterlimit:4;stroke-dasharray:none"
         d="m 672.2,166.4 32.3,-1.5"
         inkscape:connector-curvature="0"
         id="path3899-9-0-0-9" /><g
         style="stroke-width:1.88563013;stroke-miterlimit:4;stroke-dasharray:none"
         transform="matrix(1.0348806,0,0,0.76222869,41.321228,-126.80683)"
         id="g3808-8-3-3"><path
           style="fill:#0f0f0f;stroke:#040000;stroke-width:1.88563013;stroke-linecap:round;stroke-linejoin:round;stroke-miterlimit:4;stroke-dasharray:none"
           d="m 595.2,395.7 c 0,0 13.8,-24.4 -2.1,-21"
           inkscape:connector-curvature="0"
           sodipodi:nodetypes="cc"
           id="path3804-8-9-7" /><path
           style="fill:#0f0f0f;stroke:#040000;stroke-width:1.88563013;stroke-linecap:round;stroke-linejoin:round;stroke-miterlimit:4;stroke-dasharray:none"
           d="m 594.4,374.4 -7.1,1.6 2,-0.4 -2,0.4 c -15.6,3.5 3.3,20.8 3.3,20.8 0,0 2.6,3 4.9,-1.6"
           inkscape:connector-curvature="0"
           sodipodi:nodetypes="cccccc"
           id="path3806-1-9-5" /></g></g><path
       style="fill:#ecda9c;stroke:#000000;stroke-width:5;stroke-linejoin:round"
       inkscape:connector-curvature="0"
       id="path38"
       d="m 409.66036,276.72042 c 47.1,3.1 81.2,67.8 76.2,144.6 -5,76.8 -47.3,136.6 -94.4,133.5 z" /><path
       style="fill:#dd8c56;stroke:#040000;stroke-width:5"
       d="m 671.19751,393.94217 c 0,0 -21.2,-63.2 -60.5,-58.4 -39.3,4.9 -4.9,93.8 46.7,109.5 51.5,15.8 13.8,-51.1 13.8,-51.1 z"
       inkscape:connector-curvature="0"
       id="path4039-5-8"
       transform="translate(-401.92079,168.9837)" /><path
       style="fill:#dd8c56;stroke:#040000;stroke-width:5"
       d="m 742.09751,365.44217 c 0,0 15.1,-64.9 49,-64.1 33.8,0.8 8.6,92.5 -34.7,113.4 -43.3,20.8 -14.3,-49.3 -14.3,-49.3 z"
       inkscape:connector-curvature="0"
       id="path4039-5-8_1_"
       transform="translate(-401.92079,168.9837)" /><path
       style="fill:none;stroke:#040000;stroke-width:5;stroke-linecap:round;stroke-miterlimit:10"
       inkscape:connector-curvature="0"
       id="path46"
       d="m 362.39751,123.34217 c 0,0 19.2,22.6 38.3,-5.6"
       stroke-miterlimit="10"
       transform="translate(-137.95788,138.86418)" /><path
       style="fill:none;stroke:#040000;stroke-width:5;stroke-linecap:round;stroke-miterlimit:10"
       inkscape:connector-curvature="0"
       id="path48"
       d="m 344.09751,129.24217 c 0,0 -17.4,24.7 -38.6,3.8"
       stroke-miterlimit="10"
       transform="translate(-137.95788,138.86418)" /><g
       transform="translate(-125.66037,107.80635)"
       id="レイヤー_3"><g
         id="g51"><g
           id="g53"><path
             style="fill:#040000"
             inkscape:connector-curvature="0"
             id="path55"
             d="m 431.3,111.6 c 7.7,2.8 16.8,3.6 23.4,-2.1 -1.4,-0.4 -2.8,-0.7 -4.2,-1.1 1.2,5.8 -2.3,12 -5,16.9 -2.7,5.1 -5.8,10.1 -7.8,15.6 -0.4,1.2 0.5,2.9 1.7,3.1 7.5,1.3 13.1,-4.5 19.8,-6.7 3,-1 1.7,-5.8 -1.3,-4.8 -5.2,1.7 -11.5,7.7 -17.1,6.7 0.6,1 1.2,2.1 1.7,3.1 4.2,-11.2 15.4,-22.4 12.8,-35.1 -0.4,-2 -2.9,-2.3 -4.2,-1.1 -5.1,4.5 -12.7,2.9 -18.5,0.8 -3,-1.3 -4.3,3.6 -1.3,4.7 z" /></g></g><g
         id="g57"><g
           id="g59"><path
             style="fill:#040000"
             inkscape:connector-curvature="0"
             id="path61"
             d="m 455.6,123.7 c -5.6,0.4 -10.9,-0.9 -16.4,-1.8 -3.2,-0.5 -4.5,4.3 -1.3,4.8 5.9,1 11.7,2.4 17.7,2 3.2,-0.2 3.3,-5.2 0,-5 z" /></g></g><g
         id="g63"><g
           id="g65"><path
             style="fill:#040000"
             inkscape:connector-curvature="0"
             id="path67"
             d="m 457.8,104.6 c 7.7,2.8 16.8,3.6 23.4,-2.1 -1.4,-0.4 -2.8,-0.7 -4.2,-1.1 1.2,5.8 -2.3,12 -5,16.9 -2.7,5.1 -5.8,10.1 -7.8,15.6 -0.4,1.2 0.5,2.9 1.7,3.1 7.5,1.3 13.1,-4.5 19.8,-6.7 3,-1 1.7,-5.8 -1.3,-4.8 -5.2,1.7 -11.5,7.7 -17.1,6.7 0.6,1 1.2,2.1 1.7,3.1 4.2,-11.2 15.4,-22.4 12.8,-35.1 -0.4,-2 -2.9,-2.3 -4.2,-1.1 -5.1,4.5 -12.7,2.9 -18.5,0.8 -3,-1.2 -4.3,3.6 -1.3,4.7 z" /></g></g><g
         id="g69"><g
           id="g71"><path
             style="fill:#040000"
             inkscape:connector-curvature="0"
             id="path73"
             d="m 482.2,116.7 c -5.6,0.4 -10.9,-0.9 -16.4,-1.8 -3.2,-0.5 -4.5,4.3 -1.3,4.8 5.9,1 11.7,2.4 17.7,2 3.2,-0.2 3.2,-5.2 0,-5 z" /></g></g><g
         id="g75"><g
           id="g77"><path
             style="fill:#040000"
             inkscape:connector-curvature="0"
             id="path79"
             d="m 484.4,96.6 c 7.7,2.8 16.8,3.6 23.4,-2.1 -1.4,-0.4 -2.8,-0.7 -4.2,-1.1 1.2,5.8 -2.3,12 -5,16.9 -2.7,5.1 -5.8,10.1 -7.8,15.6 -0.4,1.2 0.5,2.9 1.7,3.1 7.5,1.3 13.1,-4.5 19.8,-6.7 3,-1 1.7,-5.8 -1.3,-4.8 -5.2,1.7 -11.5,7.7 -17.1,6.7 0.6,1 1.2,2.1 1.7,3.1 4.2,-11.2 15.4,-22.4 12.8,-35.1 -0.4,-2 -2.9,-2.3 -4.2,-1.1 -5.1,4.5 -12.7,2.9 -18.5,0.8 -3,-1.3 -4.3,3.6 -1.3,4.7 z" /></g></g><g
         id="g81"><g
           id="g83"><path
             style="fill:#040000"
             inkscape:connector-curvature="0"
             id="path85"
             d="m 508.7,108.7 c -5.6,0.4 -10.9,-0.9 -16.4,-1.8 -3.2,-0.5 -4.5,4.3 -1.3,4.8 5.9,1 11.7,2.4 17.7,2 3.2,-0.2 3.3,-5.2 0,-5 z" /></g></g></g></g></svg>