<?xml version="1.0" encoding="UTF-8" standalone="no"?>
<!-- Generator: Adobe Illustrator 17.1.0, SVG Export Plug-In . SVG Version: 6.00 Build 0)  -->

<svg
   xmlns:dc="http://purl.org/dc/elements/1.1/"
   xmlns:cc="http://creativecommons.org/ns#"
   xmlns:rdf="http://www.w3.org/1999/02/22-rdf-syntax-ns#"
   xmlns:svg="http://www.w3.org/2000/svg"
   xmlns="http://www.w3.org/2000/svg"
   xmlns:sodipodi="http://sodipodi.sourceforge.net/DTD/sodipodi-0.dtd"
   xmlns:inkscape="http://www.inkscape.org/namespaces/inkscape"
   version="1.1"
   x="0px"
   y="0px"
   viewBox="0 0 649.99998 650.00001"
   enable-background="new 0 0 841.9 595.3"
   xml:space="preserve"
   id="svg2"
   inkscape:version="0.92.1 r15371"
   sodipodi:docname="2017-JP-02-q3.svg"
   width="693.33331"
   height="693.33331"><metadata
     id="metadata66"><rdf:RDF><cc:Work
         rdf:about=""><dc:format>image/svg+xml</dc:format><dc:type
           rdf:resource="http://purl.org/dc/dcmitype/StillImage" /><dc:title></dc:title></cc:Work></rdf:RDF></metadata><defs
     id="defs64" /><sodipodi:namedview
     pagecolor="#ffffff"
     bordercolor="#666666"
     borderopacity="1"
     objecttolerance="10"
     gridtolerance="10"
     guidetolerance="10"
     inkscape:pageopacity="0"
     inkscape:pageshadow="2"
     inkscape:window-width="1680"
     inkscape:window-height="987"
     id="namedview62"
     showgrid="false"
     inkscape:zoom="1.1394231"
     inkscape:cx="346.66666"
     inkscape:cy="346.66666"
     inkscape:window-x="-8"
     inkscape:window-y="222"
     inkscape:window-maximized="1"
     inkscape:current-layer="layer3" /><g
     id="レイヤー_1"
     transform="translate(0,54.700012)" /><g
     id="レイヤー_2"
     transform="translate(0,54.700012)"><g
       id="layer3"
       transform="translate(-263.96291,30.119517)"
       inkscape:groupmode="layer"
       inkscape:label="btaro"><path
         id="path4037-5-4"
         inkscape:connector-curvature="0"
         d="m 525.58828,430.53318 c 0,0 -61.5,26.7 -55.8,60.8 5.7,34 92.1,-7.6 106.3,-55.1 14.2,-47.5 -50.5,-5.7 -50.5,-5.7 z"
         style="fill:#dd8c56;stroke:#040000;stroke-width:5.36100006" /><path
         id="path4039-5-8"
         inkscape:connector-curvature="0"
         d="m 643.68828,460.73318 c 0,0 54.9,35.4 44.2,67 -10.7,31.6 -87.2,-21.9 -93.5,-69.6 -6.3,-47.6 49.3,2.6 49.3,2.6 z"
         style="fill:#dd8c56;stroke:#040000;stroke-width:5.36100006" /><path
         id="path4042-1-3"
         sodipodi:nodetypes="cssc"
         inkscape:connector-curvature="0"
         d="m 642.08828,494.83318 c 0,0 233.4,-124.4 147.6,-267.2 -39.6,-66 -177.2,82.1 -136.6,147.4 19.9,55.8 -11,119.8 -11,119.8 z"
         style="fill:#dd8c56;stroke:#040000;stroke-width:5.36100006" /><path
         id="path4016-5-9"
         sodipodi:nodetypes="cccsssc"
         inkscape:connector-curvature="0"
         d="m 601.88828,310.73318 c 0.4,-2.1 -111.4,-86.4 -97.4,60.8 -31,53.8 -3.2,131.6 78.7,118.3 93.5,54 113.5,-56.2 84.4,-92.4 0,0 41.8,-31.1 5.7,-59.7 -9.4,-7.4 -12.1,-19.1 -27.5,-22.3 -23.9,-4.9 -43.9,-4.7 -43.9,-4.7 z"
         style="fill:#dd8c56;stroke:#040000;stroke-width:5.10489988" /><path
         id="path4045-3-52-9"
         sodipodi:nodetypes="cccc"
         inkscape:connector-curvature="0"
         d="m 543.58828,231.23318 c 2.6,-43.6 3.9,-46.6 -24.8,-81.9 -11.6,-11.1 -49.3,-14.1 -26.2,99.6 -6.3,26.6 -7.8,-13.6 16.5,27.2"
         style="fill:#dd8c56;stroke:#040000;stroke-width:5.36100006;stroke-linecap:round" /><path
         id="path4016-7-58-0"
         sodipodi:nodetypes="cssssc"
         inkscape:connector-curvature="0"
         d="m 544.18828,280.43318 c 0,0 -12.8,9.5 -15.6,67.5 -2.5,52.8 -5.1,95.5 39.4,100.5 50.1,5.6 59.3,-17.4 61.4,-85.8 1.5,-48.1 -6.2,-77.5 -21.9,-79.8 -38,-5.5 -63.3,-2.4 -63.3,-2.4 z"
         style="fill:#f4a876" /><g
         id="g3282"
         transform="matrix(2.9855595,0,0,2.9855595,-1284.1938,-336.49479)"><path
           id="path3874-0-0-6"
           sodipodi:nodetypes="cscc"
           inkscape:connector-curvature="0"
           d="m 649.3,166.9 c 0,0 9.5,-17.9 13.1,-6.1 1,3.3 -8.1,8.9 -8.1,8.9 z"
           style="fill:#dd8c56;stroke:#040000;stroke-width:1.67472792;stroke-linecap:round;stroke-linejoin:round;stroke-miterlimit:4;stroke-dasharray:none" /><path
           id="path3874-7-7-2-3"
           sodipodi:nodetypes="cscc"
           inkscape:connector-curvature="0"
           d="m 620.5,160.3 c 0,0 -4.1,-19.6 -11.4,-9.7 -2.1,2.8 5.5,10.8 5.5,10.8 z"
           style="fill:#dd8c56;stroke:#040000;stroke-width:1.67472792;stroke-linecap:round;stroke-linejoin:round;stroke-miterlimit:4;stroke-dasharray:none" /><path
           id="path3801-6-3-0"
           sodipodi:nodetypes="cscccc"
           inkscape:connector-curvature="0"
           d="m 603,182 c 0,0 -2,-28.5 29.8,-24.7 22,2.7 31.5,12 24.2,35 0,0 15.9,31.6 -16.7,35.6 0,0 -16,0.7 -33.2,-5.3 0,-0.1 -29.9,-11.7 -4.1,-40.6 z"
           style="fill:#dd8c56;stroke:#040000;stroke-width:1.67472792;stroke-linecap:round;stroke-linejoin:round;stroke-miterlimit:4;stroke-dasharray:none" /><path
           id="path3830-7-9-8"
           sodipodi:nodetypes="cssc"
           inkscape:connector-curvature="0"
           d="m 615.6,201.8 c 0,0 -1.3,16.8 -0.7,17.7 0.6,0.9 12.6,3 13.6,2 1,-1 4.5,-17 4.5,-17"
           style="fill:#ffffff;stroke:#040000;stroke-width:1.67472792;stroke-linecap:round;stroke-linejoin:round;stroke-miterlimit:4;stroke-dasharray:none" /><path
           id="path3850-83-9-4"
           inkscape:connector-curvature="0"
           d="m 621.3,220.2 c 0,0 3,-18.5 3.3,-18.4"
           style="fill:none;stroke:#040000;stroke-width:1.67472792;stroke-linecap:round;stroke-linejoin:round;stroke-miterlimit:4;stroke-dasharray:none" /><path
           id="path3853-64-7-0"
           sodipodi:nodetypes="csscc"
           inkscape:connector-curvature="0"
           d="m 618.5,179.5 c 0,0 3.5,1.4 4.4,-2.9 0.8,-3.6 0.8,-6.1 -2.6,-6.5 -3.3,-0.4 -3.5,5 -3.5,5 0,0 -0.2,4.1 1.7,4.4 z"
           style="fill:#040000;stroke:#040000;stroke-width:1.67472792;stroke-linecap:round;stroke-linejoin:round;stroke-miterlimit:4;stroke-dasharray:none" /><path
           id="path3853-1-4-0-4"
           sodipodi:nodetypes="csscc"
           inkscape:connector-curvature="0"
           d="m 637.1,173.1 c 0,0 3.9,-1.3 3.3,4 -0.4,3.5 -1.2,5.9 -4.5,5.2 -3.3,-0.7 -1.8,-5.7 -1.8,-5.7 0,0 1.1,-3.8 3,-3.5 z"
           style="fill:#040000;stroke:#040000;stroke-width:1.67472792;stroke-linecap:round;stroke-linejoin:round;stroke-miterlimit:4;stroke-dasharray:none" /><path
           id="path3812-1-3-6"
           sodipodi:nodetypes="cc"
           inkscape:connector-curvature="0"
           d="m 624.6,201.6 c 0,0 -21,13.6 -23.2,-6.6"
           style="fill:#f4a876;stroke:#040000;stroke-width:1.67472792;stroke-linecap:square;stroke-linejoin:round;stroke-miterlimit:4;stroke-dasharray:none" /><path
           id="path3827-9-9-4"
           sodipodi:nodetypes="cc"
           inkscape:connector-curvature="0"
           d="m 626,202.8 c 0,0 18.5,19.9 27.7,1.5"
           style="fill:#f4a876;stroke:#040000;stroke-width:1.67472792;stroke-linecap:square;stroke-linejoin:round;stroke-miterlimit:4;stroke-dasharray:none" /><path
           id="path3977-2-5-8-6"
           sodipodi:nodetypes="ccsc"
           inkscape:connector-curvature="0"
           d="m 601.6,196.3 c 0,0 1,-10.7 8.8,-8.9 0,0 9.2,0.9 11.7,8.5 2.6,8.1 2.3,6.8 2.3,6.8"
           style="fill:#f4a876" /><path
           id="path3977-2-7-5-6-4"
           sodipodi:nodetypes="ccsc"
           inkscape:connector-curvature="0"
           d="m 653,204.6 c 0,0 5.7,-10.5 -9.7,-11.4 0,0 -11,1.4 -13,4 -5.4,6.9 -4.9,5.6 -4.9,5.6"
           style="fill:#f4a876" /><path
           id="path3895-7-5-3"
           inkscape:connector-curvature="0"
           d="m 647,190.4 c 0,0 19,-0.9 35.9,2.1"
           style="fill:none;stroke:#040000;stroke-width:1.67472792;stroke-linecap:round;stroke-linejoin:round;stroke-miterlimit:4;stroke-dasharray:none" /><path
           id="path3897-4-7-8"
           inkscape:connector-curvature="0"
           d="m 646.3,196.1 c 0,0 33.3,4 34.3,4.7"
           style="fill:none;stroke:#040000;stroke-width:1.67472792;stroke-linecap:round;stroke-linejoin:round;stroke-miterlimit:4;stroke-dasharray:none" /><path
           id="path3899-7-6-4"
           inkscape:connector-curvature="0"
           d="m 645,200.6 33.6,9.1"
           style="fill:none;stroke:#040000;stroke-width:1.67472792;stroke-linecap:round;stroke-linejoin:round;stroke-miterlimit:4;stroke-dasharray:none" /><path
           id="path3895-4-3-2-0"
           inkscape:connector-curvature="0"
           d="m 608.5,183.1 c 0,0 -16.4,-6.6 -32.2,-8.9"
           style="fill:none;stroke:#040000;stroke-width:1.67472792;stroke-linecap:round;stroke-miterlimit:4;stroke-dasharray:none" /><path
           id="path3897-0-4-7-0"
           inkscape:connector-curvature="0"
           d="m 607.3,188.7 c 0,0 -30.5,-6.2 -31.6,-5.9"
           style="fill:none;stroke:#040000;stroke-width:1.67472792;stroke-linecap:round;stroke-miterlimit:4;stroke-dasharray:none" /><path
           id="path3899-9-0-0-9"
           inkscape:connector-curvature="0"
           d="M 607.1,193.5 574.8,192"
           style="fill:none;stroke:#040000;stroke-width:1.67472792;stroke-linecap:round;stroke-miterlimit:4;stroke-dasharray:none" /><g
           id="g3808-8-3-3"
           transform="matrix(1.0348806,0,0,0.76222869,41.321228,-126.80683)"
           style="stroke-width:1.88563013;stroke-miterlimit:4;stroke-dasharray:none"><path
             id="path3804-8-9-7"
             sodipodi:nodetypes="cc"
             inkscape:connector-curvature="0"
             d="m 561.1,431.2 c 0,0 -13.8,-24.4 2.1,-21"
             style="fill:#0f0f0f;stroke:#040000;stroke-width:1.88563013;stroke-linecap:round;stroke-linejoin:round;stroke-miterlimit:4;stroke-dasharray:none" /><path
             id="path3806-1-9-5"
             sodipodi:nodetypes="cccccc"
             inkscape:connector-curvature="0"
             d="m 561.8,409.9 7.1,1.6 -2,-0.4 2,0.4 c 15.6,3.5 -3.3,20.8 -3.3,20.8 0,0 -2.6,3 -4.9,-1.6"
             style="fill:#0f0f0f;stroke:#040000;stroke-width:1.88563013;stroke-linecap:round;stroke-linejoin:round;stroke-miterlimit:4;stroke-dasharray:none" /></g></g><g
         id="g4118-3-9"
         transform="matrix(-2.1285263,-0.26042345,-0.26042345,2.1285263,1211.7708,-842.41144)"><path
           sodipodi:nodetypes="cccccc"
           inkscape:connector-curvature="0"
           d="M 274.5,494.2 C 273.1,468 270.19044,424.00478 268.59044,408.40478 268.39044,406.30478 264,406.2 263.1,407.3 c -0.9,1.1 -0.5,6.1 -0.5,7.1 l 5.1,80.2 z"
           id="path37"
           style="fill:#784421;stroke:#000000;stroke-width:2.33165622;stroke-miterlimit:4;stroke-dasharray:none" /><path
           sodipodi:nodetypes="ccccc"
           inkscape:connector-curvature="0"
           d="m 267.8,495.5 1.5,23.5 c 0,0 4.1,3.1 6.4,0 0,0 -0.5,-9.4 -1.2,-23.9 z"
           id="path39"
           style="fill:#2c2d2d;stroke:#040000;stroke-width:2.33165622;stroke-linecap:round;stroke-linejoin:round;stroke-miterlimit:4;stroke-dasharray:none" /><path
           id="path4049-49-6-0"
           inkscape:transform-center-x="-3.8627751"
           inkscape:transform-center-y="-7.0343703"
           sodipodi:nodetypes="ccscc"
           inkscape:connector-curvature="0"
           d="m 278.5,508.1 -2.1,2.6 c 0,0 -5.3,0 -5.7,-1.6 -0.4,-1.5 6.4,-2.7 6.4,-2.7 z"
           style="fill:#ffffff;stroke:#040000;stroke-width:1.79999995;stroke-linecap:round;stroke-linejoin:round" /><path
           id="path4049-1-90-5-5"
           inkscape:transform-center-x="5.4775435"
           inkscape:transform-center-y="-5.8562951"
           sodipodi:nodetypes="ccscc"
           inkscape:connector-curvature="0"
           d="m 278.7,504 -1.3,2.7 c 0,0 -5.7,1 -6.7,-0.2 -1,-1.3 5.9,-3.7 5.9,-3.7 z"
           style="fill:#ffffff;stroke:#040000;stroke-width:1.79999995;stroke-linecap:round;stroke-linejoin:round" /><path
           id="path4049-1-2-3-58-2"
           inkscape:transform-center-x="6.5241965"
           inkscape:transform-center-y="6.5182001"
           sodipodi:nodetypes="ccscc"
           inkscape:connector-curvature="0"
           d="m 275.6,497 -1.2,2.8 c 0,0 -5.8,1.8 -6.9,0.7 -1.1,-1.1 5.9,-4.4 5.9,-4.4 z"
           style="fill:#ffffff;stroke:#040000;stroke-width:1.79999995;stroke-linecap:round;stroke-linejoin:round" /><path
           id="path4049-1-6-0-1-2"
           inkscape:transform-center-x="7.6593808"
           inkscape:transform-center-y="1.4316544"
           sodipodi:nodetypes="ccscc"
           inkscape:connector-curvature="0"
           d="m 277.5,500.3 -1.4,2.7 c 0,0 -5.9,1.5 -6.9,0.3 -1.1,-1.1 6.1,-4.1 6.1,-4.1 z"
           style="fill:#ffffff;stroke:#040000;stroke-width:1.79999995;stroke-linecap:round;stroke-linejoin:round" /></g><path
         sodipodi:nodetypes="cccccc"
         inkscape:connector-curvature="0"
         d="m 569.80153,399.66344 c -56.2,0.1 -202.30017,-0.20785 -235.80018,-1.70785 -4.5,-0.2 -1.59513,-12.04049 0.60487,-13.94049 2.2,-2 13.1,-1.8 15.2,-1.8 l 221.44366,1.6 z"
         id="path45"
         style="fill:#784421;stroke:#000000;stroke-width:5" /></g><g
       id="layer6"
       transform="translate(-263.96291,30.119517)"
       inkscape:groupmode="layer"
       inkscape:label="waku" /><path
       id="path4045-3-52"
       sodipodi:nodetypes="cccc"
       inkscape:connector-curvature="0"
       d="m 379.90731,429.6927 c -34.9,20 -59.8,22 -78.4,18.5 -47.2,3.9 -31.9,-38.9 -4.2,-39 19.2,-14.3 21.5,-42.7 66.9,-35.1"
       style="fill:#dd8c56;stroke:#040000;stroke-width:5.36100006;stroke-linecap:round" /></g><g
     id="レイヤー_3"
     transform="translate(0,54.700012)" /></svg>