<?xml version="1.0" encoding="UTF-8" standalone="no"?>
<!-- Generator: Adobe Illustrator 17.1.0, SVG Export Plug-In . SVG Version: 6.00 Build 0)  -->

<svg
   xmlns:dc="http://purl.org/dc/elements/1.1/"
   xmlns:cc="http://creativecommons.org/ns#"
   xmlns:rdf="http://www.w3.org/1999/02/22-rdf-syntax-ns#"
   xmlns:svg="http://www.w3.org/2000/svg"
   xmlns="http://www.w3.org/2000/svg"
   xmlns:sodipodi="http://sodipodi.sourceforge.net/DTD/sodipodi-0.dtd"
   xmlns:inkscape="http://www.inkscape.org/namespaces/inkscape"
   version="1.1"
   x="0px"
   y="0px"
   viewBox="0 0 649.99998 650.00001"
   enable-background="new 0 0 841.9 595.3"
   xml:space="preserve"
   id="svg2"
   inkscape:version="0.92.1 r15371"
   sodipodi:docname="2017-JP-02-q6.svg"
   width="693.33331"
   height="693.33331"><metadata
     id="metadata60"><rdf:RDF><cc:Work
         rdf:about=""><dc:format>image/svg+xml</dc:format><dc:type
           rdf:resource="http://purl.org/dc/dcmitype/StillImage" /><dc:title></dc:title></cc:Work></rdf:RDF></metadata><defs
     id="defs58" /><sodipodi:namedview
     pagecolor="#ffffff"
     bordercolor="#666666"
     borderopacity="1"
     objecttolerance="10"
     gridtolerance="10"
     guidetolerance="10"
     inkscape:pageopacity="0"
     inkscape:pageshadow="2"
     inkscape:window-width="1680"
     inkscape:window-height="987"
     id="namedview56"
     showgrid="false"
     inkscape:zoom="0.58197117"
     inkscape:cx="465.13458"
     inkscape:cy="356.2951"
     inkscape:window-x="-8"
     inkscape:window-y="222"
     inkscape:window-maximized="1"
     inkscape:current-layer="g4210" /><g
     id="レイヤー_1"
     transform="translate(0,54.700012)" /><g
     id="レイヤー_2"
     transform="translate(0,54.700012)"><g
       id="layer3"
       transform="translate(-263.96291,30.119517)"
       inkscape:groupmode="layer"
       inkscape:label="btaro" /><g
       id="layer6"
       transform="translate(-263.96291,30.119517)"
       inkscape:groupmode="layer"
       inkscape:label="waku" /><g
       id="g4210"
       transform="translate(35.075885,-55.311973)"><path
         style="fill:#dd8c56;stroke:#040000;stroke-width:5.36100006"
         d="m 481.32318,420.11939 c 0,0 -61.5,26.7 -55.8,60.8 5.7,34 92.1,-7.6 106.3,-55.1 14.2,-47.4 -50.5,-5.7 -50.5,-5.7 z"
         inkscape:connector-curvature="0"
         id="path4037-5-4"
         transform="translate(-263.96291,30.119517)" /><path
         style="fill:#dd8c56;stroke:#040000;stroke-width:5.36100006"
         d="m 606.02318,457.21939 c 0,0 54.9,35.4 44.2,67 -10.7,31.6 -87.2,-21.9 -93.5,-69.6 -6.3,-47.6 49.3,2.6 49.3,2.6 z"
         inkscape:connector-curvature="0"
         id="path4039-5-8"
         transform="translate(-263.96291,30.119517)" /><path
         style="fill:#dd8c56;stroke:#040000;stroke-width:5.36100006"
         d="m 597.82318,484.51939 c 0,0 233.4,-124.4 147.6,-267.2 -39.6,-66 -177.2,82.1 -136.6,147.4 19.9,55.7 -11,119.8 -11,119.8 z"
         inkscape:connector-curvature="0"
         sodipodi:nodetypes="cssc"
         id="path4042-1-3"
         transform="translate(-263.96291,30.119517)" /><path
         style="fill:#dd8c56;stroke:#040000;stroke-width:5.10489988"
         d="m 557.62318,300.41939 c 0.4,-2.1 -111.4,-86.4 -97.4,60.8 -31,53.8 -3.2,131.6 78.7,118.3 93.5,54 113.5,-56.2 84.4,-92.4 0,0 41.8,-31.1 5.7,-59.7 -9.4,-7.4 -12.1,-19.1 -27.5,-22.3 -23.9,-5 -43.9,-4.7 -43.9,-4.7 z"
         inkscape:connector-curvature="0"
         sodipodi:nodetypes="cccsssc"
         id="path4016-5-9"
         transform="translate(-263.96291,30.119517)" /><path
         style="fill:#dd8c56;stroke:#040000;stroke-width:5.36100006;stroke-linecap:round"
         d="m 499.32318,220.91939 c 2.6,-43.6 3.9,-46.6 -24.8,-81.9 -11.6,-11.1 -49.3,-14.1 -26.2,99.6 -6.3,26.6 -7.8,-13.6 16.5,27.2"
         inkscape:connector-curvature="0"
         sodipodi:nodetypes="cccc"
         id="path4045-3-52-9"
         transform="translate(-263.96291,30.119517)" /><path
         style="fill:#f4a876"
         d="m 500.02318,270.11939 c 0,0 -12.8,9.5 -15.6,67.5 -2.5,52.8 -5.1,95.5 39.4,100.5 50.1,5.6 59.3,-17.4 61.4,-85.8 1.5,-48.1 -6.2,-77.5 -21.9,-79.8 -38.1,-5.6 -63.3,-2.4 -63.3,-2.4 z"
         inkscape:connector-curvature="0"
         sodipodi:nodetypes="cssssc"
         id="path4016-7-58-0"
         transform="translate(-263.96291,30.119517)" /><g
         transform="matrix(2.9855595,0,0,2.9855595,-1594.945,-283.60845)"
         id="g3282"><path
           style="fill:#dd8c56;stroke:#040000;stroke-width:1.67472792;stroke-linecap:round;stroke-linejoin:round;stroke-miterlimit:4;stroke-dasharray:none"
           d="m 650.14041,155.85462 c 0,0 9.5,-17.9 13.1,-6.1 1,3.3 -8.1,8.9 -8.1,8.9 z"
           inkscape:connector-curvature="0"
           sodipodi:nodetypes="cscc"
           id="path3874-0-0-6" /><path
           style="fill:#dd8c56;stroke:#040000;stroke-width:5;stroke-linecap:round;stroke-linejoin:round"
           d="m 621.34041,149.15462 c 0,0 -4.1,-19.6 -11.4,-9.7 -2.1,2.8 5.5,10.8 5.5,10.8 z"
           inkscape:connector-curvature="0"
           sodipodi:nodetypes="cscc"
           id="path3874-7-7-2-3" /><path
           style="fill:#dd8c56;stroke:#040000;stroke-width:1.67472792;stroke-linecap:round;stroke-linejoin:round;stroke-miterlimit:4;stroke-dasharray:none"
           d="m 603.84041,170.95462 c 0,0 -2,-28.5 29.8,-24.7 22,2.7 31.5,12 24.2,35 0,0 15.9,31.6 -16.7,35.6 0,0 -16,0.7 -33.2,-5.3 0,0 -29.9,-11.7 -4.1,-40.6 z"
           inkscape:connector-curvature="0"
           sodipodi:nodetypes="cscccc"
           id="path3801-6-3-0" /><path
           style="fill:#ffffff;stroke:#040000;stroke-width:1.67472792;stroke-linecap:round;stroke-linejoin:round;stroke-miterlimit:4;stroke-dasharray:none"
           d="m 616.54041,190.65462 c 0,0 -1.3,16.8 -0.7,17.7 0.6,0.9 12.6,3 13.6,2 1,-1 4.5,-17 4.5,-17"
           inkscape:connector-curvature="0"
           sodipodi:nodetypes="cssc"
           id="path3830-7-9-8" /><path
           style="fill:none;stroke:#040000;stroke-width:1.67472792;stroke-linecap:round;stroke-linejoin:round;stroke-miterlimit:4;stroke-dasharray:none"
           d="m 622.14041,209.15462 c 0,0 3,-18.5 3.3,-18.4"
           inkscape:connector-curvature="0"
           id="path3850-83-9-4" /><path
           style="fill:#040000;stroke:#040000;stroke-width:1.67472792;stroke-linecap:round;stroke-linejoin:round;stroke-miterlimit:4;stroke-dasharray:none"
           d="m 619.34041,168.35462 c 0,0 3.5,1.4 4.4,-2.9 0.8,-3.6 0.8,-6.1 -2.6,-6.5 -3.3,-0.4 -3.5,5 -3.5,5 0,0 -0.1,4.1 1.7,4.4 z"
           inkscape:connector-curvature="0"
           sodipodi:nodetypes="csscc"
           id="path3853-64-7-0" /><path
           style="fill:#040000;stroke:#040000;stroke-width:1.67472792;stroke-linecap:round;stroke-linejoin:round;stroke-miterlimit:4;stroke-dasharray:none"
           d="m 637.94041,162.05462 c 0,0 3.9,-1.3 3.3,4 -0.4,3.5 -1.2,5.9 -4.5,5.2 -3.3,-0.7 -1.8,-5.7 -1.8,-5.7 0,0 1.1,-3.8 3,-3.5 z"
           inkscape:connector-curvature="0"
           sodipodi:nodetypes="csscc"
           id="path3853-1-4-0-4" /><path
           style="fill:#f4a876;stroke:#040000;stroke-width:1.67472792;stroke-linecap:square;stroke-linejoin:round;stroke-miterlimit:4;stroke-dasharray:none"
           d="m 625.44041,190.45462 c 0,0 -21,13.6 -23.2,-6.6"
           inkscape:connector-curvature="0"
           sodipodi:nodetypes="cc"
           id="path3812-1-3-6" /><path
           style="fill:#f4a876;stroke:#040000;stroke-width:1.67472792;stroke-linecap:square;stroke-linejoin:round;stroke-miterlimit:4;stroke-dasharray:none"
           d="m 626.84041,191.75462 c 0,0 18.5,19.9 27.7,1.5"
           inkscape:connector-curvature="0"
           sodipodi:nodetypes="cc"
           id="path3827-9-9-4" /><path
           style="fill:#f4a876"
           d="m 602.44041,185.15462 c 0,0 1,-10.7 8.8,-8.9 0,0 9.2,0.9 11.7,8.5 2.6,8.1 2.3,6.8 2.3,6.8"
           inkscape:connector-curvature="0"
           sodipodi:nodetypes="ccsc"
           id="path3977-2-5-8-6" /><path
           style="fill:#f4a876"
           d="m 653.84041,193.45462 c 0,0 5.7,-10.5 -9.7,-11.4 0,0 -11,1.4 -13,4 -5.4,6.9 -4.9,5.6 -4.9,5.6"
           inkscape:connector-curvature="0"
           sodipodi:nodetypes="ccsc"
           id="path3977-2-7-5-6-4" /><path
           style="fill:none;stroke:#040000;stroke-width:1.67472792;stroke-linecap:round;stroke-linejoin:round;stroke-miterlimit:4;stroke-dasharray:none"
           d="m 647.84041,179.25462 c 0,0 19,-0.9 35.9,2.1"
           inkscape:connector-curvature="0"
           id="path3895-7-5-3" /><path
           style="fill:none;stroke:#040000;stroke-width:1.67472792;stroke-linecap:round;stroke-linejoin:round;stroke-miterlimit:4;stroke-dasharray:none"
           d="m 647.14041,184.95462 c 0,0 33.3,4 34.3,4.7"
           inkscape:connector-curvature="0"
           id="path3897-4-7-8" /><path
           style="fill:none;stroke:#040000;stroke-width:1.67472792;stroke-linecap:round;stroke-linejoin:round;stroke-miterlimit:4;stroke-dasharray:none"
           d="m 645.84041,189.55462 33.6,9.1"
           inkscape:connector-curvature="0"
           id="path3899-7-6-4" /><path
           style="fill:none;stroke:#040000;stroke-width:1.67472792;stroke-linecap:round;stroke-miterlimit:4;stroke-dasharray:none"
           d="m 609.34041,172.05462 c 0,0 -16.4,-6.6 -32.2,-8.9"
           inkscape:connector-curvature="0"
           id="path3895-4-3-2-0" /><path
           style="fill:none;stroke:#040000;stroke-width:1.67472792;stroke-linecap:round;stroke-miterlimit:4;stroke-dasharray:none"
           d="m 608.14041,177.65462 c 0,0 -30.5,-6.2 -31.6,-5.9"
           inkscape:connector-curvature="0"
           id="path3897-0-4-7-0" /><path
           style="fill:none;stroke:#040000;stroke-width:1.67472792;stroke-linecap:round;stroke-miterlimit:4;stroke-dasharray:none"
           d="m 607.94041,182.35462 -32.3,-1.5"
           inkscape:connector-curvature="0"
           id="path3899-9-0-0-9" /><g
           style="stroke-width:1.88563013;stroke-miterlimit:4;stroke-dasharray:none"
           transform="matrix(1.0348806,0,0,0.76222869,6.5616386,-102.95221)"
           id="g3808-8-3-3"><path
             style="fill:#0f0f0f;stroke:#040000;stroke-width:1.88563013;stroke-linecap:round;stroke-linejoin:round;stroke-miterlimit:4;stroke-dasharray:none"
             d="m 595.5,385.4 c 0,0 -13.8,-24.4 2.1,-21"
             inkscape:connector-curvature="0"
             sodipodi:nodetypes="cc"
             id="path3804-8-9-7" /><path
             style="fill:#0f0f0f;stroke:#040000;stroke-width:1.88563013;stroke-linecap:round;stroke-linejoin:round;stroke-miterlimit:4;stroke-dasharray:none"
             d="m 596.3,364.1 7.1,1.6 -2,-0.4 2,0.4 c 15.6,3.5 -3.3,20.8 -3.3,20.8 0,0 -2.6,3 -4.9,-1.6"
             inkscape:connector-curvature="0"
             sodipodi:nodetypes="cccccc"
             id="path3806-1-9-5" /></g></g><path
         style="fill:#ecda9c;stroke:#000000;stroke-width:5"
         d="m 430.72318,146.61939 62.5,-0.5 c 0,0 6.7,-4.9 0.2,-9.8 l -65.6,1.1 c -0.1,-0.1 -0.2,6.5 2.9,9.2 z"
         inkscape:connector-curvature="0"
         sodipodi:nodetypes="ccccc"
         id="path4042-17-8"
         transform="translate(-263.96291,30.119517)" /><g
         transform="matrix(-2.1285263,-0.26042345,-0.26042345,2.1285263,797.24279,-718.30571)"
         id="g4118-3-9"><path
           style="fill:#ffffff;stroke:#040000;stroke-width:1.79999995;stroke-linecap:round;stroke-linejoin:round"
           d="m 233.8,442.8 1.7,2.9 c 0,0 -1.9,4.9 -3.5,4.8 -1.6,-0.1 -0.3,-7 -0.3,-7 z"
           inkscape:connector-curvature="0"
           sodipodi:nodetypes="ccscc"
           inkscape:transform-center-y="-7.0343703"
           inkscape:transform-center-x="-3.8627751"
           id="path4049-49-6-0" /><path
           style="fill:#ffffff;stroke:#040000;stroke-width:1.79999995;stroke-linecap:round;stroke-linejoin:round"
           d="m 230.1,441.1 2.1,2.2 c 0,0 -1,5.7 -2.6,6.2 -1.5,0.5 -1.4,-6.8 -1.4,-6.8 z"
           inkscape:connector-curvature="0"
           sodipodi:nodetypes="ccscc"
           inkscape:transform-center-y="-5.8562951"
           inkscape:transform-center-x="5.4775435"
           id="path4049-1-90-5-5" /><path
           style="fill:#ffffff;stroke:#040000;stroke-width:1.79999995;stroke-linecap:round;stroke-linejoin:round"
           d="m 222.4,441.5 2.2,2.1 c 0,0 -0.3,6 -1.7,6.7 -1.4,0.7 -2.1,-7.1 -2.1,-7.1 z"
           inkscape:connector-curvature="0"
           sodipodi:nodetypes="ccscc"
           inkscape:transform-center-y="6.5182001"
           inkscape:transform-center-x="6.5241965"
           id="path4049-1-2-3-58-2" /><path
           style="fill:#ffffff;stroke:#040000;stroke-width:1.79999995;stroke-linecap:round;stroke-linejoin:round"
           d="m 226.2,440.9 2.1,2.3 c 0,0 -0.7,6 -2.1,6.6 -1.4,0.6 -1.7,-7.2 -1.7,-7.2 z"
           inkscape:connector-curvature="0"
           sodipodi:nodetypes="ccscc"
           inkscape:transform-center-y="1.4316544"
           inkscape:transform-center-x="7.6593808"
           id="path4049-1-6-0-1-2" /></g><path
         style="fill:#ecda9c;stroke:#000000;stroke-width:5;stroke-linejoin:round"
         inkscape:connector-curvature="0"
         id="path42"
         d="m 606.32318,137.51939 c -0.5,-47.200002 -63.4,-84.800002 -140.3,-83.900002 -76.9,0.9 -138.9,39.8 -138.4,87.000002 z"
         transform="translate(-263.96291,30.119517)" /><g
         transform="translate(33.825428,403.74059)"
         id="g3089"><path
           inkscape:connector-curvature="0"
           style="fill:#784421;fill-opacity:1;fill-rule:nonzero;stroke:#000000;stroke-width:4.99606276px;stroke-linecap:butt;stroke-linejoin:miter;stroke-miterlimit:4;stroke-dasharray:none;stroke-opacity:1"
           d="M 239.88188,19.948819 C 183.68503,20.055118 38.870078,18.425197 5.3503936,16.901575 0.85039368,16.72441 2.4803149,6.2007875 4.6771652,4.3228347 6.8740156,2.3031496 17.787401,2.5157481 19.877952,2.5157481 L 241.33464,4.1102363 Z"
           id="path3091" /></g><path
         style="fill:#dd8c56;stroke:#040000;stroke-width:5.36100006;stroke-linecap:round"
         d="m 359.04449,415.43906 c -34.9,20 -59.8,22 -78.4,18.5 -47.2,3.9 -31.9,-38.9 -4.2,-39 19.2,-14.3 21.5,-42.7 66.9,-35.1"
         inkscape:connector-curvature="0"
         sodipodi:nodetypes="cccc"
         id="path4045-3-52" /></g></g><g
     id="レイヤー_3"
     transform="translate(0,54.700012)" /></svg>