<?xml version="1.0" encoding="UTF-8" standalone="no"?>
<!-- Generator: Adobe Illustrator 17.1.0, SVG Export Plug-In . SVG Version: 6.00 Build 0)  -->

<svg
   xmlns:dc="http://purl.org/dc/elements/1.1/"
   xmlns:cc="http://creativecommons.org/ns#"
   xmlns:rdf="http://www.w3.org/1999/02/22-rdf-syntax-ns#"
   xmlns:svg="http://www.w3.org/2000/svg"
   xmlns="http://www.w3.org/2000/svg"
   xmlns:sodipodi="http://sodipodi.sourceforge.net/DTD/sodipodi-0.dtd"
   xmlns:inkscape="http://www.inkscape.org/namespaces/inkscape"
   version="1.1"
   x="0px"
   y="0px"
   viewBox="0 0 649.99998 650.00001"
   enable-background="new 0 0 841.9 595.3"
   xml:space="preserve"
   id="svg2"
   inkscape:version="0.92.1 r15371"
   sodipodi:docname="2017-JP-02-q7.svg"
   width="693.33331"
   height="693.33331"><metadata
     id="metadata53"><rdf:RDF><cc:Work
         rdf:about=""><dc:format>image/svg+xml</dc:format><dc:type
           rdf:resource="http://purl.org/dc/dcmitype/StillImage" /><dc:title></dc:title></cc:Work></rdf:RDF></metadata><defs
     id="defs51" /><sodipodi:namedview
     pagecolor="#ffffff"
     bordercolor="#666666"
     borderopacity="1"
     objecttolerance="10"
     gridtolerance="10"
     guidetolerance="10"
     inkscape:pageopacity="0"
     inkscape:pageshadow="2"
     inkscape:window-width="1680"
     inkscape:window-height="987"
     id="namedview49"
     showgrid="false"
     inkscape:zoom="1.1394231"
     inkscape:cx="347.06286"
     inkscape:cy="348.61794"
     inkscape:window-x="-8"
     inkscape:window-y="222"
     inkscape:window-maximized="1"
     inkscape:current-layer="レイヤー_2" /><g
     id="レイヤー_1"
     transform="translate(0,54.700017)" /><g
     id="レイヤー_2"
     transform="translate(0,54.700017)"><g
       id="layer6"
       transform="translate(-263.96291,30.119517)"
       inkscape:groupmode="layer"
       inkscape:label="waku" /><g
       id="layer3"
       transform="translate(-263.96291,30.119517)"
       inkscape:groupmode="layer"
       inkscape:label="btaro"><g
         id="g4174"
         transform="translate(17.757349,-35.514698)"><path
           style="fill:#dd8c56;stroke:#040000;stroke-width:5.36100006"
           d="m 690.85481,402.35743 c 0,0 65,16.7 64.7,51.2 -0.2,34.5 -92.1,7 -113.6,-37.6 -21.6,-44.6 48.9,-13.6 48.9,-13.6 z"
           inkscape:connector-curvature="0"
           id="path4037-5-4" /><path
           style="fill:#dd8c56;stroke:#040000;stroke-width:5.47359991"
           d="m 532.65481,444.75743 c 0,0 -44.9,49.2 -25.1,76.6 19.8,27.4 81.2,-45.3 73.8,-92.8 -7.3,-47.5 -48.7,16.2 -48.7,16.2 z"
           inkscape:connector-curvature="0"
           id="path4039-5-8" /><path
           style="fill:#dd8c56;stroke:#040000;stroke-width:5.36100006"
           d="m 571.75481,448.55743 c 0,0 -262,-36.4 -230.6,-200.1 14.5,-75.6 194.7,16.1 179,91.4 0.5,59.2 51.6,108.7 51.6,108.7 z"
           inkscape:connector-curvature="0"
           sodipodi:nodetypes="cssc"
           id="path4042-1-3" /><path
           style="fill:#dd8c56;stroke:#040000;stroke-width:5.10489988"
           d="m 542.15481,282.15743 c -0.4,-2.1 111.4,-86.4 97.4,60.8 31,53.8 58,121.5 -23.8,108.2 -82.1,35.4 -113.3,-35.5 -104.5,-85 0,0 -38.9,-37.5 -2.8,-66.1 9.4,-7.4 -25.6,-10 -10.2,-13.2 23.9,-4.9 43.9,-4.7 43.9,-4.7 z"
           inkscape:connector-curvature="0"
           sodipodi:nodetypes="cccsssc"
           id="path4016-5-9" /><path
           style="fill:#ffffff;stroke:#000000;stroke-width:5"
           inkscape:connector-curvature="0"
           id="path12"
           d="m 623.85481,263.05743 c 0,0 7.7,57.1 14.2,62.1 7.8,6 1.5,-59.6 -2,-64.3 -3.5,-4.7 -12.2,2.2 -12.2,2.2 z" /><path
           style="fill:#dd8c56;stroke:#040000;stroke-width:5.36100006;stroke-linecap:round"
           d="m 600.45481,202.65743 c -2.6,-43.6 -3.9,-46.6 24.8,-81.9 11.6,-11.1 49.3,-14.1 26.2,99.6 6.3,26.6 7.8,-13.6 -16.5,27.2"
           inkscape:connector-curvature="0"
           sodipodi:nodetypes="cccc"
           id="path4045-3-52-9" /><path
           style="fill:#f4a876"
           d="m 619.55481,246.75743 c 0,0 14.5,6.8 28.6,63.1 12.8,51.2 23.8,92.6 -18.8,106.3 -42.9,13.7 -58.3,-1.4 -72.1,-52.2 -1.7,-6.1 13.3,-17.9 11.6,-25 -3.8,-16.3 -8.3,-24.9 0,-33.7 15.6,-16.5 36.6,-20.1 46.3,-23.6 36.2,-12.9 4.4,-34.9 4.4,-34.9 z"
           inkscape:connector-curvature="0"
           sodipodi:nodetypes="cssssc"
           id="path4016-7-58-0" /><g
           transform="matrix(2.9855595,0,0,2.9855595,-1392.0273,-281.17054)"
           id="g3282"><path
             style="fill:#dd8c56;stroke:#040000;stroke-width:1.67472792;stroke-linecap:round;stroke-linejoin:round;stroke-miterlimit:4;stroke-dasharray:none"
             d="m 630.3,138.8 c 0,0 -9.5,-17.9 -13.1,-6.1 -1,3.3 8.1,8.9 8.1,8.9 z"
             inkscape:connector-curvature="0"
             sodipodi:nodetypes="cscc"
             id="path3874-0-0-6" /><path
             style="fill:#dd8c56;stroke:#040000;stroke-width:5;stroke-linecap:round;stroke-linejoin:round"
             d="m 659.1,132.2 c 0,0 4.1,-19.6 11.4,-9.7 2.1,2.8 -5.5,10.8 -5.5,10.8 z"
             inkscape:connector-curvature="0"
             sodipodi:nodetypes="cscc"
             id="path3874-7-7-2-3" /><path
             style="fill:#dd8c56;stroke:#040000;stroke-width:1.67472792;stroke-linecap:round;stroke-linejoin:round;stroke-miterlimit:4;stroke-dasharray:none"
             d="m 676.6,153.9 c 0,0 2,-28.5 -29.8,-24.7 -22,2.7 -31.5,12 -24.2,35 0,0 -15.9,31.6 16.7,35.6 0,0 16,0.7 33.2,-5.3 0,-0.1 29.9,-11.7 4.1,-40.6 z"
             inkscape:connector-curvature="0"
             sodipodi:nodetypes="cscccc"
             id="path3801-6-3-0" /><path
             style="fill:#ffffff;stroke:#040000;stroke-width:1.67472792;stroke-linecap:round;stroke-linejoin:round;stroke-miterlimit:4;stroke-dasharray:none"
             d="m 663.9,173.7 c 0,0 1.3,16.8 0.7,17.7 -0.6,0.9 -12.6,3 -13.6,2 -1,-1 -4.5,-17 -4.5,-17"
             inkscape:connector-curvature="0"
             sodipodi:nodetypes="cssc"
             id="path3830-7-9-8" /><path
             style="fill:none;stroke:#040000;stroke-width:1.67472792;stroke-linecap:round;stroke-linejoin:round;stroke-miterlimit:4;stroke-dasharray:none"
             d="m 658.3,192.1 c 0,0 -3,-18.5 -3.3,-18.4"
             inkscape:connector-curvature="0"
             id="path3850-83-9-4" /><path
             style="fill:#040000;stroke:#040000;stroke-width:1.67472792;stroke-linecap:round;stroke-linejoin:round;stroke-miterlimit:4;stroke-dasharray:none"
             d="m 661.4,151.4 c 0,0 -3.5,1.4 -4.4,-2.9 -0.8,-3.6 -0.8,-6.1 2.6,-6.5 3.3,-0.4 3.5,5 3.5,5 0,0 0.2,4.1 -1.7,4.4 z"
             inkscape:connector-curvature="0"
             sodipodi:nodetypes="csscc"
             id="path3853-64-7-0" /><path
             style="fill:#040000;stroke:#040000;stroke-width:1.67472792;stroke-linecap:round;stroke-linejoin:round;stroke-miterlimit:4;stroke-dasharray:none"
             d="m 642.9,145 c 0,0 -3.9,-1.3 -3.3,4 0.4,3.5 1.2,5.9 4.5,5.2 3.3,-0.7 1.8,-5.7 1.8,-5.7 0,0 -1.2,-3.8 -3,-3.5 z"
             inkscape:connector-curvature="0"
             sodipodi:nodetypes="csscc"
             id="path3853-1-4-0-4" /><path
             style="fill:#f4a876;stroke:#040000;stroke-width:1.67472792;stroke-linecap:square;stroke-linejoin:round;stroke-miterlimit:4;stroke-dasharray:none"
             d="m 655,173.5 c 0,0 21,13.6 23.2,-6.6"
             inkscape:connector-curvature="0"
             sodipodi:nodetypes="cc"
             id="path3812-1-3-6" /><path
             style="fill:#f4a876;stroke:#040000;stroke-width:1.67472792;stroke-linecap:square;stroke-linejoin:round;stroke-miterlimit:4;stroke-dasharray:none"
             d="m 653.6,174.7 c 0,0 -18.5,19.9 -27.7,1.5"
             inkscape:connector-curvature="0"
             sodipodi:nodetypes="cc"
             id="path3827-9-9-4" /><path
             style="fill:#f4a876"
             d="m 678,168.2 c 0,0 -1,-10.7 -8.8,-8.9 0,0 -9.2,0.9 -11.7,8.5 -2.6,8.1 -2.3,6.8 -2.3,6.8"
             inkscape:connector-curvature="0"
             sodipodi:nodetypes="ccsc"
             id="path3977-2-5-8-6" /><path
             style="fill:#f4a876"
             d="m 626.5,176.5 c 0,0 -5.7,-10.5 9.7,-11.4 0,0 11,1.4 13,4 5.4,6.9 4.9,5.6 4.9,5.6"
             inkscape:connector-curvature="0"
             sodipodi:nodetypes="ccsc"
             id="path3977-2-7-5-6-4" /><path
             style="fill:none;stroke:#040000;stroke-width:1.67472792;stroke-linecap:round;stroke-linejoin:round;stroke-miterlimit:4;stroke-dasharray:none"
             d="m 632.6,162.3 c 0,0 -19,-0.9 -35.9,2.1"
             inkscape:connector-curvature="0"
             id="path3895-7-5-3" /><path
             style="fill:none;stroke:#040000;stroke-width:1.67472792;stroke-linecap:round;stroke-linejoin:round;stroke-miterlimit:4;stroke-dasharray:none"
             d="m 633.3,168 c 0,0 -33.3,4 -34.3,4.7"
             inkscape:connector-curvature="0"
             id="path3897-4-7-8" /><path
             style="fill:none;stroke:#040000;stroke-width:1.67472792;stroke-linecap:round;stroke-linejoin:round;stroke-miterlimit:4;stroke-dasharray:none"
             d="M 634.6,172.5 601,181.6"
             inkscape:connector-curvature="0"
             id="path3899-7-6-4" /><path
             style="fill:none;stroke:#040000;stroke-width:1.67472792;stroke-linecap:round;stroke-miterlimit:4;stroke-dasharray:none"
             d="m 671.1,155 c 0,0 16.4,-6.6 32.2,-8.9"
             inkscape:connector-curvature="0"
             id="path3895-4-3-2-0" /><path
             style="fill:none;stroke:#040000;stroke-width:1.67472792;stroke-linecap:round;stroke-miterlimit:4;stroke-dasharray:none"
             d="m 672.3,160.6 c 0,0 30.5,-6.2 31.6,-5.9"
             inkscape:connector-curvature="0"
             id="path3897-0-4-7-0" /><path
             style="fill:none;stroke:#040000;stroke-width:1.67472792;stroke-linecap:round;stroke-miterlimit:4;stroke-dasharray:none"
             d="m 672.5,165.4 32.3,-1.5"
             inkscape:connector-curvature="0"
             id="path3899-9-0-0-9" /><g
             style="stroke-width:1.88563013;stroke-miterlimit:4;stroke-dasharray:none"
             transform="matrix(1.0348806,0,0,0.76222869,41.321228,-126.80683)"
             id="g3808-8-3-3"><path
               style="fill:#0f0f0f;stroke:#040000;stroke-width:1.88563013;stroke-linecap:round;stroke-linejoin:round;stroke-miterlimit:4;stroke-dasharray:none"
               d="m 595.5,394.4 c 0,0 13.8,-24.4 -2.1,-21"
               inkscape:connector-curvature="0"
               sodipodi:nodetypes="cc"
               id="path3804-8-9-7" /><path
               style="fill:#0f0f0f;stroke:#040000;stroke-width:1.88563013;stroke-linecap:round;stroke-linejoin:round;stroke-miterlimit:4;stroke-dasharray:none"
               d="m 594.7,373.1 -7.1,1.6 2,-0.4 -2,0.4 c -15.6,3.5 3.3,20.8 3.3,20.8 0,0 2.6,3 4.9,-1.6"
               inkscape:connector-curvature="0"
               sodipodi:nodetypes="cccccc"
               id="path3806-1-9-5" /></g></g><path
           style="fill:#ecda9c;stroke:#000000;stroke-width:5"
           d="m 669.05481,128.35743 -62.5,-0.5 c 0,0 -6.7,-4.9 -0.2,-9.8 l 65.6,1.1 c 0.1,0 0.2,6.6 -2.9,9.2 z"
           inkscape:connector-curvature="0"
           sodipodi:nodetypes="ccccc"
           id="path4042-17-8" /><g
           transform="matrix(-2.1285263,-0.26042345,-0.26042345,2.1285263,1103.9373,-787.08719)"
           id="g4118-3-9"><path
             style="fill:#ffffff;stroke:#040000;stroke-width:1.79999995;stroke-linecap:round;stroke-linejoin:round"
             d="m 158.3,443.1 -2.3,2.4 c 0,0 0.6,5.2 2.2,5.5 1.6,0.2 2,-6.7 2,-6.7 z"
             inkscape:connector-curvature="0"
             sodipodi:nodetypes="ccscc"
             inkscape:transform-center-y="-7.0343703"
             inkscape:transform-center-x="-3.8627751"
             id="path4049-49-6-0" /><path
             style="fill:#ffffff;stroke:#040000;stroke-width:1.79999995;stroke-linecap:round;stroke-linejoin:round"
             d="m 162.4,442.4 -2.5,1.6 c 0,0 -0.4,5.8 1,6.7 1.4,0.9 3,-6.3 3,-6.3 z"
             inkscape:connector-curvature="0"
             sodipodi:nodetypes="ccscc"
             inkscape:transform-center-y="-5.8562951"
             inkscape:transform-center-x="5.4775435"
             id="path4049-1-90-5-5" /><path
             style="fill:#ffffff;stroke:#040000;stroke-width:1.79999995;stroke-linecap:round;stroke-linejoin:round"
             d="m 169.7,444.7 -2.6,1.5 c 0,0 -1.1,5.9 0,6.9 1.2,1 3.7,-6.4 3.7,-6.4 z"
             inkscape:connector-curvature="0"
             sodipodi:nodetypes="ccscc"
             inkscape:transform-center-y="6.5182001"
             inkscape:transform-center-x="6.5241965"
             id="path4049-1-2-3-58-2" /><path
             style="fill:#ffffff;stroke:#040000;stroke-width:1.79999995;stroke-linecap:round;stroke-linejoin:round"
             d="m 166.2,443.2 -2.6,1.7 c 0,0 -0.8,6 0.5,6.9 1.3,0.9 3.4,-6.5 3.4,-6.5 z"
             inkscape:connector-curvature="0"
             sodipodi:nodetypes="ccscc"
             inkscape:transform-center-y="1.4316544"
             inkscape:transform-center-x="7.6593808"
             id="path4049-1-6-0-1-2" /></g><path
           style="fill:#ecda9c;stroke:#000000;stroke-width:5;stroke-linejoin:round"
           inkscape:connector-curvature="0"
           id="path43"
           d="m 493.45481,119.25743 c 0.5,-47.199995 63.4,-84.799995 140.3,-83.899995 76.9,0.9 138.9,39.8 138.4,86.999995 z" /></g></g><path
       id="path4045-3-52"
       sodipodi:nodetypes="cccc"
       inkscape:connector-curvature="0"
       d="m 265.45608,385.56123 c 24.7,30 74.9,27.1 93.5,23.7 47.2,3.9 31.9,-38.9 4.2,-39 -19.2,-14.3 -10.9,-21.5 -42,-28"
       style="fill:#dd8c56;stroke:#040000;stroke-width:5.36100006;stroke-linecap:round" /><path
       d="m 367.25481,255.95743 c 47.2,1.4 83.6,64.9 81.4,141.8 -2.2,76.9 -42.3,138.2 -89.5,136.8 z"
       id="path46"
       inkscape:connector-curvature="0"
       style="fill:#ecda9c;stroke:#000000;stroke-width:5;stroke-linejoin:round" /></g><g
     id="レイヤー_3"
     transform="translate(0,54.700017)" /></svg>