<?xml version="1.0" encoding="UTF-8" standalone="no"?>
<!-- Created with Inkscape (http://www.inkscape.org/) -->

<svg
   xmlns:osb="http://www.openswatchbook.org/uri/2009/osb"
   xmlns:dc="http://purl.org/dc/elements/1.1/"
   xmlns:cc="http://creativecommons.org/ns#"
   xmlns:rdf="http://www.w3.org/1999/02/22-rdf-syntax-ns#"
   xmlns:svg="http://www.w3.org/2000/svg"
   xmlns="http://www.w3.org/2000/svg"
   xmlns:sodipodi="http://sodipodi.sourceforge.net/DTD/sodipodi-0.dtd"
   xmlns:inkscape="http://www.inkscape.org/namespaces/inkscape"
   width="55.059147"
   height="55.059147"
   id="svg5381"
   version="1.1"
   inkscape:version="0.92.4 (unknown)"
   sodipodi:docname="_u.svg"
   inkscape:export-filename="C:\Users\KORISNIK\Desktop\road.png"
   inkscape:export-xdpi="90"
   inkscape:export-ydpi="90">
  <defs
     id="defs5383">
    <inkscape:path-effect
       effect="spiro"
       id="path-effect6005"
       is_visible="true" />
    <inkscape:path-effect
       effect="spiro"
       id="path-effect5768"
       is_visible="true" />
    <linearGradient
       id="linearGradient5693"
       osb:paint="solid">
      <stop
         style="stop-color:#005fbd;stop-opacity:1;"
         offset="0"
         id="stop5695" />
    </linearGradient>
    <inkscape:perspective
       sodipodi:type="inkscape:persp3d"
       inkscape:vp_x="0 : 526.18109 : 1"
       inkscape:vp_y="0 : 1000 : 0"
       inkscape:vp_z="744.09448 : 526.18109 : 1"
       inkscape:persp3d-origin="372.04724 : 350.78739 : 1"
       id="perspective5338" />
    <linearGradient
       id="linearGradient5322"
       osb:paint="solid">
      <stop
         style="stop-color:#000000;stop-opacity:1;"
         offset="0"
         id="stop5324" />
    </linearGradient>
    <clipPath
       id="id0">
      <path
         inkscape:connector-curvature="0"
         id="path2"
         d="m 143,222 c -6,-27 37,-40 69,-30 7,2 24,19 17,31 -5,10 -7,25 -9,30 0,2 0,9 1,10 18,14 18,15 18,19 0,5 -23,-1 -27,-4 -2,-1 -8,5 -12,8 -12,8 -29,9 -43,8 -4,0 -20,-6 -23,-9 -6,-6 -12,-25 -7,-34 -10,-5 -1,-20 9,-14 3,-7 7,-14 7,-15 z" />
    </clipPath>
  </defs>
  <sodipodi:namedview
     id="base"
     pagecolor="#ffffff"
     bordercolor="#666666"
     borderopacity="1.0"
     inkscape:pageopacity="0.0"
     inkscape:pageshadow="2"
     inkscape:zoom="0.49497475"
     inkscape:cx="95.443224"
     inkscape:cy="-180.07761"
     inkscape:document-units="px"
     inkscape:current-layer="layer1"
     showgrid="true"
     inkscape:window-width="1366"
     inkscape:window-height="704"
     inkscape:window-x="0"
     inkscape:window-y="27"
     inkscape:window-maximized="1"
     inkscape:snap-to-guides="false"
     inkscape:snap-nodes="false">
    <inkscape:grid
       type="xygrid"
       id="grid5389"
       originx="-279.55678"
       originy="-871.50618" />
  </sodipodi:namedview>
  <metadata
     id="metadata5386">
    <rdf:RDF>
      <cc:Work
         rdf:about="">
        <dc:format>image/svg+xml</dc:format>
        <dc:type
           rdf:resource="http://purl.org/dc/dcmitype/StillImage" />
        <dc:title />
      </cc:Work>
    </rdf:RDF>
  </metadata>
  <g
     inkscape:label="Layer 1"
     inkscape:groupmode="layer"
     id="layer1"
     transform="translate(-279.55678,-125.79686)">
    <rect
       style="opacity:0.98999999;fill:#005fbd;fill-opacity:1;fill-rule:evenodd;stroke:#000000;stroke-width:2.20199966;stroke-linecap:square;stroke-linejoin:round;stroke-miterlimit:4;stroke-dasharray:8.80799991, 2.20199998;stroke-dashoffset:0;stroke-opacity:1"
       id="rect5679-4-5-8-3-5-7"
       width="52.857147"
       height="52.857147"
       x="280.65778"
       y="126.89786"
       rx="90.913795"
       ry="4.2857141" />
    <polygon
       id="polygon5642-2-3-2"
       points="122.94,177.28 122.94,178.28 122.94,177.28 62.97,177.28 149,263.31 237.03,178.28 175.06,178.28 175.06,179.28 175.06,178.28 175.06,8.85 122.94,8.85 122.94,177.28 123.94,177.28 "
       class="st0"
       transform="matrix(-0.26122306,-0.00776518,0.00552519,-0.1858691,345.28757,179.67532)"
       style="fill:#ffffff;stroke:#000000;stroke-width:12.85850906;stroke-miterlimit:10"
       inkscape:transform-center-x="24.14878" />
  </g>
  <style
     id="style5640"
     type="text/css">
	.st0{fill:#01A0C6;stroke:#000000;stroke-width:2.8346;stroke-miterlimit:10;}
</style>
  <style
     id="style5991"
     type="text/css">
	.st0{fill:#01A0C6;stroke:#000000;stroke-width:2.8346;stroke-miterlimit:10;}
</style>
</svg>
