<?xml version="1.0" encoding="UTF-8"?>
<!DOCTYPE svg PUBLIC "-//W3C//DTD SVG 1.1//EN" "http://www.w3.org/Graphics/SVG/1.1/DTD/svg11.dtd">
<!-- Creator: CorelDRAW X6 -->
<svg xmlns="http://www.w3.org/2000/svg" xml:space="preserve" width="413px" height="413px" version="1.1" shape-rendering="geometricPrecision" text-rendering="geometricPrecision" image-rendering="optimizeQuality" fill-rule="evenodd" clip-rule="evenodd"
viewBox="0 0 413 413"
 xmlns:xlink="http://www.w3.org/1999/xlink">
 <g id="Layer_x0020_1">
  <metadata id="CorelCorpID_0Corel-Layer"/>
  <g id="_728242704">
   <path fill="#D8CE78" stroke="#2E2E2D" stroke-width="3.54" d="M207 31c97,0 175,78 175,176 0,97 -78,175 -175,175 -98,0 -176,-78 -176,-175 0,-98 78,-176 176,-176z"/>
   <path fill="none" stroke="#2E2E2D" stroke-width="1.77" d="M207 59c81,0 147,66 147,148 0,81 -66,147 -147,147 -82,0 -148,-66 -148,-147 0,-82 66,-148 148,-148z"/>
   <path fill="#2E2E2D" fill-rule="nonzero" d="M144 281c11,7 31,13 54,13 46,0 74,-23 74,-55 0,-24 -18,-40 -39,-44l0 -1c22,-7 33,-22 33,-42 0,-24 -22,-45 -60,-45 -24,0 -45,7 -56,14l9 31c7,-5 23,-11 37,-11 18,0 27,8 27,19 0,15 -18,20 -32,20l-17 0 0 31 18 0c18,0 36,8 36,26 0,13 -11,24 -33,24 -17,0 -35,-8 -42,-11l-9 31z"/>
  </g>
 </g>
</svg>
