<?xml version="1.0" encoding="UTF-8"?>
<!DOCTYPE svg PUBLIC "-//W3C//DTD SVG 1.1//EN" "http://www.w3.org/Graphics/SVG/1.1/DTD/svg11.dtd">
<!-- Creator: CorelDRAW X6 -->
<svg xmlns="http://www.w3.org/2000/svg" xml:space="preserve" width="354px" height="354px" version="1.1" shape-rendering="geometricPrecision" text-rendering="geometricPrecision" image-rendering="optimizeQuality" fill-rule="evenodd" clip-rule="evenodd"
viewBox="0 0 354 354"
 xmlns:xlink="http://www.w3.org/1999/xlink">
 <g id="Layer_x0020_1">
  <metadata id="CorelCorpID_0Corel-Layer"/>
  <g id="_726831904">
   <path fill="#F2D4A7" stroke="#2E2E2D" stroke-width="3.54" d="M177 45c73,0 132,59 132,132 0,73 -59,132 -132,132 -73,0 -132,-59 -132,-132 0,-73 59,-132 132,-132z"/>
   <path fill="none" stroke="#2E2E2D" stroke-width="1.77" d="M177 66c61,0 111,50 111,111 0,61 -50,111 -111,111 -61,0 -111,-50 -111,-111 0,-61 50,-111 111,-111z"/>
   <polygon fill="#2E2E2D" fill-rule="nonzero" points="165,247 196,247 196,111 170,111 134,128 139,152 165,139 165,139 "/>
  </g>
 </g>
</svg>
