<?xml version="1.0" encoding="UTF-8"?>
<!DOCTYPE svg PUBLIC "-//W3C//DTD SVG 1.1//EN" "http://www.w3.org/Graphics/SVG/1.1/DTD/svg11.dtd">
<!-- Creator: CorelDRAW X6 -->
<svg xmlns="http://www.w3.org/2000/svg" xml:space="preserve" width="354px" height="354px" version="1.1" shape-rendering="geometricPrecision" text-rendering="geometricPrecision" image-rendering="optimizeQuality" fill-rule="evenodd" clip-rule="evenodd"
viewBox="0 0 354 354"
 xmlns:xlink="http://www.w3.org/1999/xlink">
 <g id="Layer_x0020_1">
  <metadata id="CorelCorpID_0Corel-Layer"/>
  <g id="_720403536">
   <circle fill="#FFF7B5" stroke="#2E2E2D" stroke-width="3.54" cx="177" cy="177" r="156"/>
   <circle fill="none" stroke="#2E2E2D" stroke-width="1.77" cx="177" cy="177" r="131"/>
   <path fill="#2E2E2D" fill-rule="nonzero" d="M237 252l0 -31 -61 0 0 0 15 -13c23,-20 43,-42 43,-69 0,-29 -20,-50 -57,-50 -21,0 -40,7 -52,17l10 26c9,-6 21,-13 35,-13 18,0 26,10 26,23 0,19 -17,37 -52,69l-21 18 0 23 114 0z"/>
  </g>
 </g>
</svg>
