<?xml version="1.0" encoding="UTF-8"?>
<!DOCTYPE svg PUBLIC "-//W3C//DTD SVG 1.1//EN" "http://www.w3.org/Graphics/SVG/1.1/DTD/svg11.dtd">
<!-- Creator: CorelDRAW X6 -->
<svg xmlns="http://www.w3.org/2000/svg" xml:space="preserve" width="413px" height="413px" version="1.1" shape-rendering="geometricPrecision" text-rendering="geometricPrecision" image-rendering="optimizeQuality" fill-rule="evenodd" clip-rule="evenodd"
viewBox="0 0 413 413"
 xmlns:xlink="http://www.w3.org/1999/xlink">
 <g id="Layer_x0020_1">
  <metadata id="CorelCorpID_0Corel-Layer"/>
  <g id="_720274144">
   <path fill="#6E3C29" stroke="#2E2E2D" stroke-width="2.95" stroke-linecap="round" stroke-linejoin="round" d="M237 202c21,-6 76,8 94,18 34,20 62,54 30,89 -25,26 -94,8 -118,-15 -21,-21 -42,-49 -30,-80 7,-19 19,-10 24,-12z"/>
   <path fill="none" stroke="#2E2E2D" stroke-width="1.77" stroke-linecap="round" stroke-linejoin="round" d="M294 213c-29,4 -44,18 -67,35"/>
   <path fill="none" stroke="#2E2E2D" stroke-width="1.77" stroke-linecap="round" stroke-linejoin="round" d="M326 221c-45,14 -51,24 -86,46"/>
   <path fill="none" stroke="#2E2E2D" stroke-width="1.77" stroke-linecap="round" stroke-linejoin="round" d="M355 240c-36,5 -65,26 -94,45l-1 -1"/>
   <path fill="none" stroke="#2E2E2D" stroke-width="1.77" stroke-linecap="round" stroke-linejoin="round" d="M369 263c-36,13 -51,20 -85,37 -1,2 -2,2 -4,2"/>
   <path fill="none" stroke="#2E2E2D" stroke-width="1.77" stroke-linecap="round" stroke-linejoin="round" d="M325 231c1,1 48,60 41,76 -1,2 1,-4 1,-5"/>
   <path fill="none" stroke="#2E2E2D" stroke-width="1.77" stroke-linecap="round" stroke-linejoin="round" d="M297 220c14,25 39,50 45,80 1,2 1,1 2,0"/>
   <path fill="none" stroke="#2E2E2D" stroke-width="1.77" stroke-linecap="round" stroke-linejoin="round" d="M267 212c15,19 59,71 63,101 1,5 1,1 1,-2"/>
   <path fill="none" stroke="#2E2E2D" stroke-width="1.77" stroke-linecap="round" stroke-linejoin="round" d="M238 213c-14,-12 30,37 36,45 3,4 27,41 24,46"/>
   <path fill="none" stroke="#2E2E2D" stroke-width="1.77" stroke-linecap="round" stroke-linejoin="round" d="M226 225c12,20 32,46 36,70 0,0 1,-1 1,-1"/>
  </g>
  <g id="_720257760">
   <g>
    <path fill="#9AA399" stroke="#2E2E2D" stroke-width="2.95" stroke-linecap="round" stroke-linejoin="round" d="M82 268c-7,-4 -35,-14 -30,-24 3,-6 -16,-4 -13,13 2,8 5,-8 11,0 2,3 20,22 24,23 10,4 10,-11 8,-12z"/>
    <path fill="none" stroke="#2E2E2D" stroke-width="1.77" stroke-linecap="round" stroke-linejoin="round" d="M49 257c2,-1 5,-5 4,-7"/>
    <path fill="none" stroke="#2E2E2D" stroke-width="1.77" stroke-linecap="round" stroke-linejoin="round" d="M56 254c0,2 3,12 2,13 5,1 17,-1 13,-1"/>
    <path fill="none" stroke="#2E2E2D" stroke-width="1.77" stroke-linecap="round" stroke-linejoin="round" d="M71 262c2,7 2,13 0,19"/>
    <path fill="none" stroke="#2E2E2D" stroke-width="1.77" stroke-linecap="round" stroke-linejoin="round" d="M65 259c0,2 2,16 2,15"/>
    <path fill="none" stroke="#2E2E2D" stroke-width="1.77" stroke-linecap="round" stroke-linejoin="round" d="M71 274c5,-3 6,-3 11,-3"/>
    <path fill="#C5C5C5" stroke="#2E2E2D" stroke-width="2.95" stroke-linecap="round" stroke-linejoin="round" d="M83 282c50,11 55,-2 94,-30 16,-11 -18,0 -24,0 -23,3 -37,18 -64,15 -6,-1 -8,15 -6,15z"/>
    <path fill="#888887" stroke="#2E2E2D" stroke-width="2.95" stroke-linecap="round" stroke-linejoin="round" d="M73 291c0,-3 10,-16 10,-25 -1,-13 8,-19 5,-9 -3,11 10,4 -9,36 0,1 -1,8 -6,1 0,-1 0,-2 0,-3z"/>
   </g>
   <path fill="#96604D" stroke="#2E2E2D" stroke-width="2.95" stroke-linecap="round" stroke-linejoin="round" d="M106 140c-20,8 -30,16 -36,22 -16,14 -27,35 -9,50 3,2 11,10 12,14 0,2 -3,-7 -12,-8 0,0 -9,2 -7,16 0,0 10,13 30,12 2,0 6,-32 6,-49 0,-10 8,-17 8,-1 -6,5 -18,51 -2,79 6,12 2,19 -2,24 -13,15 -59,16 -39,30 2,2 9,11 20,10 12,-2 33,-11 42,-8 5,2 30,1 21,-14 -3,-3 0,-23 9,-23 22,1 106,10 116,2 9,-9 12,11 9,23 -2,10 3,18 11,17 7,0 62,5 62,-2 2,-9 1,-26 -14,-29 -18,-3 -28,-9 -19,-24 22,-37 -1,-85 0,-83 2,3 5,8 17,17 9,7 -9,14 -6,26 0,3 3,26 11,21 24,-15 4,-10 14,-24 9,-13 19,-35 7,-48 -21,-24 -35,-40 -65,-46 -17,-4 -30,17 -49,12 -32,-8 -105,-29 -135,-16z"/>
   <path fill="none" stroke="#2E2E2D" stroke-width="1.77" stroke-linecap="round" stroke-linejoin="round" d="M54 330c0,-8 6,-8 7,-9"/>
   <path fill="none" stroke="#2E2E2D" stroke-width="1.77" stroke-linecap="round" stroke-linejoin="round" d="M62 335c1,-4 7,-12 7,-12"/>
   <path fill="none" stroke="#2E2E2D" stroke-width="1.77" stroke-linecap="round" stroke-linejoin="round" d="M72 338c0,-8 10,-16 8,-12"/>
   <path fill="none" stroke="#2E2E2D" stroke-width="1.77" stroke-linecap="round" stroke-linejoin="round" d="M319 321c2,4 3,11 3,16 0,-1 0,-1 0,-2"/>
   <path fill="none" stroke="#2E2E2D" stroke-width="1.77" stroke-linecap="round" stroke-linejoin="round" d="M330 319c2,5 3,12 3,18 0,-1 0,-1 0,-2"/>
   <path fill="none" stroke="#2E2E2D" stroke-width="1.77" stroke-linecap="round" stroke-linejoin="round" d="M339 317c4,10 3,20 3,17"/>
   <path fill="none" stroke="#2E2E2D" stroke-width="1.77" stroke-linecap="round" stroke-linejoin="round" d="M329 248c1,9 5,12 4,11"/>
   <path fill="none" stroke="#2E2E2D" stroke-width="1.77" stroke-linecap="round" stroke-linejoin="round" d="M334 245c4,5 0,5 8,11"/>
   <path fill="none" stroke="#2E2E2D" stroke-width="1.77" stroke-linecap="round" stroke-linejoin="round" d="M341 242c0,3 3,6 4,8"/>
   <path fill="#2E2E2D" stroke="#2E2E2D" stroke-width="1.77" stroke-linecap="round" stroke-linejoin="round" d="M88 262c35,-33 85,-69 129,-87 25,-10 56,7 56,7 -34,20 -105,42 -141,66 -6,4 -42,27 -45,32 0,0 -2,-15 1,-18z"/>
   <path fill="none" stroke="#2E2E2D" stroke-width="1.77" stroke-linecap="round" stroke-linejoin="round" d="M58 220c1,2 0,17 8,14 0,-1 0,-1 -1,-2"/>
   <path fill="#444444" stroke="#2E2E2D" stroke-width="2.95" stroke-linecap="round" stroke-linejoin="round" d="M255 80c21,-20 56,29 16,34 -16,2 -23,-10 -20,-25 0,-2 1,-7 4,-9z"/>
   <path fill="#5C5C5B" stroke="#2E2E2D" stroke-width="2.95" stroke-linecap="round" stroke-linejoin="round" d="M275 92c19,-14 87,8 79,10 -24,7 -21,11 -53,6 -26,-4 -26,-16 -26,-16z"/>
   <path fill="#5C5C5B" stroke="#2E2E2D" stroke-width="2.95" stroke-linecap="round" stroke-linejoin="round" d="M275 99c21,-7 73,35 69,35 -27,-1 -42,1 -68,-17 0,0 -7,-15 -1,-18z"/>
   <path fill="#96604D" stroke="#2E2E2D" stroke-width="2.95" stroke-linecap="round" stroke-linejoin="round" d="M142 83c-19,-17 -23,16 -14,12 0,0 -34,15 -33,56 2,35 52,58 107,54 47,-4 93,-16 98,-39 15,-59 -27,-68 -26,-71 1,-2 9,-14 -9,-13 -14,2 11,11 -37,-3 -19,-5 -69,-6 -86,4z"/>
   <path fill="#717171" stroke="#2E2E2D" stroke-width="1.77" stroke-linecap="round" stroke-linejoin="round" d="M143 126c-1,-39 34,-39 38,-31 0,0 25,-13 29,-14 3,-1 20,-13 20,-3 -5,3 -44,25 -41,27 11,11 -12,46 -35,34 -13,-7 -55,37 -57,31 -2,-5 -5,-5 -2,-8 10,-13 36,-25 48,-36z"/>
   <path fill="#FEFEFE" stroke="#2E2E2D" stroke-width="1.77" stroke-linecap="round" stroke-linejoin="round" d="M175 169c12,20 -9,25 33,19 2,-1 6,-19 -1,-22 -12,-5 -32,2 -32,3z"/>
   <path fill="none" stroke="#2E2E2D" stroke-width="1.77" stroke-linecap="round" stroke-linejoin="round" d="M194 164c3,6 2,32 2,24"/>
   <path fill="#2E2E2D" stroke="#2E2E2D" stroke-width="1.77" stroke-linecap="round" stroke-linejoin="round" d="M206 123c-27,-13 -42,23 -7,13 3,-1 13,-1 9,-11 -1,-1 -1,-1 -2,-2z"/>
   <path fill="#D78267" stroke="#2E2E2D" stroke-width="1.77" stroke-linecap="round" stroke-linejoin="round" d="M186 129c-12,-2 -32,9 -32,28 0,17 2,17 22,17 5,1 18,-3 32,-2 31,1 26,-8 20,-32 -2,-9 -32,-8 -42,-11z"/>
   <path fill="none" stroke="#2E2E2D" stroke-width="1.77" stroke-linecap="round" stroke-linejoin="round" d="M193 129c0,15 -2,31 -2,43"/>
   <path fill="none" stroke="#2E2E2D" stroke-width="1.77" stroke-linecap="round" stroke-linejoin="round" d="M169 146c-18,-1 -37,8 -41,8"/>
   <path fill="none" stroke="#2E2E2D" stroke-width="1.77" stroke-linecap="round" stroke-linejoin="round" d="M163 152c-6,2 -36,17 -36,17"/>
   <path fill="none" stroke="#2E2E2D" stroke-width="1.77" stroke-linecap="round" stroke-linejoin="round" d="M165 159c-8,2 -30,17 -29,16"/>
   <path fill="none" stroke="#2E2E2D" stroke-width="1.77" stroke-linecap="round" stroke-linejoin="round" d="M203 146c12,-6 25,-3 38,-3"/>
   <path fill="none" stroke="#2E2E2D" stroke-width="1.77" stroke-linecap="round" stroke-linejoin="round" d="M215 154c15,-3 31,4 31,4"/>
   <path fill="none" stroke="#2E2E2D" stroke-width="1.77" stroke-linecap="round" stroke-linejoin="round" d="M218 165c10,2 20,15 18,9"/>
   <path fill="none" stroke="#2E2E2D" stroke-width="1.77" stroke-linecap="round" stroke-linejoin="round" d="M200 105c11,-5 23,6 45,-7 1,-1 0,3 -1,2"/>
   <path fill="#FEFEFE" stroke="#2E2E2D" stroke-width="1.77" stroke-linecap="round" stroke-linejoin="round" d="M209 104c-17,18 19,14 23,11 16,-14 -25,-10 -23,-11z"/>
   <path fill="#2E2E2D" stroke="#2E2E2D" stroke-width="1.77" stroke-linecap="round" stroke-linejoin="round" d="M221 106c-14,23 33,0 2,-1 -2,0 -2,0 -2,1z"/>
   <path fill="#5C5C5B" stroke="#2E2E2D" stroke-width="2.95" stroke-linecap="round" stroke-linejoin="round" d="M137 90c0,-22 14,-42 57,-44 15,-1 61,10 67,28 2,4 10,19 -2,19 2,2 -45,-10 -61,-10 -29,0 -39,5 -61,7z"/>
  </g>
 </g>
</svg>
