<?xml version="1.0" encoding="UTF-8"?>
<!DOCTYPE svg PUBLIC "-//W3C//DTD SVG 1.1//EN" "http://www.w3.org/Graphics/SVG/1.1/DTD/svg11.dtd">
<!-- Creator: CorelDRAW X6 -->
<svg xmlns="http://www.w3.org/2000/svg" xml:space="preserve" width="413px" height="413px" version="1.1" shape-rendering="geometricPrecision" text-rendering="geometricPrecision" image-rendering="optimizeQuality" fill-rule="evenodd" clip-rule="evenodd"
viewBox="0 0 413 413"
 xmlns:xlink="http://www.w3.org/1999/xlink">
 <g id="Layer_x0020_1">
  <metadata id="CorelCorpID_0Corel-Layer"/>
  <g id="_725829504">
   <path fill="#6E3C29" stroke="#2E2E2D" stroke-width="2.95" stroke-linecap="round" stroke-linejoin="round" d="M217 212c8,-20 54,-54 74,-61 36,-13 81,-13 87,33 4,37 -54,78 -87,81 -29,3 -64,2 -81,-27 -10,-18 5,-21 7,-26z"/>
   <path fill="none" stroke="#2E2E2D" stroke-width="1.77" stroke-linecap="round" stroke-linejoin="round" d="M261 175c-15,25 -14,45 -16,74"/>
   <path fill="none" stroke="#2E2E2D" stroke-width="1.77" stroke-linecap="round" stroke-linejoin="round" d="M288 156c-18,43 -14,54 -19,95"/>
   <path fill="none" stroke="#2E2E2D" stroke-width="1.77" stroke-linecap="round" stroke-linejoin="round" d="M321 146c-19,30 -22,66 -26,101l-1 -1"/>
   <path fill="none" stroke="#2E2E2D" stroke-width="1.77" stroke-linecap="round" stroke-linejoin="round" d="M347 149c-13,37 -17,52 -24,89 -1,2 -1,3 -2,5"/>
   <path fill="none" stroke="#2E2E2D" stroke-width="1.77" stroke-linecap="round" stroke-linejoin="round" d="M295 162c2,0 76,2 84,17 2,2 -2,-3 -3,-3"/>
   <path fill="none" stroke="#2E2E2D" stroke-width="1.77" stroke-linecap="round" stroke-linejoin="round" d="M268 177c29,5 64,2 91,16 2,1 2,1 1,-1"/>
   <path fill="none" stroke="#2E2E2D" stroke-width="1.77" stroke-linecap="round" stroke-linejoin="round" d="M243 195c25,1 93,0 118,16 5,3 2,0 -1,-2"/>
   <path fill="none" stroke="#2E2E2D" stroke-width="1.77" stroke-linecap="round" stroke-linejoin="round" d="M225 218c-18,3 48,0 58,1 5,0 49,6 51,11"/>
   <path fill="none" stroke="#2E2E2D" stroke-width="1.77" stroke-linecap="round" stroke-linejoin="round" d="M227 236c23,3 56,4 77,16 0,1 0,-1 0,-1"/>
  </g>
  <path fill="#96604D" stroke="#2E2E2D" stroke-width="2.95" stroke-linecap="round" stroke-linejoin="round" d="M106 140c-20,8 -30,16 -36,22 -16,14 -27,35 -9,50 3,2 11,10 12,14 0,2 -7,35 13,22 2,-2 4,-34 4,-51 0,-10 8,-17 8,-1 -6,5 -18,51 -2,79 6,12 2,19 -2,24 -9,13 -51,13 -39,30 1,3 9,11 20,10 3,-1 6,-1 9,-2 13,-3 46,-5 50,-7 5,-2 8,-6 4,-13 -3,-3 0,-23 9,-23 22,1 106,10 116,2 9,-9 12,11 9,23 -2,10 3,18 11,17 7,0 62,5 62,-2 2,-9 1,-26 -14,-29 -18,-3 -28,-9 -19,-24 22,-37 -1,-85 0,-83 13,24 20,52 28,61 9,11 25,6 29,0 3,-4 -8,-10 -8,-19 -3,-34 -31,-96 -75,-104 -17,-4 -26,25 -45,20 -32,-8 -105,-29 -135,-16z"/>
  <path fill="none" stroke="#2E2E2D" stroke-width="1.77" stroke-linecap="round" stroke-linejoin="round" d="M54 330c0,-8 6,-8 7,-9"/>
  <path fill="none" stroke="#2E2E2D" stroke-width="1.77" stroke-linecap="round" stroke-linejoin="round" d="M62 335c1,-4 7,-12 7,-12"/>
  <path fill="none" stroke="#2E2E2D" stroke-width="1.77" stroke-linecap="round" stroke-linejoin="round" d="M72 338c0,-8 10,-16 8,-12"/>
  <path fill="none" stroke="#2E2E2D" stroke-width="1.77" stroke-linecap="round" stroke-linejoin="round" d="M319 321c2,4 3,11 3,16 0,-1 0,-1 0,-2"/>
  <path fill="none" stroke="#2E2E2D" stroke-width="1.77" stroke-linecap="round" stroke-linejoin="round" d="M330 319c2,5 3,12 3,18 0,-1 0,-1 0,-2"/>
  <path fill="none" stroke="#2E2E2D" stroke-width="1.77" stroke-linecap="round" stroke-linejoin="round" d="M339 317c4,10 3,20 3,17"/>
  <path fill="#008CCF" stroke="#2E2E2D" stroke-width="2.95" stroke-linecap="round" stroke-linejoin="round" d="M255 80c21,-20 56,29 16,34 -16,2 -23,-10 -20,-25 0,-2 1,-7 4,-9z"/>
  <path fill="#008CCF" stroke="#2E2E2D" stroke-width="2.95" stroke-linecap="round" stroke-linejoin="round" d="M275 92c19,-14 87,8 79,10 -24,7 -21,11 -53,6 -26,-4 -26,-16 -26,-16z"/>
  <path fill="#008CCF" stroke="#2E2E2D" stroke-width="2.95" stroke-linecap="round" stroke-linejoin="round" d="M275 99c21,-7 73,35 69,35 -27,-1 -42,1 -68,-17 0,0 -7,-15 -1,-18z"/>
  <path fill="#96604D" stroke="#2E2E2D" stroke-width="2.95" stroke-linecap="round" stroke-linejoin="round" d="M142 83c-19,-17 -23,16 -14,12 0,0 -22,19 -27,60 -5,42 38,96 92,92 48,-4 85,-34 90,-58 14,-58 -10,-91 -9,-94 1,-2 9,-14 -9,-13 -14,2 11,11 -37,-3 -19,-5 -69,-6 -86,4z"/>
  <path fill="#FEFEFE" stroke="#2E2E2D" stroke-width="1.77" stroke-linecap="round" stroke-linejoin="round" d="M188 161c-2,26 -1,21 -13,24 -2,0 4,13 2,14 -4,0 -5,-1 -11,-2 -1,0 -11,-27 -6,-33 9,-11 28,-3 28,-3z"/>
  <path fill="none" stroke="#2E2E2D" stroke-width="1.77" stroke-linecap="round" stroke-linejoin="round" d="M171 158c-1,10 9,50 6,37"/>
  <path fill="#D78267" stroke="#2E2E2D" stroke-width="1.77" stroke-linecap="round" stroke-linejoin="round" d="M169 126c-12,-2 -22,10 -22,29 0,17 2,17 22,17 5,1 6,0 20,2 25,2 10,-18 5,-35 -2,-9 -15,-11 -25,-13z"/>
  <path fill="none" stroke="#2E2E2D" stroke-width="1.77" stroke-linecap="round" stroke-linejoin="round" d="M175 126c0,15 -1,31 -1,43"/>
  <path fill="#FEFEFE" stroke="#2E2E2D" stroke-width="1.77" stroke-linecap="round" stroke-linejoin="round" d="M198 122c3,6 24,3 26,0 15,-21 -15,-11 -27,-12 -2,3 -2,7 1,12z"/>
  <path fill="#2E2E2D" stroke="#2E2E2D" stroke-width="1.77" stroke-linecap="round" stroke-linejoin="round" d="M201 112c-11,5 -3,11 3,13 24,5 10,-19 -3,-13z"/>
  <path fill="#008CCF" stroke="#2E2E2D" stroke-width="2.95" stroke-linecap="round" stroke-linejoin="round" d="M137 90c0,-22 14,-42 57,-44 15,-1 61,10 67,28 2,4 10,19 -2,19 2,2 -45,-10 -61,-10 -29,0 -39,5 -61,7z"/>
  <path fill="#FEFEFE" stroke="#2E2E2D" stroke-width="1.77" stroke-linecap="round" stroke-linejoin="round" d="M131 110c1,-2 3,-3 5,-4 18,-10 27,12 20,17 -21,14 -34,-5 -25,-13z"/>
  <path fill="#2E2E2D" stroke="#2E2E2D" stroke-width="1.77" stroke-linecap="round" stroke-linejoin="round" d="M129 114c8,-17 36,13 8,12 -5,0 -9,-9 -8,-12z"/>
  <path fill="none" stroke="#2E2E2D" stroke-width="1.77" stroke-linecap="round" stroke-linejoin="round" d="M193 113c16,-8 23,-1 37,-11l-1 -1"/>
  <path fill="none" stroke="#2E2E2D" stroke-width="1.77" stroke-linecap="round" stroke-linejoin="round" d="M137 95c6,-3 18,10 20,15l0 -1"/>
  <path fill="#2E2E2D" stroke="#2E2E2D" stroke-width="1.77" stroke-linecap="round" stroke-linejoin="round" d="M188 125c-23,-19 -47,12 -11,10 4,0 13,3 12,-8 -1,-1 0,-2 -1,-2z"/>
  <path fill="none" stroke="#2E2E2D" stroke-width="1.77" stroke-linecap="round" stroke-linejoin="round" d="M106 169c-1,0 -10,4 -11,3"/>
  <path fill="none" stroke="#2E2E2D" stroke-width="1.77" stroke-linecap="round" stroke-linejoin="round" d="M118 181c-3,3 -3,2 -6,4"/>
  <path fill="none" stroke="#2E2E2D" stroke-width="1.77" stroke-linecap="round" stroke-linejoin="round" d="M126 198c-1,1 -4,5 -6,5"/>
  <path fill="none" stroke="#2E2E2D" stroke-width="1.77" stroke-linecap="round" stroke-linejoin="round" d="M127 215c-2,3 -5,7 -8,8"/>
  <path fill="none" stroke="#2E2E2D" stroke-width="1.77" stroke-linecap="round" stroke-linejoin="round" d="M155 237c-1,3 -4,7 -4,9"/>
  <path fill="none" stroke="#2E2E2D" stroke-width="1.77" stroke-linecap="round" stroke-linejoin="round" d="M179 243c0,0 1,9 1,9"/>
  <line fill="none" stroke="#2E2E2D" stroke-width="1.77" stroke-linecap="round" stroke-linejoin="round" x1="174" y1="220" x2="173" y2= "229" />
  <path fill="none" stroke="#2E2E2D" stroke-width="1.77" stroke-linecap="round" stroke-linejoin="round" d="M154 217c-1,1 -4,5 -4,6"/>
  <path fill="none" stroke="#2E2E2D" stroke-width="1.77" stroke-linecap="round" stroke-linejoin="round" d="M200 234c1,5 1,5 1,9"/>
  <path fill="none" stroke="#2E2E2D" stroke-width="1.77" stroke-linecap="round" stroke-linejoin="round" d="M213 217c1,2 5,7 5,8"/>
  <path fill="none" stroke="#2E2E2D" stroke-width="1.77" stroke-linecap="round" stroke-linejoin="round" d="M229 205c1,2 3,6 5,6"/>
  <path fill="none" stroke="#2E2E2D" stroke-width="1.77" stroke-linecap="round" stroke-linejoin="round" d="M243 200c0,0 8,5 10,6"/>
  <path fill="none" stroke="#2E2E2D" stroke-width="1.77" stroke-linecap="round" stroke-linejoin="round" d="M235 223c2,1 3,2 4,4"/>
  <path fill="none" stroke="#2E2E2D" stroke-width="1.77" stroke-linecap="round" stroke-linejoin="round" d="M192 218c0,3 0,6 0,8"/>
  <path fill="none" stroke="#2E2E2D" stroke-width="1.77" stroke-linecap="round" stroke-linejoin="round" d="M215 234c0,1 2,10 2,12"/>
  <path fill="none" stroke="#2E2E2D" stroke-width="1.77" stroke-linecap="round" stroke-linejoin="round" d="M240 234c2,1 3,4 3,7"/>
  <path fill="none" stroke="#2E2E2D" stroke-width="1.77" stroke-linecap="round" stroke-linejoin="round" d="M252 223c1,1 6,6 7,7"/>
  <path fill="none" stroke="#2E2E2D" stroke-width="1.77" stroke-linecap="round" stroke-linejoin="round" d="M262 212c2,1 9,7 9,8"/>
  <path fill="none" stroke="#2E2E2D" stroke-width="1.77" stroke-linecap="round" stroke-linejoin="round" d="M234 175c3,2 7,4 10,4"/>
  <path fill="none" stroke="#2E2E2D" stroke-width="1.77" stroke-linecap="round" stroke-linejoin="round" d="M252 162c4,1 0,2 5,2"/>
  <path fill="none" stroke="#2E2E2D" stroke-width="1.77" stroke-linecap="round" stroke-linejoin="round" d="M261 181c2,1 5,1 7,3"/>
  <path fill="none" stroke="#2E2E2D" stroke-width="1.77" stroke-linecap="round" stroke-linejoin="round" d="M260 198c1,1 4,5 6,5"/>
  <line fill="none" stroke="#2E2E2D" stroke-width="1.77" stroke-linecap="round" stroke-linejoin="round" x1="277" y1="177" x2="283" y2= "178" />
  <path fill="none" stroke="#2E2E2D" stroke-width="1.77" stroke-linecap="round" stroke-linejoin="round" d="M276 196c0,3 8,6 8,6"/>
  <path fill="none" stroke="#2E2E2D" stroke-width="1.77" stroke-linecap="round" stroke-linejoin="round" d="M282 166c4,0 5,0 9,0"/>
  <path fill="none" stroke="#2E2E2D" stroke-width="1.77" stroke-linecap="round" stroke-linejoin="round" d="M278 146c0,0 7,0 8,-1"/>
  <path fill="none" stroke="#2E2E2D" stroke-width="1.77" stroke-linecap="round" stroke-linejoin="round" d="M281 131c4,-1 3,-1 8,-1"/>
  <path fill="none" stroke="#2E2E2D" stroke-width="1.77" stroke-linecap="round" stroke-linejoin="round" d="M269 120c2,-1 4,-3 6,-4"/>
  <path fill="none" stroke="#2E2E2D" stroke-width="1.77" stroke-linecap="round" stroke-linejoin="round" d="M267 136c1,0 10,1 10,1"/>
  <path fill="none" stroke="#2E2E2D" stroke-width="1.77" stroke-linecap="round" stroke-linejoin="round" d="M267 153c5,0 3,0 8,1"/>
  <line fill="none" stroke="#2E2E2D" stroke-width="1.77" stroke-linecap="round" stroke-linejoin="round" x1="283" y1="157" x2="289" y2= "157" />
  <path fill="none" stroke="#2E2E2D" stroke-width="1.77" stroke-linecap="round" stroke-linejoin="round" d="M268 171c5,-2 4,0 7,1"/>
  <path fill="none" stroke="#2E2E2D" stroke-width="1.77" stroke-linecap="round" stroke-linejoin="round" d="M106 158c-1,0 -8,1 -9,0"/>
  <path fill="none" stroke="#2E2E2D" stroke-width="1.77" stroke-linecap="round" stroke-linejoin="round" d="M110 137c-1,-2 -6,-6 -9,-6"/>
  <path fill="none" stroke="#2E2E2D" stroke-width="1.77" stroke-linecap="round" stroke-linejoin="round" d="M113 121c-4,-2 -9,-3 -13,-4"/>
  <path fill="none" stroke="#2E2E2D" stroke-width="1.77" stroke-linecap="round" stroke-linejoin="round" d="M112 146c-3,0 -3,-1 -6,-1"/>
  <path fill="none" stroke="#2E2E2D" stroke-width="1.77" stroke-linecap="round" stroke-linejoin="round" d="M120 164c-1,1 -4,3 -6,3"/>
  <path fill="none" stroke="#2E2E2D" stroke-width="1.77" stroke-linecap="round" stroke-linejoin="round" d="M112 177c-4,2 -8,6 -12,7"/>
  <path fill="none" stroke="#2E2E2D" stroke-width="1.77" stroke-linecap="round" stroke-linejoin="round" d="M115 196c-2,2 -5,5 -9,5"/>
  <path fill="none" stroke="#2E2E2D" stroke-width="1.77" stroke-linecap="round" stroke-linejoin="round" d="M137 225c0,4 -3,4 -5,8"/>
  <path fill="none" stroke="#2E2E2D" stroke-width="1.77" stroke-linecap="round" stroke-linejoin="round" d="M141 208c0,1 -3,5 -4,6"/>
  <line fill="none" stroke="#2E2E2D" stroke-width="1.77" stroke-linecap="round" stroke-linejoin="round" x1="168" y1="240" x2="168" y2= "251" />
  <line fill="none" stroke="#2E2E2D" stroke-width="1.77" stroke-linecap="round" stroke-linejoin="round" x1="164" y1="226" x2="164" y2= "231" />
  <path fill="none" stroke="#2E2E2D" stroke-width="1.77" stroke-linecap="round" stroke-linejoin="round" d="M205 204c0,4 0,5 2,8"/>
  <line fill="none" stroke="#2E2E2D" stroke-width="1.77" stroke-linecap="round" stroke-linejoin="round" x1="218" y1="192" x2="226" y2= "199" />
  <path fill="none" stroke="#2E2E2D" stroke-width="1.77" stroke-linecap="round" stroke-linejoin="round" d="M165 208c-1,2 -3,6 -2,6"/>
  <path fill="none" stroke="#2E2E2D" stroke-width="1.77" stroke-linecap="round" stroke-linejoin="round" d="M143 192c-2,3 -6,7 -9,8"/>
  <path fill="none" stroke="#2E2E2D" stroke-width="1.77" stroke-linecap="round" stroke-linejoin="round" d="M132 182c-5,1 -5,3 -8,3"/>
  <path fill="#878678" stroke="#2E2E2D" stroke-width="2.95" stroke-linecap="round" stroke-linejoin="round" d="M361 238c19,-11 7,3 12,-8 0,-2 9,-4 10,3 0,5 10,26 -6,15 -2,-2 -9,5 -10,5 0,0 -2,-3 -4,-6 -2,-4 -2,-8 -2,-9z"/>
  <path fill="#878678" stroke="#2E2E2D" stroke-width="2.95" stroke-linecap="round" stroke-linejoin="round" d="M333 248c-4,1 -3,2 -14,8 -1,0 -14,-13 -3,13 6,14 16,10 12,3 -1,-3 18,-8 13,-10 -1,-3 -6,-8 -8,-14z"/>
  <path fill="#878678" stroke="#2E2E2D" stroke-width="2.95" stroke-linecap="round" stroke-linejoin="round" d="M284 282c0,-9 -24,-16 -39,-8 -21,12 -17,53 5,63 16,7 47,-2 48,-28 1,-15 -5,-19 -14,-27z"/>
  <path fill="#878678" stroke="#2E2E2D" stroke-width="2.95" stroke-linecap="round" stroke-linejoin="round" d="M220 336c3,-3 19,-25 22,-24 5,3 14,18 6,18 -13,0 -28,6 -28,6z"/>
  <path fill="#878678" stroke="#2E2E2D" stroke-width="2.95" stroke-linecap="round" stroke-linejoin="round" d="M229 266c6,2 11,4 17,7 15,5 0,20 -4,11 -2,-3 -11,-17 -13,-18z"/>
  <path fill="#878678" stroke="#2E2E2D" stroke-width="2.95" stroke-linecap="round" stroke-linejoin="round" d="M275 310c-3,-9 -14,-7 -18,1 -3,6 3,8 10,18 8,-9 8,-19 8,-19z"/>
  <path fill="#878678" stroke="#2E2E2D" stroke-width="2.95" stroke-linecap="round" stroke-linejoin="round" d="M231 296c-19,18 -25,2 1,14 1,1 -1,-13 -1,-14z"/>
  <path fill="#878678" stroke="#2E2E2D" stroke-width="2.95" stroke-linecap="round" stroke-linejoin="round" d="M294 276c3,-12 7,-15 -8,-1 -3,4 -9,5 -11,8 -5,9 6,18 13,13 4,-2 3,-11 6,-20z"/>
  <path fill="#878678" stroke="#2E2E2D" stroke-width="2.95" stroke-linecap="round" stroke-linejoin="round" d="M303 331c-4,-6 -17,-27 -22,-6 -2,11 19,13 27,19 4,2 -4,-11 -5,-13z"/>
  <path fill="#878678" stroke="#2E2E2D" stroke-width="2.95" stroke-linecap="round" stroke-linejoin="round" d="M314 263c-21,6 -6,24 4,12 0,0 6,-2 -3,-2 -1,0 -10,5 -6,-3 1,-3 12,-2 6,-6l-1 -1z"/>
  <path fill="#878678" stroke="#2E2E2D" stroke-width="2.95" stroke-linecap="round" stroke-linejoin="round" d="M312 274c0,34 -17,22 -4,1 0,0 4,-5 4,-1z"/>
  <path fill="#878678" stroke="#2E2E2D" stroke-width="2.95" stroke-linecap="round" stroke-linejoin="round" d="M304 287c2,7 -9,21 -9,9 0,-2 0,-1 -1,-3 4,-6 10,-4 10,-6z"/>
  <path fill="#878678" stroke="#2E2E2D" stroke-width="2.95" stroke-linecap="round" stroke-linejoin="round" d="M308 293c8,2 3,16 -9,13 -3,0 -5,4 -5,7 9,0 15,2 21,-10 4,-9 -8,-21 -8,-11 0,1 0,0 0,1l1 0z"/>
  <path fill="none" stroke="#2E2E2D" stroke-width="1.77" stroke-linecap="round" stroke-linejoin="round" d="M374 233c2,6 4,9 5,14"/>
  <path fill="none" stroke="#2E2E2D" stroke-width="1.77" stroke-linecap="round" stroke-linejoin="round" d="M320 255c2,2 15,12 15,12"/>
  <path fill="none" stroke="#2E2E2D" stroke-width="1.77" stroke-linecap="round" stroke-linejoin="round" d="M331 249c0,8 -2,14 -2,21"/>
  <path fill="none" stroke="#2E2E2D" stroke-width="1.77" stroke-linecap="round" stroke-linejoin="round" d="M336 255c0,3 0,6 0,9"/>
  <path fill="none" stroke="#2E2E2D" stroke-width="1.77" stroke-linecap="round" stroke-linejoin="round" d="M369 236c0,1 -1,15 -2,16"/>
  <path fill="none" stroke="#2E2E2D" stroke-width="1.77" stroke-linecap="round" stroke-linejoin="round" d="M375 233c0,6 -1,10 -1,15"/>
  <path fill="none" stroke="#2E2E2D" stroke-width="1.77" stroke-linecap="round" stroke-linejoin="round" d="M364 237c5,2 11,10 13,11"/>
 </g>
</svg>
