<?xml version="1.0" encoding="UTF-8"?>
<!DOCTYPE svg PUBLIC "-//W3C//DTD SVG 1.1//EN" "http://www.w3.org/Graphics/SVG/1.1/DTD/svg11.dtd">
<!-- Creator: CorelDRAW X6 -->
<svg xmlns="http://www.w3.org/2000/svg" xml:space="preserve" width="413px" height="413px" version="1.1" shape-rendering="geometricPrecision" text-rendering="geometricPrecision" image-rendering="optimizeQuality" fill-rule="evenodd" clip-rule="evenodd"
viewBox="0 0 413 413"
 xmlns:xlink="http://www.w3.org/1999/xlink">
 <g id="Layer_x0020_1">
  <metadata id="CorelCorpID_0Corel-Layer"/>
  <g id="_727065680">
   <path fill="#6E3C29" stroke="#2E2E2D" stroke-width="2.95" stroke-linecap="round" stroke-linejoin="round" d="M219 211c17,-14 74,-19 95,-15 16,3 33,9 45,18 -2,2 -2,6 2,11 1,2 -7,-3 -5,10 1,2 5,4 9,4 -3,1 -10,13 3,13 1,0 -2,11 6,11 -1,2 -1,4 -2,6 -15,33 -86,39 -116,25 -27,-12 -56,-31 -56,-64 1,-21 15,-16 19,-19z"/>
   <path fill="none" stroke="#2E2E2D" stroke-width="1.77" stroke-linecap="round" stroke-linejoin="round" d="M276 202c-26,14 -35,31 -51,55"/>
   <path fill="none" stroke="#2E2E2D" stroke-width="1.77" stroke-linecap="round" stroke-linejoin="round" d="M309 199c-37,28 -40,39 -65,72"/>
   <path fill="none" stroke="#2E2E2D" stroke-width="1.77" stroke-linecap="round" stroke-linejoin="round" d="M342 206c-31,18 -52,47 -73,75l-1 -2"/>
   <path fill="none" stroke="#2E2E2D" stroke-width="1.77" stroke-linecap="round" stroke-linejoin="round" d="M356 229c-24,21 -36,32 -59,58 -2,2 -2,2 -4,3"/>
   <path fill="none" stroke="#2E2E2D" stroke-width="1.77" stroke-linecap="round" stroke-linejoin="round" d="M312 208c1,0 31,19 49,36m15 19c0,1 0,1 0,2 0,1 -1,0 -1,-2"/>
   <path fill="none" stroke="#2E2E2D" stroke-width="1.77" stroke-linecap="round" stroke-linejoin="round" d="M281 207c22,19 54,34 70,60 1,2 1,1 1,-1"/>
   <path fill="none" stroke="#2E2E2D" stroke-width="1.77" stroke-linecap="round" stroke-linejoin="round" d="M250 209c22,14 80,48 94,74 2,5 1,1 0,-2"/>
   <path fill="none" stroke="#2E2E2D" stroke-width="1.77" stroke-linecap="round" stroke-linejoin="round" d="M223 220c-17,-7 42,25 50,30 4,3 39,30 37,36"/>
   <path fill="none" stroke="#2E2E2D" stroke-width="1.77" stroke-linecap="round" stroke-linejoin="round" d="M216 236c18,14 46,32 58,53 0,1 0,-1 0,-1"/>
  </g>
  <path fill="#96604D" stroke="#2E2E2D" stroke-width="2.95" stroke-linecap="round" stroke-linejoin="round" d="M121 140c-16,8 -24,16 -29,22 -12,14 -11,35 -7,55 2,7 1,16 3,21 5,9 16,12 19,9 2,-1 1,-33 1,-50 0,-10 7,-17 6,-1 -16,57 7,82 4,90 -4,9 13,21 25,18 5,-2 10,-11 11,-17 1,-4 96,-14 88,32 -1,10 3,18 9,17 5,0 47,5 48,-2 1,-9 1,-26 -11,-29 -14,-3 -22,-9 -15,-24 17,-37 7,-85 8,-83 10,24 11,35 4,44 -7,10 4,26 20,5 3,-4 9,-15 8,-24 -2,-33 -19,-79 -52,-87 -14,-4 -21,25 -36,20 -25,-8 -81,-29 -104,-16z"/>
  <path fill="#878678" stroke="#2E2E2D" stroke-width="2.95" stroke-linecap="round" stroke-linejoin="round" d="M114 286c0,-5 40,8 40,14 0,19 -20,19 -29,15 -10,-4 -12,-16 -11,-29z"/>
  <path fill="#878678" stroke="#2E2E2D" stroke-width="2.95" stroke-linecap="round" stroke-linejoin="round" d="M120 302c0,3 -5,25 -6,37 -1,6 3,7 7,7 4,0 6,0 8,-3 3,-6 9,-35 13,-36 0,-3 -23,-7 -22,-5z"/>
  <path fill="none" stroke="#2E2E2D" stroke-width="1.77" stroke-linecap="round" stroke-linejoin="round" d="M114 340c5,0 7,0 11,2"/>
  <path fill="none" stroke="#2E2E2D" stroke-width="1.77" stroke-linecap="round" stroke-linejoin="round" d="M116 334c9,0 2,-3 13,1"/>
  <path fill="none" stroke="#2E2E2D" stroke-width="1.77" stroke-linecap="round" stroke-linejoin="round" d="M117 324c4,-1 17,0 17,3"/>
  <path fill="none" stroke="#2E2E2D" stroke-width="1.77" stroke-linecap="round" stroke-linejoin="round" d="M117 314c11,-3 14,0 22,5"/>
  <path fill="#D67E29" stroke="#2E2E2D" stroke-width="2.95" stroke-linecap="round" stroke-linejoin="round" d="M109 127c-39,31 5,4 -6,23 -6,13 13,1 8,11 -3,7 8,0 1,12 -5,8 14,-1 14,6 -7,1 -5,17 -7,22 0,0 13,0 16,-2 19,-13 10,-9 -1,-30 -10,0 -3,0 -7,-14 0,0 -11,-13 -14,-28 0,-2 -3,-1 -4,0z"/>
  <path fill="#96604D" stroke="#2E2E2D" stroke-width="2.95" stroke-linecap="round" stroke-linejoin="round" d="M142 83c-19,-17 -23,16 -14,12 0,0 -32,17 -11,53 26,44 13,65 68,64 49,-1 52,-24 70,-40 37,-36 18,-74 19,-77 1,-2 9,-14 -9,-13 -14,2 11,11 -37,-3 -19,-5 -69,-6 -86,4z"/>
  <path fill="#2E2E2D" stroke="#2E2E2D" stroke-width="1.77" stroke-linecap="round" stroke-linejoin="round" d="M163 161c-2,0 -17,33 36,28 18,-2 18,-26 5,-35 -8,-6 -21,-4 -34,1 -2,1 -6,5 -7,6z"/>
  <path fill="#FEFEFE" stroke="#2E2E2D" stroke-width="1.77" stroke-linecap="round" stroke-linejoin="round" d="M192 156c-1,6 1,25 -2,34 -2,4 -10,3 -10,3 -4,0 -5,-1 -11,-1 -1,0 -11,-28 -6,-34 9,-10 29,-3 29,-2z"/>
  <path fill="none" stroke="#2E2E2D" stroke-width="1.77" stroke-linecap="round" stroke-linejoin="round" d="M174 153c-1,9 9,50 6,36"/>
  <path fill="#D78267" stroke="#2E2E2D" stroke-width="1.77" stroke-linecap="round" stroke-linejoin="round" d="M172 121c-12,-3 -25,9 -22,28 2,18 5,19 22,18 5,-1 7,-3 20,1 12,4 21,-19 16,-36 -2,-9 -26,-9 -36,-11z"/>
  <path fill="none" stroke="#2E2E2D" stroke-width="1.77" stroke-linecap="round" stroke-linejoin="round" d="M179 121c0,14 -2,30 -2,42"/>
  <path fill="#2E2E2D" stroke="#2E2E2D" stroke-width="1.77" stroke-linecap="round" stroke-linejoin="round" d="M191 119c-23,-19 -47,13 -11,11 4,-1 13,2 12,-9 -1,-1 0,-1 -1,-2z"/>
  <g id="_731007984">
   <path fill="#809796" stroke="#2E2E2D" stroke-width="2.95" stroke-linecap="round" stroke-linejoin="round" d="M142 70c0,0 -27,-21 -41,-5 -11,12 -17,55 -2,46 66,-38 199,7 203,-23 1,-3 -15,-37 -22,-31 -39,32 -111,13 -127,16 -4,1 -9,-5 -11,-3z"/>
   <path fill="#809796" stroke="#2E2E2D" stroke-width="2.95" stroke-linecap="round" stroke-linejoin="round" d="M131 79c11,-36 25,-55 63,-32 6,3 27,-9 39,-6 15,4 21,24 24,34 6,15 -115,7 -126,4z"/>
   <path fill="none" stroke="#2E2E2D" stroke-width="1.77" stroke-linecap="round" stroke-linejoin="round" d="M104 78c10,0 22,2 29,2"/>
   <path fill="none" stroke="#2E2E2D" stroke-width="1.77" stroke-linecap="round" stroke-linejoin="round" d="M249 81c7,0 24,-10 28,-16"/>
   <path fill="none" stroke="#2E2E2D" stroke-width="1.77" stroke-linecap="round" stroke-linejoin="round" d="M293 68c-9,9 -23,16 -35,16"/>
   <path fill="none" stroke="#2E2E2D" stroke-width="1.77" stroke-linecap="round" stroke-linejoin="round" d="M298 80c-13,16 -140,6 -168,11 -6,1 -38,2 -40,11"/>
  </g>
  <path fill="#FEFEFE" stroke="#2E2E2D" stroke-width="1.77" stroke-linecap="round" stroke-linejoin="round" d="M206 112c69,-7 -7,21 -4,2 0,-1 3,-2 4,-2z"/>
  <path fill="#FEFEFE" stroke="#2E2E2D" stroke-width="1.77" stroke-linecap="round" stroke-linejoin="round" d="M130 112c51,-10 24,19 1,9 -4,-1 -4,-8 -1,-9z"/>
  <path fill="#2E2E2D" stroke="#2E2E2D" stroke-width="1.77" stroke-linecap="round" stroke-linejoin="round" d="M217 111c-11,16 30,4 10,0 0,0 -10,0 -10,0z"/>
  <path fill="#2E2E2D" stroke="#2E2E2D" stroke-width="1.77" stroke-linecap="round" stroke-linejoin="round" d="M155 110c-3,1 -18,2 -13,10 6,9 21,-11 13,-10z"/>
  <path fill="#D67E29" stroke="#2E2E2D" stroke-width="2.95" stroke-linecap="round" stroke-linejoin="round" d="M265 121c5,-2 73,15 26,24 -9,1 14,9 -11,12 -7,0 8,4 -4,10 -7,3 22,8 -4,17 -9,3 10,6 -11,8 -7,1 6,5 -22,7 -1,0 -16,-3 -7,-15 22,-29 19,-22 29,-47 0,-1 4,-16 4,-16z"/>
  <path fill="none" stroke="#2E2E2D" stroke-width="1.77" stroke-linecap="round" stroke-linejoin="round" d="M268 321c3,0 0,19 0,17"/>
  <path fill="none" stroke="#2E2E2D" stroke-width="1.77" stroke-linecap="round" stroke-linejoin="round" d="M279 320c3,7 2,18 2,18"/>
  <path fill="none" stroke="#2E2E2D" stroke-width="1.77" stroke-linecap="round" stroke-linejoin="round" d="M290 318c4,11 3,8 3,19"/>
  <path fill="none" stroke="#2E2E2D" stroke-width="1.77" stroke-linecap="round" stroke-linejoin="round" d="M294 242c0,4 -10,13 -9,9"/>
  <path fill="none" stroke="#2E2E2D" stroke-width="1.77" stroke-linecap="round" stroke-linejoin="round" d="M301 244c-1,3 -10,16 -10,12"/>
  <path fill="none" stroke="#2E2E2D" stroke-width="1.77" stroke-linecap="round" stroke-linejoin="round" d="M98 233c0,17 11,9 5,15 -12,-6 -13,-2 -13,-18"/>
 </g>
</svg>
