<?xml version="1.0" encoding="UTF-8" standalone="no"?>
<!-- Creator: CorelDRAW X6 -->

<svg
   xmlns:dc="http://purl.org/dc/elements/1.1/"
   xmlns:cc="http://creativecommons.org/ns#"
   xmlns:rdf="http://www.w3.org/1999/02/22-rdf-syntax-ns#"
   xmlns:svg="http://www.w3.org/2000/svg"
   xmlns="http://www.w3.org/2000/svg"
   xmlns:sodipodi="http://sodipodi.sourceforge.net/DTD/sodipodi-0.dtd"
   xmlns:inkscape="http://www.inkscape.org/namespaces/inkscape"
   xml:space="preserve"
   width="1181px"
   height="1181px"
   version="1.1"
   shape-rendering="geometricPrecision"
   text-rendering="geometricPrecision"
   image-rendering="optimizeQuality"
   fill-rule="evenodd"
   clip-rule="evenodd"
   viewBox="0 0 1181 1181"
   id="svg225"
   sodipodi:docname="_bg3.svg"
   inkscape:version="0.92.2 (5c3e80d, 2017-08-06)"><metadata
     id="metadata229"><rdf:RDF><cc:Work
         rdf:about=""><dc:format>image/svg+xml</dc:format><dc:type
           rdf:resource="http://purl.org/dc/dcmitype/StillImage" /><dc:title></dc:title></cc:Work></rdf:RDF></metadata><sodipodi:namedview
     pagecolor="#ffffff"
     bordercolor="#666666"
     borderopacity="1"
     objecttolerance="10"
     gridtolerance="10"
     guidetolerance="10"
     inkscape:pageopacity="0"
     inkscape:pageshadow="2"
     inkscape:window-width="1600"
     inkscape:window-height="836"
     id="namedview227"
     showgrid="false"
     inkscape:zoom="0.54677068"
     inkscape:cx="643.04449"
     inkscape:cy="562.97669"
     inkscape:window-x="0"
     inkscape:window-y="27"
     inkscape:window-maximized="1"
     inkscape:current-layer="svg225" /><defs
     id="defs8"><clipPath
       id="id0"><path
         d="M246 987c38,39 56,124 -19,144 -15,4 -28,-9 -30,-8 0,1 5,4 7,5 2,1 20,10 22,12 11,14 -50,8 -56,0 -8,-10 2,-25 1,-34 -2,-14 -19,-7 8,-84 13,-40 61,-41 67,-35z"
         id="path2" /></clipPath><clipPath
       id="id1"><path
         d="M278 1004c3,16 1,21 -2,36 -8,33 -37,34 -69,29 -18,-3 -34,-14 -41,-24 -17,-29 -8,-49 -8,-58 -13,-18 8,-15 10,-14 1,0 2,0 5,-2 6,-4 40,-10 41,-11 1,-14 15,-6 15,0 0,4 45,20 49,44z"
         id="path5" /></clipPath></defs><path
     style="fill:#ff0000;stroke:#2e2e2d;stroke-width:2.9525001;stroke-linecap:round;stroke-linejoin:round"
     inkscape:connector-curvature="0"
     id="path27"
     d="m 388,146 c -10,7 -32,20 -32,19 0,-5 1,-8 1,-13 -11,0 -41,0 -49,1 0,-5 0,-11 0,-15 7,0 40,-1 48,0 0,-2 1,-1 0,-4 0,-3 0,-7 0,-8 z" /><path
     style="fill:#ff0000;stroke:#2e2e2d;stroke-width:2.9525001;stroke-linecap:round;stroke-linejoin:round"
     inkscape:connector-curvature="0"
     id="path29"
     d="m 388,282 c -10,7 -32,20 -32,19 0,-5 1,-8 1,-13 -11,0 -41,0 -49,0 0,-4 0,-10 0,-14 7,0 40,-1 48,0 0,-2 1,-1 0,-4 0,-4 0,-7 0,-8 z" /><path
     style="fill:#ff0000;stroke:#2e2e2d;stroke-width:2.9525001;stroke-linecap:round;stroke-linejoin:round"
     inkscape:connector-curvature="0"
     id="path31"
     d="m 308,418 c 9,6 31,20 31,19 0,-5 -1,-8 0,-13 10,0 41,0 49,0 0,-5 0,-10 0,-14 -8,0 -41,-1 -49,0 0,-2 0,-1 0,-5 0,-3 1,-6 1,-7 z" /><path
     style="fill:#ff0000;stroke:#2e2e2d;stroke-width:2.9525001;stroke-linecap:round;stroke-linejoin:round"
     inkscape:connector-curvature="0"
     id="path33"
     d="m 308,554 c 9,6 31,20 31,18 0,-4 -1,-7 0,-12 10,0 41,0 49,0 0,-5 0,-10 0,-15 -8,0 -41,0 -49,1 0,-2 0,-2 0,-5 0,-3 1,-6 1,-7 z" /><path
     style="fill:#ff0000;stroke:#2e2e2d;stroke-width:2.9525001;stroke-linecap:round;stroke-linejoin:round"
     inkscape:connector-curvature="0"
     id="path35"
     d="m 308,690 c 9,6 31,20 31,18 0,-4 -1,-8 0,-12 10,0 41,-1 49,0 0,-5 0,-11 0,-15 -8,0 -41,0 -49,1 0,-2 0,-2 0,-5 0,-3 1,-7 1,-7 z" /><path
     style="fill:#ff0000;stroke:#2e2e2d;stroke-width:2.9525001;stroke-linecap:round;stroke-linejoin:round"
     inkscape:connector-curvature="0"
     id="path37"
     d="m 388,825 c -10,7 -32,20 -32,19 0,-4 1,-8 1,-12 -11,-1 -41,-1 -49,0 0,-5 0,-11 0,-15 7,0 40,0 48,1 0,-2 1,-2 0,-5 0,-3 0,-7 0,-7 z" /><path
     style="fill:#ff0000;stroke:#2e2e2d;stroke-width:2.9525001;stroke-linecap:round;stroke-linejoin:round"
     inkscape:connector-curvature="0"
     id="path39"
     d="m 388,961 c -10,7 -32,20 -32,19 0,-5 1,-8 1,-13 -11,0 -41,0 -49,1 0,-5 0,-11 0,-15 7,0 40,-1 48,0 0,-2 1,-1 0,-4 0,-3 0,-7 0,-8 z" /><path
     style="fill:#ff0000;stroke:#2e2e2d;stroke-width:2.9525001;stroke-linecap:round;stroke-linejoin:round"
     inkscape:connector-curvature="0"
     id="path41"
     d="m 630,146 c -10,7 -32,20 -32,19 0,-5 1,-8 0,-13 -10,0 -41,0 -48,1 -1,-5 -1,-11 -1,-15 8,0 41,-1 49,0 0,-2 0,-1 0,-4 0,-3 0,-7 -1,-8 z" /><path
     style="fill:#ff0000;stroke:#2e2e2d;stroke-width:2.9525001;stroke-linecap:round;stroke-linejoin:round"
     inkscape:connector-curvature="0"
     id="path43"
     d="m 549,282 c 10,7 32,20 32,19 0,-5 -1,-8 0,-13 10,0 41,0 48,0 0,-4 1,-10 1,-14 -8,0 -41,-1 -49,0 0,-2 0,-1 0,-4 0,-4 0,-7 1,-8 z" /><path
     style="fill:#ff0000;stroke:#2e2e2d;stroke-width:2.9525001;stroke-linecap:round;stroke-linejoin:round"
     inkscape:connector-curvature="0"
     id="path45"
     d="m 630,418 c -10,6 -32,20 -32,19 0,-5 1,-8 0,-13 -10,0 -41,0 -48,0 -1,-5 -1,-10 -1,-14 8,0 41,-1 49,0 0,-2 0,-1 0,-5 0,-3 0,-6 -1,-7 z" /><path
     style="fill:#ff0000;stroke:#2e2e2d;stroke-width:2.9525001;stroke-linecap:round;stroke-linejoin:round"
     inkscape:connector-curvature="0"
     id="path47"
     d="m 630,554 c -10,6 -32,20 -32,18 0,-4 1,-7 0,-12 -10,0 -41,0 -48,0 -1,-5 -1,-10 -1,-15 8,0 41,0 49,1 0,-2 0,-2 0,-5 0,-3 0,-6 -1,-7 z" /><path
     style="fill:#ff0000;stroke:#2e2e2d;stroke-width:2.9525001;stroke-linecap:round;stroke-linejoin:round"
     inkscape:connector-curvature="0"
     id="path49"
     d="m 630,690 c -10,6 -32,20 -32,18 0,-4 1,-8 0,-12 -10,0 -41,-1 -48,0 -1,-5 -1,-11 -1,-15 8,0 41,0 49,1 0,-2 0,-2 0,-5 0,-3 0,-7 -1,-7 z" /><path
     style="fill:#ff0000;stroke:#2e2e2d;stroke-width:2.9525001;stroke-linecap:round;stroke-linejoin:round"
     inkscape:connector-curvature="0"
     id="path51"
     d="m 549,824 c 10,-6 32,-19 32,-18 0,4 -1,8 0,12 10,0 41,1 48,0 0,5 1,11 1,15 -8,0 -41,0 -49,-1 0,2 0,2 0,5 0,3 0,7 1,7 z" /><path
     style="fill:#ff0000;stroke:#2e2e2d;stroke-width:2.9525001;stroke-linecap:round;stroke-linejoin:round"
     inkscape:connector-curvature="0"
     id="path53"
     d="m 630,961 c -10,7 -32,20 -32,19 0,-5 1,-8 0,-13 -10,0 -41,0 -48,1 -1,-5 -1,-11 -1,-15 8,0 41,-1 49,0 0,-2 0,-1 0,-4 0,-3 0,-7 -1,-8 z" /><path
     style="fill:#ff0000;stroke:#2e2e2d;stroke-width:2.9525001;stroke-linecap:round;stroke-linejoin:round"
     inkscape:connector-curvature="0"
     id="path55"
     d="m 791,146 c 9,7 31,20 32,19 0,-5 -1,-8 -1,-13 11,0 41,0 49,1 0,-5 0,-11 0,-15 -7,0 -41,-1 -49,0 1,-2 0,-1 0,-4 1,-3 1,-7 1,-8 z" /><path
     style="fill:#ff0000;stroke:#2e2e2d;stroke-width:2.9525001;stroke-linecap:round;stroke-linejoin:round"
     inkscape:connector-curvature="0"
     id="path57"
     d="m 871,282 c -9,7 -31,20 -32,19 0,-5 1,-8 1,-13 -11,0 -41,0 -49,0 0,-4 0,-10 0,-14 7,0 41,-1 49,0 0,-2 0,-1 0,-4 0,-4 -1,-7 -1,-8 z" /><path
     style="fill:#ff0000;stroke:#2e2e2d;stroke-width:2.9525001;stroke-linecap:round;stroke-linejoin:round"
     inkscape:connector-curvature="0"
     id="path59"
     d="m 871,418 c -9,6 -31,20 -32,19 0,-5 1,-8 1,-13 -11,0 -41,0 -49,0 0,-5 0,-10 0,-14 7,0 41,-1 49,0 0,-2 0,-1 0,-5 0,-3 -1,-6 -1,-7 z" /><path
     style="fill:#ff0000;stroke:#2e2e2d;stroke-width:2.9525001;stroke-linecap:round;stroke-linejoin:round"
     inkscape:connector-curvature="0"
     id="path61"
     d="m 871,554 c -9,6 -31,20 -32,18 0,-4 1,-7 1,-12 -11,0 -41,0 -49,0 0,-5 0,-10 0,-15 7,0 41,0 49,1 0,-2 0,-2 0,-5 0,-3 -1,-6 -1,-7 z" /><path
     style="fill:#ff0000;stroke:#2e2e2d;stroke-width:2.9525001;stroke-linecap:round;stroke-linejoin:round"
     inkscape:connector-curvature="0"
     id="path63"
     d="m 791,690 c 9,6 31,20 32,18 0,-4 -1,-8 -1,-12 11,0 41,-1 49,0 0,-5 0,-11 0,-15 -7,0 -41,0 -49,1 1,-2 0,-2 0,-5 1,-3 1,-7 1,-7 z" /><path
     style="fill:#ff0000;stroke:#2e2e2d;stroke-width:2.9525001;stroke-linecap:round;stroke-linejoin:round"
     inkscape:connector-curvature="0"
     id="path65"
     d="m 871,825 c -9,7 -31,20 -32,19 0,-4 1,-8 1,-12 -11,-1 -41,-1 -49,0 0,-5 0,-11 0,-15 7,0 41,0 49,1 0,-2 0,-2 0,-5 0,-3 -1,-7 -1,-7 z" /><path
     style="fill:#ff0000;stroke:#2e2e2d;stroke-width:2.9525001;stroke-linecap:round;stroke-linejoin:round"
     inkscape:connector-curvature="0"
     id="path67"
     d="m 871,961 c -9,7 -31,20 -32,19 0,-5 1,-8 1,-13 -11,0 -41,0 -49,1 0,-5 0,-11 0,-15 7,0 41,-1 49,0 0,-2 0,-1 0,-4 0,-3 -1,-7 -1,-8 z" /><path
     style="fill:#ff0000;stroke:#2e2e2d;stroke-width:2.9525001;stroke-linecap:round;stroke-linejoin:round"
     inkscape:connector-curvature="0"
     id="path69"
     d="m 232,176 c 6,10 20,32 19,32 -5,0 -8,-1 -13,-1 0,11 0,42 0,49 -4,0 -10,1 -14,1 0,-8 -1,-41 0,-49 -2,0 -1,-1 -5,0 -3,0 -6,0 -7,0 z" /><path
     style="fill:#ff0000;stroke:#2e2e2d;stroke-width:2.9525001;stroke-linecap:round;stroke-linejoin:round"
     inkscape:connector-curvature="0"
     id="path71"
     d="m 470,257 c 6,-10 20,-32 19,-32 -5,0 -8,1 -13,0 0,-10 0,-41 0,-49 -5,0 -10,0 -14,0 0,8 -1,41 0,49 -2,0 -1,0 -5,0 -3,0 -6,-1 -7,-1 z" /><path
     style="fill:#ff0000;stroke:#2e2e2d;stroke-width:2.9525001;stroke-linecap:round;stroke-linejoin:round"
     inkscape:connector-curvature="0"
     id="path73"
     d="m 708,257 c 6,-10 20,-32 19,-32 -5,0 -8,1 -13,0 0,-10 0,-41 0,-49 -5,0 -10,0 -14,0 0,8 -1,41 0,49 -2,0 -1,0 -5,0 -3,0 -6,-1 -7,-1 z" /><path
     style="fill:#ff0000;stroke:#2e2e2d;stroke-width:2.9525001;stroke-linecap:round;stroke-linejoin:round"
     inkscape:connector-curvature="0"
     id="path75"
     d="m 946,176 c 6,10 20,32 19,32 -5,0 -8,-1 -13,-1 0,11 0,42 0,49 -5,0 -10,1 -15,1 1,-8 0,-41 1,-49 -2,0 -2,-1 -5,0 -3,0 -6,0 -7,0 z" /><path
     style="fill:#ff0000;stroke:#2e2e2d;stroke-width:2.9525001;stroke-linecap:round;stroke-linejoin:round"
     inkscape:connector-curvature="0"
     id="path77"
     d="m 232,312 c 6,9 20,31 19,31 -5,0 -8,-1 -13,0 0,10 0,41 0,49 -4,0 -10,0 -14,0 0,-8 -1,-41 0,-49 -2,0 -1,0 -5,0 -3,0 -6,1 -7,1 z" /><path
     style="fill:#ff0000;stroke:#2e2e2d;stroke-width:2.9525001;stroke-linecap:round;stroke-linejoin:round"
     inkscape:connector-curvature="0"
     id="path79"
     d="m 470,312 c 6,9 20,31 19,31 -5,0 -8,-1 -13,0 0,10 0,41 0,49 -5,0 -10,0 -14,0 0,-8 -1,-41 0,-49 -2,0 -1,0 -5,0 -3,0 -6,1 -7,1 z" /><path
     style="fill:#ff0000;stroke:#2e2e2d;stroke-width:2.9525001;stroke-linecap:round;stroke-linejoin:round"
     inkscape:connector-curvature="0"
     id="path81"
     d="m 708,392 c 6,-10 20,-32 19,-32 -5,0 -8,1 -13,1 0,-11 0,-41 0,-49 -5,0 -10,0 -14,0 0,7 -1,40 0,48 -2,0 -1,1 -5,0 -3,0 -6,0 -7,0 z" /><path
     style="fill:#ff0000;stroke:#2e2e2d;stroke-width:2.9525001;stroke-linecap:round;stroke-linejoin:round"
     inkscape:connector-curvature="0"
     id="path83"
     d="m 946,392 c 6,-10 20,-32 19,-32 -5,0 -8,1 -13,1 0,-11 0,-41 0,-49 -5,0 -10,0 -15,0 1,7 0,40 1,48 -2,0 -2,1 -5,0 -3,0 -6,0 -7,0 z" /><path
     style="fill:#ff0000;stroke:#2e2e2d;stroke-width:2.9525001;stroke-linecap:round;stroke-linejoin:round"
     inkscape:connector-curvature="0"
     id="path85"
     d="m 232,527 c 6,-9 20,-31 19,-31 -5,0 -8,1 -13,0 0,-10 0,-41 0,-49 -4,0 -10,0 -14,0 0,8 -1,41 0,49 -2,0 -1,0 -5,0 -3,0 -6,-1 -7,-1 z" /><path
     style="fill:#ff0000;stroke:#2e2e2d;stroke-width:2.9525001;stroke-linecap:round;stroke-linejoin:round"
     inkscape:connector-curvature="0"
     id="path87"
     d="m 470,447 c 6,10 20,32 19,32 -5,0 -8,-1 -13,-1 0,11 0,41 0,49 -5,0 -10,0 -14,0 0,-7 -1,-40 0,-49 -2,1 -1,0 -5,1 -3,0 -6,0 -7,0 z" /><path
     style="fill:#ff0000;stroke:#2e2e2d;stroke-width:2.9525001;stroke-linecap:round;stroke-linejoin:round"
     inkscape:connector-curvature="0"
     id="path89"
     d="m 708,447 c 6,10 20,32 19,32 -5,0 -8,-1 -13,-1 0,11 0,41 0,49 -5,0 -10,0 -14,0 0,-7 -1,-40 0,-49 -2,1 -1,0 -5,1 -3,0 -6,0 -7,0 z" /><path
     style="fill:#ff0000;stroke:#2e2e2d;stroke-width:2.9525001;stroke-linecap:round;stroke-linejoin:round"
     inkscape:connector-curvature="0"
     id="path91"
     d="m 946,447 c 6,10 20,32 19,32 -5,0 -8,-1 -13,-1 0,11 0,41 0,49 -5,0 -10,0 -15,0 1,-7 0,-40 1,-49 -2,1 -2,0 -5,1 -3,0 -6,0 -7,0 z" /><path
     style="fill:#ff0000;stroke:#2e2e2d;stroke-width:2.9525001;stroke-linecap:round;stroke-linejoin:round"
     inkscape:connector-curvature="0"
     id="path93"
     d="m 232,582 c 6,10 20,32 19,32 -5,0 -8,-1 -13,0 0,10 0,41 0,48 -4,1 -10,1 -14,1 0,-8 -1,-41 0,-49 -2,0 -1,0 -5,0 -3,0 -6,0 -7,1 z" /><path
     style="fill:#ff0000;stroke:#2e2e2d;stroke-width:2.9525001;stroke-linecap:round;stroke-linejoin:round"
     inkscape:connector-curvature="0"
     id="path95"
     d="m 470,582 c 6,10 20,32 19,32 -5,0 -8,-1 -13,0 0,10 0,41 0,48 -5,1 -10,1 -14,1 0,-8 -1,-41 0,-49 -2,0 -1,0 -5,0 -3,0 -6,0 -7,1 z" /><path
     style="fill:#ff0000;stroke:#2e2e2d;stroke-width:2.9525001;stroke-linecap:round;stroke-linejoin:round"
     inkscape:connector-curvature="0"
     id="path97"
     d="m 708,582 c 6,10 20,32 19,32 -5,0 -8,-1 -13,0 0,10 0,41 0,48 -5,1 -10,1 -14,1 0,-8 -1,-41 0,-49 -2,0 -1,0 -5,0 -3,0 -6,0 -7,1 z" /><path
     style="fill:#ff0000;stroke:#2e2e2d;stroke-width:2.9525001;stroke-linecap:round;stroke-linejoin:round"
     inkscape:connector-curvature="0"
     id="path99"
     d="m 946,582 c 6,10 20,32 19,32 -5,0 -8,-1 -13,0 0,10 0,41 0,48 -5,1 -10,1 -15,1 1,-8 0,-41 1,-49 -2,0 -2,0 -5,0 -3,0 -6,0 -7,1 z" /><path
     style="fill:#ff0000;stroke:#2e2e2d;stroke-width:2.9525001;stroke-linecap:round;stroke-linejoin:round"
     inkscape:connector-curvature="0"
     id="path101"
     d="m 232,718 c 6,9 20,31 19,32 -5,0 -8,-1 -13,-1 0,11 0,41 0,49 -4,0 -10,0 -14,0 0,-7 -1,-41 0,-49 -2,1 -1,0 -5,0 -3,1 -6,1 -7,1 z" /><path
     style="fill:#ff0000;stroke:#2e2e2d;stroke-width:2.9525001;stroke-linecap:round;stroke-linejoin:round"
     inkscape:connector-curvature="0"
     id="path103"
     d="m 470,718 c 6,9 20,31 19,32 -5,0 -8,-1 -13,-1 0,11 0,41 0,49 -5,0 -10,0 -14,0 0,-7 -1,-41 0,-49 -2,1 -1,0 -5,0 -3,1 -6,1 -7,1 z" /><path
     style="fill:#ff0000;stroke:#2e2e2d;stroke-width:2.9525001;stroke-linecap:round;stroke-linejoin:round"
     inkscape:connector-curvature="0"
     id="path105"
     d="m 708,718 c 6,9 20,31 19,32 -5,0 -8,-1 -13,-1 0,11 0,41 0,49 -5,0 -10,0 -14,0 0,-7 -1,-41 0,-49 -2,1 -1,0 -5,0 -3,1 -6,1 -7,1 z" /><path
     style="fill:#ff0000;stroke:#2e2e2d;stroke-width:2.9525001;stroke-linecap:round;stroke-linejoin:round"
     inkscape:connector-curvature="0"
     id="path107"
     d="m 946,718 c 6,9 20,31 19,32 -5,0 -8,-1 -13,-1 0,11 0,41 0,49 -5,0 -10,0 -15,0 1,-7 0,-41 1,-49 -2,1 -2,0 -5,0 -3,1 -6,1 -7,1 z" /><path
     style="fill:#ff0000;stroke:#2e2e2d;stroke-width:2.9525001;stroke-linecap:round;stroke-linejoin:round"
     inkscape:connector-curvature="0"
     id="path109"
     d="m 232,934 c 6,-10 20,-32 19,-32 -5,0 -8,1 -13,0 0,-10 0,-41 0,-48 -4,-1 -10,-1 -14,-1 0,8 -1,41 0,49 -2,0 -1,0 -5,0 -3,0 -6,0 -7,-1 z" /><path
     style="fill:#ff0000;stroke:#2e2e2d;stroke-width:2.9525001;stroke-linecap:round;stroke-linejoin:round"
     inkscape:connector-curvature="0"
     id="path111"
     d="m 470,934 c 6,-10 20,-32 19,-32 -5,0 -8,1 -13,0 0,-10 0,-41 0,-48 -5,-1 -10,-1 -14,-1 0,8 -1,41 0,49 -2,0 -1,0 -5,0 -3,0 -6,0 -7,-1 z" /><path
     style="fill:#ff0000;stroke:#2e2e2d;stroke-width:2.9525001;stroke-linecap:round;stroke-linejoin:round"
     inkscape:connector-curvature="0"
     id="path113"
     d="m 708,853 c 6,10 20,32 19,32 -5,0 -8,-1 -13,0 0,10 0,41 0,48 -5,1 -10,1 -14,1 0,-8 -1,-41 0,-49 -2,0 -1,0 -5,0 -3,0 -6,0 -7,1 z" /><path
     style="fill:#ff0000;stroke:#2e2e2d;stroke-width:2.9525001;stroke-linecap:round;stroke-linejoin:round"
     inkscape:connector-curvature="0"
     id="path115"
     d="m 946,853 c 6,10 20,32 19,32 -5,0 -8,-1 -13,0 0,10 0,41 0,48 -5,1 -10,1 -15,1 1,-8 0,-41 1,-49 -2,0 -2,0 -5,0 -3,0 -6,0 -7,1 z" /></svg>