<?xml version="1.0" encoding="UTF-8"?>
<!DOCTYPE svg PUBLIC "-//W3C//DTD SVG 1.1//EN" "http://www.w3.org/Graphics/SVG/1.1/DTD/svg11.dtd">
<!-- Creator: CorelDRAW X6 -->
<svg xmlns="http://www.w3.org/2000/svg" xml:space="preserve" width="1181px" height="1181px" version="1.1" shape-rendering="geometricPrecision" text-rendering="geometricPrecision" image-rendering="optimizeQuality" fill-rule="evenodd" clip-rule="evenodd"
viewBox="0 0 1181 1181"
 xmlns:xlink="http://www.w3.org/1999/xlink">
 <defs>
    <clipPath id="id0">
     <path d="M246 987c38,39 56,124 -19,144 -15,4 -28,-9 -30,-8 0,1 5,4 7,5 2,1 20,10 22,12 11,14 -50,8 -56,0 -8,-10 2,-25 1,-34 -2,-14 -19,-7 8,-84 13,-40 61,-41 67,-35z"/>
    </clipPath>
    <clipPath id="id1">
     <path d="M278 1004c3,16 1,21 -2,36 -8,33 -37,34 -69,29 -18,-3 -34,-14 -41,-24 -17,-29 -8,-49 -8,-58 -13,-18 8,-15 10,-14 1,0 2,0 5,-2 6,-4 40,-10 41,-11 1,-14 15,-6 15,0 0,4 45,20 49,44z"/>
    </clipPath>
 </defs>
 <g id="Layer_x0020_1">
  <metadata id="CorelCorpID_0Corel-Layer"/>
  <path fill="#32964D" stroke="#2E2E2D" stroke-width="2.9525" stroke-linecap="round" stroke-linejoin="round" d="M276 174c26,-1 106,-2 144,0 12,0 16,12 17,21 0,17 0,29 0,44 0,10 -5,19 -14,19 -23,0 -99,2 -146,2 -12,0 -18,-8 -18,-14 0,-10 -1,-36 -1,-47 2,-14 -4,-25 18,-25z"/>
  <path fill="#32964D" stroke="#2E2E2D" stroke-width="2.9525" stroke-linecap="round" stroke-linejoin="round" d="M517 174c27,-1 107,-2 145,0 11,0 16,12 16,21 1,17 1,29 1,44 -1,10 -6,19 -15,19 -23,0 -98,2 -146,2 -11,0 -17,-8 -17,-14 0,-10 -1,-36 -1,-47 2,-14 -5,-25 17,-25z"/>
  <path fill="#32964D" stroke="#2E2E2D" stroke-width="2.9525" stroke-linecap="round" stroke-linejoin="round" d="M759 174c27,-1 106,-2 144,0 12,0 17,12 17,21 0,17 1,29 0,44 0,10 -5,19 -14,19 -23,0 -98,2 -146,2 -12,0 -17,-8 -17,-14 0,-10 -2,-36 -1,-47 1,-14 -5,-25 17,-25z"/>
  <path fill="#32964D" stroke="#2E2E2D" stroke-width="2.9525" stroke-linecap="round" stroke-linejoin="round" d="M759 309c27,-1 106,-1 144,0 12,1 17,13 17,22 0,17 1,28 0,44 0,9 -5,19 -14,19 -23,0 -98,1 -146,1 -12,0 -17,-7 -17,-14 0,-9 -2,-36 -1,-47 1,-14 -5,-24 17,-25zm-242 0c27,-1 107,-1 145,0 11,1 16,13 16,22 1,17 1,28 1,44 -1,9 -6,19 -15,19 -23,0 -98,1 -146,1 -11,0 -17,-7 -17,-14 0,-9 -1,-36 -1,-47 2,-14 -5,-24 17,-25zm-241 0c26,-1 106,-1 144,0 12,1 16,13 17,22 0,17 0,28 0,44 0,9 -5,19 -14,19 -23,0 -99,1 -146,1 -12,0 -18,-7 -18,-14 0,-9 -1,-36 -1,-47 2,-14 -4,-24 18,-25z"/>
  <path fill="#32964D" stroke="#2E2E2D" stroke-width="2.9525" stroke-linecap="round" stroke-linejoin="round" d="M759 445c27,-1 106,-2 144,0 12,0 17,12 17,21 0,17 1,29 0,44 0,10 -5,19 -14,19 -23,0 -98,2 -146,2 -12,0 -17,-8 -17,-15 0,-9 -2,-35 -1,-46 1,-14 -5,-25 17,-25zm-242 0c27,-1 107,-2 145,0 11,0 16,12 16,21 1,17 1,29 1,44 -1,10 -6,19 -15,19 -23,0 -98,2 -146,2 -11,0 -17,-8 -17,-15 0,-9 -1,-35 -1,-46 2,-14 -5,-25 17,-25zm-241 0c26,-1 106,-2 144,0 12,0 16,12 17,21 0,17 0,29 0,44 0,10 -5,19 -14,19 -23,0 -99,2 -146,2 -12,0 -18,-8 -18,-15 0,-9 -1,-35 -1,-46 2,-14 -4,-25 18,-25z"/>
  <path fill="#32964D" stroke="#2E2E2D" stroke-width="2.9525" stroke-linecap="round" stroke-linejoin="round" d="M759 580c27,-1 106,-1 144,0 12,1 17,13 17,22 0,17 1,28 0,43 0,10 -5,19 -14,19 -23,0 -98,2 -146,2 -12,0 -17,-7 -17,-14 0,-9 -2,-36 -1,-47 1,-14 -5,-24 17,-25zm-242 0c27,-1 107,-1 145,0 11,1 16,13 16,22 1,17 1,28 1,43 -1,10 -6,19 -15,19 -23,0 -98,2 -146,2 -11,0 -17,-7 -17,-14 0,-9 -1,-36 -1,-47 2,-14 -5,-24 17,-25zm-241 0c26,-1 106,-1 144,0 12,1 16,13 17,22 0,17 0,28 0,43 0,10 -5,19 -14,19 -23,0 -99,2 -146,2 -12,0 -18,-7 -18,-14 0,-9 -1,-36 -1,-47 2,-14 -4,-24 18,-25z"/>
  <path fill="#32964D" stroke="#2E2E2D" stroke-width="2.9525" stroke-linecap="round" stroke-linejoin="round" d="M759 715c27,0 106,-1 144,1 12,0 17,12 17,21 0,17 1,29 0,44 0,10 -5,19 -14,19 -23,0 -98,1 -146,1 -12,0 -17,-7 -17,-14 0,-9 -2,-35 -1,-46 1,-15 -5,-25 17,-26zm-242 0c27,0 107,-1 145,1 11,0 16,12 16,21 1,17 1,29 1,44 -1,10 -6,19 -15,19 -23,0 -98,1 -146,1 -11,0 -17,-7 -17,-14 0,-9 -1,-35 -1,-46 2,-15 -5,-25 17,-26zm-241 0c26,0 106,-1 144,1 12,0 16,12 17,21 0,17 0,29 0,44 0,10 -5,19 -14,19 -23,0 -99,1 -146,1 -12,0 -18,-7 -18,-14 0,-9 -1,-35 -1,-46 2,-15 -4,-25 18,-26z"/>
  <path fill="#32964D" stroke="#2E2E2D" stroke-width="2.9525" stroke-linecap="round" stroke-linejoin="round" d="M759 851c27,-1 106,-2 144,0 12,0 17,13 17,22 0,16 1,28 0,43 0,10 -5,19 -14,19 -23,0 -98,2 -146,2 -12,0 -17,-7 -17,-14 0,-10 -2,-36 -1,-47 1,-14 -5,-24 17,-25zm-242 0c27,-1 107,-2 145,0 11,0 16,13 16,22 1,16 1,28 1,43 -1,10 -6,19 -15,19 -23,0 -98,2 -146,2 -11,0 -17,-7 -17,-14 0,-10 -1,-36 -1,-47 2,-14 -5,-24 17,-25zm-241 0c26,-1 106,-2 144,0 12,0 16,13 17,22 0,16 0,28 0,43 0,10 -5,19 -14,19 -23,0 -99,2 -146,2 -12,0 -18,-7 -18,-14 0,-10 -1,-36 -1,-47 2,-14 -4,-24 18,-25z"/>
  <path fill="#008CCF" stroke="#2E2E2D" stroke-width="2.9525" stroke-linecap="round" stroke-linejoin="round" d="M388 146c-10,7 -32,20 -32,19 0,-5 1,-8 1,-13 -11,0 -41,0 -49,1 0,-5 0,-11 0,-15 7,0 40,-1 48,0 0,-2 1,-1 0,-4 0,-3 0,-7 0,-8l32 20z"/>
  <path fill="#008CCF" stroke="#2E2E2D" stroke-width="2.9525" stroke-linecap="round" stroke-linejoin="round" d="M388 282c-10,7 -32,20 -32,19 0,-5 1,-8 1,-13 -11,0 -41,0 -49,0 0,-4 0,-10 0,-14 7,0 40,-1 48,0 0,-2 1,-1 0,-4 0,-4 0,-7 0,-8l32 20z"/>
  <path fill="#008CCF" stroke="#2E2E2D" stroke-width="2.9525" stroke-linecap="round" stroke-linejoin="round" d="M308 418c9,6 31,20 31,19 0,-5 -1,-8 0,-13 10,0 41,0 49,0 0,-5 0,-10 0,-14 -8,0 -41,-1 -49,0 0,-2 0,-1 0,-5 0,-3 1,-6 1,-7l-32 20z"/>
  <path fill="#008CCF" stroke="#2E2E2D" stroke-width="2.9525" stroke-linecap="round" stroke-linejoin="round" d="M308 554c9,6 31,20 31,18 0,-4 -1,-7 0,-12 10,0 41,0 49,0 0,-5 0,-10 0,-15 -8,0 -41,0 -49,1 0,-2 0,-2 0,-5 0,-3 1,-6 1,-7l-32 20z"/>
  <path fill="#008CCF" stroke="#2E2E2D" stroke-width="2.9525" stroke-linecap="round" stroke-linejoin="round" d="M308 690c9,6 31,20 31,18 0,-4 -1,-8 0,-12 10,0 41,-1 49,0 0,-5 0,-11 0,-15 -8,0 -41,0 -49,1 0,-2 0,-2 0,-5 0,-3 1,-7 1,-7l-32 20z"/>
  <path fill="#008CCF" stroke="#2E2E2D" stroke-width="2.9525" stroke-linecap="round" stroke-linejoin="round" d="M388 825c-10,7 -32,20 -32,19 0,-4 1,-8 1,-12 -11,-1 -41,-1 -49,0 0,-5 0,-11 0,-15 7,0 40,0 48,1 0,-2 1,-2 0,-5 0,-3 0,-7 0,-7l32 19z"/>
  <path fill="#008CCF" stroke="#2E2E2D" stroke-width="2.9525" stroke-linecap="round" stroke-linejoin="round" d="M388 961c-10,7 -32,20 -32,19 0,-5 1,-8 1,-13 -11,0 -41,0 -49,1 0,-5 0,-11 0,-15 7,0 40,-1 48,0 0,-2 1,-1 0,-4 0,-3 0,-7 0,-8l32 20z"/>
  <path fill="#008CCF" stroke="#2E2E2D" stroke-width="2.9525" stroke-linecap="round" stroke-linejoin="round" d="M630 146c-10,7 -32,20 -32,19 0,-5 1,-8 0,-13 -10,0 -41,0 -48,1 -1,-5 -1,-11 -1,-15 8,0 41,-1 49,0 0,-2 0,-1 0,-4 0,-3 0,-7 -1,-8l33 20z"/>
  <path fill="#008CCF" stroke="#2E2E2D" stroke-width="2.9525" stroke-linecap="round" stroke-linejoin="round" d="M549 282c10,7 32,20 32,19 0,-5 -1,-8 0,-13 10,0 41,0 48,0 0,-4 1,-10 1,-14 -8,0 -41,-1 -49,0 0,-2 0,-1 0,-4 0,-4 0,-7 1,-8l-33 20z"/>
  <path fill="#008CCF" stroke="#2E2E2D" stroke-width="2.9525" stroke-linecap="round" stroke-linejoin="round" d="M630 418c-10,6 -32,20 -32,19 0,-5 1,-8 0,-13 -10,0 -41,0 -48,0 -1,-5 -1,-10 -1,-14 8,0 41,-1 49,0 0,-2 0,-1 0,-5 0,-3 0,-6 -1,-7l33 20z"/>
  <path fill="#008CCF" stroke="#2E2E2D" stroke-width="2.9525" stroke-linecap="round" stroke-linejoin="round" d="M630 554c-10,6 -32,20 -32,18 0,-4 1,-7 0,-12 -10,0 -41,0 -48,0 -1,-5 -1,-10 -1,-15 8,0 41,0 49,1 0,-2 0,-2 0,-5 0,-3 0,-6 -1,-7l33 20z"/>
  <path fill="#008CCF" stroke="#2E2E2D" stroke-width="2.9525" stroke-linecap="round" stroke-linejoin="round" d="M630 690c-10,6 -32,20 -32,18 0,-4 1,-8 0,-12 -10,0 -41,-1 -48,0 -1,-5 -1,-11 -1,-15 8,0 41,0 49,1 0,-2 0,-2 0,-5 0,-3 0,-7 -1,-7l33 20z"/>
  <path fill="#008CCF" stroke="#2E2E2D" stroke-width="2.9525" stroke-linecap="round" stroke-linejoin="round" d="M549 824c10,-6 32,-19 32,-18 0,4 -1,8 0,12 10,0 41,1 48,0 0,5 1,11 1,15 -8,0 -41,0 -49,-1 0,2 0,2 0,5 0,3 0,7 1,7l-33 -20z"/>
  <path fill="#008CCF" stroke="#2E2E2D" stroke-width="2.9525" stroke-linecap="round" stroke-linejoin="round" d="M630 961c-10,7 -32,20 -32,19 0,-5 1,-8 0,-13 -10,0 -41,0 -48,1 -1,-5 -1,-11 -1,-15 8,0 41,-1 49,0 0,-2 0,-1 0,-4 0,-3 0,-7 -1,-8l33 20z"/>
  <path fill="#008CCF" stroke="#2E2E2D" stroke-width="2.9525" stroke-linecap="round" stroke-linejoin="round" d="M791 146c9,7 31,20 32,19 0,-5 -1,-8 -1,-13 11,0 41,0 49,1 0,-5 0,-11 0,-15 -7,0 -41,-1 -49,0 1,-2 0,-1 0,-4 1,-3 1,-7 1,-8l-32 20z"/>
  <path fill="#008CCF" stroke="#2E2E2D" stroke-width="2.9525" stroke-linecap="round" stroke-linejoin="round" d="M871 282c-9,7 -31,20 -32,19 0,-5 1,-8 1,-13 -11,0 -41,0 -49,0 0,-4 0,-10 0,-14 7,0 41,-1 49,0 0,-2 0,-1 0,-4 0,-4 -1,-7 -1,-8l32 20z"/>
  <path fill="#008CCF" stroke="#2E2E2D" stroke-width="2.9525" stroke-linecap="round" stroke-linejoin="round" d="M871 418c-9,6 -31,20 -32,19 0,-5 1,-8 1,-13 -11,0 -41,0 -49,0 0,-5 0,-10 0,-14 7,0 41,-1 49,0 0,-2 0,-1 0,-5 0,-3 -1,-6 -1,-7l32 20z"/>
  <path fill="#008CCF" stroke="#2E2E2D" stroke-width="2.9525" stroke-linecap="round" stroke-linejoin="round" d="M871 554c-9,6 -31,20 -32,18 0,-4 1,-7 1,-12 -11,0 -41,0 -49,0 0,-5 0,-10 0,-15 7,0 41,0 49,1 0,-2 0,-2 0,-5 0,-3 -1,-6 -1,-7l32 20z"/>
  <path fill="#008CCF" stroke="#2E2E2D" stroke-width="2.9525" stroke-linecap="round" stroke-linejoin="round" d="M791 690c9,6 31,20 32,18 0,-4 -1,-8 -1,-12 11,0 41,-1 49,0 0,-5 0,-11 0,-15 -7,0 -41,0 -49,1 1,-2 0,-2 0,-5 1,-3 1,-7 1,-7l-32 20z"/>
  <path fill="#008CCF" stroke="#2E2E2D" stroke-width="2.9525" stroke-linecap="round" stroke-linejoin="round" d="M871 825c-9,7 -31,20 -32,19 0,-4 1,-8 1,-12 -11,-1 -41,-1 -49,0 0,-5 0,-11 0,-15 7,0 41,0 49,1 0,-2 0,-2 0,-5 0,-3 -1,-7 -1,-7l32 19z"/>
  <path fill="#008CCF" stroke="#2E2E2D" stroke-width="2.9525" stroke-linecap="round" stroke-linejoin="round" d="M871 961c-9,7 -31,20 -32,19 0,-5 1,-8 1,-13 -11,0 -41,0 -49,1 0,-5 0,-11 0,-15 7,0 41,-1 49,0 0,-2 0,-1 0,-4 0,-3 -1,-7 -1,-8l32 20z"/>
  <path fill="#008CCF" stroke="#2E2E2D" stroke-width="2.9525" stroke-linecap="round" stroke-linejoin="round" d="M232 176c6,10 20,32 19,32 -5,0 -8,-1 -13,-1 0,11 0,42 0,49 -4,0 -10,1 -14,1 0,-8 -1,-41 0,-49 -2,0 -1,-1 -5,0 -3,0 -6,0 -7,0l20 -32z"/>
  <path fill="#008CCF" stroke="#2E2E2D" stroke-width="2.9525" stroke-linecap="round" stroke-linejoin="round" d="M470 257c6,-10 20,-32 19,-32 -5,0 -8,1 -13,0 0,-10 0,-41 0,-49 -5,0 -10,0 -14,0 0,8 -1,41 0,49 -2,0 -1,0 -5,0 -3,0 -6,-1 -7,-1l20 33z"/>
  <path fill="#008CCF" stroke="#2E2E2D" stroke-width="2.9525" stroke-linecap="round" stroke-linejoin="round" d="M708 257c6,-10 20,-32 19,-32 -5,0 -8,1 -13,0 0,-10 0,-41 0,-49 -5,0 -10,0 -14,0 0,8 -1,41 0,49 -2,0 -1,0 -5,0 -3,0 -6,-1 -7,-1l20 33z"/>
  <path fill="#008CCF" stroke="#2E2E2D" stroke-width="2.9525" stroke-linecap="round" stroke-linejoin="round" d="M946 176c6,10 20,32 19,32 -5,0 -8,-1 -13,-1 0,11 0,42 0,49 -5,0 -10,1 -15,1 1,-8 0,-41 1,-49 -2,0 -2,-1 -5,0 -3,0 -6,0 -7,0l20 -32z"/>
  <path fill="#008CCF" stroke="#2E2E2D" stroke-width="2.9525" stroke-linecap="round" stroke-linejoin="round" d="M232 312c6,9 20,31 19,31 -5,0 -8,-1 -13,0 0,10 0,41 0,49 -4,0 -10,0 -14,0 0,-8 -1,-41 0,-49 -2,0 -1,0 -5,0 -3,0 -6,1 -7,1l20 -32z"/>
  <path fill="#008CCF" stroke="#2E2E2D" stroke-width="2.9525" stroke-linecap="round" stroke-linejoin="round" d="M470 312c6,9 20,31 19,31 -5,0 -8,-1 -13,0 0,10 0,41 0,49 -5,0 -10,0 -14,0 0,-8 -1,-41 0,-49 -2,0 -1,0 -5,0 -3,0 -6,1 -7,1l20 -32z"/>
  <path fill="#008CCF" stroke="#2E2E2D" stroke-width="2.9525" stroke-linecap="round" stroke-linejoin="round" d="M708 392c6,-10 20,-32 19,-32 -5,0 -8,1 -13,1 0,-11 0,-41 0,-49 -5,0 -10,0 -14,0 0,7 -1,40 0,48 -2,0 -1,1 -5,0 -3,0 -6,0 -7,0l20 32z"/>
  <path fill="#008CCF" stroke="#2E2E2D" stroke-width="2.9525" stroke-linecap="round" stroke-linejoin="round" d="M946 392c6,-10 20,-32 19,-32 -5,0 -8,1 -13,1 0,-11 0,-41 0,-49 -5,0 -10,0 -15,0 1,7 0,40 1,48 -2,0 -2,1 -5,0 -3,0 -6,0 -7,0l20 32z"/>
  <path fill="#008CCF" stroke="#2E2E2D" stroke-width="2.9525" stroke-linecap="round" stroke-linejoin="round" d="M232 527c6,-9 20,-31 19,-31 -5,0 -8,1 -13,0 0,-10 0,-41 0,-49 -4,0 -10,0 -14,0 0,8 -1,41 0,49 -2,0 -1,0 -5,0 -3,0 -6,-1 -7,-1l20 32z"/>
  <path fill="#008CCF" stroke="#2E2E2D" stroke-width="2.9525" stroke-linecap="round" stroke-linejoin="round" d="M470 447c6,10 20,32 19,32 -5,0 -8,-1 -13,-1 0,11 0,41 0,49 -5,0 -10,0 -14,0 0,-7 -1,-40 0,-49 -2,1 -1,0 -5,1 -3,0 -6,0 -7,0l20 -32z"/>
  <path fill="#008CCF" stroke="#2E2E2D" stroke-width="2.9525" stroke-linecap="round" stroke-linejoin="round" d="M708 447c6,10 20,32 19,32 -5,0 -8,-1 -13,-1 0,11 0,41 0,49 -5,0 -10,0 -14,0 0,-7 -1,-40 0,-49 -2,1 -1,0 -5,1 -3,0 -6,0 -7,0l20 -32z"/>
  <path fill="#008CCF" stroke="#2E2E2D" stroke-width="2.9525" stroke-linecap="round" stroke-linejoin="round" d="M946 447c6,10 20,32 19,32 -5,0 -8,-1 -13,-1 0,11 0,41 0,49 -5,0 -10,0 -15,0 1,-7 0,-40 1,-49 -2,1 -2,0 -5,1 -3,0 -6,0 -7,0l20 -32z"/>
  <path fill="#008CCF" stroke="#2E2E2D" stroke-width="2.9525" stroke-linecap="round" stroke-linejoin="round" d="M232 582c6,10 20,32 19,32 -5,0 -8,-1 -13,0 0,10 0,41 0,48 -4,1 -10,1 -14,1 0,-8 -1,-41 0,-49 -2,0 -1,0 -5,0 -3,0 -6,0 -7,1l20 -33z"/>
  <path fill="#008CCF" stroke="#2E2E2D" stroke-width="2.9525" stroke-linecap="round" stroke-linejoin="round" d="M470 582c6,10 20,32 19,32 -5,0 -8,-1 -13,0 0,10 0,41 0,48 -5,1 -10,1 -14,1 0,-8 -1,-41 0,-49 -2,0 -1,0 -5,0 -3,0 -6,0 -7,1l20 -33z"/>
  <path fill="#008CCF" stroke="#2E2E2D" stroke-width="2.9525" stroke-linecap="round" stroke-linejoin="round" d="M708 582c6,10 20,32 19,32 -5,0 -8,-1 -13,0 0,10 0,41 0,48 -5,1 -10,1 -14,1 0,-8 -1,-41 0,-49 -2,0 -1,0 -5,0 -3,0 -6,0 -7,1l20 -33z"/>
  <path fill="#008CCF" stroke="#2E2E2D" stroke-width="2.9525" stroke-linecap="round" stroke-linejoin="round" d="M946 582c6,10 20,32 19,32 -5,0 -8,-1 -13,0 0,10 0,41 0,48 -5,1 -10,1 -15,1 1,-8 0,-41 1,-49 -2,0 -2,0 -5,0 -3,0 -6,0 -7,1l20 -33z"/>
  <path fill="#008CCF" stroke="#2E2E2D" stroke-width="2.9525" stroke-linecap="round" stroke-linejoin="round" d="M232 718c6,9 20,31 19,32 -5,0 -8,-1 -13,-1 0,11 0,41 0,49 -4,0 -10,0 -14,0 0,-7 -1,-41 0,-49 -2,1 -1,0 -5,0 -3,1 -6,1 -7,1l20 -32z"/>
  <path fill="#008CCF" stroke="#2E2E2D" stroke-width="2.9525" stroke-linecap="round" stroke-linejoin="round" d="M470 718c6,9 20,31 19,32 -5,0 -8,-1 -13,-1 0,11 0,41 0,49 -5,0 -10,0 -14,0 0,-7 -1,-41 0,-49 -2,1 -1,0 -5,0 -3,1 -6,1 -7,1l20 -32z"/>
  <path fill="#008CCF" stroke="#2E2E2D" stroke-width="2.9525" stroke-linecap="round" stroke-linejoin="round" d="M708 718c6,9 20,31 19,32 -5,0 -8,-1 -13,-1 0,11 0,41 0,49 -5,0 -10,0 -14,0 0,-7 -1,-41 0,-49 -2,1 -1,0 -5,0 -3,1 -6,1 -7,1l20 -32z"/>
  <path fill="#008CCF" stroke="#2E2E2D" stroke-width="2.9525" stroke-linecap="round" stroke-linejoin="round" d="M946 718c6,9 20,31 19,32 -5,0 -8,-1 -13,-1 0,11 0,41 0,49 -5,0 -10,0 -15,0 1,-7 0,-41 1,-49 -2,1 -2,0 -5,0 -3,1 -6,1 -7,1l20 -32z"/>
  <path fill="#008CCF" stroke="#2E2E2D" stroke-width="2.9525" stroke-linecap="round" stroke-linejoin="round" d="M232 934c6,-10 20,-32 19,-32 -5,0 -8,1 -13,0 0,-10 0,-41 0,-48 -4,-1 -10,-1 -14,-1 0,8 -1,41 0,49 -2,0 -1,0 -5,0 -3,0 -6,0 -7,-1l20 33z"/>
  <path fill="#008CCF" stroke="#2E2E2D" stroke-width="2.9525" stroke-linecap="round" stroke-linejoin="round" d="M470 934c6,-10 20,-32 19,-32 -5,0 -8,1 -13,0 0,-10 0,-41 0,-48 -5,-1 -10,-1 -14,-1 0,8 -1,41 0,49 -2,0 -1,0 -5,0 -3,0 -6,0 -7,-1l20 33z"/>
  <path fill="#008CCF" stroke="#2E2E2D" stroke-width="2.9525" stroke-linecap="round" stroke-linejoin="round" d="M708 853c6,10 20,32 19,32 -5,0 -8,-1 -13,0 0,10 0,41 0,48 -5,1 -10,1 -14,1 0,-8 -1,-41 0,-49 -2,0 -1,0 -5,0 -3,0 -6,0 -7,1l20 -33z"/>
  <path fill="#008CCF" stroke="#2E2E2D" stroke-width="2.9525" stroke-linecap="round" stroke-linejoin="round" d="M946 853c6,10 20,32 19,32 -5,0 -8,-1 -13,0 0,10 0,41 0,48 -5,1 -10,1 -15,1 1,-8 0,-41 1,-49 -2,0 -2,0 -5,0 -3,0 -6,0 -7,1l20 -33z"/>
  <g id="_886506960">
   <path fill="#CDB370" stroke="#2E2E2D" stroke-width="2.9525" stroke-linecap="round" stroke-linejoin="round" d="M927 111c-5,68 -3,52 21,54 1,0 136,9 136,-7 0,-14 1,-67 -11,-70 -13,-4 -70,-45 -80,-34 -15,18 -53,34 -66,57z"/>
   <path fill="#647574" stroke="#2E2E2D" stroke-width="2.9525" stroke-linecap="round" stroke-linejoin="round" d="M915 106c10,-10 73,-57 76,-74 1,-10 13,10 26,17 21,12 73,54 94,51 -1,3 -7,12 -13,12 -19,0 -53,-24 -70,-38 -14,-12 -26,-20 -30,-20 -5,-1 -23,37 -55,49 -5,2 -27,27 -40,29 -4,1 -4,-9 -7,-14 -3,-7 11,-4 19,-12z"/>
   <path fill="#B67040" stroke="#2E2E2D" stroke-width="1.7715" stroke-linecap="round" stroke-linejoin="round" d="M954 166c1,-11 -2,-64 8,-64 15,0 23,-2 26,2 5,5 2,19 2,58 0,3 0,6 -2,6 -8,0 -25,-3 -34,-2z"/>
   <path fill="#FEFEFE" stroke="#2E2E2D" stroke-width="1.7715" stroke-linecap="round" stroke-linejoin="round" d="M1010 103c-2,5 -9,44 3,44 48,0 38,3 40,-40 0,-9 -41,-7 -43,-4z"/>
   <path fill="#647574" stroke="#2E2E2D" stroke-width="1.7715" stroke-linecap="round" stroke-linejoin="round" d="M1029 107c-3,1 -14,-1 -14,1 -2,12 -3,31 -1,32 5,2 11,2 14,2 2,0 1,-13 2,-27 1,-7 -1,-8 -1,-8z"/>
   <path fill="#647574" stroke="#2E2E2D" stroke-width="1.7715" stroke-linecap="round" stroke-linejoin="round" d="M1035 107c1,8 -2,27 -1,33 1,2 9,3 13,0 0,-11 1,-25 0,-31 0,-3 -9,-3 -12,-2z"/>
  </g>
  <g id="_886497360">
   <path fill="#D9D9D9" d="M251 1090c-33,4 -67,7 -99,14 -26,5 -52,-4 -75,16 -16,16 64,23 69,23 19,0 67,16 81,4 20,-17 8,-8 19,-8 16,-2 57,3 19,-16 -40,-21 -13,-33 -14,-33z"/>
   <g>
    <path fill="#704333" stroke="#2E2E2D" stroke-width="2.9525" stroke-linecap="round" stroke-linejoin="round" d="M250 1102c-3,-15 -75,-73 -105,-80 -17,-5 -62,-16 -73,3 -15,26 49,96 100,105 35,6 58,-5 77,-25 1,-2 2,-1 1,-3z"/>
    <path fill="none" stroke="#2E2E2D" stroke-width="1.7715" stroke-linecap="round" stroke-linejoin="round" d="M71 1033c24,35 8,53 76,83 2,1 17,6 20,6"/>
    <path fill="none" stroke="#2E2E2D" stroke-width="1.7715" stroke-linecap="round" stroke-linejoin="round" d="M86 1021c-1,12 7,22 3,44 0,1 -1,1 1,2"/>
    <path fill="none" stroke="#2E2E2D" stroke-width="1.7715" stroke-linecap="round" stroke-linejoin="round" d="M112 1022c-3,15 -2,69 -3,69"/>
    <path fill="none" stroke="#2E2E2D" stroke-width="1.7715" stroke-linecap="round" stroke-linejoin="round" d="M127 1025c6,47 9,46 3,82"/>
    <path fill="none" stroke="#2E2E2D" stroke-width="1.7715" stroke-linecap="round" stroke-linejoin="round" d="M145 1030c8,31 6,52 1,81"/>
    <path fill="none" stroke="#2E2E2D" stroke-width="1.7715" stroke-linecap="round" stroke-linejoin="round" d="M84 1028c13,2 64,5 75,16"/>
    <path fill="none" stroke="#2E2E2D" stroke-width="1.7715" stroke-linecap="round" stroke-linejoin="round" d="M82 1047c33,3 42,3 66,8"/>
    <path fill="none" stroke="#2E2E2D" stroke-width="1.7715" stroke-linecap="round" stroke-linejoin="round" d="M92 1065c23,3 33,1 59,7l6 1"/>
    <path fill="none" stroke="#2E2E2D" stroke-width="1.7715" stroke-linecap="round" stroke-linejoin="round" d="M108 1077c25,7 35,7 54,17"/>
   </g>
   <g>
    <path fill="#814E3C" stroke="#2E2E2D" stroke-width="4.1335" stroke-linecap="round" stroke-linejoin="round" d="M278 1053c0,6 1,25 -6,39 -7,13 -20,20 -19,21 9,7 27,9 30,13 7,9 -36,8 -50,5 -9,-2 -7,-14 -7,-25 1,-40 36,-53 36,-55l16 2z"/>
    <path fill="none" stroke="#2E2E2D" stroke-width="1.7715" stroke-linecap="round" stroke-linejoin="round" d="M281 1131c-1,-3 -5,-5 -8,-5"/>
   </g>
   <path fill="#96604D" d="M246 987c38,39 56,124 -19,144 -15,4 -28,-9 -30,-8 0,1 5,4 7,5 2,1 20,10 22,12 11,14 -50,8 -56,0 -8,-10 2,-25 1,-34 -2,-14 -19,-7 8,-84 13,-40 61,-41 67,-35z"/>
   <g clip-path="url(#id0)">
    <g>
     <path id="1" fill="#C29466" d="M195 1032c19,21 26,122 70,64 14,-18 19,-74 -25,-80 -19,-2 -24,9 -42,15l-3 1z"/>
    </g>
   </g>
   <path fill="none" stroke="#2E2E2D" stroke-width="2.9525" stroke-linecap="round" stroke-linejoin="round" d="M246 987c38,39 56,124 -19,144 -15,4 -28,-9 -30,-8 0,1 5,4 7,5 2,1 20,10 22,12 11,14 -50,8 -56,0 -8,-10 2,-25 1,-34 -2,-14 -19,-7 8,-84 13,-40 61,-41 67,-35z"/>
   <path fill="none" stroke="#2E2E2D" stroke-width="1.7715" stroke-linecap="round" stroke-linejoin="round" d="M195 1138c4,1 4,7 4,10"/>
   <path fill="none" stroke="#2E2E2D" stroke-width="1.7715" stroke-linecap="round" stroke-linejoin="round" d="M205 1137c4,3 5,7 5,12"/>
   <path fill="none" stroke="#2E2E2D" stroke-width="1.7715" stroke-linecap="round" stroke-linejoin="round" d="M212 1136c11,3 8,7 10,10"/>
   <g>
    <path fill="#96604D" stroke="#2E2E2D" stroke-width="2.9525" stroke-linecap="round" stroke-linejoin="round" d="M170 1029c-6,1 -21,32 -18,39 5,15 13,22 19,28 5,5 6,11 10,12 21,7 18,-18 6,-28 0,0 -13,-14 -7,-21 6,-8 13,-34 -2,-31 0,0 -6,0 -8,1z"/>
    <path fill="none" stroke="#2E2E2D" stroke-width="2.9525" stroke-linecap="round" stroke-linejoin="round" d="M185 1108c-1,-3 1,-5 -2,-12"/>
    <path fill="none" stroke="#2E2E2D" stroke-width="2.9525" stroke-linecap="round" stroke-linejoin="round" d="M190 1108c0,-8 1,-7 -1,-14"/>
    <path fill="none" stroke="#2E2E2D" stroke-width="2.9525" stroke-linecap="round" stroke-linejoin="round" d="M195 1102c0,-6 0,-9 -4,-13"/>
   </g>
   <path fill="#96604D" stroke="#2E2E2D" stroke-width="2.9525" stroke-linecap="round" stroke-linejoin="round" d="M266 1044c-4,-3 19,-32 2,-47 -10,-8 -19,-16 -25,-23 -5,-5 -12,-7 -12,-10 1,-7 19,-10 27,-3 5,4 14,10 25,17 26,17 -15,67 -17,66z"/>
   <path fill="#96604D" d="M278 1004c3,16 1,21 -2,36 -8,33 -37,34 -69,29 -18,-3 -34,-14 -41,-24 -17,-29 -8,-49 -8,-58 -13,-18 8,-15 10,-14 1,0 2,0 5,-2 6,-4 40,-10 41,-11 1,-14 15,-6 15,0 0,4 45,20 49,44z"/>
   <g clip-path="url(#id1)">
    <g>
     <path id="1" fill="#C29466" d="M189 970c-14,5 -21,14 -10,26 16,15 37,12 56,7 4,0 16,-6 17,-10 2,-13 1,-13 -1,-25 -1,-5 -12,-6 -17,-5 0,0 -25,-1 -45,7z"/>
    </g>
   </g>
   <path fill="none" stroke="#2E2E2D" stroke-width="2.9525" stroke-linecap="round" stroke-linejoin="round" d="M278 1004c3,16 1,21 -2,36 -8,33 -37,34 -69,29 -18,-3 -34,-14 -41,-24 -17,-29 -8,-49 -8,-58 -13,-18 8,-15 10,-14 1,0 2,0 5,-2 6,-4 40,-10 41,-11 1,-14 15,-6 15,0 0,4 45,20 49,44z"/>
   <path fill="#FEFEFE" stroke="#2E2E2D" stroke-width="1.7715" stroke-linecap="round" stroke-linejoin="round" d="M188 984c3,-7 18,1 9,8 -5,4 -12,-2 -9,-8z"/>
   <path fill="#FEFEFE" stroke="#2E2E2D" stroke-width="1.7715" stroke-linecap="round" stroke-linejoin="round" d="M236 968c3,1 7,6 3,10 -2,1 -10,0 -10,-7 0,-1 4,-5 7,-3z"/>
   <path fill="#2E2E2D" stroke="#2E2E2D" stroke-width="1.7715" stroke-linecap="round" stroke-linejoin="round" d="M231 975c0,-3 5,-6 7,-5 2,0 5,7 -1,8 -2,0 -6,-2 -6,-3z"/>
   <path fill="#2E2E2D" stroke="#2E2E2D" stroke-width="1.7715" stroke-linecap="round" stroke-linejoin="round" d="M198 984c1,1 4,4 -1,7 -4,3 -8,2 -8,-1 -1,-2 1,-6 9,-6z"/>
   <path fill="#2E2E2D" stroke="#2E2E2D" stroke-width="1.7715" stroke-linecap="round" stroke-linejoin="round" d="M246 1041c-17,1 -1,28 18,10 3,-3 0,-12 -14,-10 -1,0 -3,0 -4,0z"/>
   <path fill="#FEFEFE" stroke="#2E2E2D" stroke-width="1.7715" stroke-linecap="round" stroke-linejoin="round" d="M267 1030c1,4 6,25 5,31 0,2 -12,8 -14,7 -3,-6 -8,-19 -13,-28 -5,-8 2,-3 9,-7 1,-1 13,-3 13,-3z"/>
   <path fill="none" stroke="#2E2E2D" stroke-width="1.7715" stroke-linecap="round" stroke-linejoin="round" d="M258 1032c2,7 8,27 8,33"/>
   <path fill="#B67040" stroke="#2E2E2D" stroke-width="1.7715" stroke-linecap="round" stroke-linejoin="round" d="M270 1035c-5,5 -19,11 -25,10 -12,-2 -16,-28 -16,-38 1,-8 16,-14 23,-13 3,1 10,6 14,15 3,5 8,20 4,26z"/>
   <path fill="#2E2E2D" stroke="#2E2E2D" stroke-width="1.7715" stroke-linecap="round" stroke-linejoin="round" d="M253 994c1,6 -10,11 -15,11 -4,0 -8,-1 -9,-4 -2,-8 0,-9 11,-13 7,-3 11,-1 13,6z"/>
   <path fill="none" stroke="#2E2E2D" stroke-width="1.7715" stroke-linecap="round" stroke-linejoin="round" d="M248 999c4,4 15,24 15,39 0,0 1,1 1,1"/>
   <path fill="none" stroke="#2E2E2D" stroke-width="1.7715" stroke-linecap="round" stroke-linejoin="round" d="M234 963c1,-2 4,-3 7,-4"/>
   <path fill="none" stroke="#2E2E2D" stroke-width="1.7715" stroke-linecap="round" stroke-linejoin="round" d="M238 965c1,0 5,-5 7,-5"/>
   <path fill="none" stroke="#2E2E2D" stroke-width="1.7715" stroke-linecap="round" stroke-linejoin="round" d="M243 968c2,-3 3,-5 6,-6"/>
  </g>
 </g>
</svg>
