<?xml version="1.0" encoding="UTF-8" standalone="no"?>
<svg
   xmlns:dc="http://purl.org/dc/elements/1.1/"
   xmlns:cc="http://creativecommons.org/ns#"
   xmlns:rdf="http://www.w3.org/1999/02/22-rdf-syntax-ns#"
   xmlns:svg="http://www.w3.org/2000/svg"
   xmlns="http://www.w3.org/2000/svg"
   xmlns:sodipodi="http://sodipodi.sourceforge.net/DTD/sodipodi-0.dtd"
   xmlns:inkscape="http://www.inkscape.org/namespaces/inkscape"
   version="1.1"
   width="481.23853"
   height="237.71965"
   id="svg399"
   viewBox="0 0 481.23852 237.71965"
   sodipodi:docname="_parts.svg"
   inkscape:version="1.0.1 (3bc2e813f5, 2020-09-07)">
  <metadata
     id="metadata405">
    <rdf:RDF>
      <cc:Work
         rdf:about="">
        <dc:format>image/svg+xml</dc:format>
        <dc:type
           rdf:resource="http://purl.org/dc/dcmitype/StillImage" />
        <dc:title></dc:title>
      </cc:Work>
    </rdf:RDF>
  </metadata>
  <defs
     id="defs403" />
  <sodipodi:namedview
     pagecolor="#ffffff"
     bordercolor="#666666"
     borderopacity="1"
     objecttolerance="10"
     gridtolerance="10"
     guidetolerance="10"
     inkscape:pageopacity="0"
     inkscape:pageshadow="2"
     inkscape:window-width="1366"
     inkscape:window-height="704"
     id="namedview401"
     showgrid="false"
     inkscape:zoom="1.0142111"
     inkscape:cx="268.31332"
     inkscape:cy="-90.900042"
     inkscape:window-x="0"
     inkscape:window-y="27"
     inkscape:window-maximized="1"
     inkscape:current-layer="svg399"
     inkscape:document-rotation="0" />
  <path
     d="m 128.07594,198.59902 c -0.0967,-1.3804 -0.2033,-2.7805 -0.321,-4.2045 -1.6325,-19.7361 -5.1703,-43.5212 -7.6804,-68.5309 -3.4588,53.3812 -69.621804,75.5284 -68.514604,8.6016 l -50.0086998,6.4611 -0.0021,0.1084 c -0.77319992,26.9031 1.8559,52.0613 8.0177,72.6615 0.3134,1.0485 0.6238998,2.101 0.9558998,3.1253 l 33.3802,11.4098 27.8241,-32.7769 31.480404,27.2032 z"
     style="fill:#845c2f;fill-rule:evenodd;stroke:#1b1918;stroke-width:2.8346;stroke-linecap:round;stroke-linejoin:round;stroke-dasharray:none"
     id="path206"
     inkscape:connector-curvature="0" />
  <g
     id="Layer1000"
     transform="translate(-65.190364,-305.59967)">
    <path
       d="m 70.6861,446.0162 c -1.4816,29.6739 1.3508,57.3471 9.6472,77.9842 l 28.76,9.8306 22.4861,-26.4887 C 125.7948,480.3395 116.6,469.4848 114.774,440.3203 Z"
       style="fill:#a37848;fill-rule:evenodd"
       id="path208"
       inkscape:connector-curvature="0" />
    <path
       d="m 176.9377,458.8744 c 0.7124,5.3059 1.5798,10.5174 2.6161,15.6016 3.1108,15.2598 3.4906,28.7921 2.3755,40.6905 l 11.3371,-10.9678 c -0.0969,-1.3805 -0.2035,-2.7805 -0.3211,-4.2046 -1.6325,-19.736 -5.1702,-43.5212 -7.6802,-68.5307 -0.6798,10.4927 -3.7894,19.7714 -8.3274,27.411 z"
       style="fill:#533b1b;fill-rule:evenodd"
       id="path210"
       inkscape:connector-curvature="0" />
  </g>
  <path
     d="m 128.07594,198.59902 c -0.0967,-1.3804 -0.2033,-2.7805 -0.321,-4.2045 -1.6325,-19.7361 -5.1703,-43.5212 -7.6804,-68.5309 -3.4588,53.3812 -69.621804,75.5284 -68.514604,8.6016 l -50.0086998,6.4611 -0.0021,0.1084 c -0.77319992,26.9031 1.8559,52.0613 8.0177,72.6615 0.3134,1.0485 0.6238998,2.101 0.9558998,3.1253 l 33.3802,11.4098 27.8241,-32.7769 31.480404,27.2032 z"
     style="fill:none;stroke:#1b1918;stroke-width:2.8346;stroke-linecap:round;stroke-linejoin:round;stroke-dasharray:none"
     id="path213"
     inkscape:connector-curvature="0" />
  <path
     d="m 294.56764,129.10452 c -51.7623,13.4974 -93.5857,-42.349196 -29.7038,-62.337196 l -21.8542,-45.4424 c 33.2392,-9.9451 71.0035,-15.4303996 107.4965,-14.8201996 l 0.1233,0.003 -7.8457,31.5185996 -64.1724,3.7638 56.2193,39.235 -5.9828,33.997996 c -8.8741,3.2584 -17.6619,6.8415 -26.2735,10.5638 -2.6869,1.1616 -5.3571,2.3353 -8.0067,3.5179 z"
     style="fill:#845c2f;fill-rule:evenodd;stroke:#1b1918;stroke-width:2.8346;stroke-linecap:round;stroke-linejoin:round;stroke-dasharray:none"
     id="path215"
     inkscape:connector-curvature="0" />
  <g
     id="Layer1001"
     transform="translate(-65.190364,-305.59967)">
    <path
       d="m 414.3436,318.0373 c -10.181,-0.46 -20.7292,-0.3948 -31.6049,0.3263 -24.5835,1.6299 -49.7517,5.7648 -72.815,12.1453 l 19.2668,40.0623 c 7.4585,-2.999 16.4016,-5.9045 27.595,-8.7284 1.9236,-0.4853 3.8393,-0.9439 5.7484,-1.3805 l -18.7322,-13.0728 64.1724,-3.7638 z"
       style="fill:#a37848;fill-rule:evenodd"
       id="path217"
       inkscape:connector-curvature="0" />
    <path
       d="m 395.5056,412.2836 c -22.1995,5.7634 -44.4804,13.4371 -64.387,23.1324 8.6792,1.9063 18.4646,1.9415 28.6393,-0.7117 2.6498,-1.1827 5.3198,-2.3565 8.0068,-3.5178 8.6116,-3.7225 17.3993,-7.3055 26.2734,-10.5639 z"
       style="fill:#533b1b;fill-rule:evenodd"
       id="path219"
       inkscape:connector-curvature="0" />
  </g>
  <path
     d="m 412.26914,105.68712 c 7.5686,-5.976996 15.4784,-11.170696 23.7584,-15.317996 8.0466,-4.0305 14.9953,-6.9167 20.9931,-8.9489 l -22.9546,-29.3247 15.7707,-41.779 c -30.8146,-2.2931996 -64.5494,6.9289 -96.9945,23.0865 l 17.0413,18.4833 c 31.6702,-34.3128 69.4554,12.1135 29.3906,37.7618 z"
     style="fill:#845c2f;fill-rule:evenodd;stroke:#1b1918;stroke-width:2.8346;stroke-linecap:round;stroke-linejoin:round;stroke-dasharray:none"
     id="path222"
     inkscape:connector-curvature="0" />
  <g
     id="Layer1002"
     transform="translate(-65.190364,-305.59967)">
    <path
       d="m 513.1188,320.9715 c -5.4255,-0.1316 -10.2144,0.0394 -12.977,0.4838 -22.2086,3.5728 -49.0961,10.241 -77.2711,22.7948 l 12.2032,13.2359 c 18.468,-20.009 39.0084,-12.5595 44.9855,2.2113 6.6507,-1.9497 13.453,-3.6885 20.418,-5.2365 z"
       style="fill:#a37848;fill-rule:evenodd"
       id="path224"
       inkscape:connector-curvature="0" />
    <path
       d="m 518.6942,382.5272 c -4.8537,3.3341 -9.4841,5.9428 -13.7352,8.2741 -9.6157,5.2733 -19.442,11.336 -29.2627,18.3092 l 1.7632,2.1762 c 7.5685,-5.9769 15.4783,-11.1705 23.7586,-15.3179 8.0464,-4.0306 14.995,-6.9168 20.9928,-8.949 z"
       style="fill:#533b1b;fill-rule:evenodd"
       id="path226"
       inkscape:connector-curvature="0" />
  </g>
  <path
     d="m 412.26914,105.68712 c 7.5686,-5.976996 15.4784,-11.170696 23.7584,-15.317996 8.0466,-4.0305 14.9953,-6.9167 20.9931,-8.9489 l -22.9546,-29.3247 15.7707,-41.779 c -30.8146,-2.2931996 -64.5494,6.9289 -96.9945,23.0865 l 17.0413,18.4833 c 31.6702,-34.3128 69.4554,12.1135 29.3906,37.7618 z"
     style="fill:none;stroke:#1b1918;stroke-width:2.8346;stroke-linecap:round;stroke-linejoin:round;stroke-dasharray:none"
     id="path229"
     inkscape:connector-curvature="0" />
  <path
     d="m 211.20694,45.145424 -31.0813,9.4303 -36.1443,-53.1586996 -4.8474,68.3848996 -32.2542,12.3012 0.0642,0.052 c 15.5813,12.6138 30.1048,26.312796 41.6129,41.277796 l 0.0966,0.1261 16.2169,-12.7722 c 25.0925,40.4152 72.0364,3.275 38.1642,-28.866096 l 18.717,-16.7845 c -0.1244,-0.2587 -0.2478,-0.5178 -0.3731,-0.7763 -3.1316,-6.4639 -6.5326,-12.8799 -10.1715,-19.2145 z"
     style="fill:#845c2f;fill-rule:evenodd;stroke:#1b1918;stroke-width:2.8346;stroke-linecap:round;stroke-linejoin:round;stroke-dasharray:none"
     id="path231"
     inkscape:connector-curvature="0" />
  <g
     id="Layer1003"
     transform="translate(-65.190364,-305.59967)">
    <path
       d="m 281.6277,375.5013 c -3.2544,-7.5841 -6.9293,-15.266 -11.0783,-22.9819 l -25.2335,7.6561 -36.1443,-53.1587 -1.6152,22.7852 c 29.2672,30.5866 47.1164,64.144 57.8362,102.6691 14.8521,-5.7725 22.5842,-26.208 2.8323,-44.9507 z"
       style="fill:#a37848;fill-rule:evenodd"
       id="path233"
       inkscape:connector-curvature="0" />
    <path
       d="m 216.0439,427.426 c -8.9691,-13.0085 -19.5057,-26.0288 -31.8943,-38.5755 -1.3765,-1.3941 -2.7663,-2.7828 -4.1683,-4.165 l -7.9112,3.0172 0.0643,0.0522 c 15.5812,12.6139 30.1048,26.3128 41.6126,41.2778 l 0.0967,0.1261 z"
       style="fill:#533b1b;fill-rule:evenodd"
       id="path235"
       inkscape:connector-curvature="0" />
  </g>
  <path
     d="m 177.76714,224.67282 c 29.3968,17.0135 64.5955,9.7512 81.9929,-17.0647 5.0981,-7.8577 6.8013,-21.5806 7.0866,-38.8994 l -26.854,21.8202 -29.0126,-29.8211 -30.5517,30.2507 -32.2697,-14.2509 c 5.1368,22.2581 14.847,39.422 29.6085,47.9652 z"
     style="fill:#845c2f;fill-rule:evenodd;stroke:#1b1918;stroke-width:2.8346;stroke-linecap:round;stroke-linejoin:round;stroke-dasharray:none"
     id="path238"
     inkscape:connector-curvature="0" />
  <g
     id="Layer1004"
     transform="translate(-65.190364,-305.59967)">
    <path
       d="m 217.8153,484.2797 c 6.025,19.7725 17.2743,33.8998 35.0359,38.4122 14.995,3.8098 19.1172,-28.6401 18.569,-38.2589 -0.2549,-4.4677 -0.6381,-8.543 -1.1112,-12.3219 l -24.6904,24.4471 z"
       style="fill:#a37848;fill-rule:evenodd"
       id="path240"
       inkscape:connector-curvature="0" />
    <path
       d="m 319.7948,484.2558 c -4.1408,22.7665 -13.3503,38.9231 -18.8382,49.8065 9.5193,-4.3866 17.8631,-11.4044 23.9939,-20.8545 5.0981,-7.8577 6.8011,-21.5805 7.0866,-38.8993 z"
       style="fill:#533b1b;fill-rule:evenodd"
       id="path242"
       inkscape:connector-curvature="0" />
  </g>
  <path
     d="m 177.76714,224.67282 c 29.3968,17.0135 64.5955,9.7512 81.9929,-17.0647 5.0981,-7.8577 6.8013,-21.5806 7.0866,-38.8994 l -26.854,21.8202 -29.0126,-29.8211 -30.5517,30.2507 -32.2697,-14.2509 c 5.1368,22.2581 14.847,39.422 29.6085,47.9652 z"
     style="fill:none;stroke:#1b1918;stroke-width:2.8346;stroke-linecap:round;stroke-linejoin:round;stroke-dasharray:none"
     id="path245"
     inkscape:connector-curvature="0" />
  <path
     d="m 57.372336,20.795224 c -30.0726,15.7881 -41.3369,48.8396 -29.3073,78.4546 2.8535,7.024696 8.8102,14.399896 18.7896,20.229296 l 28.1684,-7.9654 -9.6922,-43.222196 41.537304,-16.3415 -4.8795,-33.6078 c -13.305504,-4.7258 -29.515404,-5.475 -44.616304,2.453 z"
     style="fill:#845c2f;fill-rule:evenodd;stroke:#1b1918;stroke-width:2.8346;stroke-linecap:round;stroke-linejoin:round;stroke-dasharray:none"
     id="path247"
     inkscape:connector-curvature="0" />
  <g
     id="Layer1005"
     transform="translate(-65.190364,-305.59967)">
    <path
       d="m 167.7716,328.0229 c -17.0844,-3.181 -32.3821,-0.3138 -44.075,10.7844 -8.9683,8.5116 5.3549,23.5027 15.7719,31.5638 l 32.59,-12.8214 z"
       style="fill:#a37848;fill-rule:evenodd"
       id="path249"
       inkscape:connector-curvature="0" />
    <path
       d="m 126.3762,421.0262 c -20.524,-16.6963 -30.5382,-35.1513 -37.4823,-46.798 -1.1268,10.0613 0.2665,20.5401 4.3614,30.6213 2.8536,7.0248 8.8104,14.4 18.7897,20.2294 z"
       style="fill:#533b1b;fill-rule:evenodd"
       id="path251"
       inkscape:connector-curvature="0" />
  </g>
  <path
     d="m 406.51284,147.03532 c 32.4861,42.499 -2.8112,102.6832 -45.9742,51.5229 l -33.4365,37.7442 c -13.4178,-16.3142 -25.9614,-34.8151 -36.7829,-54.4392 l 41.8672,13.6906 14.4076,-67.0254 33.6627,-7.6473 c 6.4402,6.9203 13.1463,13.6353 19.9126,20.1341 2.1112,2.0276 4.2272,4.035 6.3435,6.0201 z"
     style="fill:#845c2f;fill-rule:evenodd;stroke:#1b1918;stroke-width:2.8346;stroke-linecap:round;stroke-linejoin:round;stroke-dasharray:none"
     id="path254"
     inkscape:connector-curvature="0" />
  <g
     id="Layer1006"
     transform="translate(-65.190364,-305.59967)">
    <path
       d="m 362.5098,489.7519 c 9.5734,17.3747 20.5954,34.17 32.4201,49.1732 l 29.4778,-33.2756 c -5.6529,-5.7155 -11.7944,-12.8361 -18.7319,-22.0632 -1.1923,-1.5857 -2.3567,-3.1742 -3.4985,-4.7656 l -4.8005,22.3327 z"
       style="fill:#a37848;fill-rule:evenodd"
       id="path256"
       inkscape:connector-curvature="0" />
    <path
       d="m 437.1902,428.3563 c 13.9094,18.2365 29.6116,35.8084 46.2581,50.4083 -1.603,-8.7404 -5.3595,-17.7758 -11.7451,-26.1295 -2.1164,-1.9851 -4.2324,-3.9926 -6.3437,-6.0202 -6.7663,-6.4987 -13.4722,-13.2137 -19.9125,-20.1342 z"
       style="fill:#533b1b;fill-rule:evenodd"
       id="path258"
       inkscape:connector-curvature="0" />
  </g>
  <g
     id="Layer1007"
     transform="translate(-65.190364,-305.59967)">
    <path
       d="m 114.5503,351.597 c 6.2452,0 11.308,5.0627 11.308,11.3079 0,6.2453 -5.0628,11.308 -11.308,11.308 -6.2452,0 -11.308,-5.0627 -11.308,-11.308 0,-6.2452 5.0628,-11.3079 11.308,-11.3079 z"
       style="fill:#ffffff;fill-rule:evenodd;stroke:#1b1918;stroke-width:0.4252;stroke-linecap:round;stroke-linejoin:round;stroke-dasharray:none"
       id="path261"
       inkscape:connector-curvature="0" />
    <path
       d="m 111.1346,359.1979 c 0.6922,-0.2672 1.3662,-0.6102 2.0219,-1.0295 0.656,-0.4189 1.257,-0.9441 1.8035,-1.5756 h 1.2025 v 12.6246 h -1.6941 v -10.2746 c -0.146,0.1336 -0.3249,0.2732 -0.5376,0.4189 -0.2126,0.146 -0.4433,0.2856 -0.6921,0.4192 -0.2491,0.1336 -0.5103,0.2612 -0.7836,0.3824 -0.2732,0.1216 -0.5373,0.2247 -0.7924,0.3098 z"
       style="fill:#1b1918;fill-rule:evenodd"
       id="path263"
       inkscape:connector-curvature="0" />
  </g>
  <g
     id="Layer1008"
     transform="translate(-65.190364,-305.59967)">
    <path
       d="m 233.5921,374.5701 c 6.2452,0 11.308,5.0627 11.308,11.3079 0,6.2453 -5.0628,11.308 -11.308,11.308 -6.2452,0 -11.308,-5.0627 -11.308,-11.308 0,-6.2452 5.0628,-11.3079 11.308,-11.3079 z"
       style="fill:#ffffff;fill-rule:evenodd;stroke:#1b1918;stroke-width:0.4252;stroke-linecap:round;stroke-linejoin:round;stroke-dasharray:none"
       id="path266"
       inkscape:connector-curvature="0" />
    <path
       d="m 236.9897,382.7905 c 0,0.437 -0.0882,0.8591 -0.2644,1.2659 -0.1761,0.4069 -0.4097,0.8077 -0.7013,1.2025 -0.2914,0.3948 -0.6192,0.7832 -0.9838,1.1659 -0.3643,0.3825 -0.7287,0.756 -1.093,1.1203 -0.2063,0.2066 -0.4462,0.4494 -0.7194,0.7287 -0.2733,0.2792 -0.5316,0.5709 -0.7744,0.8746 -0.2427,0.3034 -0.4462,0.595 -0.6102,0.8743 -0.1641,0.2793 -0.246,0.5224 -0.246,0.7286 h 5.8114 v 1.4392 h -7.6514 c -0.0121,-0.0729 -0.0181,-0.1456 -0.0181,-0.2186 0,-0.0727 0,-0.1397 0,-0.2003 0,-0.5709 0.0939,-1.1021 0.2824,-1.594 0.1882,-0.4919 0.4342,-0.9565 0.7379,-1.3939 0.3034,-0.437 0.6436,-0.8498 1.02,-1.2386 0.3763,-0.3887 0.747,-0.7651 1.1113,-1.1295 0.3037,-0.2916 0.5919,-0.5798 0.8651,-0.8654 0.2736,-0.2853 0.5164,-0.5706 0.729,-0.8562 0.2123,-0.2853 0.3824,-0.5798 0.51,-0.8835 0.1276,-0.3037 0.1914,-0.6255 0.1914,-0.9654 0,-0.3643 -0.0578,-0.6741 -0.1733,-0.9292 -0.1152,-0.2552 -0.2701,-0.4675 -0.4643,-0.6376 -0.1945,-0.1701 -0.4221,-0.2945 -0.6833,-0.3735 -0.2611,-0.079 -0.5376,-0.1184 -0.8289,-0.1184 -0.3523,0 -0.6741,0.0486 -0.9654,0.1457 -0.2916,0.0971 -0.5528,0.2094 -0.7835,0.337 -0.2307,0.1276 -0.425,0.2612 -0.583,0.4008 -0.1577,0.1397 -0.2793,0.246 -0.3643,0.319 l -0.8379,-1.2025 c 0.1092,-0.1215 0.2733,-0.2701 0.4919,-0.4462 0.2184,-0.1761 0.4796,-0.343 0.7833,-0.5011 0.3037,-0.1577 0.6436,-0.2913 1.0203,-0.4008 0.3764,-0.1092 0.7832,-0.1638 1.2205,-0.1638 1.3237,0 2.3164,0.3066 2.9784,0.9197 0.662,0.6135 0.993,1.4789 0.993,2.5963 z"
       style="fill:#1b1918;fill-rule:evenodd"
       id="path268"
       inkscape:connector-curvature="0" />
  </g>
  <g
     id="Layer1009"
     transform="translate(-65.190364,-305.59967)">
    <path
       d="m 97.5288,479.7522 c 6.2452,0 11.308,5.0627 11.308,11.3079 0,6.2452 -5.0628,11.308 -11.308,11.308 -6.2452,0 -11.3079,-5.0628 -11.3079,-11.308 0,-6.2452 5.0627,-11.3079 11.3079,-11.3079 z"
       style="fill:#ffffff;fill-rule:evenodd;stroke:#1b1918;stroke-width:0.4252;stroke-linecap:round;stroke-linejoin:round;stroke-dasharray:none"
       id="path271"
       inkscape:connector-curvature="0" />
    <path
       d="m 95.3883,497.3726 c 0.0726,-0.9717 0.2459,-1.9949 0.5192,-3.0697 0.2732,-1.0746 0.6102,-2.1193 1.011,-3.1333 0.4009,-1.0143 0.841,-1.9552 1.3209,-2.8238 0.4795,-0.8683 0.9501,-1.5757 1.4116,-2.1222 h -6.1393 v -1.4757 h 8.0339 v 1.4028 c -0.4005,0.4614 -0.8439,1.0961 -1.3297,1.9038 -0.4859,0.8076 -0.9445,1.7124 -1.3755,2.7143 -0.4312,1.0019 -0.8016,2.0707 -1.1113,3.2062 -0.3098,1.1355 -0.5008,2.2682 -0.5738,3.3976 z"
       style="fill:#1b1918;fill-rule:evenodd"
       id="path273"
       inkscape:connector-curvature="0" />
  </g>
  <g
     id="Layer1010"
     transform="translate(-65.190364,-305.59967)">
    <path
       d="m 274.2287,494.591 c 6.2452,0 11.308,5.0627 11.308,11.3079 0,6.2452 -5.0628,11.308 -11.308,11.308 -6.2452,0 -11.3079,-5.0628 -11.3079,-11.308 0,-6.2452 5.0627,-11.3079 11.3079,-11.3079 z"
       style="fill:#ffffff;fill-rule:evenodd;stroke:#1b1918;stroke-width:0.4252;stroke-linecap:round;stroke-linejoin:round;stroke-dasharray:none"
       id="path276"
       inkscape:connector-curvature="0" />
    <path
       d="m 270.2662,507.1471 c 0,-1.2269 0.1701,-2.3107 0.5103,-3.2519 0.3399,-0.9413 0.8229,-1.7338 1.4481,-2.3773 0.6255,-0.6436 1.3846,-1.1327 2.2774,-1.4665 0.8927,-0.3342 1.8974,-0.5072 3.0148,-0.5192 l 0.1276,1.4208 c -0.7166,0.0123 -1.3694,0.091 -1.9584,0.237 -0.589,0.1457 -1.1142,0.3764 -1.5756,0.6922 -0.4618,0.3157 -0.8502,0.7258 -1.166,1.2297 -0.3158,0.504 -0.5525,1.1263 -0.7106,1.8673 0.3158,-0.1459 0.6709,-0.2672 1.0657,-0.3643 0.3948,-0.0974 0.8048,-0.146 1.2298,-0.146 0.7165,0 1.3236,0.1095 1.8216,0.3282 0.4979,0.2183 0.9047,0.5068 1.2205,0.8651 0.3158,0.3583 0.5436,0.7712 0.6833,1.2389 0.1396,0.4675 0.2094,0.9562 0.2094,1.4665 0,0.4615 -0.0787,0.935 -0.2367,1.4208 -0.1581,0.4859 -0.3977,0.9292 -0.7195,1.3301 -0.3221,0.4008 -0.7318,0.7286 -1.2297,0.9838 -0.4979,0.2548 -1.0869,0.3824 -1.767,0.3824 -1.3846,0 -2.4383,-0.4735 -3.1609,-1.4208 -0.7226,-0.9473 -1.0841,-2.2529 -1.0841,-3.9168 z m 4.0809,-1.2936 c -0.4249,0 -0.8197,0.0394 -1.1841,0.1184 -0.3643,0.079 -0.7286,0.1974 -1.0932,0.3555 -0.0121,0.1332 -0.0213,0.27 -0.0273,0.4097 -0.006,0.1396 -0.009,0.2764 -0.009,0.41 0,0.5344 0.0362,1.0384 0.1092,1.5119 0.0729,0.4738 0.2034,0.8895 0.3916,1.2478 0.1882,0.3583 0.4405,0.6439 0.7562,0.8562 0.3158,0.2126 0.7163,0.319 1.2022,0.319 0.4008,0 0.741,-0.0851 1.0203,-0.2552 0.2792,-0.1698 0.5099,-0.3884 0.6921,-0.6556 0.1822,-0.2673 0.3129,-0.5557 0.3916,-0.8655 0.079,-0.3097 0.1184,-0.6102 0.1184,-0.9016 0,-0.826 -0.1971,-1.4576 -0.5919,-1.8946 -0.3948,-0.4373 -0.9869,-0.656 -1.7762,-0.656 z"
       style="fill:#1b1918;fill-rule:evenodd"
       id="path278"
       inkscape:connector-curvature="0" />
  </g>
  <g
     id="Layer1011"
     transform="translate(-65.190364,-305.59967)">
    <path
       d="m 349.5322,386.1456 c 6.2452,0 11.308,5.0628 11.308,11.308 0,6.2452 -5.0628,11.308 -11.308,11.308 -6.2452,0 -11.3079,-5.0628 -11.3079,-11.308 0,-6.2452 5.0627,-11.308 11.3079,-11.308 z"
       style="fill:#ffffff;fill-rule:evenodd;stroke:#1b1918;stroke-width:0.4252;stroke-linecap:round;stroke-linejoin:round;stroke-dasharray:none"
       id="path281"
       inkscape:connector-curvature="0" />
    <path
       d="m 348.5392,402.5275 c 1.0809,0 1.8553,-0.2127 2.3227,-0.6379 0.4678,-0.425 0.7014,-0.9959 0.7014,-1.7125 0,-0.4614 -0.0971,-0.8498 -0.2913,-1.1656 -0.1943,-0.3158 -0.4494,-0.5681 -0.7652,-0.7563 -0.3158,-0.1881 -0.6832,-0.3218 -1.1022,-0.4008 -0.4189,-0.0787 -0.847,-0.1183 -1.2843,-0.1183 h -0.4373 v -1.3843 h 0.6014 c 0.3034,0 0.6163,-0.0305 0.9381,-0.0911 0.3218,-0.061 0.6163,-0.1701 0.8835,-0.3282 0.2672,-0.1577 0.4859,-0.3735 0.656,-0.6467 0.1698,-0.2733 0.2548,-0.6163 0.2548,-1.0292 0,-0.3399 -0.0606,-0.6316 -0.1822,-0.8743 -0.1212,-0.2431 -0.2824,-0.4434 -0.4827,-0.6014 -0.2002,-0.1577 -0.4312,-0.2701 -0.6921,-0.337 -0.2612,-0.0667 -0.5376,-0.1 -0.8289,-0.1 -0.583,0 -1.0781,0.085 -1.4849,0.2548 -0.4069,0.1701 -0.7499,0.3463 -1.0292,0.5284 l -0.656,-1.2935 c 0.146,-0.0971 0.331,-0.2034 0.5557,-0.3186 0.2247,-0.1156 0.4767,-0.2219 0.7563,-0.319 0.2792,-0.0971 0.5798,-0.179 0.9016,-0.2459 0.3218,-0.0667 0.6588,-0.1 1.0111,-0.1 0.668,0 1.2449,0.0819 1.7305,0.2459 0.4859,0.1638 0.8867,0.3945 1.2024,0.6922 0.3158,0.2974 0.5526,0.6496 0.7106,1.0565 0.1577,0.4068 0.2367,0.8473 0.2367,1.3208 0,0.656 -0.1881,1.2177 -0.5645,1.6851 -0.3767,0.4675 -0.8321,0.8229 -1.3666,1.0657 0.3279,0.0971 0.6436,0.2368 0.9473,0.4189 0.3038,0.1822 0.5678,0.4132 0.7925,0.6925 0.2247,0.2793 0.4068,0.6011 0.5465,0.9654 0.1399,0.3643 0.2097,0.7712 0.2097,1.2205 0,0.5465 -0.0942,1.0537 -0.2824,1.5211 -0.1882,0.4678 -0.4799,0.8715 -0.8746,1.2117 -0.3945,0.3399 -0.8896,0.6071 -1.4846,0.8016 -0.5951,0.1942 -1.2996,0.2913 -2.1133,0.2913 -0.3158,0 -0.6407,-0.0241 -0.9746,-0.0729 -0.3338,-0.0486 -0.6467,-0.1092 -0.9381,-0.1822 -0.2916,-0.0727 -0.5465,-0.1457 -0.7651,-0.2183 -0.2187,-0.073 -0.3767,-0.1337 -0.4738,-0.1822 l 0.3278,-1.4757 c 0.2066,0.0971 0.5497,0.2247 1.0295,0.3824 0.4795,0.158 1.0657,0.2371 1.7578,0.2371 z"
       style="fill:#1b1918;fill-rule:evenodd"
       id="path283"
       inkscape:connector-curvature="0" />
  </g>
  <g
     id="Layer1012"
     transform="translate(-65.190364,-305.59967)">
    <path
       d="m 488.3754,323.4597 c 6.2452,0 11.308,5.0628 11.308,11.308 0,6.2452 -5.0628,11.308 -11.308,11.308 -6.2452,0 -11.3079,-5.0628 -11.3079,-11.308 0,-6.2452 5.0627,-11.308 11.3079,-11.308 z"
       style="fill:#ffffff;fill-rule:evenodd;stroke:#1b1918;stroke-width:0.4252;stroke-linecap:round;stroke-linejoin:round;stroke-dasharray:none"
       id="path286"
       inkscape:connector-curvature="0" />
    <path
       d="m 483.994,336.708 c 0.2308,-0.5344 0.5465,-1.1568 0.9473,-1.8673 0.4009,-0.7106 0.8534,-1.4421 1.3574,-2.1952 0.5039,-0.753 1.0444,-1.4937 1.6213,-2.2224 0.577,-0.729 1.1568,-1.3846 1.7398,-1.9676 h 1.6213 v 8.0157 h 1.4938 v 1.3843 h -1.4938 v 3.2247 h -1.6397 v -3.2247 h -5.6474 z m 5.6474,-6.2487 c -0.3644,0.3887 -0.7315,0.8229 -1.1022,1.3027 -0.3704,0.4795 -0.7315,0.9806 -1.0838,1.503 -0.3522,0.5221 -0.6832,1.0565 -0.993,1.603 -0.3094,0.5465 -0.5858,1.0809 -0.8286,1.6032 h 4.0076 z"
       style="fill:#1b1918;fill-rule:evenodd"
       id="path288"
       inkscape:connector-curvature="0" />
  </g>
  <g
     id="Layer1013"
     transform="translate(-65.190364,-305.59967)">
    <path
       d="m 443.4355,467.661 c 6.2452,0 11.308,5.0627 11.308,11.3079 0,6.2453 -5.0628,11.308 -11.308,11.308 -6.2452,0 -11.3079,-5.0627 -11.3079,-11.308 0,-6.2452 5.0627,-11.3079 11.3079,-11.3079 z"
       style="fill:#ffffff;fill-rule:evenodd;stroke:#1b1918;stroke-width:0.4252;stroke-linecap:round;stroke-linejoin:round;stroke-dasharray:none"
       id="path291"
       inkscape:connector-curvature="0" />
    <path
       d="m 441.9506,477.5209 c 1.834,0.0729 3.179,0.4734 4.0352,1.2024 0.8562,0.7287 1.2843,1.7185 1.2843,2.9692 0,0.5588 -0.0939,1.0749 -0.2821,1.5487 -0.1885,0.4735 -0.4738,0.8803 -0.8562,1.2205 -0.3828,0.3399 -0.8655,0.6071 -1.4484,0.8017 -0.583,0.1942 -1.2752,0.2913 -2.0768,0.2913 -0.3158,0 -0.6376,-0.0241 -0.9654,-0.073 -0.3281,-0.0486 -0.6315,-0.1092 -0.9111,-0.1822 -0.2793,-0.0726 -0.5281,-0.1456 -0.7468,-0.2183 -0.2186,-0.073 -0.3767,-0.1336 -0.4738,-0.1822 l 0.3282,-1.4757 c 0.2063,0.0971 0.5433,0.2247 1.0108,0.3824 0.4677,0.1581 1.0415,0.2371 1.7216,0.2371 0.5465,0 1.0051,-0.0609 1.3754,-0.1825 0.3704,-0.1212 0.6712,-0.2853 0.9019,-0.4916 0.2308,-0.2066 0.3977,-0.4465 0.5008,-0.7197 0.1035,-0.2733 0.1549,-0.5617 0.1549,-0.8654 0,-0.4615 -0.079,-0.8712 -0.2368,-1.2295 -0.158,-0.3583 -0.4373,-0.6588 -0.8381,-0.9019 -0.4008,-0.2428 -0.9349,-0.4281 -1.6029,-0.5557 -0.6681,-0.1272 -1.5122,-0.191 -2.5322,-0.191 0.0727,-0.5954 0.1304,-1.1539 0.1729,-1.6763 0.0426,-0.522 0.0819,-1.032 0.1184,-1.5303 0.0365,-0.4979 0.067,-0.9927 0.0911,-1.4846 0.0244,-0.4919 0.0486,-1.011 0.073,-1.5575 h 6.0846 v 1.4392 h -4.6092 c -0.0121,0.1821 -0.0302,0.4281 -0.0546,0.7378 -0.0241,0.3098 -0.0486,0.6316 -0.0727,0.9654 -0.0244,0.3342 -0.0485,0.6588 -0.073,0.9746 -0.0244,0.3158 -0.0485,0.5649 -0.073,0.7471 z"
       style="fill:#1b1918;fill-rule:evenodd"
       id="path293"
       inkscape:connector-curvature="0" />
  </g>
  <path
     d="m 57.372336,20.795224 c -30.0726,15.7881 -41.3369,48.8396 -29.3073,78.4546 2.8535,7.024696 8.8102,14.399896 18.7896,20.229296 l 28.1684,-7.9654 -9.6922,-43.222196 41.537304,-16.3415 -4.8795,-33.6078 c -13.305504,-4.7258 -29.515404,-5.475 -44.616304,2.453 z"
     style="fill:none;stroke:#1b1918;stroke-width:2.8346;stroke-linecap:round;stroke-linejoin:round;stroke-dasharray:none"
     id="path296"
     inkscape:connector-curvature="0" />
  <path
     d="m 211.20694,45.145424 -31.0813,9.4303 -36.1443,-53.1586996 -4.8474,68.3848996 -32.2542,12.3012 0.0642,0.052 c 15.5813,12.6138 30.1048,26.312796 41.6129,41.277796 l 0.0966,0.1261 16.2169,-12.7722 c 25.0925,40.4152 72.0364,3.275 38.1642,-28.866096 l 18.717,-16.7845 c -0.1244,-0.2587 -0.2478,-0.5178 -0.3731,-0.7763 -3.1316,-6.4639 -6.5326,-12.8799 -10.1715,-19.2145 z"
     style="fill:none;stroke:#1b1918;stroke-width:2.8346;stroke-linecap:round;stroke-linejoin:round;stroke-dasharray:none"
     id="path298"
     inkscape:connector-curvature="0" />
  <path
     d="m 294.56764,129.10452 c -51.7623,13.4974 -93.5857,-42.349196 -29.7038,-62.337196 l -21.8542,-45.4424 c 33.2392,-9.9451 71.0035,-15.4303996 107.4965,-14.8201996 l 0.1233,0.003 -7.8457,31.5185996 -64.1724,3.7638 56.2193,39.235 -5.9828,33.997996 c -8.8741,3.2584 -17.6619,6.8415 -26.2735,10.5638 -2.6869,1.1616 -5.3571,2.3353 -8.0067,3.5179 z"
     style="fill:none;stroke:#1b1918;stroke-width:2.8346;stroke-linecap:round;stroke-linejoin:round;stroke-dasharray:none"
     id="path300"
     inkscape:connector-curvature="0" />
  <path
     d="m 406.51284,147.03532 c 32.4861,42.499 -2.8112,102.6832 -45.9742,51.5229 l -33.4365,37.7442 c -13.4178,-16.3142 -25.9614,-34.8151 -36.7829,-54.4392 l 41.8672,13.6906 14.4076,-67.0254 33.6627,-7.6473 c 6.4402,6.9203 13.1463,13.6353 19.9126,20.1341 2.1112,2.0276 4.2272,4.035 6.3435,6.0201 z"
     style="fill:none;stroke:#1b1918;stroke-width:2.8346;stroke-linecap:round;stroke-linejoin:round;stroke-dasharray:none"
     id="path302"
     inkscape:connector-curvature="0" />
  <g
     id="Layer1014"
     transform="translate(-65.190364,-305.59967)">
    <path
       d="m 501.7065,476.7284 c 2.5016,0.5746 4.7928,1.1866 6.8992,1.8247 0.2637,0.0799 0.5239,0.1602 0.7818,0.2409 l 0.2628,0.0834 0.5295,0.1689 0.2427,0.0791 0.5079,0.1678 0.2914,0.0981 0.44,0.1502 0.2987,0.1032 0.3952,0.1395 0.339,0.1207 0.0309,0.0111 c 0.212,0.0765 0.4229,0.1536 0.6301,0.2305 l 0.006,0.002 0.0244,0.009 c 0.2194,0.0816 0.4359,0.1636 0.6502,0.2455 l 0.2331,0.0904 0.4098,0.1596 0.3172,0.1261 0.3067,0.1233 0.3456,0.1412 0.2951,0.1227 0.3022,0.1268 0.3347,0.1434 0.2764,0.1193 0.3283,0.1452 0.2395,0.1057 0.0102,0.005 0.1618,0.0737 0.4009,0.1828 0.2316,0.1083 0.3223,0.1514 0.261,0.125 0.2719,0.1315 0.2945,0.1452 0.2458,0.1227 0.2497,0.1259 0.2571,0.1321 0.2854,0.1479 0.0817,0.0431 c 0.2557,0.1347 0.5062,0.2693 0.7512,0.404 l 0.0856,0.0467 0.2684,0.1503 0.2098,0.1179 0.2035,0.1162 0.275,0.159 0.2117,0.1245 0.1789,0.1063 0.278,0.1672 0.1364,0.0836 0.2696,0.1661 0.1732,0.1092 0.3387,0.216 0.2806,0.1817 0.1678,0.1114 0.1985,0.1324 0.2143,0.1457 0.1686,0.1153 0.1936,0.135 0.1605,0.1128 0.214,0.1525 0.1321,0.0955 0.1976,0.144 0.1236,0.0919 c 0.2687,0.1998 0.5269,0.3977 0.7755,0.5938 l 0.0363,0.0286 0.2154,0.1721 0.1012,0.0819 0.1803,0.1477 0.1086,0.0896 0.1913,0.1604 0.0604,0.0513 c 0.1599,0.1361 0.3163,0.271 0.4671,0.4045 l 0.2418,0.2163 0.222,0.2033 0.0144,0.0133 0.1568,0.146 0.1114,0.1049 0.1301,0.1241 0.0825,0.0794 0.1619,0.1579 0.0371,0.0365 c 0.3285,0.3243 0.6301,0.6381 0.9082,0.9389 l 0.0298,0.032 c 0.1701,0.1845 0.3311,0.3645 0.4839,0.5392 l 0.002,0.002 0.142,0.1636 0.0114,0.0133 c 0.4016,0.4666 0.7432,0.8926 1.0397,1.2699 -1.5667,-4.1301 -2.535,-8.985 -2.4525,-14.6565 0.0989,-6.8304 1.0981,-11.9384 2.628,-16.3205 -2.088,-1.6458 -8.3617,-7.0679 -6.6903,-11.6079 1.7776,-4.8279 6.7682,-20.7816 19.6849,-27.3614 l -0.2356,-0.2253 -0.1182,-0.1123 -0.0782,-0.0746 -0.3946,-0.3721 -0.1434,-0.1341 -0.3357,-0.3127 -0.0975,-0.0904 -0.0224,-0.0204 -0.0289,-0.0267 -0.4521,-0.4155 -0.0196,-0.0179 -0.1012,-0.0921 -0.242,-0.2197 -0.1214,-0.1097 -0.1207,-0.1091 -0.366,-0.3277 -0.1051,-0.0938 -0.0171,-0.0151 -0.003,-0.002 -0.4875,-0.4312 -0.0258,-0.0226 -0.0973,-0.0851 -0.3702,-0.3231 -0.0689,-0.0601 -0.0549,-0.0474 -0.009,-0.008 -0.239,-0.2061 -0.1241,-0.1068 -0.1129,-0.097 -0.0116,-0.01 -0.1247,-0.1066 -0.2497,-0.2126 -0.125,-0.106 -0.0321,-0.0272 -0.0935,-0.0788 -0.2512,-0.2112 -0.1258,-0.1055 -0.076,-0.0637 -0.0499,-0.0414 -0.3793,-0.3147 -0.1207,-0.0998 -0.006,-0.005 -0.0124,-0.0102 -0.4961,-0.4065 -0.0386,-0.0314 -0.089,-0.0723 -0.3838,-0.3104 -0.0836,-0.0675 -0.0448,-0.0357 -0.008,-0.006 -0.5069,-0.4048 c -1.3762,-1.0922 -2.7788,-2.1586 -4.2117,-3.1961 l -35.3469,27.2911 z"
       style="fill:#845c2f;fill-rule:evenodd;stroke:#1b1918;stroke-width:2.8346;stroke-linecap:round;stroke-linejoin:round;stroke-dasharray:none"
       id="path384"
       inkscape:connector-curvature="0" />
    <path
       d="m 541.2231,424.855 c -3.903,-3.1765 -8.4137,-6.4006 -12.6008,-9.1236 l -28.334,21.8764 c 5.146,1.7838 10.3142,3.7088 15.514,5.7736 2.4571,0.9757 6.27,2.4287 10.5364,3.6927 2.1161,-5.7337 6.4199,-16.0002 14.8844,-22.2191 z"
       style="fill:#a37848;fill-rule:evenodd"
       id="path386"
       inkscape:connector-curvature="0" />
    <path
       d="m 530.9328,465.0829 c -11.4038,4.0422 -21.2474,5.5468 -29.8627,5.9754 l 0.6364,5.6701 c 2.5016,0.5746 4.7928,1.1866 6.8992,1.8247 0.2637,0.0799 0.5239,0.1602 0.7818,0.2409 l 0.2628,0.0834 0.5295,0.1689 0.2427,0.0791 0.5079,0.1678 0.2914,0.0981 0.44,0.1502 0.2987,0.1032 0.3952,0.1395 0.339,0.1207 0.0309,0.0111 c 0.212,0.0765 0.4229,0.1536 0.6301,0.2305 l 0.006,0.002 0.0244,0.009 c 0.2194,0.0816 0.4359,0.1636 0.6502,0.2455 l 0.2331,0.0904 0.4098,0.1596 0.3172,0.1261 0.3067,0.1233 0.3456,0.1412 0.2951,0.1227 0.3022,0.1268 0.3347,0.1434 0.2764,0.1193 0.3283,0.1452 0.2395,0.1057 0.0102,0.005 0.1618,0.0737 0.4009,0.1828 0.2316,0.1083 0.3223,0.1514 0.261,0.125 0.2719,0.1315 0.2945,0.1452 0.2458,0.1227 0.2497,0.1259 0.2571,0.1321 0.2854,0.1479 0.0817,0.0431 c 0.2557,0.1347 0.5062,0.2693 0.7512,0.404 l 0.0856,0.0467 0.2684,0.1503 0.2098,0.1179 0.2035,0.1162 0.275,0.159 0.2117,0.1245 0.1789,0.1063 0.278,0.1672 0.1364,0.0836 0.2696,0.1661 0.1732,0.1092 0.3387,0.216 0.2806,0.1817 0.1678,0.1114 0.1985,0.1324 0.2143,0.1457 0.1686,0.1153 0.1936,0.135 0.1605,0.1128 0.214,0.1525 0.1321,0.0955 0.1976,0.144 0.1236,0.0919 c 0.2534,0.1885 0.4977,0.3755 0.733,0.5606 l 0.0952,0.0749 0.1747,0.1397 0.1318,0.1063 0.174,0.1426 0.1086,0.0896 0.1913,0.1604 0.0604,0.0513 c 0.1599,0.1358 0.3163,0.2713 0.4671,0.4045 l 0.2418,0.2163 0.222,0.2033 0.0144,0.0133 0.1568,0.146 0.1114,0.1049 0.1301,0.1241 0.0825,0.0794 0.1619,0.1579 0.0371,0.0365 c 0.3285,0.3243 0.6301,0.6381 0.9082,0.9389 l 0.0298,0.032 c 0.1701,0.1845 0.3311,0.3645 0.4839,0.5392 l 0.002,0.002 0.142,0.1636 0.0114,0.0133 c 0.4016,0.4666 0.7432,0.8926 1.0397,1.2699 -1.5667,-4.1301 -2.535,-8.985 -2.4525,-14.6565 0.0731,-5.0454 0.6372,-9.1508 1.544,-12.7182 z"
       style="fill:#533b1b;fill-rule:evenodd"
       id="path388"
       inkscape:connector-curvature="0" />
    <path
       d="m 515.0293,453.5019 c 6.2452,0 11.308,5.0628 11.308,11.308 0,6.2452 -5.0628,11.308 -11.308,11.308 -6.2452,0 -11.3079,-5.0628 -11.3079,-11.308 0,-6.2452 5.0627,-11.308 11.3079,-11.308 z"
       style="fill:#ffffff;fill-rule:evenodd;stroke:#1b1918;stroke-width:0.4252;stroke-linecap:round;stroke-linejoin:round;stroke-dasharray:none"
       id="path390"
       inkscape:connector-curvature="0" />
    <text
       x="510.70901"
       y="471.5155"
       id="text394"><tspan
         font-size="18.5000"
         id="tspan392"
         style="font-size:18.5px;font-family:Arial;fill:#1b1918">8</tspan></text>
    <path
       d="m 501.7065,476.7284 c 2.5016,0.5746 4.7928,1.1866 6.8992,1.8247 15.5943,4.7242 20.863,10.8856 23.2359,13.9054 -1.567,-4.1304 -2.5353,-8.9856 -2.4528,-14.6574 0.0989,-6.8304 1.0981,-11.9384 2.628,-16.3205 -2.088,-1.6458 -8.3617,-7.0679 -6.6903,-11.6079 1.7776,-4.8279 6.7682,-20.7819 19.6852,-27.3614 -2.5115,-2.4069 -5.148,-4.701 -7.9011,-6.8859 -1.3762,-1.0922 -2.7788,-2.1586 -4.2117,-3.1961 l -35.3469,27.2911 z"
       style="fill:none;stroke:#1b1918;stroke-width:2.8346;stroke-linecap:round;stroke-linejoin:round;stroke-dasharray:none"
       id="path396"
       inkscape:connector-curvature="0" />
  </g>
</svg>
