<?xml version="1.0" encoding="UTF-8" standalone="no"?>
<svg
   id="Layer_1"
   data-name="Layer 1"
   viewBox="0 0 221.57493 290.38091"
   version="1.1"
   sodipodi:docname="2021-ID-09 Market-beaver1.svg"
   width="221.57494"
   height="290.38092"
   inkscape:version="1.1 (c68e22c387, 2021-05-23)"
   xmlns:inkscape="http://www.inkscape.org/namespaces/inkscape"
   xmlns:sodipodi="http://sodipodi.sourceforge.net/DTD/sodipodi-0.dtd"
   xmlns="http://www.w3.org/2000/svg"
   xmlns:svg="http://www.w3.org/2000/svg">
  <sodipodi:namedview
     id="namedview1052"
     pagecolor="#ffffff"
     bordercolor="#666666"
     borderopacity="1.0"
     inkscape:pageshadow="2"
     inkscape:pageopacity="0.0"
     inkscape:pagecheckerboard="0"
     showgrid="false"
     inkscape:zoom="1.4048939"
     inkscape:cx="110.68451"
     inkscape:cy="142.3595"
     inkscape:window-width="1366"
     inkscape:window-height="699"
     inkscape:window-x="0"
     inkscape:window-y="32"
     inkscape:window-maximized="1"
     inkscape:current-layer="Layer_1" />
  <defs
     id="defs979">
    <style
       id="style977">.cls-1,.cls-7{fill:#c9a382;}.cls-2{fill:#fff;}.cls-3{fill:#c49a6c;}.cls-4{fill:#3c2415;}.cls-5{fill:none;stroke:#fff;stroke-miterlimit:10;}.cls-5,.cls-7{stroke-linecap:round;}.cls-6{fill:#45c2cc;}.cls-7{stroke:#3c2415;stroke-linejoin:round;stroke-width:8.5px;}.cls-8{font-size:78.83px;fill:#231f20;font-family:Calibri-Bold, Calibri;font-weight:700;}</style>
  </defs>
  <rect
     class="cls-1"
     x="-204.00999"
     y="-277.69092"
     width="158.06"
     height="204.56"
     transform="scale(-1)"
     id="rect981" />
  <circle
     class="cls-1"
     cx="128.31001"
     cy="83.430908"
     r="73.660004"
     id="circle983" />
  <path
     class="cls-2"
     d="m 107.43,109.11091 c 0,11.27 13.48,14.3 18.28,14.3 4.8,0 17.36,-4.58 17.36,-15.85 0,-4.46 2.45,-14.710003 1.42,-18.070003 -1.58,-5.12 -35.67,-0.91 -38.57,-0.91 -4.79,0 1.51,9.26 1.51,20.530003 z"
     id="path985" />
  <path
     class="cls-3"
     d="m 95.07,63.450907 c 0,6.33 -5.31,20.62 -1.11,25.14 5.36,5.78 21.31,-2.08 30.38,-2.08 10.08,0 27.26,9 32.52,2.08 3.18,-4.17 -0.2,-19.71 -0.2,-25.14 0,-14.42 -16.16,-26.11 -32.32,-26.11 -16.16,0 -29.27,11.68 -29.27,26.11 z"
     id="path987" />
  <path
     class="cls-4"
     d="m 182.54,148.94091 a 1.53,1.53 0 0 1 -1.53,-1.53 v -17.34 a 1.53,1.53 0 0 1 3.06,0 v 17.38 a 1.54,1.54 0 0 1 -1.53,1.49 z"
     id="path989" />
  <path
     class="cls-4"
     d="m 180.39,97.350907 a 1.53,1.53 0 0 1 -1.53,-1.53 v -17.37 a 1.53,1.53 0 0 1 3.06,0 v 17.33 a 1.53,1.53 0 0 1 -1.53,1.57 z"
     id="path991" />
  <path
     class="cls-4"
     d="m 170.07,185.14091 a 1.54,1.54 0 0 1 -1.53,-1.53 v -17.34 a 1.53,1.53 0 0 1 3.06,0 v 17.34 a 1.53,1.53 0 0 1 -1.53,1.53 z"
     id="path993" />
  <path
     class="cls-4"
     d="m 150.94,138.74091 a 1.52,1.52 0 0 1 1.53,1.53 v 17.33 a 1.53,1.53 0 1 1 -3.06,0 v -17.33 a 1.53,1.53 0 0 1 1.53,-1.53 z"
     id="path995" />
  <path
     class="cls-4"
     d="m 124.18,161.70091 a 1.53,1.53 0 0 1 1.53,1.53 v 17.33 a 1.53,1.53 0 1 1 -3.06,0 v -17.33 a 1.52,1.52 0 0 1 1.53,-1.53 z"
     id="path997" />
  <path
     class="cls-4"
     d="m 143.07,194.24091 a 1.54,1.54 0 0 1 1.53,1.53 v 17.34 a 1.53,1.53 0 1 1 -3.06,0 v -17.34 a 1.54,1.54 0 0 1 1.53,-1.53 z"
     id="path999" />
  <path
     class="cls-4"
     d="m 114.81,214.64091 a 1.53,1.53 0 0 1 1.53,1.53 v 17.33 a 1.53,1.53 0 1 1 -3.06,0 v -17.33 a 1.53,1.53 0 0 1 1.53,-1.53 z"
     id="path1001" />
  <path
     class="cls-4"
     d="m 170.07,214.64091 a 1.52,1.52 0 0 1 1.53,1.53 v 17.33 a 1.53,1.53 0 1 1 -3.06,0 v -17.33 a 1.54,1.54 0 0 1 1.53,-1.53 z"
     id="path1003" />
  <path
     class="cls-4"
     d="m 79.36,214.64091 a 1.53,1.53 0 0 1 1.53,1.53 v 17.33 a 1.53,1.53 0 1 1 -3.06,0 v -17.33 a 1.53,1.53 0 0 1 1.53,-1.53 z"
     id="path1005" />
  <path
     class="cls-4"
     d="m 97.41,167.80091 a 1.54,1.54 0 0 1 1.53,1.53 v 17.34 a 1.53,1.53 0 0 1 -3.06,0 v -17.34 a 1.52,1.52 0 0 1 1.53,-1.53 z"
     id="path1007" />
  <path
     class="cls-4"
     d="m 71.41,161.70091 a 1.53,1.53 0 0 1 1.53,1.53 v 17.33 a 1.53,1.53 0 1 1 -3.06,0 v -17.33 a 1.52,1.52 0 0 1 1.53,-1.53 z"
     id="path1009" />
  <path
     class="cls-4"
     d="m 72.94,118.35091 a 1.53,1.53 0 0 1 -1.53,-1.53 V 99.450907 a 1.53,1.53 0 1 1 3.06,0 v 17.340003 a 1.54,1.54 0 0 1 -1.53,1.56 z"
     id="path1011" />
  <circle
     class="cls-4"
     cx="75.608788"
     cy="53.358078"
     r="3.8199999"
     transform="rotate(-9.22)"
     id="circle1013" />
  <circle
     class="cls-4"
     cx="167.31001"
     cy="40.560909"
     r="3.8199999"
     id="circle1015" />
  <path
     class="cls-4"
     d="m 158.5,93.450907 a 45.47,45.47 0 0 0 3.4,-17.17 c 0,-22.67 -16.36,-41.11 -36.46,-41.11 -20.1,0 -36.45,18.44 -36.45,41.11 0,13.11 5.56,25.320003 14.87,33.060003 5.6,10.44 12,14 21.39,14 9.39,0 17.82,-5.11 21.28,-13.6 a 40.24,40.24 0 0 0 11.73,-15.750003 1.53,1.53 0 0 0 0.17,-0.27 2.82,2.82 0 0 0 0.07,-0.27 z m -9.9,5.34 c 0.22,-1.77 0.38,-3.59 0.5,-5.44 0.79,0.27 1.57,0.54 2.35,0.83 a 34.41,34.41 0 0 1 -2.85,4.64 z M 128.31,116.55091 V 89.550907 a 74.26,74.26 0 0 1 14.76,2.06 c -1,19.770003 -10.06,23.840003 -14.76,24.940003 z M 107.43,91.690907 a 72.89,72.89 0 0 1 14.76,-2.13 v 27.000003 c -3.6,-1.7 -13.72,-5.11 -14.76,-24.870003 z m -8,2.52 2,-0.7 c 0.11,1.58 0.25,3.14 0.43,4.67 a 35.17,35.17 0 0 1 -2.43,-3.97 z m 56.35,-17.89 a 39.59,39.59 0 0 1 -2,12.26 79.22,79.22 0 0 0 -25.47,-5.13 v -16.33 c 7,-1 12.24,-5.09 12.24,-10 0,-5.67 -6.85,-10.26 -15.3,-10.26 -8.45,0 -15.3,4.59 -15.3,10.26 0,5 5.26,9.1 12.24,10 v 16.33 a 79.11,79.11 0 0 0 -25.12,5.13 39.94,39.94 0 0 1 -2,-12.27 c 0,-19.29 13.61,-35 30.34,-35 16.73,0 30.37,15.71 30.37,35.01 z"
     id="path1017" />
  <path
     class="cls-4"
     d="m 187.07,27.760907 c -1.47,-1.65 -3,-3.23 -4.6,-4.76 a 3.52,3.52 0 0 1 4,0.66 3.56,3.56 0 0 1 1,2.51 3.38,3.38 0 0 1 -0.4,1.59 z m -132,235.200003 c -1,-7.67 0,-180.340003 0,-180.340003 a 70.36,70.36 0 0 1 140.72,0 V 262.96091 c -8.26,9.79 -25.74,14.62 -69.14,14.62 -43.4,0 -70.58,-6.95 -71.58,-14.62 z M 64.24,23.660907 a 3.52,3.52 0 0 1 4.07,-0.62 c -1.6,1.54 -3.15,3.14 -4.62,4.8 a 3.52,3.52 0 0 1 0.56,-4.18 z m -64.24,59 C 0,124.26091 19.07,221.01091 43.91,257.80091 l -1.15,23.65 c 0,0 0.09,8.05 82.68,8.05 82.59,0 81.63,-11.05 81.63,-11.05 l 1,-195.820003 a 82.1,82.1 0 0 0 -13.34,-44.88 l 0.43,-0.43 a 15.78,15.78 0 0 0 -22.31,-22.31 v 0 a 82.31,82.31 0 0 0 -94.85,0.05 l -0.07,-0.07 a 15.789694,15.789694 0 0 0 -22.33,22.33 l 0.5,0.5 a 82.12,82.12 0 0 0 -13.26,44.8 V 106.53091 C 35.52,92.040907 35.57,92.000907 27.55,82.620907 c -25.39,-29.68 -27.54,0 -27.54,0 z"
     id="path1019" />
  <path
     class="cls-4"
     d="m 147.15,270.70091 c 7.52,-9 22.47,-17.86 34.82,-18.11 h 0.54 c 15.92,0 34.17,15.58 38.23,25.69 0.83,2.05 1.45,4.82 -0.21,6.41 -3.43,3.3 -19.63,5.69 -38.53,5.69 -18.27,0 -33,-2.26 -37.62,-5.78 -2,-1.57 -2.53,-3.81 -1.5,-6.85 a 23,23 0 0 1 4.27,-7.05 z"
     id="path1021" />
  <path
     class="cls-4"
     d="m 30.07,277.73091 c 3.64,-10.74 23.91,-25.16 39.63,-25.16 a 30,30 0 0 1 8.47,1.35 c 7.53,2.22 14.9,7 20.54,12.23 4.41,4.09 7.75,8.46 9.22,12.11 0.82,2.05 1.45,4.82 -0.22,6.41 -3.43,3.3 -19.62,5.69 -38.52,5.69 -18.27,0 -33,-2.26 -37.61,-5.78 -2.07,-1.57 -2.57,-3.8 -1.51,-6.85 z"
     id="path1023" />
  <line
     class="cls-5"
     x1="24.5"
     y1="90.010902"
     x2="6.8500009"
     y2="90.010902"
     id="line1025" />
  <line
     class="cls-5"
     x1="30.619999"
     y1="105.0709"
     x2="9.5900002"
     y2="105.0709"
     id="line1027" />
  <line
     class="cls-5"
     x1="36.73"
     y1="120.1309"
     x2="9.6000004"
     y2="120.1309"
     id="line1029" />
  <line
     class="cls-5"
     x1="42.849998"
     y1="135.19092"
     x2="14.709999"
     y2="135.19092"
     id="line1031" />
  <line
     class="cls-5"
     x1="42.849998"
     y1="150.25092"
     x2="19.119999"
     y2="150.25092"
     id="line1033" />
  <line
     class="cls-5"
     x1="42.849998"
     y1="165.31091"
     x2="21.829998"
     y2="165.31091"
     id="line1035" />
  <line
     class="cls-5"
     x1="42.849998"
     y1="180.37091"
     x2="25.220001"
     y2="180.37091"
     id="line1037" />
  <line
     class="cls-5"
     x1="42.849998"
     y1="195.43091"
     x2="30.98"
     y2="195.43091"
     id="line1039" />
  <line
     class="cls-5"
     x1="42.849998"
     y1="210.49091"
     x2="33.700001"
     y2="210.49091"
     id="line1041" />
  <path
     class="cls-6"
     d="m 196.23,113.70091 c 0,0 -71.38,62.41 -141.33,1.75 v 122.51 h 140.86 z"
     id="path1043" />
  <path
     class="cls-7"
     d="m 81.15,162.21091 0.63,32.64 h -0.1 c 0,0.24 0,0.48 0,0.73 a 14.60099,14.60099 0 0 1 -29.2,0.34 c 0,-0.25 0,-0.49 0,-0.74 h -0.11 l -0.63,-45"
     id="path1045" />
  <path
     class="cls-7"
     d="m 199.12,151.39091 -0.63,45 h -0.1 c 0,0.25 0,0.49 0,0.74 a 14.61,14.61 0 1 1 -29.21,-0.33 c 0,-0.25 0,-0.49 0.05,-0.74 h -0.11 l 0.64,-32.63"
     id="path1047" />
  <text
     class="cls-8"
     id="text1049"
     x="106.85"
     y="209.5509">8</text>
</svg>
