<?xml version="1.0" encoding="UTF-8" standalone="no"?>
<svg
   id="Layer_1"
   data-name="Layer 1"
   viewBox="0 0 181.97519 238.4902"
   version="1.1"
   sodipodi:docname="2021-ID-09 Market-beaver3.svg"
   width="181.97519"
   height="238.4902"
   inkscape:version="1.1 (c68e22c387, 2021-05-23)"
   xmlns:inkscape="http://www.inkscape.org/namespaces/inkscape"
   xmlns:sodipodi="http://sodipodi.sourceforge.net/DTD/sodipodi-0.dtd"
   xmlns="http://www.w3.org/2000/svg"
   xmlns:svg="http://www.w3.org/2000/svg">
  <sodipodi:namedview
     id="namedview1774"
     pagecolor="#ffffff"
     bordercolor="#666666"
     borderopacity="1.0"
     inkscape:pageshadow="2"
     inkscape:pageopacity="0.0"
     inkscape:pagecheckerboard="0"
     showgrid="false"
     inkscape:zoom="1.5122928"
     inkscape:cx="96.872776"
     inkscape:cy="91.913419"
     inkscape:window-width="1366"
     inkscape:window-height="699"
     inkscape:window-x="0"
     inkscape:window-y="32"
     inkscape:window-maximized="1"
     inkscape:current-layer="Layer_1" />
  <defs
     id="defs1699">
    <style
       id="style1697">.cls-1,.cls-7{fill:#67472b;}.cls-2{fill:#fff;}.cls-3{fill:#93683e;}.cls-4{fill:#3c2415;}.cls-5{fill:none;stroke:#fff;stroke-miterlimit:10;}.cls-5,.cls-7{stroke-linecap:round;}.cls-6{fill:#e77724;}.cls-7{stroke:#3c2415;stroke-linejoin:round;stroke-width:8.5px;}.cls-8{font-size:64.75px;fill:#231f20;font-family:Calibri-Bold, Calibri;font-weight:700;}</style>
  </defs>
  <rect
     class="cls-1"
     x="-167.55"
     y="-228.07021"
     width="129.82001"
     height="168.00999"
     transform="scale(-1)"
     id="rect1701" />
  <circle
     class="cls-1"
     cx="105.37"
     cy="68.530197"
     r="60.5"
     id="circle1703" />
  <path
     class="cls-2"
     d="m 88.23,89.620207 c 0,9.26 11.07,11.740003 15,11.740003 3.93,0 14.26,-3.760003 14.26,-13.000003 0,-3.67 2,-12.08 1.16,-14.84 -1.3,-4.21 -29.29,-0.75 -31.67,-0.75 -3.93,-0.01 1.25,7.59 1.25,16.85 z"
     id="path1705" />
  <ellipse
     class="cls-3"
     cx="102.05"
     cy="167.5002"
     rx="42.150002"
     ry="45.419998"
     id="ellipse1707" />
  <path
     class="cls-3"
     d="m 78.15,52.120207 c 0,5.19 -4.37,16.93 -0.92,20.64 4.41,4.75 17.51,-1.71 25,-1.71 8.28,0 22.39,7.4 26.71,1.71 2.61,-3.43 -0.17,-16.19 -0.17,-20.64 0,-11.85 -13.27,-21.45 -26.54,-21.45 -13.27,0 -24.08,9.6 -24.08,21.45 z"
     id="path1709" />
  <path
     class="cls-4"
     d="m 149.91,122.33021 a 1.25,1.25 0 0 1 -1.25,-1.25 v -14.24 a 1.26,1.26 0 1 1 2.51,0 v 14.24 a 1.25,1.25 0 0 1 -1.26,1.25 z"
     id="path1711" />
  <path
     class="cls-4"
     d="m 148.15,79.960207 a 1.25,1.25 0 0 1 -1.26,-1.25 v -14.22 a 1.26,1.26 0 1 1 2.51,0 v 14.24 a 1.25,1.25 0 0 1 -1.25,1.23 z"
     id="path1713" />
  <path
     class="cls-4"
     d="m 139.67,152.07021 a 1.26,1.26 0 0 1 -1.26,-1.26 v -14.24 a 1.26,1.26 0 1 1 2.51,0 v 14.24 a 1.26,1.26 0 0 1 -1.25,1.26 z"
     id="path1715" />
  <path
     class="cls-4"
     d="m 123.96,113.96021 a 1.25,1.25 0 0 1 1.26,1.25 v 14.28 a 1.26,1.26 0 1 1 -2.51,0 v -14.28 a 1.25,1.25 0 0 1 1.25,-1.25 z"
     id="path1717" />
  <path
     class="cls-4"
     d="m 101.98,132.81021 a 1.27,1.27 0 0 1 1.26,1.26 v 14.24 a 1.26,1.26 0 0 1 -2.52,0 v -14.24 a 1.27,1.27 0 0 1 1.26,-1.26 z"
     id="path1719" />
  <path
     class="cls-4"
     d="m 117.5,159.54021 a 1.26,1.26 0 0 1 1.25,1.26 v 14.24 a 1.26,1.26 0 1 1 -2.51,0 v -14.24 a 1.26,1.26 0 0 1 1.26,-1.26 z"
     id="path1721" />
  <path
     class="cls-4"
     d="m 94.29,176.30021 a 1.25,1.25 0 0 1 1.25,1.25 v 14.24 a 1.26,1.26 0 1 1 -2.51,0 v -14.24 a 1.26,1.26 0 0 1 1.26,-1.25 z"
     id="path1723" />
  <path
     class="cls-4"
     d="m 139.67,176.30021 a 1.25,1.25 0 0 1 1.25,1.25 v 14.24 a 1.26,1.26 0 1 1 -2.51,0 v -14.24 a 1.26,1.26 0 0 1 1.26,-1.25 z"
     id="path1725" />
  <path
     class="cls-4"
     d="m 65.15,176.30021 a 1.26,1.26 0 0 1 1.26,1.25 v 14.24 a 1.26,1.26 0 0 1 -2.52,0 v -14.24 a 1.27,1.27 0 0 1 1.26,-1.25 z"
     id="path1727" />
  <path
     class="cls-4"
     d="m 80,137.83021 a 1.25,1.25 0 0 1 1.25,1.25 v 14.24 a 1.26,1.26 0 1 1 -2.51,0 v -14.24 a 1.25,1.25 0 0 1 1.26,-1.25 z"
     id="path1729" />
  <path
     class="cls-4"
     d="m 58.64,132.81021 a 1.26,1.26 0 0 1 1.25,1.26 v 14.24 a 1.26,1.26 0 1 1 -2.51,0 v -14.24 a 1.26,1.26 0 0 1 1.26,-1.26 z"
     id="path1731" />
  <path
     class="cls-4"
     d="m 59.89,97.210207 a 1.25,1.25 0 0 1 -1.25,-1.26 v -14.23 a 1.26,1.26 0 1 1 2.51,0 v 14.23 a 1.25,1.25 0 0 1 -1.26,1.26 z"
     id="path1733" />
  <circle
     class="cls-4"
     cx="68.310005"
     cy="33.32021"
     r="3.1400001"
     id="circle1735" />
  <circle
     class="cls-4"
     cx="137.40999"
     cy="33.32021"
     r="3.1400001"
     id="circle1737" />
  <path
     class="cls-4"
     d="m 130.15,76.780207 a 37.32,37.32 0 0 0 2.79,-14.1 c 0,-18.62 -13.43,-33.76 -29.94,-33.76 -16.51,0 -29.94,15.14 -29.94,33.76 0,10.77 4.57,20.8 12.22,27.16 4.59,8.57 9.84,11.520003 17.56,11.520003 7.72,0 14.64,-4.190003 17.48,-11.170003 a 33,33 0 0 0 9.64,-12.93 c 0,-0.07 0.1,-0.14 0.14,-0.22 0.04,-0.08 0.05,-0.17 0.05,-0.26 z m -8.13,4.39 c 0.18,-1.45 0.31,-3 0.41,-4.46 0.65,0.21 1.29,0.43 1.93,0.68 a 29.79,29.79 0 0 1 -2.32,3.78 z m -16.67,14.57 v -22.19 a 60.61,60.61 0 0 1 12.13,1.7 c -0.82,16.24 -8.24,19.59 -12.11,20.49 z m -17.14,-20.42 a 60,60 0 0 1 12.12,-1.76 v 22.18 c -2.94,-1.39 -11.25,-4.25 -12.1,-20.42 z m -6.57,2.07 1.61,-0.58 c 0.09,1.3 0.21,2.58 0.35,3.83 a 28,28 0 0 1 -1.94,-3.25 z m 46.27,-14.7 a 32.61,32.61 0 0 1 -1.59,10.07 65.15,65.15 0 0 0 -21,-4.23 v -13.39 c 5.74,-0.79 10.05,-4.19 10.05,-8.26 0,-4.65 -5.62,-8.43 -12.56,-8.43 -6.94,0 -12.56,3.78 -12.56,8.43 0,4.07 4.32,7.47 10,8.26 v 13.4 a 64.9,64.9 0 0 0 -20.65,4.22 32.71,32.71 0 0 1 -1.45,-10.07 c 0,-15.85 11.18,-28.74 24.92,-28.74 13.74,0 24.86,12.89 24.86,28.74 z"
     id="path1739" />
  <path
     class="cls-4"
     d="m 153.67,22.810207 c -1.21,-1.36 -2.47,-2.66 -3.78,-3.92 a 2.88,2.88 0 0 1 4.13,2.61 2.85,2.85 0 0 1 -0.35,1.31 z M 45.23,215.98021 c -0.83,-6.29 0,-148.110003 0,-148.110003 a 57.79,57.79 0 0 1 115.58,0 V 215.98021 c -6.79,8.05 -21.14,12 -56.79,12 -35.65,0 -57.96,-5.7 -58.79,-12 z M 52.76,19.490207 a 2.89,2.89 0 0 1 3.39,-0.56 q -2,1.91 -3.8,3.94 a 2.88,2.88 0 0 1 0.41,-3.38 z M 0,67.870207 C 0,102.03021 15.67,181.49021 36.06,211.71021 l -0.91,19.47 c 0,0 0.08,6.61 67.91,6.61 67.83,0 67,-9.09 67,-9.09 l 0.79,-160.830003 a 67.43,67.43 0 0 0 -10.93,-36.86 l 0.35,-0.35 a 13,13 0 1 0 -18.32,-18.32 v 0 a 67.64,67.64 0 0 0 -77.9,0 l -0.06,-0.06 a 13,13 0 1 0 -18.32,18.33 l 0.41,0.41 a 67.41,67.41 0 0 0 -10.93,36.85 v 19.62 c -6,-11.9 -6,-11.93 -12.56,-19.63 -20.82,-24.37 -22.59,0.01 -22.59,0.01 z"
     id="path1741" />
  <path
     class="cls-4"
     d="m 120.85,222.34021 c 6.18,-7.37 18.46,-14.67 28.6,-14.87 h 0.44 c 13.07,0 28.06,12.8 31.4,21.1 0.68,1.68 1.19,4 -0.17,5.27 -2.82,2.65 -16.13,4.65 -31.65,4.65 -15,0 -27.13,-1.86 -30.89,-4.75 -1.68,-1.29 -2.09,-3.13 -1.24,-5.63 a 18.77,18.77 0 0 1 3.51,-5.77 z"
     id="path1743" />
  <path
     class="cls-4"
     d="m 24.67,228.12021 c 3,-8.83 19.64,-20.67 32.55,-20.67 a 24.65,24.65 0 0 1 7,1.11 44.56,44.56 0 0 1 16.87,10 c 3.62,3.36 6.36,6.95 7.57,9.95 0.67,1.68 1.19,4 -0.18,5.27 -2.85,2.71 -16.16,4.71 -31.68,4.71 -15,0 -27.12,-1.86 -30.89,-4.75 -1.68,-1.25 -2.09,-3.12 -1.24,-5.62 z"
     id="path1745" />
  <line
     class="cls-5"
     x1="20.109999"
     y1="73.940201"
     x2="5.6199994"
     y2="73.940201"
     id="line1747" />
  <line
     class="cls-5"
     x1="25.140001"
     y1="86.300201"
     x2="7.8699994"
     y2="86.300201"
     id="line1749" />
  <line
     class="cls-5"
     x1="30.159998"
     y1="98.670197"
     x2="7.8799996"
     y2="98.670197"
     id="line1751" />
  <line
     class="cls-5"
     x1="35.190002"
     y1="111.04021"
     x2="12.08"
     y2="111.04021"
     id="line1753" />
  <line
     class="cls-5"
     x1="35.190002"
     y1="123.4102"
     x2="15.690001"
     y2="123.4102"
     id="line1755" />
  <line
     class="cls-5"
     x1="35.190002"
     y1="135.7802"
     x2="17.92"
     y2="135.7802"
     id="line1757" />
  <line
     class="cls-5"
     x1="35.190002"
     y1="148.15021"
     x2="20.699999"
     y2="148.15021"
     id="line1759" />
  <line
     class="cls-5"
     x1="35.190002"
     y1="160.5202"
     x2="25.440001"
     y2="160.5202"
     id="line1761" />
  <line
     class="cls-5"
     x1="35.190002"
     y1="172.8802"
     x2="27.67"
     y2="172.8802"
     id="line1763" />
  <path
     class="cls-6"
     d="m 161.15,93.390207 c 0,0 -58.62,51.260003 -116.08,1.41 V 195.49021 h 115.7 z"
     id="path1765" />
  <path
     class="cls-7"
     d="m 66.64,133.24021 0.52,26.8 h -0.08 c 0,0.2 0,0.4 0,0.6 a 12.000817,12.000817 0 1 1 -24,0.28 c 0,-0.21 0,-0.4 0,-0.61 H 43 l -0.52,-36.94"
     id="path1767" />
  <path
     class="cls-7"
     d="m 163.53,124.35021 -0.51,36.93 h -0.09 c 0,0.2 0,0.4 0,0.6 a 12.000759,12.000759 0 1 1 -24,-0.27 c 0,-0.21 0,-0.4 0,-0.61 h -0.08 l 0.52,-26.8"
     id="path1769" />
  <text
     class="cls-8"
     id="text1771"
     x="85.639999"
     y="172.12021">5</text>
</svg>
