<?xml version="1.0" encoding="UTF-8" standalone="no"?>
<svg
   id="Layer_1"
   data-name="Layer 1"
   viewBox="0 0 144.76581 189.72134"
   version="1.1"
   sodipodi:docname="2021-ID-09 Market-beaver2.svg"
   width="144.76581"
   height="189.72134"
   inkscape:version="1.1 (c68e22c387, 2021-05-23)"
   xmlns:inkscape="http://www.inkscape.org/namespaces/inkscape"
   xmlns:sodipodi="http://sodipodi.sourceforge.net/DTD/sodipodi-0.dtd"
   xmlns="http://www.w3.org/2000/svg"
   xmlns:svg="http://www.w3.org/2000/svg">
  <sodipodi:namedview
     id="namedview1384"
     pagecolor="#ffffff"
     bordercolor="#666666"
     borderopacity="1.0"
     inkscape:pageshadow="2"
     inkscape:pageopacity="0.0"
     inkscape:pagecheckerboard="0"
     showgrid="false"
     inkscape:zoom="0.95616996"
     inkscape:cx="46.539843"
     inkscape:cy="73.208742"
     inkscape:window-width="1366"
     inkscape:window-height="699"
     inkscape:window-x="0"
     inkscape:window-y="32"
     inkscape:window-maximized="1"
     inkscape:current-layer="Layer_1" />
  <defs
     id="defs1309">
    <style
       id="style1307">.cls-1,.cls-7{fill:#a97c50;}.cls-2{fill:#fff;}.cls-3{fill:#c49a6c;}.cls-4{fill:#3c2415;}.cls-5{fill:none;stroke:#fff;stroke-miterlimit:10;}.cls-5,.cls-7{stroke-linecap:round;}.cls-6{fill:#db2590;}.cls-7{stroke:#3c2415;stroke-linejoin:round;stroke-width:5.67px;}.cls-8{font-size:56.69px;fill:#231f20;font-family:Calibri-Bold, Calibri;font-weight:700;}</style>
  </defs>
  <rect
     class="cls-1"
     x="11.495349"
     y="47.761333"
     width="103.28"
     height="133.67"
     id="rect1311" />
  <circle
     class="cls-1"
     cx="60.965347"
     cy="54.491329"
     r="48.139999"
     id="circle1313" />
  <path
     class="cls-2"
     d="m 74.60535,71.271336 c 0,7.36 -8.81,9.34 -11.94,9.34 -3.13,0 -11.35,-3 -11.35,-10.35 0,-2.92 -1.6,-9.61 -0.92,-11.81 1,-3.35 23.3,-0.59 25.2,-0.59 3.13,0 -0.99,6.05 -0.99,13.41 z"
     id="path1315" />
  <ellipse
     class="cls-3"
     cx="63.615349"
     cy="133.24133"
     rx="33.540001"
     ry="36.139999"
     id="ellipse1317" />
  <path
     class="cls-3"
     d="m 82.66535,41.431336 c 0,4.14 3.47,13.48 0.73,16.43 -3.51,3.78 -13.93,-1.36 -19.86,-1.36 -6.58,0 -17.81,5.88 -21.25,1.36 -2.07,-2.73 0.13,-12.88 0.13,-16.43 0,-9.42 10.56,-17.06 21.12,-17.06 10.56,0 19.13,7.64 19.13,17.06 z"
     id="path1319" />
  <path
     class="cls-4"
     d="m 25.52535,97.301336 a 1,1 0 0 0 1,-1 v -11.33 a 1,1 0 1 0 -2,0 v 11.33 a 1,1 0 0 0 1,1 z"
     id="path1321" />
  <path
     class="cls-4"
     d="m 26.93535,63.591336 a 1,1 0 0 0 1,-1 v -11.33 a 1,1 0 0 0 -2,0 v 11.33 a 1,1 0 0 0 1,1 z"
     id="path1323" />
  <path
     class="cls-4"
     d="m 33.67535,120.95134 a 1,1 0 0 0 1,-1 v -11.36 a 1,1 0 0 0 -2,0 v 11.33 a 1,1 0 0 0 1,1.03 z"
     id="path1325" />
  <path
     class="cls-4"
     d="m 46.17535,90.591336 a 1,1 0 0 0 -1,1 v 11.330004 a 1,1 0 0 0 2,0 V 91.591336 a 1,1 0 0 0 -1,-1 z"
     id="path1327" />
  <path
     class="cls-4"
     d="m 63.66535,105.64134 a 1,1 0 0 0 -1,1 v 11.32 a 1,1 0 0 0 2,0 v -11.32 a 1,1 0 0 0 -1,-1 z"
     id="path1329" />
  <path
     class="cls-4"
     d="m 51.31535,126.90134 a 1,1 0 0 0 -1,1 v 11.33 a 1,1 0 0 0 2,0 v -11.33 a 1,1 0 0 0 -1,-1 z"
     id="path1331" />
  <path
     class="cls-4"
     d="m 69.78535,140.23134 a 1,1 0 0 0 -1,1 v 11.36 a 1,1 0 0 0 2,0 v -11.36 a 1,1 0 0 0 -1,-1 z"
     id="path1333" />
  <path
     class="cls-4"
     d="m 33.67535,140.23134 a 1,1 0 0 0 -1,1 v 11.36 a 1,1 0 0 0 2,0 v -11.36 a 1,1 0 0 0 -1,-1 z"
     id="path1335" />
  <path
     class="cls-4"
     d="m 92.94535,140.23134 a 1,1 0 0 0 -1,1 v 11.36 a 1,1 0 0 0 2,0 v -11.36 a 1,1 0 0 0 -1,-1 z"
     id="path1337" />
  <path
     class="cls-4"
     d="m 81.15535,109.59134 a 1,1 0 0 0 -1,1 v 11.33 a 1,1 0 0 0 2,0 v -11.33 a 1,1 0 0 0 -1,-1 z"
     id="path1339" />
  <path
     class="cls-4"
     d="m 98.14535,105.64134 a 1,1 0 0 0 -1,1 v 11.32 a 1,1 0 0 0 2,0 v -11.32 a 1,1 0 0 0 -1,-1 z"
     id="path1341" />
  <path
     class="cls-4"
     d="m 97.14535,77.311336 a 1,1 0 0 0 1,-1 v -11.33 a 1,1 0 0 0 -2,0 v 11.33 a 1,1 0 0 0 1,1 z"
     id="path1343" />
  <circle
     class="cls-4"
     cx="90.455353"
     cy="26.481337"
     r="2.5"
     id="circle1345" />
  <circle
     class="cls-4"
     cx="35.475349"
     cy="26.481337"
     r="2.5"
     id="circle1347" />
  <path
     class="cls-4"
     d="m 41.27535,61.261336 c 0,0.07 0.08,0.12 0.11,0.18 a 26.42,26.42 0 0 0 7.67,10.29 14.73,14.73 0 0 0 13.9,8.88 c 6.15,0 10.32,-2.35 14,-9.17 a 28,28 0 0 0 9.72,-21.6 c 0,-14.82 -10.68,-26.87 -23.82,-26.87 -13.14,0 -23.82,12.05 -23.82,26.87 a 29.69,29.69 0 0 0 2.22,11.22 c 0,0.07 0,0.14 0.02,0.2 z m 4.57,0.28 c 0.51,-0.2 1,-0.37 1.53,-0.54 0.08,1.2 0.18,2.39 0.33,3.55 a 22.15,22.15 0 0 1 -1.86,-2.96 z m 5.47,-1.7 a 47.25,47.25 0 0 1 9.65,-1.35 v 17.65 c -3.07,-0.72 -8.98,-3.38 -9.65,-16.3 z m 13.65,16.3 v -17.65 a 47.91,47.91 0 0 1 9.64,1.4 c -0.68,12.89 -7.29,15.14 -9.64,16.25 z m 13.3,-12 c 0.12,-1 0.21,-2 0.28,-3 l 1.29,0.46 a 23.48,23.48 0 0 1 -1.57,2.53 z m -15.43,-37.15 c 10.93,0 19.83,10.25 19.83,22.86 a 26,26 0 0 1 -1.27,8 51.52,51.52 0 0 0 -16.43,-3.36 v -10.66 c 4.56,-0.62 8,-3.32 8,-6.56 0,-3.71 -4.47,-6.71 -10,-6.71 -5.53,0 -10,3 -10,6.71 0,3.24 3.44,5.94 8,6.56 v 10.66 a 51.57,51.57 0 0 0 -16.68,3.37 26,26 0 0 1 -1.27,-8 c 0,-12.63 8.89,-22.88 19.82,-22.88 z"
     id="path1349" />
  <path
     class="cls-4"
     d="m 22.25535,17.071336 a 2.26,2.26 0 0 1 0.68,-1.63 2.3,2.3 0 0 1 2.61,-0.44 c -1,1 -2.05,2 -3,3.11 a 2.22,2.22 0 0 1 -0.29,-1.04 z m 39.78,164.290004 c -28.36,0 -39.78,-3.15 -45.18,-9.55 V 53.961336 a 46,46 0 0 1 92,0 c 0,0 0.66,112.840004 0,117.850004 -0.66,5.01 -18.48,9.55 -46.82,9.55 z m 41.15,-163.200004 c -1,-1.08 -2,-2.12 -3,-3.13 a 2.27,2.27 0 0 1 3,3.13 z m 23.62,35.8 c -5.24,6.13 -5.21,6.16 -10,15.63 v -15.63 a 53.66,53.66 0 0 0 -8.67,-29.27 l 0.33,-0.33 a 10.31,10.31 0 0 0 -14.58,-14.5799995 v 0.05 a 53.79,53.79 0 0 0 -62,0 v 0 a 10.31,10.31 0 1 0 -14.61,14.5299995 l 0.28,0.28 a 53.65,53.65 0 0 0 -8.6899997,29.32 l 0.63,128.000004 c 0,0 -0.63,7.23 53.3399997,7.23 53.97,0 54,-5.26 54,-5.26 l -0.76,-15.49 c 16.23,-24 28.69,-87.260004 28.69,-114.450004 0.03,-0.03 -1.39,-19.4 -17.96,-0.03 z"
     id="path1351" />
  <path
     class="cls-4"
     d="m 48.65535,176.87134 c -4.92,-5.87 -14.69,-11.68 -22.76,-11.84 h -0.35 c -10.4,0 -22.3299997,10.18 -24.99999967,16.78 -0.54,1.34 -0.95,3.15 0.14,4.2 2.23999997,2.15 12.81999967,3.71 25.16999967,3.71 11.94,0 21.59,-1.48 24.58,-3.78 1.34,-1 1.66,-2.48 1,-4.47 a 15.15,15.15 0 0 0 -2.78,-4.6 z"
     id="path1353" />
  <path
     class="cls-4"
     d="m 125.17535,181.46134 c -2.38,-7 -15.63,-16.44 -25.9,-16.44 a 19.57,19.57 0 0 0 -5.54,0.88 35.53,35.53 0 0 0 -13.42,8 24.45,24.45 0 0 0 -6,7.91 c -0.54,1.34 -1,3.15 0.14,4.2 2.24,2.15 12.82,3.71 25.17,3.71 11.94,0 21.58,-1.48 24.58,-3.78 1.32,-1.03 1.64,-2.49 0.97,-4.48 z"
     id="path1355" />
  <line
     class="cls-5"
     x1="128.79535"
     y1="58.791332"
     x2="140.33536"
     y2="58.791332"
     id="line1357" />
  <line
     class="cls-5"
     x1="124.80534"
     y1="68.631332"
     x2="138.54535"
     y2="68.631332"
     id="line1359" />
  <line
     class="cls-5"
     x1="120.80534"
     y1="78.471344"
     x2="138.53535"
     y2="78.471344"
     id="line1361" />
  <line
     class="cls-5"
     x1="116.80534"
     y1="88.31134"
     x2="135.19536"
     y2="88.31134"
     id="line1363" />
  <line
     class="cls-5"
     x1="116.80534"
     y1="98.151337"
     x2="132.31535"
     y2="98.151337"
     id="line1365" />
  <line
     class="cls-5"
     x1="116.80534"
     y1="108.00134"
     x2="130.54535"
     y2="108.00134"
     id="line1367" />
  <line
     class="cls-5"
     x1="116.80534"
     y1="117.84134"
     x2="128.32535"
     y2="117.84134"
     id="line1369" />
  <line
     class="cls-5"
     x1="116.80534"
     y1="127.68134"
     x2="124.56535"
     y2="127.68134"
     id="line1371" />
  <line
     class="cls-5"
     x1="116.80534"
     y1="137.52133"
     x2="122.78535"
     y2="137.52133"
     id="line1373" />
  <path
     class="cls-6"
     d="m 16.57535,74.271336 c 0,0 46.65,40.790004 92.36,1.12 v 80.080004 h -92.05 z"
     id="path1375" />
  <path
     class="cls-7"
     d="m 91.78535,105.97134 -0.41,21.33 h 0.07 c 0,0.16 0,0.32 0,0.48 a 9.55,9.55 0 0 0 19.09,0.22 c 0,-0.17 0,-0.32 0,-0.48 h 0.06 l 0.42,-29.390004"
     id="path1377" />
  <path
     class="cls-7"
     d="m 14.68535,98.901336 0.42,29.380004 h 0.06 c 0,0.16 0,0.32 0,0.48 a 9.55,9.55 0 1 0 19.07,-0.17 c 0,-0.17 0,-0.32 0,-0.48 h 0.07 l -0.42,-21.32"
     id="path1379" />
  <text
     class="cls-8"
     id="text1381"
     x="49.415352"
     y="140.42134">3</text>
</svg>
