<?xml version="1.0" encoding="UTF-8" standalone="no"?>
<svg
   id="Layer_1"
   data-name="Layer 1"
   viewBox="0 0 181.97519 238.44019"
   version="1.1"
   sodipodi:docname="2021-ID-09 Market-beaver4.svg"
   width="181.97519"
   height="238.4402"
   inkscape:version="1.1 (c68e22c387, 2021-05-23)"
   xmlns:inkscape="http://www.inkscape.org/namespaces/inkscape"
   xmlns:sodipodi="http://sodipodi.sourceforge.net/DTD/sodipodi-0.dtd"
   xmlns="http://www.w3.org/2000/svg"
   xmlns:svg="http://www.w3.org/2000/svg">
  <sodipodi:namedview
     id="namedview2085"
     pagecolor="#ffffff"
     bordercolor="#666666"
     borderopacity="1.0"
     inkscape:pageshadow="2"
     inkscape:pageopacity="0.0"
     inkscape:pagecheckerboard="0"
     showgrid="false"
     inkscape:zoom="1.5122928"
     inkscape:cx="88.276557"
     inkscape:cy="91.913419"
     inkscape:window-width="1366"
     inkscape:window-height="699"
     inkscape:window-x="0"
     inkscape:window-y="32"
     inkscape:window-maximized="1"
     inkscape:current-layer="Layer_1" />
  <defs
     id="defs2010">
    <style
       id="style2008">.cls-1,.cls-7{fill:#a59586;}.cls-2{fill:#fff;}.cls-3{fill:#8a7b6e;}.cls-4{fill:#3c2415;}.cls-5{fill:none;stroke:#fff;stroke-miterlimit:10;}.cls-5,.cls-7{stroke-linecap:round;}.cls-6{fill:#78be43;}.cls-7{stroke:#3c2415;stroke-linejoin:round;stroke-width:8.5px;}.cls-8{font-size:64.75px;fill:#231f20;font-family:Calibri-Bold, Calibri;font-weight:700;}</style>
  </defs>
  <rect
     class="cls-1"
     x="14.415195"
     y="60.02021"
     width="129.82001"
     height="168.00999"
     id="rect2012" />
  <circle
     class="cls-1"
     cx="76.5952"
     cy="68.480202"
     r="60.5"
     id="circle2014" />
  <path
     class="cls-2"
     d="m 93.745196,89.570207 c 0,9.26 -11.07,11.740003 -15,11.740003 -3.93,0 -14.27,-3.760003 -14.27,-13.010003 0,-3.67 -2,-12.08 -1.16,-14.84 1.29,-4.21 29.29,-0.75 31.67,-0.75 3.94,0 -1.24,7.6 -1.24,16.86 z"
     id="path2016" />
  <ellipse
     class="cls-3"
     cx="79.925194"
     cy="167.4502"
     rx="42.150002"
     ry="45.419998"
     id="ellipse2018" />
  <path
     class="cls-3"
     d="m 103.8752,52.070207 c 0,5.19 4.36,16.93 0.91,20.64 -4.41,4.75 -17.500004,-1.71 -25.000004,-1.71 -8.28,0 -22.39,7.4 -26.71,1.71 -2.61,-3.43 0.16,-16.19 0.16,-20.64 0,-11.85 13.28,-21.45 26.55,-21.45 13.27,0 24.090004,9.6 24.090004,21.45 z"
     id="path2020" />
  <path
     class="cls-4"
     d="m 32.065196,122.28021 a 1.25,1.25 0 0 0 1.25,-1.25 v -14.24 a 1.26,1.26 0 1 0 -2.51,0 v 14.24 a 1.25,1.25 0 0 0 1.26,1.25 z"
     id="path2022" />
  <path
     class="cls-4"
     d="m 33.825196,79.910207 a 1.26,1.26 0 0 0 1.26,-1.25 v -14.22 a 1.26,1.26 0 0 0 -2.52,0 v 14.24 a 1.26,1.26 0 0 0 1.26,1.23 z"
     id="path2024" />
  <path
     class="cls-4"
     d="m 42.305196,152.02021 a 1.27,1.27 0 0 0 1.26,-1.26 v -14.24 a 1.26,1.26 0 1 0 -2.52,0 v 14.24 a 1.27,1.27 0 0 0 1.26,1.26 z"
     id="path2026" />
  <path
     class="cls-4"
     d="m 58.005196,113.91021 a 1.25,1.25 0 0 0 -1.25,1.25 v 14.28 a 1.26,1.26 0 1 0 2.51,0 v -14.28 a 1.25,1.25 0 0 0 -1.26,-1.25 z"
     id="path2028" />
  <path
     class="cls-4"
     d="m 79.995196,132.76021 a 1.26,1.26 0 0 0 -1.26,1.26 v 14.24 a 1.26,1.26 0 1 0 2.51,0 v -14.24 a 1.25,1.25 0 0 0 -1.25,-1.26 z"
     id="path2030" />
  <path
     class="cls-4"
     d="m 64.475196,159.49021 a 1.27,1.27 0 0 0 -1.26,1.26 v 14.24 a 1.26,1.26 0 0 0 2.52,0 v -14.24 a 1.27,1.27 0 0 0 -1.26,-1.26 z"
     id="path2032" />
  <path
     class="cls-4"
     d="m 87.685196,176.25021 a 1.26,1.26 0 0 0 -1.26,1.25 v 14.24 a 1.26,1.26 0 0 0 2.52,0 v -14.24 a 1.27,1.27 0 0 0 -1.26,-1.25 z"
     id="path2034" />
  <path
     class="cls-4"
     d="m 42.305196,176.25021 a 1.26,1.26 0 0 0 -1.26,1.25 v 14.24 a 1.26,1.26 0 0 0 2.52,0 v -14.24 a 1.27,1.27 0 0 0 -1.26,-1.25 z"
     id="path2036" />
  <path
     class="cls-4"
     d="m 116.8052,176.25021 a 1.25,1.25 0 0 0 -1.26,1.25 v 14.24 a 1.26,1.26 0 1 0 2.51,0 v -14.24 a 1.25,1.25 0 0 0 -1.25,-1.25 z"
     id="path2038" />
  <path
     class="cls-4"
     d="m 101.9752,137.78021 a 1.25,1.25 0 0 0 -1.25,1.25 v 14.24 a 1.26,1.26 0 1 0 2.51,0 v -14.24 a 1.25,1.25 0 0 0 -1.26,-1.25 z"
     id="path2040" />
  <path
     class="cls-4"
     d="m 123.3352,132.76021 a 1.27,1.27 0 0 0 -1.26,1.26 v 14.24 a 1.26,1.26 0 1 0 2.51,0 v -14.24 a 1.25,1.25 0 0 0 -1.25,-1.26 z"
     id="path2042" />
  <path
     class="cls-4"
     d="m 122.0752,97.160207 a 1.25,1.25 0 0 0 1.26,-1.26 v -14.23 a 1.26,1.26 0 1 0 -2.51,0 v 14.23 a 1.25,1.25 0 0 0 1.25,1.26 z"
     id="path2044" />
  <circle
     class="cls-4"
     cx="113.6652"
     cy="33.27021"
     r="3.1400001"
     id="circle2046" />
  <circle
     class="cls-4"
     cx="44.565193"
     cy="33.27021"
     r="3.1400001"
     id="circle2048" />
  <path
     class="cls-4"
     d="m 51.855196,76.990207 c 0,0.08 0.1,0.15 0.14,0.22 a 33,33 0 0 0 9.64,12.93 c 2.84,7 9.82,11.170003 17.47,11.170003 7.65,0 13,-3.000003 17.57,-11.520003 7.650004,-6.36 12.220004,-16.39 12.220004,-27.16 0,-18.62 -13.430004,-33.76 -29.940004,-33.76 -16.51,0 -29.95,15.14 -29.95,33.76 a 37.13,37.13 0 0 0 2.8,14.1 c 0.03,0.09 0.02,0.18 0.05,0.26 z m 5.74,0.35 c 0.64,-0.25 1.28,-0.47 1.93,-0.68 0.1,1.51 0.23,3 0.4,4.46 a 29.72,29.72 0 0 1 -2.33,-3.78 z m 6.88,-2.14 a 60.62,60.62 0 0 1 12.12,-1.7 v 22.19 c -3.86,-0.9 -11.28,-4.25 -12.12,-20.49 z m 17.15,20.49 v -22.18 a 60,60 0 0 1 12.12,1.76 c -0.85,16.17 -9.17,19.03 -12.12,20.42 z m 16.72,-15.1 c 0.15,-1.25 0.27,-2.53 0.35,-3.83 l 1.620004,0.58 a 29.57,29.57 0 0 1 -1.970004,3.25 z m -19.39,-46.69 c 13.74,0 24.920004,12.89 24.920004,28.74 a 32.71,32.71 0 0 1 -1.6,10.07 65,65 0 0 0 -20.650004,-4.22 v -13.4 c 5.73,-0.79 10,-4.19 10,-8.26 0,-4.65 -5.63,-8.43 -12.56,-8.43 -6.93,0 -12.57,3.78 -12.57,8.43 0,4.07 4.32,7.47 10.05,8.26 v 13.35 a 65.14,65.14 0 0 0 -21,4.23 32.61,32.61 0 0 1 -1.6,-10.07 c 0.09,-15.81 11.27,-28.7 25.01,-28.7 z"
     id="path2050" />
  <path
     class="cls-4"
     d="m 27.945196,21.440207 a 2.88,2.88 0 0 1 4.14,-2.61 c -1.31,1.26 -2.58,2.56 -3.78,3.92 a 2.86,2.86 0 0 1 -0.36,-1.31 z m 50,206.490003 c -35.65,0 -50,-4 -56.79,-12 V 67.820207 a 57.79,57.79 0 0 1 115.580004,0 c 0,0 0.83,141.820003 0,148.110003 -0.83,6.29 -23.14,12.01 -58.780004,12.01 z M 129.6552,22.810207 q -1.81,-2 -3.8,-3.94 a 2.85,2.85 0 0 1 3.8,3.94 z m 29.69,45 c -6.59,7.7 -6.55,7.73 -12.56,19.63 v -19.62 a 67.41,67.41 0 0 0 -10.89,-36.8 l 0.41,-0.41 a 13,13 0 1 0 -18.32,-18.33 l -0.06,0.06 a 67.64,67.64 0 0 0 -77.900004,0 v 0 a 13,13 0 1 0 -18.32,18.32 l 0.35,0.35 a 67.43,67.43 0 0 0 -10.93,36.86 l 0.79,160.830003 c 0,0 -0.79,9.09 67.05,9.09 67.840004,0 67.910004,-6.61 67.910004,-6.61 l -0.95,-19.47 c 20.39,-30.22 36.05,-109.68 36.05,-143.840003 -0.01,-0.05 -1.77,-24.43 -22.62,-0.05 z"
     id="path2052" />
  <path
     class="cls-4"
     d="m 61.125196,222.29021 c -6.18,-7.37 -18.46,-14.67 -28.6,-14.87 h -0.45 c -13.07,0 -28.0600005,12.8 -31.39000048,21.1 -0.68,1.68 -1.19,4 0.17,5.27 2.81999998,2.65 16.13000048,4.65 31.62000048,4.65 15,0 27.14,-1.86 30.9,-4.75 1.68,-1.29 2.08,-3.13 1.24,-5.63 a 19.17,19.17 0 0 0 -3.49,-5.77 z"
     id="path2054" />
  <path
     class="cls-4"
     d="m 157.3052,228.07021 c -3,-8.83 -19.64,-20.67 -32.55,-20.67 a 24.59,24.59 0 0 0 -7,1.11 44.49,44.49 0 0 0 -16.87,10 c -3.620004,3.36 -6.370004,6.95 -7.570004,9.95 -0.67,1.68 -1.19,4 0.17,5.27 2.86,2.71 16.170004,4.71 31.690004,4.71 15,0 27.12,-1.86 30.89,-4.75 1.68,-1.25 2.09,-3.12 1.24,-5.62 z"
     id="path2056" />
  <line
     class="cls-5"
     x1="161.86519"
     y1="73.890205"
     x2="176.35519"
     y2="73.890205"
     id="line2058" />
  <line
     class="cls-5"
     x1="156.83519"
     y1="86.250206"
     x2="174.10519"
     y2="86.250206"
     id="line2060" />
  <line
     class="cls-5"
     x1="151.81519"
     y1="98.620201"
     x2="174.09518"
     y2="98.620201"
     id="line2062" />
  <line
     class="cls-5"
     x1="146.78519"
     y1="110.99021"
     x2="169.89519"
     y2="110.99021"
     id="line2064" />
  <line
     class="cls-5"
     x1="146.78519"
     y1="123.36021"
     x2="166.28519"
     y2="123.36021"
     id="line2066" />
  <line
     class="cls-5"
     x1="146.78519"
     y1="135.73019"
     x2="164.05519"
     y2="135.73019"
     id="line2068" />
  <line
     class="cls-5"
     x1="146.78519"
     y1="148.1002"
     x2="161.26518"
     y2="148.1002"
     id="line2070" />
  <line
     class="cls-5"
     x1="146.78519"
     y1="160.4702"
     x2="156.53519"
     y2="160.4702"
     id="line2072" />
  <line
     class="cls-5"
     x1="146.78519"
     y1="172.8302"
     x2="154.30519"
     y2="172.8302"
     id="line2074" />
  <path
     class="cls-6"
     d="m 20.815196,93.340207 c 0,0 58.62,51.260003 116.070004,1.41 V 195.44021 H 21.205196 Z"
     id="path2076" />
  <path
     class="cls-7"
     d="m 115.3352,133.19021 -0.52,26.8 h 0.08 c 0,0.2 0,0.4 0,0.6 a 12.000817,12.000817 0 1 0 24,0.28 c 0,-0.21 0,-0.4 0,-0.61 h 0.08 l 0.52,-36.94"
     id="path2078" />
  <path
     class="cls-7"
     d="m 18.475196,124.30021 0.52,36.93 h 0.08 c 0,0.2 0,0.4 0,0.6 a 12.000759,12.000759 0 0 0 24,-0.27 c 0,-0.21 0,-0.4 0,-0.61 h 0.09 l -0.52,-26.8"
     id="path2080" />
  <text
     class="cls-8"
     id="text2082"
     x="62.485195"
     y="172.07021">5</text>
</svg>
