<?xml version="1.0" encoding="UTF-8" standalone="no"?>
<svg
   id="Layer_1"
   data-name="Layer 1"
   viewBox="0 0 163.74 216.93934"
   version="1.1"
   sodipodi:docname="_beef.svg"
   width="163.74001"
   height="216.93933"
   inkscape:version="1.1 (c68e22c387, 2021-05-23)"
   xmlns:inkscape="http://www.inkscape.org/namespaces/inkscape"
   xmlns:sodipodi="http://sodipodi.sourceforge.net/DTD/sodipodi-0.dtd"
   xmlns="http://www.w3.org/2000/svg"
   xmlns:svg="http://www.w3.org/2000/svg">
  <sodipodi:namedview
     id="namedview1722"
     pagecolor="#ffffff"
     bordercolor="#666666"
     borderopacity="1.0"
     inkscape:pageshadow="2"
     inkscape:pageopacity="0.0"
     inkscape:pagecheckerboard="0"
     showgrid="false"
     inkscape:zoom="0.39291192"
     inkscape:cx="-47.084344"
     inkscape:cy="139.98048"
     inkscape:window-width="1366"
     inkscape:window-height="699"
     inkscape:window-x="0"
     inkscape:window-y="32"
     inkscape:window-maximized="1"
     inkscape:current-layer="Layer_1" />
  <defs
     id="defs1675">
    <style
       id="style1673">.cls-1{font-size:23.22px;font-family:Calibri-Bold, Calibri;font-weight:700;}.cls-1,.cls-3{fill:#010101;}.cls-2{fill:#db2590;}.cls-4{fill:none;stroke:#3c2415;stroke-miterlimit:10;stroke-width:7.09px;}.cls-5{fill:#8b5e3c;}.cls-6{fill:#3c2415;}</style>
  </defs>
  <text
     class="cls-1"
     id="text1677"
     x="29.106329"
     y="216.93933"
     style="font-size:60px"><tspan
       style="font-style:normal;font-variant:normal;font-weight:bold;font-stretch:normal;font-size:60px;font-family:'Liberation Sans';-inkscape-font-specification:'Liberation Sans Bold'"
       id="tspan14937">2 кг</tspan></text>
  <g
     id="g12690"
     transform="translate(-13.9,-13.055)">
    <path
       class="cls-2"
       d="m 121.4,49.57 -0.33,11.14 -2,3.65 2.16,13 -2.33,9.31 -2.32,2.17 4.32,12 c 0,0 0.83,6.32 0.66,7 -0.17,0.68 -7.15,12.14 -7.15,12.14 l -8.64,4 -25.94,0.33 L 69,119.57 c 0,0 -4.65,-7.32 -4.82,-8.15 -0.17,-0.83 -0.33,-8.31 0,-9.15 0.33,-0.84 7.48,-9.64 7.48,-9.64 L 65.53,84 64.87,74 68.19,67.51 64.53,61.2 c 0,0 -0.33,-7 -0.16,-7.49 0.17,-0.49 7,-10 7,-10 l 5.82,-2.16 9.48,-1.17 13.11,-4.78 8.32,0.5 7.65,4.16 z"
       id="path1679" />
    <path
       class="cls-3"
       d="M 135.39,120.2 V 30.38 A 17.34,17.34 0 0 0 118.07,13.06 h -7.7 a 1.93,1.93 0 0 0 0,3.85 h 7.7 a 13.49,13.49 0 0 1 13.47,13.47 v 89.82 a 13.48,13.48 0 0 1 -13.47,13.47 H 87.28 a 1.93,1.93 0 1 0 0,3.85 h 30.79 a 17.33,17.33 0 0 0 17.32,-17.32 z"
       id="path1681" />
    <path
       class="cls-3"
       d="m 81.51,135.6 a 1.94,1.94 0 0 0 -1.93,-1.93 H 68 A 13.48,13.48 0 0 1 54.56,120.2 V 30.38 A 13.5,13.5 0 0 1 68,16.91 h 34.63 a 1.93,1.93 0 1 0 0,-3.85 H 68 A 17.33,17.33 0 0 0 50.72,30.38 V 120.2 A 17.33,17.33 0 0 0 68,137.52 h 11.58 a 1.93,1.93 0 0 0 1.93,-1.92 z"
       id="path1683" />
    <path
       class="cls-3"
       d="m 93.19,77.91 a 6.22,6.22 0 0 0 -0.34,-4.75 1.93,1.93 0 1 0 -3.44,1.73 2.37,2.37 0 0 1 -1.06,3.18 v 0 a 1.9230185,1.9230185 0 1 0 1.72,3.44 6.14,6.14 0 0 0 3.12,-3.6 z"
       id="path1685" />
    <circle
       class="cls-3"
       cx="98.82"
       cy="75.940002"
       r="1.92"
       id="circle1687" />
    <path
       class="cls-3"
       d="M 118.09,90.43 A 21.23,21.23 0 0 0 123.84,75.29 20.75,20.75 0 0 0 121,65.4 21.16,21.16 0 0 0 92.36,36.3 a 22.48,22.48 0 0 1 -11,3.08 h -0.29 a 18.6,18.6 0 0 0 -18.8,17.06 c 0,0.4 0,0.8 0,1.2 a 18.69,18.69 0 0 0 0.36,3.66 1.93,1.93 0 0 0 3.78,-0.77 14.45,14.45 0 0 1 14.69,-17.3 h 0.29 A 26.27,26.27 0 0 0 94.24,39.65 17.31,17.31 0 0 1 120,54.23 16.91,16.91 0 0 1 118.46,61.94 20.91,20.91 0 0 0 95.07,56.22 2.39,2.39 0 0 1 94.79,53.72 1.9274919,1.9274919 0 1 0 91.34,52 v 0 a 6,6 0 0 0 0.2,5.88 22.22,22.22 0 0 1 -10.15,2.67 H 81.1 a 19.1,19.1 0 0 0 -6,1 6.64,6.64 0 0 1 -1.25,-3.87 c 0,-0.13 0,-0.27 0,-0.47 a 6.6,6.6 0 0 1 3.13,-5 L 78,53 a 2.86,2.86 0 0 1 1,3.12 1.9226674,1.9226674 0 0 0 3.65,1.21 v -0.08 a 6.75,6.75 0 0 0 -1.29,-6.27 h 0.06 a 10.56,10.56 0 0 0 4.91,-1.5 16.19,16.19 0 0 1 6.54,-1.93 13.13,13.13 0 0 0 5.13,-1.18 9.48,9.48 0 0 1 4.12,-1.16 l -0.52,2.09 a 3.5,3.5 0 0 1 -2.6,2.56 1.92,1.92 0 0 0 -1.46,1.87 1.82,1.82 0 0 0 0.06,0.46 1.92,1.92 0 0 0 2.33,1.4 7.36,7.36 0 0 0 5.37,-5.36 l 0.63,-2.55 a 8.9,8.9 0 0 1 2.86,1.62 22.85,22.85 0 0 0 3.66,2.24 1,1 0 0 1 0.48,1.09 c -0.14,0.6 -0.29,1.25 -0.41,1.85 a 1.93,1.93 0 0 0 3.78,0.76 c 0.11,-0.56 0.25,-1.17 0.38,-1.7 a 4.77,4.77 0 0 0 -2.46,-5.42 18.3,18.3 0 0 1 -3,-1.79 12.9,12.9 0 0 0 -5.69,-2.74 13.53,13.53 0 0 0 -9.4,1.41 9.62,9.62 0 0 1 -3.55,0.65 19.94,19.94 0 0 0 -8.11,2.39 7.31,7.31 0 0 1 -3.08,1 H 81.1 a 11.3,11.3 0 0 0 -4.81,1.11 l -0.1,0.05 a 10.59,10.59 0 0 0 -6.19,8.7 6.87,6.87 0 0 0 0,0.77 10.57,10.57 0 0 0 1.55,5.45 18.14,18.14 0 0 0 -9.21,14.5 q 0,0.6 0,1.2 a 18.25,18.25 0 0 0 7.2,14.51 18,18 0 0 0 -7.24,13.17 c 0,0.41 0,0.82 0,1.22 a 18.13,18.13 0 0 0 4.9,12.48 18.38,18.38 0 0 0 13.34,5.8 1.93,1.93 0 1 0 0,-3.85 14.43,14.43 0 0 1 -14.43,-14.45 c 0,-0.33 0,-0.65 0,-1 a 14.77,14.77 0 0 1 15,-13.47 h 0.3 a 26.13,26.13 0 0 0 12.84,-3.58 17.32,17.32 0 1 1 9,32.44 H 87.28 a 1.93,1.93 0 1 0 0,3.85 h 15.39 a 21.07,21.07 0 0 0 15.42,-35.55 z m -45,0.72 a 14.27,14.27 0 0 1 2.05,-25.58 h 0.07 A 15.39,15.39 0 0 1 81.1,64.4 h 0.29 a 26.27,26.27 0 0 0 12.85,-3.58 17.23,17.23 0 0 1 22.82,5.58 l 0.08,0.13 a 16.93,16.93 0 0 1 2.86,8.87 17.23,17.23 0 0 1 -4.78,12.48 21.36,21.36 0 0 0 -3.18,-2 14.08,14.08 0 0 0 4.07,-8.82 c 0,-0.43 0,-0.86 0,-1.35 a 12.75,12.75 0 0 0 -4.61,-10 l -0.23,-0.19 v 0 a 13,13 0 0 0 -5.69,-2.74 13.55,13.55 0 0 0 -9.48,1.42 9.55,9.55 0 0 1 -3.55,0.65 20,20 0 0 0 -8.1,2.38 7.28,7.28 0 0 1 -3.09,1 H 81.1 a 11.3,11.3 0 0 0 -4.81,1.11 h -0.1 a 10.58,10.58 0 0 0 -6.19,8.73 6.78,6.78 0 0 0 0,0.77 10.69,10.69 0 0 0 5.17,9.1 7.78,7.78 0 0 0 8.83,-0.81 l 0.48,-0.41 a 3.89,3.89 0 0 1 2.55,-0.91 4,4 0 0 1 2.9,1.19 c 0.11,0.11 0.24,0.21 0.36,0.32 a 21.54,21.54 0 0 1 -8.89,2 h -0.3 a 19.07,19.07 0 0 0 -7.97,1.83 z M 82,83.76 81.53,84.14 a 3.9,3.9 0 0 1 -4.45,0.47 7,7 0 0 1 -1.32,-1 6.68,6.68 0 0 1 -2,-4.74 c 0,-0.13 0,-0.27 0,-0.47 a 6.6,6.6 0 0 1 3.13,-5 l 1,0.78 a 2.86,2.86 0 0 1 1,3.12 1.9226674,1.9226674 0 1 0 3.65,1.21 v -0.08 a 6.74,6.74 0 0 0 -1.29,-6.27 h 0.06 a 10.68,10.68 0 0 0 4.91,-1.5 16.36,16.36 0 0 1 6.54,-1.94 13.12,13.12 0 0 0 5.24,-1.18 9.35,9.35 0 0 1 4.12,-1.16 l -0.52,2.09 a 1.84,1.84 0 0 0 -0.06,0.47 1.93,1.93 0 0 0 3.8,0.46 l 0.63,-2.55 a 8.88,8.88 0 0 1 2.86,1.61 l 0.06,0.05 0.09,0.08 a 9.06,9.06 0 0 1 3.32,7.18 c 0,0.37 0,0.75 0,1 a 10.28,10.28 0 0 1 -4.3,7.54 0.61,0.61 0 0 0 -0.07,-0.1 3.53,3.53 0 0 1 0,-5 1.9233304,1.9233304 0 0 0 -2.72,-2.72 7.18,7.18 0 0 0 -1.86,7.16 c -0.15,0 -0.3,0 -0.45,0 a 21.3,21.3 0 0 0 -8.44,1.71 4.1,4.1 0 0 1 -1.73,-1 A 7.86,7.86 0 0 0 82,83.76 Z"
       id="path1689" />
    <path
       class="cls-3"
       d="m 95.29,118.28 1.79,0.48 A 15.36,15.36 0 0 0 110,116.5 14.31,14.31 0 0 0 116.09,106 c 0,-0.46 0,-0.93 0,-1.4 a 14.28,14.28 0 0 1 0.57,-3 4.78,4.78 0 0 0 -2.45,-5.39 17.37,17.37 0 0 1 -3,-1.8 12.83,12.83 0 0 0 -5.69,-2.73 13.76,13.76 0 0 0 -9.48,1.41 1.93,1.93 0 0 0 1.75,3.43 l 0.13,-0.07 a 9.41,9.41 0 0 1 4.12,-1.16 l -0.53,2.09 A 3.5,3.5 0 0 1 99,99.9 a 1.93,1.93 0 0 0 -1.45,1.87 2.4,2.4 0 0 0 0.05,0.46 1.92,1.92 0 0 0 2.34,1.4 7.36,7.36 0 0 0 5.38,-5.36 l 0.63,-2.56 a 9,9 0 0 1 2.86,1.61 21.35,21.35 0 0 0 3.67,2.27 0.94,0.94 0 0 1 0.49,1.06 18.92,18.92 0 0 0 -0.7,4 c 0,0.34 0,0.68 0,1 a 10.28,10.28 0 0 1 -4.27,7.49 l -0.11,-0.1 a 3.42,3.42 0 0 1 -0.84,-1.42 l -0.15,-1.42 a 3.47,3.47 0 0 1 1,-2.14 1.9233304,1.9233304 0 0 0 -2.72,-2.72 7.31,7.31 0 0 0 -0.69,9.57 11.44,11.44 0 0 1 -6.38,0.1 l -2,-0.54 A 1.68,1.68 0 0 0 95.61,114.4 4,4 0 0 1 92.73,113.18 7.86,7.86 0 0 0 82,112.63 l -0.49,0.41 a 3.89,3.89 0 0 1 -4.43,0.46 7.32,7.32 0 0 1 -1.32,-1 6.68,6.68 0 0 1 -2,-4.77 c 0,-0.16 0,-0.33 0,-0.47 a 6.56,6.56 0 0 1 3.13,-5 l 1,0.77 a 2.87,2.87 0 0 1 1,3.12 1.9227584,1.9227584 0 0 0 3.66,1.18 v -0.06 A 6.73,6.73 0 0 0 81.33,101 H 81.4 A 10.74,10.74 0 0 0 86.3,99.51 16.46,16.46 0 0 1 90.78,97.85 1.9641092,1.9641092 0 1 0 90,94 20.49,20.49 0 0 0 84.48,96 7.36,7.36 0 0 1 81.4,97 h -0.3 a 11.4,11.4 0 0 0 -4.8,1.11 l -0.12,0.06 A 10.65,10.65 0 0 0 70,107 c 0,0.23 0,0.47 0,0.7 a 10.52,10.52 0 0 0 3.1,7.48 10.75,10.75 0 0 0 2.07,1.61 A 7.71,7.71 0 0 0 84,116 l 0.49,-0.41 a 4,4 0 0 1 5.43,0.3 7.93,7.93 0 0 0 5.37,2.39 z"
       id="path1691" />
    <path
       class="cls-3"
       d="m 90.67,104.8 a 6.24,6.24 0 0 0 3.45,5.58 1.93,1.93 0 0 0 1.72,-3.45 2.38,2.38 0 0 1 -1.07,-3.19 1.9275113,1.9275113 0 1 0 -3.44,-1.74 6.22,6.22 0 0 0 -0.66,2.8 z"
       id="path1693" />
    <path
       class="cls-3"
       d="m 127.69,39.38 a 9.64,9.64 0 0 0 -9.62,-9.62 1.93,1.93 0 1 0 0,3.85 5.77,5.77 0 0 1 5.77,5.77 1.93,1.93 0 1 0 3.85,0 z"
       id="path1695" />
    <path
       class="cls-3"
       d="m 70,127.9 a 1.92,1.92 0 0 0 -2,-1.9 5.78,5.78 0 0 1 -5.78,-5.78 1.93,1.93 0 0 0 -3.85,0 9.64,9.64 0 0 0 9.63,9.61 1.93,1.93 0 0 0 2,-1.93 z"
       id="path1697" />
    <path
       class="cls-3"
       d="m 118.07,129.83 a 9.64,9.64 0 0 0 9.62,-9.63 1.93,1.93 0 0 0 -3.85,0 5.77,5.77 0 0 1 -5.77,5.78 h -1.93 a 1.93,1.93 0 0 0 0,3.85 z"
       id="path1699" />
    <path
       class="cls-4"
       d="m 38,94.25 c 0,0 -22.28,-38.74 -13.45,-43 8.83,-4.26 26,37.75 26,37.75"
       id="path1701" />
    <path
       class="cls-4"
       d="m 155.56,94.25 c 0,0 22.28,-38.74 13.45,-43 C 160.18,46.99 143,89 143,89"
       id="path1703" />
    <polygon
       class="cls-5"
       points="25.27,92.79 29.93,114.07 35.91,149.32 42.56,161.96 132.35,165.28 142.99,163.29 154.96,152.65 157.62,128.04 164.28,92.79 "
       id="polygon1705" />
    <path
       class="cls-6"
       d="m 51.43,120.16 h 17.05 a 3.41,3.41 0 1 0 0,-6.82 H 51.43 a 3.41,3.41 0 1 0 0,6.82 z"
       id="path1707" />
    <path
       class="cls-6"
       d="m 85.54,120.16 h 17 a 3.41,3.41 0 1 0 0,-6.82 h -17 a 3.41,3.41 0 0 0 0,6.82 z"
       id="path1709" />
    <path
       class="cls-6"
       d="m 119.65,120.16 h 17.06 a 3.41,3.41 0 1 0 0,-6.82 h -17.06 a 3.41,3.41 0 0 0 0,6.82 z"
       id="path1711" />
    <path
       class="cls-6"
       d="m 51.43,144 h 17.05 a 3.41,3.41 0 1 0 0,-6.82 H 51.43 a 3.41,3.41 0 1 0 0,6.82 z"
       id="path1713" />
    <path
       class="cls-6"
       d="m 85.54,144 h 17 a 3.41,3.41 0 1 0 0,-6.82 h -17 a 3.41,3.41 0 0 0 0,6.82 z"
       id="path1715" />
    <path
       class="cls-6"
       d="m 119.38,144 h 17.06 a 3.41,3.41 0 0 0 0,-6.82 h -17.06 a 3.41,3.41 0 0 0 0,6.82 z"
       id="path1717" />
    <path
       class="cls-6"
       d="M 174.23,85.75 H 17.31 A 3.42,3.42 0 0 0 13.9,89.17 V 94 a 3.41,3.41 0 0 0 3.41,3.41 h 7.2 l 7.76,49.31 a 24.15,24.15 0 0 0 23.8,21.38 h 79.2 c 0.64,0 1.27,0 1.9,-0.1 l 0.67,-0.08 c 0.27,0 0.55,0 0.82,-0.09 v 0 a 24.13,24.13 0 0 0 20.43,-21.1 l 3.24,-28.11 0.2,0.06 4.47,-21.31 h 7.19 A 3.41,3.41 0 0 0 177.64,94 v -4.83 a 3.42,3.42 0 0 0 -3.41,-3.42 z m -21.94,60.15 a 17.32,17.32 0 0 1 -17.22,15.34 H 56.16 A 17.33,17.33 0 0 1 39.05,145.9 L 31.37,97.37 H 160 Z M 170.82,90.55 H 20.72 v 2 h 150.1 z"
       id="path1719" />
  </g>
</svg>
