<?xml version="1.0" encoding="UTF-8" standalone="no"?>
<svg
   id="Layer_1"
   data-name="Layer 1"
   viewBox="0 0 163.74 222.87436"
   version="1.1"
   sodipodi:docname="_chicken.svg"
   width="163.74001"
   height="222.87436"
   inkscape:version="1.1 (c68e22c387, 2021-05-23)"
   xmlns:inkscape="http://www.inkscape.org/namespaces/inkscape"
   xmlns:sodipodi="http://sodipodi.sourceforge.net/DTD/sodipodi-0.dtd"
   xmlns="http://www.w3.org/2000/svg"
   xmlns:svg="http://www.w3.org/2000/svg">
  <sodipodi:namedview
     id="namedview1614"
     pagecolor="#ffffff"
     bordercolor="#666666"
     borderopacity="1.0"
     inkscape:pageshadow="2"
     inkscape:pageopacity="0.0"
     inkscape:pagecheckerboard="0"
     showgrid="false"
     inkscape:zoom="0.92319557"
     inkscape:cx="-52.534914"
     inkscape:cy="69.324423"
     inkscape:window-width="1366"
     inkscape:window-height="699"
     inkscape:window-x="0"
     inkscape:window-y="32"
     inkscape:window-maximized="1"
     inkscape:current-layer="Layer_1" />
  <defs
     id="defs1567">
    <style
       id="style1565">.cls-1{fill:#e77724;}.cls-2,.cls-3{fill:#010101;}.cls-3{font-size:23.22px;font-family:Calibri-Bold, Calibri;font-weight:700;}.cls-4{fill:none;stroke:#3c2415;stroke-miterlimit:10;stroke-width:7.09px;}.cls-5{fill:#8b5e3c;}.cls-6{fill:#3c2415;}</style>
  </defs>
  <text
     class="cls-3"
     id="text1591"
     x="29.457891"
     y="222.20053"
     style="font-size:60px;stroke-width:1"><tspan
       style="font-style:normal;font-variant:normal;font-weight:bold;font-stretch:normal;font-size:60px;font-family:'Liberation Sans';-inkscape-font-specification:'Liberation Sans Bold';stroke-width:1"
       id="tspan12514">3 кг</tspan></text>
  <g
     id="g18264">
    <polygon
       class="cls-1"
       points="94.42,105.94 112.15,105.29 127.15,95.89 134.07,92.6 137.22,86.18 142.37,79.26 142.73,69.88 142.37,63.4 136.95,54.46 131.35,50.92 125.76,45.2 114.97,42.84 108.96,43.09 111,33.83 110.46,30.72 107.92,26.69 86.12,26.62 82.16,27.7 76.39,32.03 73.89,40.97 72.78,46.45 58,56.19 46.83,74.21 45.38,87.19 51.51,99.09 63.77,103.41 78.55,105.94 "
       id="polygon1569"
       transform="translate(-13.9,-7.7940505)" />
    <path
       class="cls-2"
       d="m 41.18,70.62595 a 20.23,20.23 0 0 0 1,8.21 c 4.39,9.87 17.23,12.52 29.73,12.52 3.13,0 6.24,-0.17 9.18,-0.43 a 1.7,1.7 0 1 0 -0.29,-3.38 v 0 c -11.16,1 -30.6,1 -35.52,-10.09 a 17.94,17.94 0 0 1 -0.69,-6.35 1.711213,1.711213 0 0 0 -3.39,-0.47 v 0 z"
       id="path1571" />
    <path
       class="cls-2"
       d="m 97.69,94.12595 c -5.68,1 -55.7,9.25 -64,-12.6 a 22.37,22.37 0 0 1 -0.48,-8.07 c 1.52,-8 8.77,-32.31 41.46,-36.54 a 20.88,20.88 0 0 1 3.06,-3.71 c -37.92,3.1 -46.18,30.81 -47.84,39.69 a 24.91,24.91 0 0 0 0.61,9.91 c 5.27,13.88 24,17.19 40.65,17.19 a 163,163 0 0 0 27.1,-2.45 1.7204796,1.7204796 0 0 0 -0.59,-3.39 z"
       id="path1573" />
    <path
       class="cls-2"
       d="m 125.1,43.63595 -3.23,1.34 a 12.37,12.37 0 0 1 1.23,1.69 c 6.36,9.83 6.47,22.87 0.27,31.72 a 37.23,37.23 0 0 1 -10.07,9.71 1.7,1.7 0 0 0 -0.51,2.34 v 0 a 1.71,1.71 0 0 0 2.35,0.5 v 0 a 40.29,40.29 0 0 0 11,-10.61 c 7,-10 6.9,-24.56 -0.18,-35.57 -0.32,-0.39 -0.6,-0.75 -0.86,-1.12 z"
       id="path1575" />
    <path
       class="cls-2"
       d="m 59.99,33.20595 a 1.7,1.7 0 0 0 1.84,-1.53 v 0 c 0,-0.49 1.21,-12.09 14.5,-11.64 h 0.16 l 17.26,-1 h 0.27 l 2.54,4 c -0.55,1.1 -1.46,3.02 -2.46,5.17 0.65,0.09 1.32,0.19 2,0.35 l 1.49,0.18 c 1,-2.06 1.75,-3.8 2.21,-4.82 a 1.73,1.73 0 0 0 0.29,-0.51 l 8.66,-5.52 c 3.54,3.89 7,2.35 8,1.7 a 6.33,6.33 0 0 0 1.9,-2.24 6.79,6.79 0 0 0 0.27,-5.56 8.87,8.87 0 0 0 -4,-4.1400005 6.93,6.93 0 0 0 -0.78,-4.66 6.64,6.64 0 0 0 -4.42,-2.92999998 7.12,7.12 0 0 0 -3.94,0.63 6.16,6.16 0 0 0 -3.25,4.23999998 7.32,7.32 0 0 0 0.78,4.52 l -10.17,6.0800005 -16.77,1 c -16.4,-0.47 -18,14.6 -18,14.78 a 1.69,1.69 0 0 0 1.62,1.9 z m 46.51,-21.67 a 1.71,1.71 0 0 0 0.6,-2.3300005 1.77,1.77 0 0 0 -0.16,-0.22 5,5 0 0 1 -1.08,-3.44 2.83,2.83 0 0 1 1.55,-1.86 4.66,4.66 0 0 1 1.57,-0.3 3.4,3.4 0 0 1 2.25,1.38 4.46,4.46 0 0 1 0.12,3.44 1.7,1.7 0 0 0 1.07,2.0000005 6.46,6.46 0 0 1 3.39,2.87 3.38,3.38 0 0 1 -0.21,2.78 5.06,5.06 0 0 1 -0.55,0.76 c -1.44,0.84 -3,0.17 -4.54,-2 a 1.69,1.69 0 0 0 -2.28,-0.45 l -9.4,6 -1.88,-3 z"
       id="path1577" />
    <path
       class="cls-2"
       d="m 137.92,35.02595 a 9,9 0 0 0 -3.17,-4.82 7.12,7.12 0 0 0 0.07,-4.82 6.7,6.7 0 0 0 -3.72,-3.69 6.92,6.92 0 0 0 -4,-0.1 6.14,6.14 0 0 0 -3.91,3.55 7.52,7.52 0 0 0 -0.09,4.69 l -11,4.18 -16.52,-2.08 c -15.92,-3.49 -20,11.27 -20.1,11.38 a 1.7,1.7 0 0 0 3.27,0.9 v 0 c 0.14,-0.48 3.39,-11.77 16.19,-8.92 h 0.16 l 16.8,2.11 1.88,5.08 c -2.54,3.71 -8.52,12.34 -11.15,15.38 -2.11,2.44 -5.56,4.85 -7.1,4.43 a 1.68,1.68 0 0 0 -2.07,1.2 v 0 a 1.7,1.7 0 0 0 1.17,2.09 v 0 a 4.45,4.45 0 0 0 1.26,0.16 c 4.33,0 9.06,-5.38 9.31,-5.64 3.19,-3.67 10.68,-14.64 12.28,-17 l 9.46,-3.9 c 2.76,4.5 6.4,3.6 7.52,3.17 a 6.06,6.06 0 0 0 2.26,-1.88 6.92,6.92 0 0 0 1.2,-5.47 z m -4,3.51 a 4.5,4.5 0 0 1 -0.67,0.64 c -1.55,0.58 -2.9,-0.38 -4,-2.85 a 1.69,1.69 0 0 0 -2.18,-0.85 l -10.65,4.41 -1.32,-3.39 10.72,-4.08 a 1.69,1.69 0 0 0 1,-1 1.71,1.71 0 0 0 -0.07,-1.4 5.25,5.25 0 0 1 -0.45,-3.66 2.85,2.85 0 0 1 1.84,-1.55 4.15,4.15 0 0 1 1.57,0 3.44,3.44 0 0 1 1.94,1.77 4.64,4.64 0 0 1 -0.5,3.49 1.69,1.69 0 0 0 0.67,2.19 6.54,6.54 0 0 1 2.79,3.46 3.5,3.5 0 0 1 -0.72,2.79 z"
       id="path1579" />
    <ellipse
       class="cls-2"
       cx="106.72"
       cy="93.065948"
       rx="1.6900001"
       ry="1.71"
       id="ellipse1581" />
    <path
       class="cls-2"
       d="m 46.44,64.49595 a 1.7,1.7 0 0 0 -0.86,-2.24 v 0 a 1.71,1.71 0 0 0 -1.35,3.14 v 0 a 1.69,1.69 0 0 0 2.21,-0.9 z"
       id="path1583" />
    <path
       class="cls-2"
       d="m 116.04,61.46595 h -5.08 a 1.7,1.7 0 1 0 0,3.39 h 5.08 a 1.7,1.7 0 0 0 0,-3.39 z"
       id="path1585" />
    <path
       class="cls-2"
       d="m 114.35,70.00595 a 1.7,1.7 0 0 0 1.69,1.7 h 5.06 a 1.7,1.7 0 1 0 0,-3.39 h -5.08 a 1.69,1.69 0 0 0 -1.67,1.69 z"
       id="path1587" />
    <path
       class="cls-2"
       d="m 116.89,76.84595 a 1.7,1.7 0 0 0 -1.7,-1.7 h -5.09 a 1.7,1.7 0 0 0 0,3.39 h 5.08 a 1.7,1.7 0 0 0 1.71,-1.69 z"
       id="path1589" />
    <path
       class="cls-4"
       d="m 24.1,86.45595 c 0,0 -22.28,-38.74 -13.45,-43 8.83,-4.26 26,37.75 26,37.75"
       id="path1593" />
    <path
       class="cls-4"
       d="m 141.66,86.45595 c 0,0 22.28,-38.74 13.45,-43 -8.83,-4.26 -26.01,37.75 -26.01,37.75"
       id="path1595" />
    <polygon
       class="cls-5"
       points="164.28,92.79 25.27,92.79 29.93,114.07 35.91,149.32 42.56,161.96 132.35,165.28 142.99,163.29 154.96,152.65 157.62,128.04 "
       id="polygon1597"
       transform="translate(-13.9,-7.7940505)" />
    <path
       class="cls-6"
       d="m 37.53,112.36595 h 17.05 a 3.41,3.41 0 1 0 0,-6.82 H 37.53 a 3.41,3.41 0 1 0 0,6.82 z"
       id="path1599" />
    <path
       class="cls-6"
       d="m 71.64,112.36595 h 17 a 3.41,3.41 0 1 0 0,-6.82 h -17 a 3.41,3.41 0 0 0 0,6.82 z"
       id="path1601" />
    <path
       class="cls-6"
       d="m 105.75,112.36595 h 17.06 a 3.41,3.41 0 1 0 0,-6.82 h -17.06 a 3.41,3.41 0 0 0 0,6.82 z"
       id="path1603" />
    <path
       class="cls-6"
       d="m 37.53,136.20595 h 17.05 a 3.41,3.41 0 1 0 0,-6.82 H 37.53 a 3.41,3.41 0 1 0 0,6.82 z"
       id="path1605" />
    <path
       class="cls-6"
       d="m 71.64,136.20595 h 17 a 3.41,3.41 0 1 0 0,-6.82 h -17 a 3.41,3.41 0 0 0 0,6.82 z"
       id="path1607" />
    <path
       class="cls-6"
       d="m 105.48,136.20595 h 17.06 a 3.41,3.41 0 0 0 0,-6.82 h -17.06 a 3.41,3.41 0 0 0 0,6.82 z"
       id="path1609" />
    <path
       class="cls-6"
       d="M 160.33,77.95595 H 3.41 a 3.42,3.42 0 0 0 -3.41,3.42 v 4.83 a 3.41,3.41 0 0 0 3.41,3.41 h 7.2 l 7.76,49.31 a 24.15,24.15 0 0 0 23.8,21.38 h 79.2 c 0.64,0 1.27,0 1.9,-0.1 l 0.67,-0.08 c 0.27,0 0.55,0 0.82,-0.09 v 0 a 24.13,24.13 0 0 0 20.43,-21.1 l 3.24,-28.11 0.2,0.06 4.47,-21.31 h 7.19 a 3.41,3.41 0 0 0 3.45,-3.37 v -4.83 a 3.42,3.42 0 0 0 -3.41,-3.42 z m -21.94,60.15 a 17.32,17.32 0 0 1 -17.22,15.34 H 42.26 a 17.33,17.33 0 0 1 -17.11,-15.34 l -7.68,-48.53 H 146.1 Z m 18.53,-55.35 H 6.82 v 2 h 150.1 z"
       id="path1611" />
  </g>
</svg>
