<?xml version="1.0" encoding="UTF-8" standalone="no"?>
<svg
   id="Layer_1"
   data-name="Layer 1"
   viewBox="0 0 163.74 215.46929"
   version="1.1"
   sodipodi:docname="_eggs.svg"
   width="163.74001"
   height="215.4693"
   inkscape:version="1.1 (c68e22c387, 2021-05-23)"
   xmlns:inkscape="http://www.inkscape.org/namespaces/inkscape"
   xmlns:sodipodi="http://sodipodi.sourceforge.net/DTD/sodipodi-0.dtd"
   xmlns="http://www.w3.org/2000/svg"
   xmlns:svg="http://www.w3.org/2000/svg">
  <sodipodi:namedview
     id="namedview1916"
     pagecolor="#ffffff"
     bordercolor="#666666"
     borderopacity="1.0"
     inkscape:pageshadow="2"
     inkscape:pageopacity="0.0"
     inkscape:pagecheckerboard="0"
     showgrid="false"
     inkscape:zoom="1.4781904"
     inkscape:cx="59.870501"
     inkscape:cy="54.120227"
     inkscape:window-width="1366"
     inkscape:window-height="699"
     inkscape:window-x="0"
     inkscape:window-y="32"
     inkscape:window-maximized="1"
     inkscape:current-layer="Layer_1" />
  <defs
     id="defs1885">
    <style
       id="style1883">.cls-1{fill:#a97c50;}.cls-2{fill:#edd9ce;}.cls-3{font-size:23.22px;font-family:Calibri-Bold, Calibri;font-weight:700;}.cls-3,.cls-4{fill:#010101;}.cls-5{fill:none;stroke:#3c2415;stroke-miterlimit:10;stroke-width:7.09px;}.cls-6{fill:#8b5e3c;}.cls-7{fill:#3c2415;}</style>
  </defs>
  <text
     class="cls-3"
     id="text1891"
     x="28.25672"
     y="215.4693"
     style="font-size:60px"><tspan
       style="font-style:normal;font-variant:normal;font-weight:bold;font-stretch:normal;font-size:60px;font-family:'Liberation Sans';-inkscape-font-specification:'Liberation Sans Bold'"
       id="tspan16340">1 кг</tspan></text>
  <g
     id="g12549"
     transform="translate(-13.9,-13.91)">
    <path
       class="cls-1"
       d="m 48.93,73.34 -4.18,1.86 -0.24,4.64 5.07,3 5.42,19.06 20.44,1.39 4.48,-4 h 4.68 l 4.08,4 c 0,0 5.57,0.24 6.5,0.24 0.93,0 9.52,-0.24 9.52,-0.24 l 3.48,-5.57 6.27,-0.46 3,4.64 8.59,1.39 12.08,-0.93 4.18,-20.43 5.11,-1.16 2.32,-2.56 -0.7,-3.48 -4.64,-1.62 -4.65,-45.57 -3.96,-11.44 H 57.52 l -2.07,6.76 z"
       id="path1887" />
    <path
       class="cls-2"
       d="m 56.59,73.34 79.88,-0.47 0.47,-7.2 -4.65,-10.21 -8.59,-4.46 -4.7,2.23 0.3,-3.58 -4.18,-3.71 -4.8,-0.84 -6.13,3.9 -3.25,4.42 -3.71,-2.09 -6,1.62 L 88.91,48.54 84.46,45 h -6.74 l -4,5.57 L 71.4,53.12 64.72,52 c 0,0 -3.95,2.79 -4.18,3.49 -0.23,0.7 -2.79,7.43 -2.79,7.43 z"
       id="path1889" />
    <path
       class="cls-4"
       d="m 146.22,71.87 h -0.17 L 142.57,37 c -0.06,-5 -1,-23.09 -9.15,-23.09 H 60.27 C 52.41,13.94 51.19,32 51.13,37 l -3.48,34.87 h -0.18 a 5.5,5.5 0 0 0 0,11 h 2.11 l 2.89,17.36 a 5.47,5.47 0 0 0 5.42,4.58 H 74.1 A 5.47,5.47 0 0 0 79.3,101 l 0.58,-1.73 h 4.68 l 0.58,1.73 a 5.47,5.47 0 0 0 5.2,3.75 h 13 a 5.48,5.48 0 0 0 5.2,-3.75 l 0.58,-1.73 h 4.68 l 0.57,1.73 a 5.5,5.5 0 0 0 5.21,3.75 h 16.21 a 5.46,5.46 0 0 0 5.41,-4.58 l 2.89,-17.36 h 2.11 a 5.5,5.5 0 1 0 0,-11 z M 54.78,37.31 c 0,-0.06 0,-0.12 0,-0.18 0,-3 2.45,-19.53 5.48,-19.53 h 73.15 c 3,0 5.48,16.5 5.49,19.53 a 1.09,1.09 0 0 0 0,0.18 l 3.45,34.56 h -3.65 a 25.58,25.58 0 0 0 0.19,-3 24.71,24.71 0 0 0 -3.49,-12.78 c -2.47,-3.95 -5.78,-6.12 -9.31,-6.12 A 9,9 0 0 0 122,51 c -2.41,-5.2 -6.31,-8.34 -10.51,-8.34 -4.2,0 -8.12,3.1 -10.49,8.34 a 8.73,8.73 0 0 0 -8.22,0 c -2.42,-5.2 -6.32,-8.34 -10.52,-8.34 -4.2,0 -8.15,3.1 -10.56,8.34 a 8.94,8.94 0 0 0 -4.11,-1 c -3.54,0 -6.84,2.17 -9.31,6.12 a 24.71,24.71 0 0 0 -3.49,12.78 23.63,23.63 0 0 0 0.19,3 h -3.66 z m 58.71,34.56 h -4 a 23.63,23.63 0 0 0 0.19,-3 24.71,24.71 0 0 0 -3.49,-12.78 16.7,16.7 0 0 0 -2.2,-2.82 c 1.77,-4.26 4.65,-7 7.52,-7 2.87,0 5.75,2.7 7.51,7 a 16.64,16.64 0 0 0 -2.19,2.82 24.71,24.71 0 0 0 -3.49,12.78 25.58,25.58 0 0 0 0.15,3 z m -29.25,0 h -4 a 23.63,23.63 0 0 0 0.19,-3 24.71,24.71 0 0 0 -3.53,-12.82 16.7,16.7 0 0 0 -2.2,-2.82 c 1.77,-4.26 4.65,-7 7.52,-7 2.87,0 5.75,2.7 7.51,7 a 16.64,16.64 0 0 0 -2.19,2.82 24.71,24.71 0 0 0 -3.49,12.78 23.63,23.63 0 0 0 0.19,3.04 z m -7.51,-3 a 20.53,20.53 0 0 1 -0.22,3 H 58.67 a 20.53,20.53 0 0 1 -0.23,-3 c 0,-8 4.36,-15.24 9.15,-15.24 4.79,0 9.14,7.23 9.14,15.2 z M 96.85,53.59 c 4.78,0 9.14,7.27 9.14,15.24 a 20.53,20.53 0 0 1 -0.22,3 H 87.93 a 20.53,20.53 0 0 1 -0.23,-3 c 0,-7.97 4.36,-15.24 9.15,-15.24 z m 29.26,0 c 4.78,0 9.14,7.27 9.14,15.24 a 20.53,20.53 0 0 1 -0.22,3 h -17.84 a 20.53,20.53 0 0 1 -0.23,-3 c 0.04,-7.97 4.36,-15.24 9.15,-15.24 z m 11.5,46 a 1.81,1.81 0 0 1 -1.8,1.52 H 119.6 a 1.82,1.82 0 0 1 -1.74,-1.25 l -1,-3 a 1.83,1.83 0 0 0 -1.74,-1.25 h -7.31 a 1.81,1.81 0 0 0 -1.73,1.25 l -1,3 a 1.81,1.81 0 0 1 -1.73,1.25 h -13 a 1.79,1.79 0 0 1 -1.73,-1.25 l -1,-3 a 1.83,1.83 0 0 0 -1.73,-1.25 h -7.33 a 1.81,1.81 0 0 0 -1.73,1.25 l -1,3 a 1.81,1.81 0 0 1 -1.73,1.25 H 57.89 A 1.82,1.82 0 0 1 56.08,99.59 L 53.29,82.85 h 87.12 z m 8.61,-20.42 H 47.47 a 1.83,1.83 0 0 1 0,-3.66 h 98.75 a 1.83,1.83 0 1 1 0,3.66 z"
       id="path1893" />
    <path
       class="cls-5"
       d="m 38,94.25 c 0,0 -22.28,-38.74 -13.45,-43 8.83,-4.26 26,37.75 26,37.75"
       id="path1895" />
    <path
       class="cls-5"
       d="m 155.56,94.25 c 0,0 22.28,-38.74 13.45,-43 C 160.18,46.99 143,89 143,89"
       id="path1897" />
    <polygon
       class="cls-6"
       points="164.28,92.79 25.27,92.79 29.93,114.07 35.91,149.32 42.56,161.96 132.35,165.28 142.99,163.29 154.96,152.65 157.62,128.04 "
       id="polygon1899" />
    <path
       class="cls-7"
       d="m 51.43,120.16 h 17.05 a 3.41,3.41 0 1 0 0,-6.82 H 51.43 a 3.41,3.41 0 1 0 0,6.82 z"
       id="path1901" />
    <path
       class="cls-7"
       d="m 85.54,120.16 h 17 a 3.41,3.41 0 1 0 0,-6.82 h -17 a 3.41,3.41 0 0 0 0,6.82 z"
       id="path1903" />
    <path
       class="cls-7"
       d="m 119.65,120.16 h 17.06 a 3.41,3.41 0 1 0 0,-6.82 h -17.06 a 3.41,3.41 0 0 0 0,6.82 z"
       id="path1905" />
    <path
       class="cls-7"
       d="m 51.43,144 h 17.05 a 3.41,3.41 0 1 0 0,-6.82 H 51.43 a 3.41,3.41 0 1 0 0,6.82 z"
       id="path1907" />
    <path
       class="cls-7"
       d="m 85.54,144 h 17 a 3.41,3.41 0 1 0 0,-6.82 h -17 a 3.41,3.41 0 0 0 0,6.82 z"
       id="path1909" />
    <path
       class="cls-7"
       d="m 119.38,144 h 17.06 a 3.41,3.41 0 0 0 0,-6.82 h -17.06 a 3.41,3.41 0 0 0 0,6.82 z"
       id="path1911" />
    <path
       class="cls-7"
       d="M 174.23,85.75 H 17.31 A 3.42,3.42 0 0 0 13.9,89.17 V 94 a 3.41,3.41 0 0 0 3.41,3.41 h 7.2 l 7.76,49.31 a 24.15,24.15 0 0 0 23.8,21.38 h 79.2 c 0.64,0 1.27,0 1.9,-0.1 l 0.67,-0.08 c 0.27,0 0.55,0 0.82,-0.09 v 0 a 24.13,24.13 0 0 0 20.43,-21.1 l 3.24,-28.11 0.2,0.06 4.47,-21.31 h 7.19 A 3.41,3.41 0 0 0 177.64,94 v -4.83 a 3.42,3.42 0 0 0 -3.41,-3.42 z m -21.94,60.15 a 17.32,17.32 0 0 1 -17.22,15.34 H 56.16 A 17.33,17.33 0 0 1 39.05,145.9 L 31.37,97.37 H 160 Z M 170.82,90.55 H 20.72 v 2 h 150.1 z"
       id="path1913" />
  </g>
</svg>
