<?xml version="1.0" encoding="UTF-8" standalone="no"?>
<svg
   id="Layer_1"
   data-name="Layer 1"
   viewBox="0 0 163.74 199.49235"
   version="1.1"
   sodipodi:docname="_fish.svg"
   width="163.74001"
   height="199.49236"
   inkscape:version="1.1 (c68e22c387, 2021-05-23)"
   xmlns:inkscape="http://www.inkscape.org/namespaces/inkscape"
   xmlns:sodipodi="http://sodipodi.sourceforge.net/DTD/sodipodi-0.dtd"
   xmlns="http://www.w3.org/2000/svg"
   xmlns:svg="http://www.w3.org/2000/svg">
  <sodipodi:namedview
     id="namedview1506"
     pagecolor="#ffffff"
     bordercolor="#666666"
     borderopacity="1.0"
     inkscape:pageshadow="2"
     inkscape:pageopacity="0.0"
     inkscape:pagecheckerboard="0"
     showgrid="false"
     inkscape:zoom="0.88336482"
     inkscape:cx="48.111493"
     inkscape:cy="146.03253"
     inkscape:window-width="1366"
     inkscape:window-height="699"
     inkscape:window-x="0"
     inkscape:window-y="32"
     inkscape:window-maximized="1"
     inkscape:current-layer="Layer_1" />
  <defs
     id="defs1473">
    <style
       id="style1471">.cls-1{fill:#45c2cc;}.cls-2{font-size:23.22px;font-family:Calibri-Bold, Calibri;font-weight:700;}.cls-2,.cls-3{fill:#010101;}.cls-4{fill:none;stroke:#3c2415;stroke-miterlimit:10;stroke-width:7.09px;}.cls-5{fill:#8b5e3c;}.cls-6{fill:#3c2415;}</style>
  </defs>
  <text
     class="cls-2"
     id="text1477"
     x="29.457891"
     y="198.81853"
     style="font-size:60px"><tspan
       style="font-style:normal;font-variant:normal;font-weight:bold;font-stretch:normal;font-size:60px;font-family:'Liberation Sans';-inkscape-font-specification:'Liberation Sans Bold'"
       id="tspan7301">3 кг</tspan></text>
  <g
     id="g20236">
    <path
       class="cls-1"
       d="m 107.69,62.194358 a 61.41,61.41 0 0 1 -24,4.87 62,62 0 0 1 -59.88,-46.34 2.14,2.14 0 0 1 1.45,-2.64 60.16,60.16 0 0 1 21.07,-3.69 61.74,61.74 0 0 1 44.37,18.7 22.16,22.16 0 0 0 1.71,1.85 24.57,24.57 0 0 0 32,2 2.82,2.82 0 0 0 1.18,-2.37 2.94,2.94 0 0 0 -1.31,-2.37 22.78,22.78 0 0 1 -9.75,-18.7 23.72,23.72 0 0 1 1.06,-6.7100002 c 0.13,-0.53 0.39,-1.19 0.52,-1.58 0.13,-0.39 0.27,-0.4 0.53,-0.27 a 21.66,21.66 0 0 1 7.37,3.88 18.61,18.61 0 0 1 5.53,7.1100002 1.94,1.94 0 0 0 1.32,0.93 v 0 a 1.47,1.47 0 0 0 1.32,-0.79 33.29,33.29 0 0 1 8.29,-10.2500002 35,35 0 0 1 4.35,-2.9 c 0.26,-0.13 0.39,0 0.52,0 0.13,0 0.27,0.13 0.27,0.39 v 2.24 A 61.44,61.44 0 0 1 107.69,62.194358 Z"
       id="path1475" />
    <path
       class="cls-3"
       d="m 148.15,3.0343578 a 3.09,3.09 0 0 0 -4.6,-2.63999996 23.84,23.84 0 0 0 -4.61,3.15999996 37.1,37.1 0 0 0 -8,9.3500002 23.18,23.18 0 0 0 -5.26,-6.0000002 24.68,24.68 0 0 0 -8.3,-4.48 2.93,2.93 0 0 0 -3.68,1.84 c -0.27,0.53 -0.4,1.19 -0.66,1.85 a 24.78,24.78 0 0 0 -1.19,7.5000002 25.3,25.3 0 0 0 10.93,20.81 0.4,0.4 0 0 1 0.13,0.26 c 0,0.13 0,0.26 -0.13,0.26 a 21.78,21.78 0 0 1 -13.17,4.48 21.41,21.41 0 0 1 -15.27,-6.32 20.48,20.48 0 0 1 -1.58,-1.71 65.18,65.18 0 0 0 -68.51,-15.72 4.87,4.87 0 0 0 -3,5.79 64.49,64.49 0 0 0 126.9,-16.1900002 z M 107.6,62.284358 a 61.41,61.41 0 0 1 -24,4.87 62,62 0 0 1 -59.88,-46.33 2.14,2.14 0 0 1 1.45,-2.63 60.24,60.24 0 0 1 21.07,-3.69 61.74,61.74 0 0 1 44.37,18.7 22.21,22.21 0 0 0 1.71,1.84 24.56,24.56 0 0 0 32,2 2.83,2.83 0 0 0 1.19,-2.37 3,3 0 0 0 -1.32,-2.37 22.77,22.77 0 0 1 -9.74,-18.7 23.64,23.64 0 0 1 1.05,-6.7800002 c 0.13,-0.53 0.39,-1.19 0.53,-1.58 0.14,-0.39 0.26,-0.4 0.52,-0.27 a 21.51,21.51 0 0 1 7.38,4 18.7,18.7 0 0 1 5.53,7.1100002 1.88,1.88 0 0 0 1.31,0.92 v 0 a 1.44,1.44 0 0 0 1.32,-0.79 33.55,33.55 0 0 1 8.3,-10.2700002 35.18,35.18 0 0 1 4.34,-2.89 c 0.26,-0.13 0.4,0 0.53,0 0.13,0 0.26,0.13 0.26,0.39 v 2.24 A 61.45,61.45 0 0 1 107.6,62.284358 Z"
       id="path1479" />
    <path
       class="cls-3"
       d="m 55.19,21.724358 a 37.44,37.44 0 0 1 -2,4 55.9,55.9 0 0 1 -3.29,5.39 48,48 0 0 1 -3.95,5 c -1.06,1 -2,2.1 -3.16,3.16 -0.4,0.39 0,0.92 0.52,0.79 a 19.61,19.61 0 0 0 3.95,-2.37 21.1,21.1 0 0 0 4.74,-5 20.8,20.8 0 0 0 3,-6.18 17.71,17.71 0 0 0 0.98,-4.69 c 0.12,-0.49 -0.52,-0.62 -0.79,-0.1 z"
       id="path1481" />
    <circle
       class="cls-3"
       cx="41.239998"
       cy="21.204359"
       r="3.29"
       id="circle1483" />
    <path
       class="cls-4"
       d="m 24.1,63.074358 c 0,0 -22.28,-38.74 -13.45,-43 8.83,-4.26 26,37.75 26,37.75"
       id="path1485" />
    <path
       class="cls-4"
       d="m 141.66,63.074358 c 0,0 22.28,-38.74 13.45,-43 -8.83,-4.26 -26.01,37.75 -26.01,37.75"
       id="path1487" />
    <polygon
       class="cls-5"
       points="42.56,161.96 132.35,165.28 142.99,163.29 154.96,152.65 157.62,128.04 164.28,92.79 25.27,92.79 29.93,114.07 35.91,149.32 "
       id="polygon1489"
       transform="translate(-13.9,-31.175642)" />
    <path
       class="cls-6"
       d="m 37.53,88.984358 h 17.05 a 3.41,3.41 0 1 0 0,-6.82 H 37.53 a 3.41,3.41 0 1 0 0,6.82 z"
       id="path1491" />
    <path
       class="cls-6"
       d="m 71.64,88.984358 h 17 a 3.41,3.41 0 1 0 0,-6.82 h -17 a 3.41,3.41 0 0 0 0,6.82 z"
       id="path1493" />
    <path
       class="cls-6"
       d="m 105.75,88.984358 h 17.06 a 3.41,3.41 0 1 0 0,-6.82 h -17.06 a 3.41,3.41 0 0 0 0,6.82 z"
       id="path1495" />
    <path
       class="cls-6"
       d="m 37.53,112.82436 h 17.05 a 3.41,3.41 0 1 0 0,-6.82 H 37.53 a 3.41,3.41 0 1 0 0,6.82 z"
       id="path1497" />
    <path
       class="cls-6"
       d="m 71.64,112.82436 h 17 a 3.41,3.41 0 1 0 0,-6.82 h -17 a 3.41,3.41 0 0 0 0,6.82 z"
       id="path1499" />
    <path
       class="cls-6"
       d="m 105.48,112.82436 h 17.06 a 3.41,3.41 0 0 0 0,-6.82 h -17.06 a 3.41,3.41 0 0 0 0,6.82 z"
       id="path1501" />
    <path
       class="cls-6"
       d="M 160.33,54.574358 H 3.41 a 3.42,3.42 0 0 0 -3.41,3.42 v 4.83 a 3.41,3.41 0 0 0 3.41,3.41 h 7.2 l 7.76,49.310002 a 24.15,24.15 0 0 0 23.8,21.38 h 79.2 c 0.64,0 1.27,0 1.9,-0.1 l 0.67,-0.08 c 0.27,0 0.55,0 0.82,-0.09 v 0 a 24.13,24.13 0 0 0 20.43,-21.1 l 3.24,-28.110002 0.2,0.06 4.47,-21.31 h 7.19 a 3.41,3.41 0 0 0 3.45,-3.37 v -4.83 a 3.42,3.42 0 0 0 -3.41,-3.42 z m -21.94,60.150002 a 17.32,17.32 0 0 1 -17.22,15.34 H 42.26 a 17.33,17.33 0 0 1 -17.11,-15.34 L 17.47,66.194358 H 146.1 Z M 156.92,59.374358 H 6.82 v 2 h 150.1 z"
       id="path1503" />
  </g>
</svg>
