<?xml version="1.0" encoding="UTF-8" standalone="no"?>
<svg
   id="Layer_1"
   data-name="Layer 1"
   viewBox="0 0 163.74 220.37943"
   version="1.1"
   sodipodi:docname="_fruit.svg"
   width="163.74001"
   height="220.37944"
   inkscape:version="1.1 (c68e22c387, 2021-05-23)"
   xmlns:inkscape="http://www.inkscape.org/namespaces/inkscape"
   xmlns:sodipodi="http://sodipodi.sourceforge.net/DTD/sodipodi-0.dtd"
   xmlns="http://www.w3.org/2000/svg"
   xmlns:svg="http://www.w3.org/2000/svg">
  <sodipodi:namedview
     id="namedview1412"
     pagecolor="#ffffff"
     bordercolor="#666666"
     borderopacity="1.0"
     inkscape:pageshadow="2"
     inkscape:pageopacity="0.0"
     inkscape:pagecheckerboard="0"
     showgrid="false"
     inkscape:zoom="1.3083052"
     inkscape:cx="68.409114"
     inkscape:cy="43.567816"
     inkscape:window-width="1366"
     inkscape:window-height="699"
     inkscape:window-x="0"
     inkscape:window-y="32"
     inkscape:window-maximized="1"
     inkscape:current-layer="Layer_1" />
  <defs
     id="defs1357">
    <style
       id="style1355">.cls-1{fill:none;stroke:#3c2415;stroke-miterlimit:10;stroke-width:7.09px;}.cls-2{fill:#3c2415;}.cls-3{fill:#047a53;}.cls-4{fill:#0e4c87;}.cls-5{fill:#e77724;}.cls-6{fill:#db2590;}.cls-7{fill:#78be43;}.cls-8{fill:#fdb71c;}.cls-11,.cls-9{fill:#010101;}.cls-10{fill:#8b5e3c;}.cls-11{font-size:28.35px;font-family:Calibri-Bold, Calibri;font-weight:700;}</style>
  </defs>
  <g
     id="g2471"
     transform="translate(-13.9,-8.9998627)">
    <path
       class="cls-1"
       d="m 38,94.25 c 0,0 -22.28,-38.74 -13.45,-43 8.83,-4.26 26,37.75 26,37.75"
       id="path1359" />
    <path
       class="cls-1"
       d="m 155.56,94.25 c 0,0 22.28,-38.74 13.45,-43 C 160.18,46.99 143,89 143,89"
       id="path1361" />
    <polygon
       class="cls-2"
       points="30.3,22.23 50.62,22.39 50.78,16.36 30.14,16.36 "
       id="polygon1363" />
    <polygon
       class="cls-2"
       points="28.71,96.37 163.03,96.69 162.87,90.02 28.56,90.02 "
       id="polygon1365" />
    <path
       class="cls-2"
       d="m 68.88,79.54 a 23.43,23.43 0 0 0 -3.49,1.75 27,27 0 0 0 -1.75,4.29 l 0.48,3.49 9.21,-0.16 a 8.09,8.09 0 0 0 1.11,-2.06 c 0,-0.48 -1,-4.61 -1,-4.61 z"
       id="path1367" />
    <polygon
       class="cls-3"
       points="75.71,68.11 76.82,73.35 80,77.64 81.27,83.04 80,88.91 97.46,89.07 101.27,83.99 103.65,77.64 102.54,70.34 98.41,66.84 94.76,65.73 89.05,65.57 82.38,65.57 77.93,66.37 "
       id="polygon1369" />
    <path
       class="cls-4"
       d="m 106.67,53.82 c 0,0 -4.61,1.12 -5.08,1.59 -0.47,0.47 -3.49,4.13 -3.49,4.13 l -1,5.24 5.4,5.56 14,-1 V 58.43 L 110.16,54 Z"
       id="path1371" />
    <polygon
       class="cls-5"
       points="33.64,76.21 32.05,81.61 33.8,89.07 57.77,88.12 57.45,84.47 59.52,76.84 61.9,73.19 61.26,69.7 57.93,68.11 51.26,66.21 44.12,66.68 36.81,70.34 "
       id="polygon1373" />
    <polygon
       class="cls-6"
       points="142.55,89.23 96.83,90.34 101.27,83.99 103.49,79.07 102.54,70.34 149.69,70.18 146.84,82.56 "
       id="polygon1375" />
    <polygon
       class="cls-7"
       points="75.71,72.72 74.6,65.41 68.25,62.56 65.55,64.62 62.69,70.5 61.9,73.19 58.24,78.12 57.45,84.47 57.77,88.12 64.12,89.07 63.64,85.58 66.98,81.13 71.11,80.5 73.49,82.24 73.33,88.91 80,88.91 80.95,85.42 80.79,80.5 77.61,75.26 "
       id="polygon1377" />
    <path
       class="cls-7"
       d="m 123.66,24.61 c 0.63,0.32 4.44,4 4.44,4 l 3.65,6 3.18,5.56 13.49,1.43 2.07,-4 4.6,-6.19 c 0,0 7.31,-5.72 6.83,-5.72 -0.48,0 -12.23,1.43 -12.23,1.43 l 3.81,-8.57 -9,2.86 -1.27,-7.15 -3.7,6.74 c 0,0 -7.3,-7 -7.3,-6.51 0,0.49 1.43,11.91 1.43,11.91 z"
       id="path1379" />
    <polygon
       class="cls-8"
       points="122.7,47.16 119.05,52.4 117.94,57.16 116.51,69.38 149.69,70.18 148.9,77.32 142.71,88.12 157.79,89.07 160.01,82.4 162.24,66.68 161.13,55.73 155.89,47 148.42,41.6 134.13,41.28 126.52,42.87 "
       id="polygon1381" />
    <path
       class="cls-8"
       d="m 34.59,23.5 -4,10 -1.75,7 -0.31,10.16 c 0,0 1.58,5.71 1.9,6.19 0.32,0.48 7.78,12.38 7.78,12.38 l 5.87,-2.54 9.85,-1 8.73,4.76 2.86,-5.87 2.7,-2.06 6.35,2.85 1.11,2.7 6.67,-2.54 h 6.67 L 64.41,45.53 53,34.3 47.13,22.86 Z"
       id="path1383" />
    <rect
       class="cls-9"
       x="131.92999"
       y="74.629997"
       width="2.98"
       height="4.48"
       id="rect1385" />
    <rect
       class="cls-9"
       x="121.48"
       y="74.629997"
       width="2.98"
       height="4.48"
       id="rect1387" />
    <rect
       class="cls-9"
       x="111.04"
       y="74.629997"
       width="2.98"
       height="4.48"
       id="rect1389" />
    <path
       class="cls-9"
       d="m 36.53,69.12 a 17.27,17.27 0 0 0 -6.06,13 16.74,16.74 0 0 0 1.13,6 H 29 a 1.49,1.49 0 0 0 -1.49,1.49 v 0 V 97 A 1.47,1.47 0 0 0 28,98.12 h 136.23 a 1.47,1.47 0 0 0 0.52,-1.11 v 0 -7.46 a 1.49,1.49 0 0 0 -1.49,-1.49 h -3.57 a 22.12,22.12 0 0 0 1.44,-2.61 28.47,28.47 0 0 0 2.13,-10.82 V 61.18 A 22.49,22.49 0 0 0 149.82,40.79 l 1.69,-2.54 a 34.88,34.88 0 0 1 9.68,-9.69 l 2.9,-1.93 a 1.49,1.49 0 0 0 -0.83,-2.73 38.06,38.06 0 0 0 -11.92,1.94 65.65,65.65 0 0 1 4.67,-7.2 l 1,-1.3 a 1.49,1.49 0 0 0 -0.3,-2.09 1.47,1.47 0 0 0 -1.56,-0.14 l -9.63,4.81 c -0.09,-1.32 -0.14,-2.64 -0.14,-4 V 10.47 A 1.5,1.5 0 0 0 143.86,9 1.48,1.48 0 0 0 142.49,9.92 L 139,18.37 131.53,10.91 A 1.49,1.49 0 0 0 129,12.44 l 1.1,3.29 a 35.19,35.19 0 0 1 1.73,9.32 34.75,34.75 0 0 0 -10.22,-2.63 1.49,1.49 0 0 0 -0.89,2.78 l 0.71,0.4 c 5.89,3.37 9.13,8.75 11.44,13.84 a 22.61,22.61 0 0 0 -16.58,16.14 12,12 0 0 0 -8.25,-3.33 H 108 a 14.08,14.08 0 0 0 -1.41,-4.83 l -0.15,-0.31 -2.67,1.33 0.15,0.31 a 11.18,11.18 0 0 1 1.08,3.91 11.93,11.93 0 0 0 -8.88,11.4 H 95.9 A 10.79,10.79 0 0 0 90.33,64.61 14.58,14.58 0 0 1 92.4,59 l -2.52,-1.59 a 17.38,17.38 0 0 0 -2,4.62 c -5,-4.23 -9,-7.45 -11.69,-9.48 C 74,50.87 72,49.42 70.27,48.12 64.46,43.78 61,41.16 57,36.37 A 56.62,56.62 0 0 1 49.21,23.9 h 2.15 a 1.49,1.49 0 0 0 1.49,-1.49 v 0 -6 A 1.49,1.49 0 0 0 51.36,15 H 30.47 A 1.49,1.49 0 0 0 29,16.44 v 0 6 a 1.49,1.49 0 0 0 1.49,1.49 h 1.86 a 40.14,40.14 0 0 0 4.18,45.19 z M 48.38,67.24 V 70 a 6.78,6.78 0 0 1 -2.16,-0.92 l -1.65,2.48 a 9.52,9.52 0 0 0 10.6,0 L 53.52,69.08 A 6.78,6.78 0 0 1 51.36,70 v -2.77 a 17,17 0 0 1 9.79,4 v 0 a 2.2,2.2 0 0 1 -0.65,1.6 16.41,16.41 0 0 0 -4.66,11.68 17,17 0 0 0 0.36,3.48 H 34.85 a 13.59,13.59 0 0 1 -1.39,-6 C 33.46,74.32 40,67.93 48.38,67.24 Z M 69.26,78 c -3.83,0 -6.8,4.21 -6.8,7.84 a 6.26,6.26 0 0 0 0.44,2.21 H 59.25 A 14.11,14.11 0 0 1 58.82,84.57 13.42,13.42 0 0 1 62.6,75 5.16,5.16 0 0 0 64.13,71.27 c 0,-0.21 0,-0.4 0,-0.59 0.23,-3.45 2.47,-6.16 5.1,-6.16 2.83,0 5.14,3 5.14,6.76 a 5.14,5.14 0 0 0 1.56,3.72 13.46,13.46 0 0 1 3.78,9.56 14.11,14.11 0 0 1 -0.43,3.48 h -3.65 a 6.26,6.26 0 0 0 0.44,-2.21 C 76.07,82.22 73.1,78 69.26,78 Z m 3.82,7.84 a 3.36,3.36 0 0 1 -0.84,2.21 h -5.95 a 3.43,3.43 0 0 1 -0.85,-2.21 c 0,-2.12 1.86,-4.85 3.82,-4.85 1.96,0 3.82,2.74 3.82,4.86 z m -11.42,-18 a 19.79,19.79 0 0 0 -6.54,-3 C 53.74,63.32 52.37,61.69 51.05,59.98 A 55.69,55.69 0 0 1 40.23,38.51 38.4,38.4 0 0 1 40,23.9 h 2.31 A 31.89,31.89 0 0 0 44,34.82 c 1.62,4.79 4.77,8.3 15.22,19.92 2.3,2.55 4.72,5 7.19,7.44 a 9,9 0 0 0 -4.75,5.7 z M 161.77,91 v 4.48 H 30.47 V 91 Z m -18,-31 7.87,4.54 -1.64,4.15 h -0.17 -9.69 z m -1.44,-4.28 -9,-5.16 2.67,-8.62 a 19.76,19.76 0 0 1 2.17,-0.14 h 2.48 a 19.44,19.44 0 0 1 7,1.31 z m 15.39,29.71 A 19.85,19.85 0 0 1 156,88.06 H 144.9 A 28.08,28.08 0 0 0 149.14,81 Z m 2.54,-10.81 a 27.82,27.82 0 0 1 -1.29,8.1 l -8.83,-4.57 a 29.17,29.17 0 0 0 1,-4.51 h 0.11 l 3.05,-7.63 6,3.46 z m 0,-13.43 v 4.88 l -4.89,-2.82 3.63,-8.9 a 19.63,19.63 0 0 1 1.28,6.85 z m -9.92,-16.81 a 19.51,19.51 0 0 1 6.79,6.42 l -4.37,10.94 -7.76,-4.5 z m 0.75,-23.94 a 66.55,66.55 0 0 0 -3.73,6.5 l -0.29,0.6 -0.6,0.29 c -0.3,-1.56 -0.54,-3.14 -0.71,-4.72 z m -6.36,11.74 a 35.14,35.14 0 0 1 13,-4.88 37.89,37.89 0 0 0 -8.73,9.29 l -1.26,1.89 -1.34,-1.84 a 34.76,34.76 0 0 0 -3,-3.6 z M 142.4,17.87 A 66.46,66.46 0 0 0 143.67,29 l 0.06,0.31 -0.56,0.32 -2,1.25 A 34.26,34.26 0 0 0 138,28.44 Z m -4.69,3.48 -2.27,5.47 -0.54,-0.29 a 38,38 0 0 0 -1.2,-9.19 z M 128,26.77 a 32,32 0 0 1 16,11.63 l 0.56,0.78 a 21.82,21.82 0 0 0 -4,-0.36 h -2.48 c -0.73,0 -1.47,0 -2.21,0.12 A 37.09,37.09 0 0 0 128,26.77 Z m 13.22,31.74 -4.27,10.15 h -5.15 l -3.32,-1.72 4,-13.44 z M 125.84,46.14 a 19.5,19.5 0 0 1 6.83,-3.56 l -1.93,6.42 -5,-2.86 z m -7.34,15.31 a 19.48,19.48 0 0 1 5,-13.11 l 6.36,3.66 -4.08,13.58 -7.28,-3.77 z m 0,3.69 6.41,3.32 -0.06,0.2 h -6.35 z m 29.8,6.5 v 0.06 a 25.29,25.29 0 0 1 -1.3,6.72 25,25 0 0 1 -5.31,8.88 c -0.22,0.26 -0.46,0.51 -0.7,0.76 h -40.87 a 22.71,22.71 0 0 0 4.7,-9.81 13.24,13.24 0 0 0 -0.4,-6.61 z M 108.06,55.23 a 9,9 0 0 1 7.57,4.2 c -0.06,0.67 -0.11,1.34 -0.11,2 v 7.21 H 103 l -0.08,-0.13 a 10.88,10.88 0 0 0 -3.69,-3.35 c 0,-0.33 -0.08,-0.66 -0.1,-1 a 9,9 0 0 1 8.93,-8.93 z M 89.5,68.34 a 8,8 0 0 1 5.91,-1.34 7.72,7.72 0 0 1 5,3.28 9.87,9.87 0 0 1 1.45,7.46 19.12,19.12 0 0 1 -6,10.37 H 82.33 A 17,17 0 0 0 82.69,84.63 16.4,16.4 0 0 0 78,72.89 2.23,2.23 0 0 1 77.36,71.29 11,11 0 0 0 77.25,69.77 7.65,7.65 0 0 1 81.92,67 a 8,8 0 0 1 5.9,1.39 1.48,1.48 0 0 0 1.68,-0.05 z M 54.69,38.28 c 4.2,5.06 8,7.91 13.79,12.23 1.74,1.3 3.66,2.73 5.84,4.41 2.61,2 6.59,5.15 11.46,9.3 a 10.24,10.24 0 0 0 -9.48,2.24 8.38,8.38 0 0 0 -5.54,-4.73 v -5 h -3 v 2.64 C 65.6,57.2 63.46,55 61.42,52.74 51.29,41.48 48.23,38.08 46.81,33.87 a 29.11,29.11 0 0 1 -1.45,-10 h 0.54 a 59.22,59.22 0 0 0 8.79,14.41 z M 32,20.92 v -3 h 17.9 v 3 z m 3.8,3 H 37 a 41.54,41.54 0 0 0 0.32,15.24 c 1.58,7.32 5.41,15 11.38,22.69 0.63,0.82 1.28,1.61 1.93,2.39 -0.25,0 -0.5,0 -0.75,0 A 20.5,20.5 0 0 0 38.93,67.38 37.17,37.17 0 0 1 35.77,23.9 Z"
       id="path1391" />
    <polygon
       class="cls-10"
       points="164.28,92.79 25.27,92.79 29.93,114.07 35.91,149.32 42.56,161.96 132.35,165.28 142.99,163.29 154.96,152.65 157.62,128.04 "
       id="polygon1393" />
    <path
       class="cls-2"
       d="m 51.43,120.16 h 17.05 a 3.41,3.41 0 1 0 0,-6.82 H 51.43 a 3.41,3.41 0 1 0 0,6.82 z"
       id="path1395" />
    <path
       class="cls-2"
       d="m 85.54,120.16 h 17 a 3.41,3.41 0 1 0 0,-6.82 h -17 a 3.41,3.41 0 0 0 0,6.82 z"
       id="path1397" />
    <path
       class="cls-2"
       d="m 119.65,120.16 h 17.06 a 3.41,3.41 0 1 0 0,-6.82 h -17.06 a 3.41,3.41 0 0 0 0,6.82 z"
       id="path1399" />
    <path
       class="cls-2"
       d="m 51.43,144 h 17.05 a 3.41,3.41 0 1 0 0,-6.82 H 51.43 a 3.41,3.41 0 1 0 0,6.82 z"
       id="path1401" />
    <path
       class="cls-2"
       d="m 85.54,144 h 17 a 3.41,3.41 0 1 0 0,-6.82 h -17 a 3.41,3.41 0 0 0 0,6.82 z"
       id="path1403" />
    <path
       class="cls-2"
       d="m 119.38,144 h 17.06 a 3.41,3.41 0 0 0 0,-6.82 h -17.06 a 3.41,3.41 0 0 0 0,6.82 z"
       id="path1405" />
    <path
       class="cls-2"
       d="M 174.23,85.75 H 17.31 A 3.42,3.42 0 0 0 13.9,89.17 V 94 a 3.41,3.41 0 0 0 3.41,3.41 h 7.2 l 7.76,49.31 a 24.15,24.15 0 0 0 23.8,21.38 h 79.2 c 0.64,0 1.27,0 1.9,-0.1 l 0.67,-0.08 c 0.27,0 0.55,0 0.82,-0.09 v 0 a 24.13,24.13 0 0 0 20.43,-21.1 l 3.24,-28.11 0.2,0.06 4.47,-21.31 h 7.19 A 3.41,3.41 0 0 0 177.64,94 v -4.83 a 3.42,3.42 0 0 0 -3.41,-3.42 z m -21.94,60.15 a 17.32,17.32 0 0 1 -17.22,15.34 H 56.16 A 17.33,17.33 0 0 1 39.05,145.9 L 31.37,97.37 H 160 Z M 170.82,90.55 H 20.72 v 2 h 150.1 z"
       id="path1407" />
  </g>
  <text
     class="cls-11"
     id="text1409"
     x="29.692266"
     y="220.37944"
     style="font-style:normal;font-variant:normal;font-weight:bold;font-stretch:normal;font-size:60px;font-family:'Liberation Sans';-inkscape-font-specification:'Liberation Sans Bold'">4 кг</text>
</svg>
