<?xml version="1.0" encoding="UTF-8" standalone="no"?>
<svg
   id="Layer_1"
   data-name="Layer 1"
   viewBox="0 0 163.74 221.9817"
   version="1.1"
   sodipodi:docname="_rice.svg"
   width="163.74001"
   height="221.9817"
   inkscape:version="1.1 (c68e22c387, 2021-05-23)"
   xmlns:inkscape="http://www.inkscape.org/namespaces/inkscape"
   xmlns:sodipodi="http://sodipodi.sourceforge.net/DTD/sodipodi-0.dtd"
   xmlns="http://www.w3.org/2000/svg"
   xmlns:svg="http://www.w3.org/2000/svg">
  <sodipodi:namedview
     id="namedview21922"
     pagecolor="#ffffff"
     bordercolor="#666666"
     borderopacity="1.0"
     inkscape:pageshadow="2"
     inkscape:pageopacity="0.0"
     inkscape:pagecheckerboard="0"
     showgrid="false"
     inkscape:zoom="1.2885224"
     inkscape:cx="-55.489916"
     inkscape:cy="75.280026"
     inkscape:window-width="1366"
     inkscape:window-height="699"
     inkscape:window-x="0"
     inkscape:window-y="32"
     inkscape:window-maximized="1"
     inkscape:current-layer="Layer_1" />
  <defs
     id="defs21863">
    <style
       id="style21861">.cls-1{fill:#75c696;}.cls-2,.cls-6{fill:#010101;}.cls-3{fill:none;stroke:#3c2415;stroke-miterlimit:10;stroke-width:7.09px;}.cls-4{fill:#8b5e3c;}.cls-5{fill:#3c2415;}.cls-6{font-size:28.35px;font-family:Calibri-Bold, Calibri;font-weight:700;}</style>
  </defs>
  <g
     id="g24354"
     transform="translate(-13.9,-7.9841945)">
    <path
       class="cls-1"
       d="m 50.13,46.78 c 0,0 65.86,2.71 89.37,0.72 l 0.63,81.91 V 135 l 2.15,6.41 -2,3.94 H 51 l -3.4,-1.71 0.53,-2 2.26,-4.64 z"
       id="path21865" />
    <path
       class="cls-2"
       d="M 141.38,148 H 50.09 l -0.36,-0.27 c -3.22,-2.33 -4.57,-4.57 -4.21,-6.81 a 6.54,6.54 0 0 1 1.16,-2.33 12.49,12.49 0 0 0 1,-1.43 9.74,9.74 0 0 0 1.43,-4.39 V 44.46 l 1.53,0.17 a 441.22,441.22 0 0 0 45,2.24 h 0.09 c 15,0 30.1,-0.8 45,-2.24 l 1.52,-0.17 V 46 c -0.45,28.22 -0.09,82.71 0,86.47 a 12.12,12.12 0 0 0 1,4.57 8.86,8.86 0 0 0 0.81,1.61 5.25,5.25 0 0 1 0.9,2.51 c 0.26,2.15 -0.81,4.39 -3.14,6.63 z M 51,145.35 h 89.32 c 1.43,-1.43 2.15,-2.78 2,-3.94 a 5.9,5.9 0 0 0 -0.63,-1.52 16.26,16.26 0 0 1 -1,-1.88 14.6,14.6 0 0 1 -1.17,-5.47 c -0.09,-3.67 -0.36,-57.53 0,-85 -14.42,1.44 -29.21,2.15 -43.72,2.15 h -0.09 c -14.6,0 -29.3,-0.71 -43.81,-2.15 v 85.67 a 13.24,13.24 0 0 1 -1.9,5.6 9.56,9.56 0 0 1 -1.16,1.61 2.9,2.9 0 0 0 -0.72,1.17 c -0.12,0.9 0.88,2.24 2.88,3.76 z"
       id="path21867" />
    <path
       class="cls-2"
       d="m 132.06,48.22 -2,-0.18 0.27,-2.69 h 0.45 a 4.79,4.79 0 0 0 -1,-6 L 98.47,11.84 a 4.67,4.67 0 0 0 -6.27,0 L 60,39.44 a 4.79,4.79 0 0 0 -1.16,5.82 l -2.42,1.26 a 7.43,7.43 0 0 1 1.79,-9.14 L 90.32,9.78 a 7.51,7.51 0 0 1 9.85,0.09 l 31.36,27.51 a 7.62,7.62 0 0 1 1,10.3 z"
       id="path21869" />
    <path
       class="cls-2"
       d="M 95.24,24.12 A 1.38,1.38 0 0 1 93.9,22.77 v -2.24 a 1.35,1.35 0 0 1 2.69,0 v 2.24 a 1.27,1.27 0 0 1 -1.35,1.35 z"
       id="path21871" />
    <path
       class="cls-2"
       d="m 83.24,37.47 a 1.38,1.38 0 0 1 -1.35,-1.35 v -2.24 a 1.35,1.35 0 0 1 2.69,0 v 2.24 a 1.45,1.45 0 0 1 -1.34,1.35 z"
       id="path21873" />
    <path
       class="cls-2"
       d="M 107.34,37.47 A 1.38,1.38 0 0 1 106,36.12 v -2.24 a 1.35,1.35 0 0 1 2.69,0 v 2.24 a 1.38,1.38 0 0 1 -1.34,1.35 z"
       id="path21875" />
    <path
       class="cls-2"
       d="m 97,35.06 a 1.38,1.38 0 0 1 -1.35,-1.35 v -2.24 a 1.35,1.35 0 0 1 2.69,0 v 2.24 A 1.37,1.37 0 0 1 97,35.06 Z"
       id="path21877" />
    <path
       class="cls-2"
       d="m 90.58,40.82 a 1.38,1.38 0 0 1 -1.34,-1.35 v -2.24 a 1.35,1.35 0 0 1 2.69,0 v 2.24 a 1.38,1.38 0 0 1 -1.35,1.35 z"
       id="path21879" />
    <path
       class="cls-2"
       d="m 74,40.82 a 1.38,1.38 0 0 1 -1.34,-1.35 v -2.24 a 1.34,1.34 0 1 1 2.68,0 v 2.24 A 1.37,1.37 0 0 1 74,40.82 Z"
       id="path21881" />
    <path
       class="cls-2"
       d="M 87.53,28.28 A 1.38,1.38 0 0 1 86.19,26.94 V 24.7 a 1.35,1.35 0 1 1 2.69,0 v 2.24 a 1.38,1.38 0 0 1 -1.35,1.34 z"
       id="path21883" />
    <path
       class="cls-2"
       d="m 119,43.19 a 1.38,1.38 0 0 1 -1.34,-1.35 V 39.6 a 1.35,1.35 0 0 1 2.69,0 v 2.24 A 1.38,1.38 0 0 1 119,43.19 Z"
       id="path21885" />
    <path
       class="cls-2"
       d="M 100.75,43.87 A 1.38,1.38 0 0 1 99.4,42.52 v -2.24 a 1.35,1.35 0 0 1 2.69,0 v 2.24 a 1.38,1.38 0 0 1 -1.34,1.35 z"
       id="path21887" />
    <path
       class="cls-2"
       d="m 104.13,27.6 a 1.37,1.37 0 0 1 -1.34,-1.34 V 24 a 1.35,1.35 0 0 1 2.69,0 v 2.24 a 1.37,1.37 0 0 1 -1.35,1.34 z"
       id="path21889" />
    <path
       class="cls-2"
       d="m 113.62,35.4 a 1.38,1.38 0 0 1 -1.34,-1.35 v -2.24 a 1.34,1.34 0 1 1 2.68,0 v 2.24 a 1.37,1.37 0 0 1 -1.34,1.35 z"
       id="path21891" />
    <path
       class="cls-2"
       d="M 67.2,43.19 A 1.38,1.38 0 0 1 65.86,41.84 V 39.6 a 1.35,1.35 0 0 1 2.69,0 v 2.24 a 1.38,1.38 0 0 1 -1.35,1.35 z"
       id="path21893" />
    <path
       class="cls-2"
       d="M 83.47,44.88 A 1.38,1.38 0 0 1 82.12,43.54 V 41.3 a 1.35,1.35 0 0 1 2.69,0 v 2.24 a 1.37,1.37 0 0 1 -1.34,1.34 z"
       id="path21895" />
    <path
       class="cls-2"
       d="M 79.4,32.35 A 1.38,1.38 0 0 1 78.06,31 v -2.24 a 1.34,1.34 0 0 1 2.68,0 V 31 a 1.37,1.37 0 0 1 -1.34,1.35 z"
       id="path21897" />
    <path
       class="cls-3"
       d="m 38,94.25 c 0,0 -22.28,-38.74 -13.45,-43 8.83,-4.26 26,37.75 26,37.75"
       id="path21899" />
    <path
       class="cls-3"
       d="m 155.56,94.25 c 0,0 22.28,-38.74 13.45,-43 C 160.18,46.99 143,89 143,89"
       id="path21901" />
    <polygon
       class="cls-4"
       points="42.56,161.96 132.35,165.28 142.99,163.29 154.96,152.65 157.62,128.04 164.28,92.79 25.27,92.79 29.93,114.07 35.91,149.32 "
       id="polygon21903" />
    <path
       class="cls-5"
       d="m 51.43,120.16 h 17.05 a 3.41,3.41 0 1 0 0,-6.82 H 51.43 a 3.41,3.41 0 1 0 0,6.82 z"
       id="path21905" />
    <path
       class="cls-5"
       d="m 85.54,120.16 h 17 a 3.41,3.41 0 1 0 0,-6.82 h -17 a 3.41,3.41 0 0 0 0,6.82 z"
       id="path21907" />
    <path
       class="cls-5"
       d="m 119.65,120.16 h 17.06 a 3.41,3.41 0 1 0 0,-6.82 h -17.06 a 3.41,3.41 0 0 0 0,6.82 z"
       id="path21909" />
    <path
       class="cls-5"
       d="m 51.43,144 h 17.05 a 3.41,3.41 0 1 0 0,-6.82 H 51.43 a 3.41,3.41 0 1 0 0,6.82 z"
       id="path21911" />
    <path
       class="cls-5"
       d="m 85.54,144 h 17 a 3.41,3.41 0 1 0 0,-6.82 h -17 a 3.41,3.41 0 0 0 0,6.82 z"
       id="path21913" />
    <path
       class="cls-5"
       d="m 119.38,144 h 17.06 a 3.41,3.41 0 0 0 0,-6.82 h -17.06 a 3.41,3.41 0 0 0 0,6.82 z"
       id="path21915" />
    <path
       class="cls-5"
       d="M 174.23,85.75 H 17.31 A 3.42,3.42 0 0 0 13.9,89.17 V 94 a 3.41,3.41 0 0 0 3.41,3.41 h 7.2 l 7.76,49.31 a 24.15,24.15 0 0 0 23.8,21.38 h 79.2 c 0.64,0 1.27,0 1.9,-0.1 l 0.67,-0.08 c 0.27,0 0.55,0 0.82,-0.09 v 0 a 24.13,24.13 0 0 0 20.43,-21.1 l 3.24,-28.11 0.2,0.06 4.47,-21.31 h 7.19 A 3.41,3.41 0 0 0 177.64,94 v -4.83 a 3.42,3.42 0 0 0 -3.41,-3.42 z m -21.94,60.15 a 17.32,17.32 0 0 1 -17.22,15.34 H 56.16 A 17.33,17.33 0 0 1 39.05,145.9 L 31.37,97.37 H 160 Z M 170.82,90.55 H 20.72 v 2 h 150.1 z"
       id="path21917" />
  </g>
  <text
     class="cls-6"
     id="text21919"
     x="29.223431"
     y="221.39577"
     style="font-size:60.0001px;stroke-width:1"><tspan
       style="font-style:normal;font-variant:normal;font-weight:bold;font-stretch:normal;font-size:60.0001px;font-family:'Liberation Sans';-inkscape-font-specification:'Liberation Sans Bold';stroke-width:1"
       id="tspan23849">5 кг</tspan></text>
</svg>
