<?xml version="1.0" encoding="UTF-8" standalone="no"?>
<svg
   id="Layer_1"
   data-name="Layer 1"
   viewBox="0 0 163.74 194.7583"
   version="1.1"
   sodipodi:docname="_spinach.svg"
   inkscape:version="1.1 (c68e22c387, 2021-05-23)"
   width="163.74001"
   height="194.7583"
   xmlns:inkscape="http://www.inkscape.org/namespaces/inkscape"
   xmlns:sodipodi="http://sodipodi.sourceforge.net/DTD/sodipodi-0.dtd"
   xmlns="http://www.w3.org/2000/svg"
   xmlns:svg="http://www.w3.org/2000/svg">
  <sodipodi:namedview
     id="namedview24528"
     pagecolor="#ffffff"
     bordercolor="#666666"
     borderopacity="1.0"
     inkscape:pageshadow="2"
     inkscape:pageopacity="0.0"
     inkscape:pagecheckerboard="0"
     showgrid="false"
     inkscape:zoom="1.4664962"
     inkscape:cx="18.070282"
     inkscape:cy="48.414718"
     inkscape:window-width="1366"
     inkscape:window-height="699"
     inkscape:window-x="0"
     inkscape:window-y="32"
     inkscape:window-maximized="1"
     inkscape:current-layer="Layer_1" />
  <defs
     id="defs24487">
    <style
       id="style24485">.cls-1{fill:#047a53;}.cls-2,.cls-3{fill:#010101;}.cls-3{font-size:23.22px;font-family:Calibri-Bold, Calibri;font-weight:700;}.cls-4{fill:none;stroke:#3c2415;stroke-miterlimit:10;stroke-width:7.09px;}.cls-5{fill:#8b5e3c;}.cls-6{fill:#3c2415;}</style>
  </defs>
  <text
     class="cls-3"
     id="text24505"
     x="28.25672"
     y="194.7583"
     style="font-size:60px"><tspan
       style="font-style:normal;font-variant:normal;font-weight:bold;font-stretch:normal;font-size:60px;font-family:'Liberation Sans';-inkscape-font-specification:'Liberation Sans Bold'"
       id="tspan25901">1 кг</tspan></text>
  <g
     id="g29551"
     transform="translate(-13.9,-34.621112)">
    <polygon
       class="cls-1"
       points="130.05,97.78 123.26,100.76 119.14,101.23 109.61,100.78 104.32,99.88 99.37,102.13 91.14,99.78 84.2,97.53 74.34,101.32 69.22,100.76 53.56,84.81 51.72,73.01 50.57,64.86 55.89,50.56 64.54,46.9 76.96,44.45 92.47,36.93 101.12,36.59 109.71,40.64 117.24,47.2 122.4,45.24 132.04,48.23 138.36,53.89 142.94,68.05 142.13,74.75 "
       id="polygon24489" />
    <path
       class="cls-2"
       d="m 85,103.46 a 1.57,1.57 0 0 0 -1.28,1.8 l 3.3,19.6 -0.27,0.08 -9,-24.11 a 4.3,4.3 0 0 0 -7.75,-0.64 1.23,1.23 0 0 1 -0.8,0.57 1.13,1.13 0 0 1 -0.94,-0.22 39.21,39.21 0 0 1 -14.8,-26.17 1.57,1.57 0 0 0 -3.11,0.38 v 0 a 42.43,42.43 0 0 0 16,28.26 4.24,4.24 0 0 0 3.45,0.81 4.33,4.33 0 0 0 2.91,-2.07 1.17,1.17 0 0 1 1.6,-0.43 1.11,1.11 0 0 1 0.51,0.6 l 9.49,25.44 a 1.56,1.56 0 0 0 1.46,1 1.75,1.75 0 0 0 0.4,0 l 3,-0.81 a 1.57,1.57 0 0 0 1.14,-1.77 l -3.54,-21 a 1.56,1.56 0 0 0 -1.8,-1.28 z"
       id="path24491" />
    <path
       class="cls-2"
       d="m 51.28,69.4 a 1.56,1.56 0 0 0 1.37,-1.74 19,19 0 0 1 1.35,-9.9 18.51,18.51 0 0 1 21.24,-10.55 26,26 0 0 0 -2.67,8.4 1.58,1.58 0 0 0 1.33,1.76 h 0.22 a 1.55,1.55 0 0 0 1.54,-1.37 21.53,21.53 0 0 1 4,-9.94 20.67,20.67 0 0 1 25.34,-6.35 1.5613536,1.5613536 0 1 0 1.32,-2.83 23.77,23.77 0 0 0 -29.19,7.33 l -0.16,0.24 a 21.62,21.62 0 0 0 -25.86,12 22,22 0 0 0 -1.56,11.55 1.55,1.55 0 0 0 1.54,1.37 z"
       id="path24493" />
    <path
       class="cls-2"
       d="m 141.39,56.5 a 21.63,21.63 0 0 0 -25.86,-12 l -0.17,-0.24 a 24.33,24.33 0 0 0 -3.44,-3.66 1.5640013,1.5640013 0 1 0 -2.12,2.3 h 0.06 a 21.21,21.21 0 0 1 3,3.2 21.49,21.49 0 0 1 3.96,9.9 l 1.06,7.44 a 43.63,43.63 0 0 1 -9.59,34 5.8,5.8 0 0 0 -8.92,4.61 l -1.21,24.61 3.13,0.16 1.2,-24.61 a 2.59,2.59 0 0 1 1.83,-2.41 2.63,2.63 0 0 1 2.91,0.85 1.58,1.58 0 0 0 1.18,0.57 1.49,1.49 0 0 0 1.2,-0.52 46.46,46.46 0 0 0 5.59,-7.7 2,2 0 0 0 0.32,-0.18 l 3.73,-3.27 a 10.16,10.16 0 0 1 9.32,-2.16 1.56,1.56 0 1 0 0.82,-3 v 0 a 13.26,13.26 0 0 0 -11,1.91 48.53,48.53 0 0 0 1.89,-6.3 l 1.23,-1.18 a 16.56,16.56 0 0 1 12.49,-4.56 1.5632018,1.5632018 0 1 0 0.2,-3.12 19.7,19.7 0 0 0 -13.1,3.94 c 0.12,-1 0.2,-2.06 0.25,-3.1 l 1,-3.63 3.39,-2.95 a 10.14,10.14 0 0 1 9.26,-2.16 1.56,1.56 0 0 0 0.81,-3 13.25,13.25 0 0 0 -12.02,2.76 l 2.3,-8.58 a 1.5646166,1.5646166 0 0 0 -3,-0.89 0.31,0.31 0 0 1 0,0.08 l -2.27,8.39 -0.91,-6.37 a 25.78,25.78 0 0 0 -2.67,-8.4 18.51,18.51 0 0 1 21.28,10.56 19,19 0 0 1 1.31,9.91 1.56,1.56 0 0 0 1.37,1.74 h 0.19 a 1.57,1.57 0 0 0 1.55,-1.37 22.27,22.27 0 0 0 -1.55,-11.57 z"
       id="path24495" />
    <path
       class="cls-2"
       d="M 140.77,73 A 1.58,1.58 0 0 0 139,74.37 v 0 a 39.23,39.23 0 0 1 -14.83,26.17 1.14,1.14 0 0 1 -0.94,0.22 1.25,1.25 0 0 1 -0.81,-0.57 4.29,4.29 0 0 0 -5.87,-1.58 4.35,4.35 0 0 0 -1.88,2.22 l -9,24.11 -0.27,-0.07 3.25,-19.28 a 1.57,1.57 0 0 0 -3.08,-0.57 v 0 l -3.49,20.68 a 1.57,1.57 0 0 0 1.14,1.77 l 3,0.81 a 1.83,1.83 0 0 0 0.4,0 1.56,1.56 0 0 0 1.47,-1 l 9.48,-25.44 a 1.18,1.18 0 0 1 1.51,-0.7 1.24,1.24 0 0 1 0.61,0.52 4.26,4.26 0 0 0 2.9,2.07 4.22,4.22 0 0 0 3.45,-0.81 42.39,42.39 0 0 0 16,-28.26 1.56,1.56 0 0 0 -1.27,-1.66 z"
       id="path24497" />
    <path
       class="cls-2"
       d="M 89.13,96.91 A 5.73,5.73 0 0 0 84.2,97.53 43.62,43.62 0 0 1 74.6,63.48 1.56,1.56 0 0 0 73.28,61.72 v 0 a 1.55,1.55 0 0 0 -1.51,0.67 l -2.36,-8.82 a 1.57,1.57 0 0 0 -1.89,-1.16 1.55,1.55 0 0 0 -1.15,1.88 0.19,0.19 0 0 0 0,0.08 L 68.69,63 a 13.26,13.26 0 0 0 -12.06,-2.74 1.56,1.56 0 0 0 0.81,3 10.14,10.14 0 0 1 9.31,2.16 l 3.38,3 1,3.63 c 0,1 0.13,2.07 0.25,3.1 a 19.71,19.71 0 0 0 -13.1,-4 1.57,1.57 0 1 0 0.2,3.13 A 16.51,16.51 0 0 1 71,78.84 L 72.2,80 a 47,47 0 0 0 1.89,6.26 13.26,13.26 0 0 0 -11,-1.91 1.56,1.56 0 0 0 0.8,3 v 0 a 10.14,10.14 0 0 1 9.31,2.16 l 3.8,3.31 a 1.29,1.29 0 0 0 0.32,0.19 46.87,46.87 0 0 0 5.59,7.78 1.55,1.55 0 0 0 1.2,0.52 1.58,1.58 0 0 0 1.18,-0.57 2.62,2.62 0 0 1 2.9,-0.85 2.58,2.58 0 0 1 1.84,2.4 l 0.63,12.88 a 1.56,1.56 0 0 0 1.56,1.49 H 92.3 A 1.56,1.56 0 0 0 93.74,115 v 0 l -0.62,-12.89 a 5.77,5.77 0 0 0 -3.99,-5.2 z"
       id="path24499" />
    <path
       class="cls-2"
       d="m 100.06,66.25 a 1.55,1.55 0 0 0 2.21,0 16.55,16.55 0 0 1 8.35,-4.41 1.57,1.57 0 0 0 -0.62,-3.07 19.61,19.61 0 0 0 -9.91,5.23 1.56,1.56 0 0 0 -0.03,2.25 z"
       id="path24501" />
    <path
       class="cls-2"
       d="m 100.3,91.39 a 10.13,10.13 0 0 1 6.16,-4.24 1.5646485,1.5646485 0 0 0 -0.7,-3.05 13.23,13.23 0 0 0 -8,5.42 v -5.34 l 2.5,-3.73 a 10.17,10.17 0 0 1 8.44,-4.5 1.56,1.56 0 0 0 0,-3.12 13.27,13.27 0 0 0 -10.9,5.76 V 59.18 l 2.5,-3.73 a 10.13,10.13 0 0 1 6.16,-4.24 1.5646485,1.5646485 0 0 0 -0.7,-3.05 13.28,13.28 0 0 0 -8,5.42 V 44.7 a 1.56,1.56 0 0 0 -3.12,0 v 8.88 A 13.28,13.28 0 0 0 87,48.22 a 1.57,1.57 0 0 0 -0.76,3 v 0 a 10.12,10.12 0 0 1 6,4.19 l 2.5,3.72 v 7.59 a 19.72,19.72 0 0 0 -12.19,-8 1.5601042,1.5601042 0 0 0 -0.61,3.06 16.54,16.54 0 0 1 10.9,7.66 l 1.9,3.15 v 5.92 a 13.26,13.26 0 0 0 -10.94,-5.76 1.56,1.56 0 1 0 0,3.12 10.17,10.17 0 0 1 8.44,4.5 l 2.5,3.72 v 5.35 A 13.28,13.28 0 0 0 87,84.16 a 1.56,1.56 0 0 0 -0.76,3 v 0 a 10.18,10.18 0 0 1 6,4.2 l 2.5,3.72 V 126 a 1.56,1.56 0 0 0 3.12,0 V 95.11 Z"
       id="path24503" />
    <path
       class="cls-4"
       d="m 38,94.25 c 0,0 -22.28,-38.74 -13.45,-43 8.83,-4.26 26,37.75 26,37.75"
       id="path24507" />
    <path
       class="cls-4"
       d="m 155.56,94.25 c 0,0 22.28,-38.74 13.45,-43 C 160.18,46.99 143,89 143,89"
       id="path24509" />
    <polygon
       class="cls-5"
       points="154.96,152.65 157.62,128.04 164.28,92.79 25.27,92.79 29.93,114.07 35.91,149.32 42.56,161.96 132.35,165.28 142.99,163.29 "
       id="polygon24511" />
    <path
       class="cls-6"
       d="m 51.43,120.16 h 17.05 a 3.41,3.41 0 1 0 0,-6.82 H 51.43 a 3.41,3.41 0 1 0 0,6.82 z"
       id="path24513" />
    <path
       class="cls-6"
       d="m 85.54,120.16 h 17 a 3.41,3.41 0 1 0 0,-6.82 h -17 a 3.41,3.41 0 0 0 0,6.82 z"
       id="path24515" />
    <path
       class="cls-6"
       d="m 119.65,120.16 h 17.06 a 3.41,3.41 0 1 0 0,-6.82 h -17.06 a 3.41,3.41 0 0 0 0,6.82 z"
       id="path24517" />
    <path
       class="cls-6"
       d="m 51.43,144 h 17.05 a 3.41,3.41 0 1 0 0,-6.82 H 51.43 a 3.41,3.41 0 1 0 0,6.82 z"
       id="path24519" />
    <path
       class="cls-6"
       d="m 85.54,144 h 17 a 3.41,3.41 0 1 0 0,-6.82 h -17 a 3.41,3.41 0 0 0 0,6.82 z"
       id="path24521" />
    <path
       class="cls-6"
       d="m 119.38,144 h 17.06 a 3.41,3.41 0 0 0 0,-6.82 h -17.06 a 3.41,3.41 0 0 0 0,6.82 z"
       id="path24523" />
    <path
       class="cls-6"
       d="M 174.23,85.75 H 17.31 A 3.42,3.42 0 0 0 13.9,89.17 V 94 a 3.41,3.41 0 0 0 3.41,3.41 h 7.2 l 7.76,49.31 a 24.15,24.15 0 0 0 23.8,21.38 h 79.2 c 0.64,0 1.27,0 1.9,-0.1 l 0.67,-0.08 c 0.27,0 0.55,0 0.82,-0.09 v 0 a 24.13,24.13 0 0 0 20.43,-21.1 l 3.24,-28.11 0.2,0.06 4.47,-21.31 h 7.19 A 3.41,3.41 0 0 0 177.64,94 v -4.83 a 3.42,3.42 0 0 0 -3.41,-3.42 z m -21.94,60.15 a 17.32,17.32 0 0 1 -17.22,15.34 H 56.16 A 17.33,17.33 0 0 1 39.05,145.9 L 31.37,97.37 H 160 Z M 170.82,90.55 H 20.72 v 2 h 150.1 z"
       id="path24525" />
  </g>
</svg>
