<?xml version="1.0" encoding="UTF-8" standalone="no"?>
<svg
   id="Layer_1"
   data-name="Layer 1"
   viewBox="0 0 163.74 206.04853"
   version="1.1"
   sodipodi:docname="_sugar.svg"
   width="163.74001"
   height="206.04854"
   inkscape:version="1.1 (c68e22c387, 2021-05-23)"
   xmlns:inkscape="http://www.inkscape.org/namespaces/inkscape"
   xmlns:sodipodi="http://sodipodi.sourceforge.net/DTD/sodipodi-0.dtd"
   xmlns="http://www.w3.org/2000/svg"
   xmlns:svg="http://www.w3.org/2000/svg">
  <sodipodi:namedview
     id="namedview1153"
     pagecolor="#ffffff"
     bordercolor="#666666"
     borderopacity="1.0"
     inkscape:pageshadow="2"
     inkscape:pageopacity="0.0"
     inkscape:pagecheckerboard="0"
     showgrid="false"
     inkscape:zoom="1.2409531"
     inkscape:cx="89.850293"
     inkscape:cy="100.72903"
     inkscape:window-width="1366"
     inkscape:window-height="699"
     inkscape:window-x="0"
     inkscape:window-y="32"
     inkscape:window-maximized="1"
     inkscape:current-layer="Layer_1" />
  <defs
     id="defs1118">
    <style
       id="style1116">.cls-1{fill:#a1add8;}.cls-2,.cls-3{fill:#010101;}.cls-3{font-size:23.22px;font-family:Calibri-Bold, Calibri;font-weight:700;}.cls-4{fill:none;stroke:#3c2415;stroke-miterlimit:10;stroke-width:7.09px;}.cls-5{fill:#8b5e3c;}.cls-6{fill:#3c2415;}</style>
  </defs>
  <text
     class="cls-3"
     id="text1130"
     x="29.106329"
     y="206.04854"
     style="font-size:60px"><tspan
       style="font-style:normal;font-variant:normal;font-weight:bold;font-stretch:normal;font-size:60px;font-family:'Liberation Sans';-inkscape-font-specification:'Liberation Sans Bold'"
       id="tspan21282">2 кг</tspan></text>
  <g
     id="g5380"
     transform="translate(-13.9,-23.945635)">
    <polygon
       class="cls-1"
       points="114,102.14 92.74,104.19 80.35,102.31 64.02,99.2 59.83,97.14 61.29,61.09 61.15,51.51 63.64,37.56 115.31,43.34 "
       id="polygon1120" />
    <path
       class="cls-2"
       d="m 66.43,43.79 a 1.24,1.24 0 1 0 1.25,-1.09 1.24,1.24 0 0 0 -1.25,1.09 z"
       id="path1122" />
    <path
       class="cls-2"
       d="m 74.41,44.32 a 1.24,1.24 0 1 0 -1.27,1.11 1.24,1.24 0 0 0 1.27,-1.11 z"
       id="path1124" />
    <path
       class="cls-2"
       d="M 66.74,50.26 A 1.24,1.24 0 1 0 68,49.17 1.24,1.24 0 0 0 66.74,50.26 Z"
       id="path1126" />
    <path
       class="cls-2"
       d="m 133,104.05 c 0,-0.26 0,-0.51 0,-0.7 0.1,-1.38 0.17,-2.77 0.22,-4.16 0.11,-2.78 0.15,-5.56 0.14,-8.34 0,-10.58 -0.49,-21.27 -1.5,-31.8 a 123.63,123.63 0 0 0 -2.67,-15.77 55.85,55.85 0 0 0 -2,-6.94 13.15,13.15 0 0 0 -1.91,-4 1.92,1.92 0 0 0 0.66,-0.88 1.47,1.47 0 0 0 -0.83,-1.62 V 29.79 C 123,26.84 116.09,27.1 113,26.89 104.08,26.33 95.24,23.73 86.26,23.96 a 20.81,20.81 0 0 0 -6.12,0.86 31.12,31.12 0 0 0 -11.43,6 17,17 0 0 0 -3.95,4.18 3.07,3.07 0 0 0 -0.44,1.57 c -0.55,0.13 -0.87,0.44 -0.68,1 -2.26,3.93 -1.94,9.84 -2.49,13.95 -0.76,5.74 -1.33,11.48 -1.85,17.28 -0.43,4.71 -0.76,9.42 -1,14.13 -0.24,4.71 -0.57,9.47 -0.88,14.21 -0.08,1.2 -0.16,2.4 -0.26,3.59 -0.1,1.19 -0.33,2.43 -0.54,3.66 a 6.71,6.71 0 0 0 1.13,5.73 9.4,9.4 0 0 0 4.53,2.39 l 0.6,0.17 c 0.48,0.13 1,0.23 1.47,0.32 l 0.4,0.06 c 6,0.94 12.06,1.71 18.08,2.49 10.28,1.33 22.68,3.27 33,2 a 53.9,53.9 0 0 0 8.34,-3.1 20,20 0 0 0 7.45,-4.83 c 0.78,-0.92 3.13,-4.62 1.38,-5.57 z m -23.61,11.23 a 212.91,212.91 0 0 1 -31.88,-2.94 c -5.09,-0.71 -11.1,-0.69 -15.93,-2.49 a 3.86,3.86 0 0 1 -2.59,-2.5 9,9 0 0 1 0.23,-2.36 c 0.08,-0.87 0.15,-1.74 0.22,-2.61 0.07,-0.87 0.13,-1.74 0.19,-2.62 0,-0.44 0,-0.89 0.08,-1.34 0,-0.17 0.19,-1.18 0.08,-1.28 6.4,5.56 28.71,6.8 32.91,7 a 79.21,79.21 0 0 0 20.54,-1.83 4.27,4.27 0 0 0 0.72,-0.21 c 0,1.43 0.08,2.87 0.13,4.31 a 23.86,23.86 0 0 0 1,8.36 40.45,40.45 0 0 1 -5.66,0.51 z m 5.33,-59 c -0.06,6 -0.44,11.94 -0.71,17.91 -0.38,8.53 -0.32,17 -0.1,25.58 a 34.86,34.86 0 0 0 -3.66,0.59 c -3.49,0.57 -7,1.09 -10.52,1.35 0.4,0 -0.09,0 -0.17,0 A 66.37,66.37 0 0 1 86.42,101.15 117.52,117.52 0 0 1 73,99.2 L 72.68,99.14 A 29.26,29.26 0 0 1 62.22,95.7 9.13,9.13 0 0 1 60.12,93.64 c 0,-0.67 0.08,-2.86 0.11,-3.53 0.55,-10.54 1.44,-21.07 2.58,-31.56 0.54,-5.12 1.09,-10.26 1.81,-15.35 a 14.31,14.31 0 0 1 1.21,-4.06 c 1.94,0.5 4.72,0.67 5.79,0.87 6,1.12 11.95,2.07 18,2.73 a 149.5,149.5 0 0 0 17.7,0.95 79.75,79.75 0 0 0 8,-0.35 109.83,109.83 0 0 0 -0.56,12.95 z m 1.39,-17.57 a 5,5 0 0 0 -0.44,2.05 v 0.06 L 113.51,41 c 1.11,-0.09 -1.51,0.08 -1.74,0.09 -1,0 -2.07,0.09 -3.1,0.11 q -3.11,0.06 -6.23,0 -6,-0.18 -11.91,-0.82 C 82.6,39.54 74.71,38.22 66.91,36.62 l 0.32,0.07 -0.53,-0.1 c 0.2,-0.32 0.37,-0.66 0.56,-0.91 a 16.32,16.32 0 0 1 2.32,-2.38 27.72,27.72 0 0 1 5,-3.44 33.28,33.28 0 0 1 11.36,-3.41 45.5,45.5 0 0 1 6.8,0.34 c 4.66,0.51 9.26,1.5 13.91,2.11 4.36,0.58 9.48,0.49 13.37,1.28 h 0.15 v 0 a 8.7,8.7 0 0 1 2.6,0.74 22.54,22.54 0 0 0 -5.6,5.84 c -0.16,0.26 -0.35,0.55 -0.53,0.89 a 1.15,1.15 0 0 0 -0.43,0.7 c 0,0.13 -0.03,0.26 -0.06,0.37 z m 14.79,57.2 c -0.07,2.78 -0.19,5.56 -0.39,8.33 a 10.22,10.22 0 0 0 0.12,2.21 3.34,3.34 0 0 1 -0.36,0.85 12.44,12.44 0 0 1 -4.12,3.33 l -1.57,0.83 c -0.59,0.3 -1.2,0.59 -1.81,0.87 -0.61,0.28 -4.61,1.9 -5.15,2 a 11,11 0 0 1 -0.91,-4 c -0.27,-5.29 -0.34,-10.58 -0.43,-15.88 -0.19,-10.76 0.39,-21.46 0.8,-32.21 0.2,-5.18 0,-10.39 0.37,-15.56 0.1,-1.48 0.26,-3 0.49,-4.43 0,-0.16 0.07,-0.35 0.12,-0.55 a 2.41,2.41 0 0 0 0.24,-0.63 11.29,11.29 0 0 1 1.92,-4.16 c 0.67,2 2.69,4.64 3.59,4.73 2.91,0.29 -0.26,-5.13 -2.06,-6.49 0.43,-0.44 0.89,-0.87 1.39,-1.3 l 0.18,-0.13 c 0.37,0.94 1,1.94 1.22,2.37 a 46.28,46.28 0 0 1 2.46,8.46 130.59,130.59 0 0 1 2.92,20.35 c 0,0 0,0.38 0.07,1 0.07,0.62 0.08,1.32 0.12,2 0.08,1.32 0.15,2.65 0.22,4 0.13,2.6 0.26,5.2 0.36,7.8 0.21,5.4 0.33,10.8 0.21,16.2 z"
       id="path1128" />
    <path
       class="cls-4"
       d="m 38,94.25 c 0,0 -22.28,-38.74 -13.45,-43 8.83,-4.26 26,37.75 26,37.75"
       id="path1132" />
    <path
       class="cls-4"
       d="m 155.56,94.25 c 0,0 22.28,-38.74 13.45,-43 C 160.18,46.99 143,89 143,89"
       id="path1134" />
    <polygon
       class="cls-5"
       points="29.93,114.07 35.91,149.32 42.56,161.96 132.35,165.28 142.99,163.29 154.96,152.65 157.62,128.04 164.28,92.79 25.27,92.79 "
       id="polygon1136" />
    <path
       class="cls-6"
       d="m 51.43,120.16 h 17.05 a 3.41,3.41 0 1 0 0,-6.82 H 51.43 a 3.41,3.41 0 1 0 0,6.82 z"
       id="path1138" />
    <path
       class="cls-6"
       d="m 85.54,120.16 h 17 a 3.41,3.41 0 1 0 0,-6.82 h -17 a 3.41,3.41 0 0 0 0,6.82 z"
       id="path1140" />
    <path
       class="cls-6"
       d="m 119.65,120.16 h 17.06 a 3.41,3.41 0 1 0 0,-6.82 h -17.06 a 3.41,3.41 0 0 0 0,6.82 z"
       id="path1142" />
    <path
       class="cls-6"
       d="m 51.43,144 h 17.05 a 3.41,3.41 0 1 0 0,-6.82 H 51.43 a 3.41,3.41 0 1 0 0,6.82 z"
       id="path1144" />
    <path
       class="cls-6"
       d="m 85.54,144 h 17 a 3.41,3.41 0 1 0 0,-6.82 h -17 a 3.41,3.41 0 0 0 0,6.82 z"
       id="path1146" />
    <path
       class="cls-6"
       d="m 119.38,144 h 17.06 a 3.41,3.41 0 0 0 0,-6.82 h -17.06 a 3.41,3.41 0 0 0 0,6.82 z"
       id="path1148" />
    <path
       class="cls-6"
       d="M 174.23,85.75 H 17.31 A 3.42,3.42 0 0 0 13.9,89.17 V 94 a 3.41,3.41 0 0 0 3.41,3.41 h 7.2 l 7.76,49.31 a 24.15,24.15 0 0 0 23.8,21.38 h 79.2 c 0.64,0 1.27,0 1.9,-0.1 l 0.67,-0.08 c 0.27,0 0.55,0 0.82,-0.09 v 0 a 24.13,24.13 0 0 0 20.43,-21.1 l 3.24,-28.11 0.2,0.06 4.47,-21.31 h 7.19 A 3.41,3.41 0 0 0 177.64,94 v -4.83 a 3.42,3.42 0 0 0 -3.41,-3.42 z m -21.94,60.15 a 17.32,17.32 0 0 1 -17.22,15.34 H 56.16 A 17.33,17.33 0 0 1 39.05,145.9 L 31.37,97.37 H 160 Z M 170.82,90.55 H 20.72 v 2 h 150.1 z"
       id="path1150" />
  </g>
</svg>
