<?xml version="1.0" encoding="UTF-8" standalone="no"?>
<svg
   xmlns:dc="http://purl.org/dc/elements/1.1/"
   xmlns:cc="http://creativecommons.org/ns#"
   xmlns:rdf="http://www.w3.org/1999/02/22-rdf-syntax-ns#"
   xmlns:svg="http://www.w3.org/2000/svg"
   xmlns="http://www.w3.org/2000/svg"
   xmlns:sodipodi="http://sodipodi.sourceforge.net/DTD/sodipodi-0.dtd"
   xmlns:inkscape="http://www.inkscape.org/namespaces/inkscape"
   xml:space="preserve"
   width="66.603981"
   height="60.210892"
   version="1.1"
   style="clip-rule:evenodd;fill-rule:evenodd;image-rendering:optimizeQuality;shape-rendering:geometricPrecision;text-rendering:geometricPrecision"
   viewBox="0 0 105.96604 95.857221"
   id="svg57"
   sodipodi:docname="2020-DE-07-orange.svg"
   inkscape:version="1.0 (4035a4fb49, 2020-05-01)"><metadata
   id="metadata61"><rdf:RDF><cc:Work
       rdf:about=""><dc:format>image/svg+xml</dc:format><dc:type
         rdf:resource="http://purl.org/dc/dcmitype/StillImage" /><dc:title></dc:title></cc:Work></rdf:RDF></metadata><sodipodi:namedview
   inkscape:window-maximized="1"
   inkscape:window-y="-8"
   inkscape:window-x="-8"
   inkscape:cy="10.770856"
   inkscape:cx="3.5157765"
   inkscape:zoom="1.6287649"
   fit-margin-bottom="0.5"
   fit-margin-right="0.5"
   fit-margin-left="0.5"
   fit-margin-top="0.5"
   lock-margins="true"
   units="px"
   inkscape:document-rotation="0"
   pagecolor="#ffffff"
   bordercolor="#666666"
   borderopacity="1"
   objecttolerance="10"
   gridtolerance="10"
   guidetolerance="10"
   inkscape:pageopacity="0"
   inkscape:pageshadow="2"
   inkscape:window-width="1280"
   inkscape:window-height="972"
   id="namedview59"
   showgrid="false"
   inkscape:current-layer="svg57" />
 <defs
   id="defs4">
  <style
   type="text/css"
   id="style2">
   <![CDATA[
    .str1 {stroke:#2B2A29;stroke-width:1.50713;stroke-linecap:round;stroke-linejoin:round}
    .str0 {stroke:#2B2A29;stroke-width:3.01426;stroke-linecap:round;stroke-linejoin:round}
    .fil1 {fill:none}
    .fil0 {fill:#F08143}
    .fil3 {fill:#F7AA47}
    .fil2 {fill:#D36120}
   ]]>
  </style>
 </defs>
 
<g
   transform="matrix(0.74279376,0,0,0.74279376,0.72227797,0.45411986)"
   id="g1066"><g
     id="Layer_x0020_1">
  <metadata
   id="CorelCorpID_0Corel-Layer" />
  <g
   id="_1240725296">
   <g
   style="opacity:1"
   id="g886"><path
     id="path888"
     d="m 55,47 c 0,0 1,2 -1,0 C 43,35 40,2 69,2 c 32,-1 34,20 25,34 0,0 -12,16 -8,12 10,-10 56,-37 53,8 -1,17 -39,23 -46,18 26,4 40,11 28,35 -4,8 -37,33 -46,1 -8,-30 -6,-25 -5,-9 1,18 -19,33 -38,19 C 3,98 31,81 48,77 40,79 -10,89 4,47 16,12 45,37 55,47 Z"
     style="color:#000000;font-style:normal;font-variant:normal;font-weight:normal;font-stretch:normal;font-size:medium;line-height:normal;font-family:sans-serif;font-variant-ligatures:normal;font-variant-position:normal;font-variant-caps:normal;font-variant-numeric:normal;font-variant-alternates:normal;font-variant-east-asian:normal;font-feature-settings:normal;font-variation-settings:normal;text-indent:0;text-align:start;text-decoration:none;text-decoration-line:none;text-decoration-style:solid;text-decoration-color:#000000;letter-spacing:normal;word-spacing:normal;text-transform:none;writing-mode:lr-tb;direction:ltr;text-orientation:mixed;dominant-baseline:auto;baseline-shift:baseline;text-anchor:start;white-space:normal;shape-padding:0;shape-margin:0;inline-size:0;clip-rule:nonzero;display:inline;overflow:visible;visibility:visible;isolation:auto;mix-blend-mode:normal;color-interpolation:sRGB;color-interpolation-filters:linearRGB;solid-color:#000000;solid-opacity:1;vector-effect:none;fill:#f08143;fill-opacity:1;fill-rule:nonzero;stroke:none;stroke-width:3.01426;stroke-linecap:round;stroke-linejoin:round;stroke-miterlimit:4;stroke-dasharray:none;stroke-dashoffset:0;stroke-opacity:1;color-rendering:auto;image-rendering:auto;shape-rendering:auto;text-rendering:auto;enable-background:accumulate;stop-color:#000000;stop-opacity:1" /><path
     id="path890"
     d="M 68.970703,0.49414062 C 61.450404,0.50013958 55.786653,2.6752343 51.863281,6.2265625 47.934488,9.7827979 45.7998,14.636258 45.009766,19.771484 44.060128,25.94413 45.115445,32.447363 47.269531,38.152344 42.452756,34.334673 36.755444,30.578117 30.699219,28.685547 25.450079,27.045191 19.911987,26.845159 14.917969,29.496094 9.9239505,32.147028 5.6524718,37.533481 2.5742188,46.511719 a 1.5072807,1.5072807 0 0 0 -0.00391,0.01172 c -3.5794327,10.738298 -3.15727084,18.49181 -0.033203,23.916015 3.1240677,5.424206 8.7799832,8.233358 14.8984372,9.535156 5.523309,1.175172 11.436525,1.115544 16.732422,0.685547 -4.94581,2.617188 -9.556816,6.004678 -12.632813,10.199219 -2.940616,4.009932 -4.425978,8.856634 -3.123047,14.068354 1.302932,5.21173 5.260238,10.64638 12.677735,16.27344 a 1.5072807,1.5072807 0 0 0 0.01563,0.0117 c 9.91025,7.30229 20.419922,7.12298 28.15625,2.58789 7.290615,-4.27381 12.12238,-12.32163 12.216797,-21.25 0.691701,2.63613 1.103059,4.23267 2.064453,7.83789 a 1.5072807,1.5072807 0 0 0 0.0059,0.0195 c 2.32884,8.28032 6.359373,13.1858 11.244141,15.42969 4.884767,2.24389 10.38826,1.79345 15.552729,0.0937 5.16448,-1.6997 10.06408,-4.6568 13.97266,-7.71289 3.90858,-3.05609 6.79901,-6.08435 8.0293,-8.54492 3.06552,-6.13106 4.5378,-11.276353 4.5039,-15.716798 -0.0339,-4.440445 -1.66487,-8.153157 -4.53515,-11.023437 -2.81478,-2.814776 -6.74156,-4.877204 -11.5293,-6.5 2.58793,-0.413948 5.25079,-0.984042 7.87695,-1.734375 5.37608,-1.536023 10.58798,-3.768701 14.61914,-6.808594 4.03117,-3.039893 6.93815,-6.999344 7.22071,-11.802734 0.76373,-11.487665 -1.5839,-18.781943 -6.10547,-22.84961 -4.52326,-4.069185 -10.86678,-4.579684 -17.30664,-3.34375 -9.03054,1.733133 -18.429651,6.783565 -25.171876,11.490235 1.397826,-1.899578 3.285156,-4.480469 3.285156,-4.480469 a 1.5072807,1.5072807 0 0 0 0.0625,-0.08984 C 99.980398,29.4834 101.91725,20.225028 98.228516,12.710938 94.541179,5.1996957 85.289333,-0.01164629 68.970703,0.49414062 Z m 0.07617,3.01171878 C 84.716693,3.0161776 92.46022,7.803153 95.521484,14.039062 c 3.058993,6.231282 1.498708,14.464533 -2.78125,21.13086 -0.05843,0.07791 -2.975857,3.96581 -5.466796,7.453125 -1.257892,1.761049 -2.38059,3.375201 -3.003907,4.414062 -0.155829,0.259716 -0.279631,0.476908 -0.388672,0.716797 -0.05452,0.119945 -0.109652,0.236228 -0.160156,0.455078 -0.02525,0.109426 -0.05488,0.244846 -0.04102,0.480469 0.01386,0.235623 0.08715,0.647696 0.449218,1.009766 0.36207,0.36207 0.900318,0.467062 1.197266,0.447265 0.296948,-0.0198 0.450602,-0.09207 0.570312,-0.146484 0.239422,-0.108828 0.34426,-0.195926 0.458985,-0.285156 0.229449,-0.17846 0.438735,-0.376236 0.710937,-0.648438 4.662528,-4.662527 18.721539,-13.932805 30.591799,-16.210937 5.93514,-1.139066 11.15411,-0.587065 14.72461,2.625 3.5705,3.212065 5.84693,9.415009 5.11328,20.419922 a 1.5072807,1.5072807 0 0 0 0,0.01172 c -0.21745,3.69661 -2.43546,6.862159 -6.02929,9.572266 -3.59384,2.710107 -8.50694,4.852429 -13.63086,6.316406 -5.12392,1.463978 -10.46041,2.259858 -14.87696,2.38086 -0.27528,0.0075 -0.45248,-0.046 -0.7207,-0.04492 -2.824598,-0.602232 -5.825509,-1.137067 -9.009769,-1.626953 a 1.5072807,1.5072807 0 0 0 -1.105469,2.716796 c 2.138456,1.527469 5.544075,1.913898 9.582038,1.904297 8.46834,1.859873 14.89226,4.349293 18.47851,7.935547 2.37972,2.37972 3.62374,5.167008 3.65235,8.914063 0.0286,3.747055 -1.24912,8.476757 -4.1836,14.345697 -0.76971,1.53943 -3.50428,4.63617 -7.18945,7.51758 -3.68517,2.88141 -8.34807,5.67431 -13.058598,7.22461 -4.710526,1.5503 -9.394533,1.84986 -13.353516,0.0312 -3.955278,-1.81691 -7.422194,-5.78284 -9.59375,-13.48828 l -0.0039,-0.0117 c -8e-4,-0.003 -0.0012,-0.005 -0.002,-0.008 -1.994733,-7.48063 -3.368597,-12.786997 -4.291016,-16.289062 -0.461767,-1.75315 -0.809238,-3.053173 -1.072265,-3.96875 -0.131514,-0.457788 -0.240563,-0.816731 -0.339844,-1.107422 -0.09928,-0.29069 -0.06364,-0.40842 -0.417969,-0.880859 -0.08858,-0.11811 -0.196099,-0.301869 -0.597656,-0.490234 -0.401557,-0.188365 -1.276108,-0.09665 -1.650391,0.226562 -0.748565,0.646419 -0.521097,0.881737 -0.542969,1.050781 -0.04374,0.338089 -0.02587,0.538888 -0.01172,0.84375 0.02831,0.609726 0.103247,1.467736 0.205078,2.595704 0.203661,2.255935 0.515318,5.547822 0.763672,9.52148 0.463771,8.41736 -3.99681,16.14212 -10.757813,20.10547 -6.761856,3.96385 -15.748681,4.28394 -24.835937,-2.4082 -0.0024,-0.002 -0.0054,-0.002 -0.0078,-0.004 -7.070985,-5.36795 -10.485429,-10.305 -11.55664,-14.58984 -1.072069,-4.288275 0.06757,-8.066573 2.626953,-11.556641 5.118419,-6.979663 16.162873,-12.240283 24.378906,-14.173828 4e-4,-1e-4 0.0016,10e-5 0.002,0 0.0042,-0.001 0.01538,-0.0029 0.01953,-0.0039 a 1.5073572,1.5073572 0 0 0 -0.710937,-2.929688 c -0.0062,0.0014 -0.01338,0.0044 -0.01953,0.0059 v -0.002 c -3.856666,0.96447 -18.307233,3.88499 -29.570325,1.488588 C 12.432907,75.827189 7.7138229,73.386341 5.1503906,68.935547 2.5880412,64.486633 2.0100347,57.742679 5.4257812,47.488281 l 0.00195,-0.0059 c 7.221e-4,-0.0022 0.00123,-0.0037 0.00195,-0.0059 2.9212161,-8.513583 6.7734308,-13.124688 10.9023438,-15.316406 4.130982,-2.192815 8.71789,-2.080347 13.46875,-0.595703 7.974281,2.491963 15.913577,8.849091 21.230469,13.775391 0.625713,0.888959 1.16147,1.918514 1.857422,2.677734 a 1.5072807,1.5072807 0 0 0 0.04492,0.04883 c 0.544404,0.544404 0.845606,0.851515 1.392578,1.125 0.273486,0.136743 0.784963,0.414159 1.542969,0.03516 0.379002,-0.189501 0.655849,-0.556615 0.767578,-0.835937 0.111728,-0.279322 0.121093,-0.483781 0.121093,-0.640625 0,-0.627377 -0.14614,-0.80871 -0.234374,-1.029297 -0.08823,-0.220587 -0.175782,-0.394531 -0.175782,-0.394531 a 1.5072807,1.5072807 0 0 0 -0.28125,-0.392578 C 55.30322,45.170408 54.244795,44.20506 53.28125,43.300781 49.294557,37.351932 46.758254,28.236387 47.990234,20.228516 48.7002,15.613742 50.565512,11.467202 53.886719,8.4609375 57.207925,5.4546729 62.035835,3.5078125 69,3.5078125 a 1.5072807,1.5072807 0 0 0 0.04687,-0.00195 z"
     style="color:#000000;font-style:normal;font-variant:normal;font-weight:normal;font-stretch:normal;font-size:medium;line-height:normal;font-family:sans-serif;font-variant-ligatures:normal;font-variant-position:normal;font-variant-caps:normal;font-variant-numeric:normal;font-variant-alternates:normal;font-variant-east-asian:normal;font-feature-settings:normal;font-variation-settings:normal;text-indent:0;text-align:start;text-decoration:none;text-decoration-line:none;text-decoration-style:solid;text-decoration-color:#000000;letter-spacing:normal;word-spacing:normal;text-transform:none;writing-mode:lr-tb;direction:ltr;text-orientation:mixed;dominant-baseline:auto;baseline-shift:baseline;text-anchor:start;white-space:normal;shape-padding:0;shape-margin:0;inline-size:0;clip-rule:nonzero;display:inline;overflow:visible;visibility:visible;isolation:auto;mix-blend-mode:normal;color-interpolation:sRGB;color-interpolation-filters:linearRGB;solid-color:#000000;solid-opacity:1;vector-effect:none;fill:#2b2a29;fill-opacity:1;fill-rule:nonzero;stroke:none;stroke-width:3.01426;stroke-linecap:round;stroke-linejoin:round;stroke-miterlimit:4;stroke-dasharray:none;stroke-dashoffset:0;stroke-opacity:1;color-rendering:auto;image-rendering:auto;shape-rendering:auto;text-rendering:auto;enable-background:accumulate;stop-color:#000000;stop-opacity:1" /></g>
   <path
   id="path894"
   d="m 53.878906,8.0410156 c -0.543415,0.00799 -1.095174,0.1423219 -1.61914,0.4179688 -1.047934,0.5512938 -1.992695,1.5893176 -2.910157,3.1621096 a 0.75356501,0.75356501 0 0 0 0.271485,1.029297 0.75356501,0.75356501 0 0 0 1.029297,-0.271485 c 0.832538,-1.427208 1.637777,-2.232934 2.3125,-2.5878904 0.674722,-0.3549561 1.216246,-0.3396491 1.865234,-0.042969 1.297977,0.5933614 2.835912,2.6415954 4.117187,5.3261724 1.281276,2.684576 2.365125,5.961664 3.121094,8.923828 0.755969,2.962164 1.179688,5.64848 1.179688,7.001953 0,4 -0.02448,7.952357 -0.960938,10.761719 a 0.75356501,0.75356501 0 0 0 0.476563,0.953125 0.75356501,0.75356501 0 0 0 0.953125,-0.476563 C 64.77839,39.047643 64.753906,35 64.753906,31 c 0,-1.646527 -0.451281,-4.335211 -1.226562,-7.373047 C 62.752063,20.589117 61.648412,17.241205 60.304688,14.425781 58.960963,11.610358 57.436398,9.2835924 55.453125,8.3769531 54.957307,8.1502933 54.422321,8.0330276 53.878906,8.0410156 Z"
   style="color:#000000;font-style:normal;font-variant:normal;font-weight:normal;font-stretch:normal;font-size:medium;line-height:normal;font-family:sans-serif;font-variant-ligatures:normal;font-variant-position:normal;font-variant-caps:normal;font-variant-numeric:normal;font-variant-alternates:normal;font-variant-east-asian:normal;font-feature-settings:normal;font-variation-settings:normal;text-indent:0;text-align:start;text-decoration:none;text-decoration-line:none;text-decoration-style:solid;text-decoration-color:#000000;letter-spacing:normal;word-spacing:normal;text-transform:none;writing-mode:lr-tb;direction:ltr;text-orientation:mixed;dominant-baseline:auto;baseline-shift:baseline;text-anchor:start;white-space:normal;shape-padding:0;shape-margin:0;inline-size:0;clip-rule:nonzero;display:inline;overflow:visible;visibility:visible;opacity:1;isolation:auto;mix-blend-mode:normal;color-interpolation:sRGB;color-interpolation-filters:linearRGB;solid-color:#000000;solid-opacity:1;vector-effect:none;fill:#2b2a29;fill-opacity:1;fill-rule:nonzero;stroke:none;stroke-width:1.50713;stroke-linecap:round;stroke-linejoin:round;stroke-miterlimit:4;stroke-dasharray:none;stroke-dashoffset:0;stroke-opacity:1;color-rendering:auto;image-rendering:auto;shape-rendering:auto;text-rendering:auto;enable-background:accumulate;stop-color:#000000;stop-opacity:1" />
   <path
   id="path898"
   d="m 95.253906,12.615234 c -1.129897,-0.172357 -2.378737,0.08855 -3.638672,0.552735 -2.519869,0.928373 -5.070699,2.65683 -6.242187,4.414062 l 0.04297,-0.05859 C 76.814454,28.036458 76.2654,30.014501 74.498047,41.439453 A 0.75356501,0.75356501 0 0 0 74.246094,42 v 1 a 0.75364037,0.75364037 0 0 0 1.498047,0.115234 c 2.000883,-13.00574 1.854017,-13.655995 10.839843,-24.638672 a 0.75364037,0.75364037 0 0 0 0.04297,-0.05859 c 0.828512,-1.242768 3.277682,-3.014311 5.507813,-3.835938 1.115065,-0.410813 2.178725,-0.587408 2.892578,-0.478515 0.713853,0.108892 1.056693,0.338101 1.242187,1.080078 a 0.75356501,0.75356501 0 0 0 0.914063,0.546875 0.75356501,0.75356501 0 0 0 0.546875,-0.914063 c -0.314506,-1.258023 -1.346666,-2.028814 -2.476563,-2.201172 z"
   style="color:#000000;font-style:normal;font-variant:normal;font-weight:normal;font-stretch:normal;font-size:medium;line-height:normal;font-family:sans-serif;font-variant-ligatures:normal;font-variant-position:normal;font-variant-caps:normal;font-variant-numeric:normal;font-variant-alternates:normal;font-variant-east-asian:normal;font-feature-settings:normal;font-variation-settings:normal;text-indent:0;text-align:start;text-decoration:none;text-decoration-line:none;text-decoration-style:solid;text-decoration-color:#000000;letter-spacing:normal;word-spacing:normal;text-transform:none;writing-mode:lr-tb;direction:ltr;text-orientation:mixed;dominant-baseline:auto;baseline-shift:baseline;text-anchor:start;white-space:normal;shape-padding:0;shape-margin:0;inline-size:0;clip-rule:nonzero;display:inline;overflow:visible;visibility:visible;opacity:1;isolation:auto;mix-blend-mode:normal;color-interpolation:sRGB;color-interpolation-filters:linearRGB;solid-color:#000000;solid-opacity:1;vector-effect:none;fill:#2b2a29;fill-opacity:1;fill-rule:nonzero;stroke:none;stroke-width:1.50713;stroke-linecap:round;stroke-linejoin:round;stroke-miterlimit:4;stroke-dasharray:none;stroke-dashoffset:0;stroke-opacity:1;color-rendering:auto;image-rendering:auto;shape-rendering:auto;text-rendering:auto;enable-background:accumulate;stop-color:#000000;stop-opacity:1" />
   <path
   id="path902"
   d="m 121.97461,29.246094 a 0.75356501,0.75356501 0 0 0 -0.57813,0.302734 0.75356501,0.75356501 0 0 0 0.15235,1.054688 c 1.99196,1.493971 3.06205,2.416334 3.34961,3.470703 0.28755,1.054369 -0.0947,2.632824 -1.57227,5.58789 a 0.75364037,0.75364037 0 0 0 -0.0312,0.07422 c -1.35743,3.619822 -6.19335,7.119356 -11.75,9.835938 -5.55664,2.716581 -11.778685,4.709808 -15.728514,5.697265 L 96,55.246094 c -0.751188,0 -1.688803,0.274089 -2.582031,0.529297 -0.893228,0.255208 -1.65625,0.509765 -1.65625,0.509765 a 0.75356501,0.75356501 0 0 0 -0.476563,0.953125 0.75356501,0.75356501 0 0 0 0.953125,0.476563 c 0,0 0.736978,-0.245443 1.59375,-0.490235 C 94.688803,56.979817 95.751188,56.753906 96,56.753906 a 0.75364037,0.75364037 0 0 0 0.183594,-0.02344 c 4.050166,-1.012543 10.328126,-3.019316 16.021486,-5.802735 5.69164,-2.782582 10.85386,-6.281822 12.49804,-10.660156 1.49205,-2.996624 2.10665,-4.91172 1.64844,-6.591797 -0.46244,-1.695631 -1.89235,-2.773268 -3.90039,-4.279297 a 0.75356501,0.75356501 0 0 0 -0.47656,-0.15039 z"
   style="color:#000000;font-style:normal;font-variant:normal;font-weight:normal;font-stretch:normal;font-size:medium;line-height:normal;font-family:sans-serif;font-variant-ligatures:normal;font-variant-position:normal;font-variant-caps:normal;font-variant-numeric:normal;font-variant-alternates:normal;font-variant-east-asian:normal;font-feature-settings:normal;font-variation-settings:normal;text-indent:0;text-align:start;text-decoration:none;text-decoration-line:none;text-decoration-style:solid;text-decoration-color:#000000;letter-spacing:normal;word-spacing:normal;text-transform:none;writing-mode:lr-tb;direction:ltr;text-orientation:mixed;dominant-baseline:auto;baseline-shift:baseline;text-anchor:start;white-space:normal;shape-padding:0;shape-margin:0;inline-size:0;clip-rule:nonzero;display:inline;overflow:visible;visibility:visible;opacity:1;isolation:auto;mix-blend-mode:normal;color-interpolation:sRGB;color-interpolation-filters:linearRGB;solid-color:#000000;solid-opacity:1;vector-effect:none;fill:#2b2a29;fill-opacity:1;fill-rule:nonzero;stroke:none;stroke-width:1.50713;stroke-linecap:round;stroke-linejoin:round;stroke-miterlimit:4;stroke-dasharray:none;stroke-dashoffset:0;stroke-opacity:1;color-rendering:auto;image-rendering:auto;shape-rendering:auto;text-rendering:auto;enable-background:accumulate;stop-color:#000000;stop-opacity:1" />
   <path
   id="path906"
   d="m 119,58.246094 c -9.11164,0 -17.25226,2.030586 -24.373047,6.099609 a 0.75356501,0.75356501 0 0 0 -0.28125,1.027344 0.75356501,0.75356501 0 0 0 1.027344,0.28125 c 6.871943,-3.926824 14.722813,-5.894279 23.599613,-5.898438 14.81761,0.993468 9.969,4.444183 13.60937,6.871094 a 0.75356501,0.75356501 0 0 0 1.04492,-0.208984 0.75356501,0.75356501 0 0 0 -0.20898,-1.044922 c -2.35692,-1.571279 0.77476,-6.115537 -14.36719,-7.125 A 0.75364037,0.75364037 0 0 0 119,58.246094 Z"
   style="color:#000000;font-style:normal;font-variant:normal;font-weight:normal;font-stretch:normal;font-size:medium;line-height:normal;font-family:sans-serif;font-variant-ligatures:normal;font-variant-position:normal;font-variant-caps:normal;font-variant-numeric:normal;font-variant-alternates:normal;font-variant-east-asian:normal;font-feature-settings:normal;font-variation-settings:normal;text-indent:0;text-align:start;text-decoration:none;text-decoration-line:none;text-decoration-style:solid;text-decoration-color:#000000;letter-spacing:normal;word-spacing:normal;text-transform:none;writing-mode:lr-tb;direction:ltr;text-orientation:mixed;dominant-baseline:auto;baseline-shift:baseline;text-anchor:start;white-space:normal;shape-padding:0;shape-margin:0;inline-size:0;clip-rule:nonzero;display:inline;overflow:visible;visibility:visible;opacity:1;isolation:auto;mix-blend-mode:normal;color-interpolation:sRGB;color-interpolation-filters:linearRGB;solid-color:#000000;solid-opacity:1;vector-effect:none;fill:#2b2a29;fill-opacity:1;fill-rule:nonzero;stroke:none;stroke-width:1.50713;stroke-linecap:round;stroke-linejoin:round;stroke-miterlimit:4;stroke-dasharray:none;stroke-dashoffset:0;stroke-opacity:1;color-rendering:auto;image-rendering:auto;shape-rendering:auto;text-rendering:auto;enable-background:accumulate;stop-color:#000000;stop-opacity:1" />
   <path
   id="path910"
   d="m 19.996094,29.246094 a 0.75356501,0.75356501 0 0 0 -0.160156,0.01758 c -2.498092,0.555131 -4.137502,2.328106 -4.677735,4.576172 -0.540233,2.248066 -0.07865,4.943348 1.296875,7.628906 2.741586,5.352621 9.189148,10.699469 19.337891,12.251953 1.647115,0.544825 4.593707,1.024195 7.453125,1.521485 1.435683,0.249684 2.836456,0.498418 3.988281,0.74414 1.151825,0.245723 2.085003,0.516135 2.427734,0.6875 a 0.75356501,0.75356501 0 0 0 1.011719,-0.335937 0.75356501,0.75356501 0 0 0 -0.335937,-1.011719 C 49.680622,54.997539 48.7388,54.767951 47.546875,54.513674 46.35495,54.259396 44.943223,54.00813 43.503906,53.757814 40.625274,53.257183 37.595302,52.737499 36.238281,52.285158 a 0.75364037,0.75364037 0 0 0 -0.126953,-0.03125 C 26.320867,50.785337 20.293863,45.660135 17.794922,40.78125 16.545451,38.341808 16.19453,35.97459 16.623047,34.191406 c 0.428517,-1.783184 1.539107,-3.010209 3.541015,-3.455078 a 0.75356501,0.75356501 0 0 0 0.572266,-0.90039 0.75356501,0.75356501 0 0 0 -0.740234,-0.589844 z"
   style="color:#000000;font-style:normal;font-variant:normal;font-weight:normal;font-stretch:normal;font-size:medium;line-height:normal;font-family:sans-serif;font-variant-ligatures:normal;font-variant-position:normal;font-variant-caps:normal;font-variant-numeric:normal;font-variant-alternates:normal;font-variant-east-asian:normal;font-feature-settings:normal;font-variation-settings:normal;text-indent:0;text-align:start;text-decoration:none;text-decoration-line:none;text-decoration-style:solid;text-decoration-color:#000000;letter-spacing:normal;word-spacing:normal;text-transform:none;writing-mode:lr-tb;direction:ltr;text-orientation:mixed;dominant-baseline:auto;baseline-shift:baseline;text-anchor:start;white-space:normal;shape-padding:0;shape-margin:0;inline-size:0;clip-rule:nonzero;display:inline;overflow:visible;visibility:visible;opacity:1;isolation:auto;mix-blend-mode:normal;color-interpolation:sRGB;color-interpolation-filters:linearRGB;solid-color:#000000;solid-opacity:1;vector-effect:none;fill:#2b2a29;fill-opacity:1;fill-rule:nonzero;stroke:none;stroke-width:1.50713;stroke-linecap:round;stroke-linejoin:round;stroke-miterlimit:4;stroke-dasharray:none;stroke-dashoffset:0;stroke-opacity:1;color-rendering:auto;image-rendering:auto;shape-rendering:auto;text-rendering:auto;enable-background:accumulate;stop-color:#000000;stop-opacity:1" />
   <path
   id="path914"
   d="m 24.34375,61.71875 c -2.204941,-0.09422 -4.615229,0.04067 -7.365234,0.53125 -0.91851,0.0027 -2.387713,0.26397 -4.175782,0.707031 -1.797287,0.445346 -3.8571691,1.076202 -5.7167965,1.845703 -1.8596274,0.769501 -3.5161399,1.647027 -4.5546875,2.740235 -0.5192738,0.546604 -0.9037235,1.181757 -0.953125,1.914062 -0.049402,0.732305 0.2832118,1.470712 0.8886719,2.076172 a 0.75356501,0.75356501 0 0 0 1.0664062,0 0.75356501,0.75356501 0 0 0 0,-1.066406 C 3.1386632,70.072257 3.0650265,69.810664 3.0820312,69.558594 3.099036,69.306524 3.2536488,68.972927 3.625,68.582031 4.3677024,67.800239 5.8986899,66.927765 7.6640625,66.197266 9.4294351,65.466767 11.432053,64.847623 13.166016,64.417969 14.899979,63.988314 16.417459,63.753906 17,63.753906 a 0.75364037,0.75364037 0 0 0 0.134766,-0.01172 c 5.393237,-0.980589 9.256375,-0.496364 13.226562,0.248046 3.970187,0.744411 8.047331,1.763672 13.638672,1.763672 h 3 A 0.75356501,0.75356501 0 0 0 47.753906,65 0.75356501,0.75356501 0 0 0 47,64.246094 h -3 c -5.408659,0 -9.331515,-0.980739 -13.361328,-1.736328 -2.014906,-0.377795 -4.056075,-0.69535 -6.294922,-0.791016 z"
   style="color:#000000;font-style:normal;font-variant:normal;font-weight:normal;font-stretch:normal;font-size:medium;line-height:normal;font-family:sans-serif;font-variant-ligatures:normal;font-variant-position:normal;font-variant-caps:normal;font-variant-numeric:normal;font-variant-alternates:normal;font-variant-east-asian:normal;font-feature-settings:normal;font-variation-settings:normal;text-indent:0;text-align:start;text-decoration:none;text-decoration-line:none;text-decoration-style:solid;text-decoration-color:#000000;letter-spacing:normal;word-spacing:normal;text-transform:none;writing-mode:lr-tb;direction:ltr;text-orientation:mixed;dominant-baseline:auto;baseline-shift:baseline;text-anchor:start;white-space:normal;shape-padding:0;shape-margin:0;inline-size:0;clip-rule:nonzero;display:inline;overflow:visible;visibility:visible;opacity:1;isolation:auto;mix-blend-mode:normal;color-interpolation:sRGB;color-interpolation-filters:linearRGB;solid-color:#000000;solid-opacity:1;vector-effect:none;fill:#2b2a29;fill-opacity:1;fill-rule:nonzero;stroke:none;stroke-width:1.50713;stroke-linecap:round;stroke-linejoin:round;stroke-miterlimit:4;stroke-dasharray:none;stroke-dashoffset:0;stroke-opacity:1;color-rendering:auto;image-rendering:auto;shape-rendering:auto;text-rendering:auto;enable-background:accumulate;stop-color:#000000;stop-opacity:1" />
   <path
   id="path918"
   d="m 56,85.246094 c -0.438985,0 -0.683289,0.190873 -0.921875,0.375 -0.238586,0.184126 -0.462715,0.408079 -0.699219,0.669922 -0.473007,0.523686 -0.981892,1.19434 -1.488281,1.890625 -0.506389,0.696284 -1.007038,1.417238 -1.439453,2.019531 -0.432416,0.602293 -0.823184,1.104433 -0.984375,1.265625 a 0.75364037,0.75364037 0 0 0 -0.103516,0.128906 c -3.40798,5.355397 -8.790387,9.748827 -14.58789,11.560547 -5.797503,1.81172 -11.958489,1.11355 -17.267579,-3.712891 a 0.75356501,0.75356501 0 0 0 -1.064453,0.04883 0.75356501,0.75356501 0 0 0 0.04883,1.064451 c 5.69091,5.17356 12.529924,5.97539 18.732421,4.03711 6.202497,-1.93828 11.82009,-6.544849 15.41211,-12.189452 l -0.103516,0.128906 c 0.338809,-0.338808 0.698041,-0.836668 1.140625,-1.453125 0.442585,-0.616457 0.941936,-1.333003 1.435547,-2.011719 0.493611,-0.678715 0.984726,-1.320561 1.386719,-1.765625 C 55.69709,87.080202 55.879211,86.905717 56,86.8125 c 0.120789,-0.09322 0.188985,-0.05859 0,-0.05859 A 0.75356501,0.75356501 0 0 0 56.753906,86 0.75356501,0.75356501 0 0 0 56,85.246094 Z"
   style="color:#000000;font-style:normal;font-variant:normal;font-weight:normal;font-stretch:normal;font-size:medium;line-height:normal;font-family:sans-serif;font-variant-ligatures:normal;font-variant-position:normal;font-variant-caps:normal;font-variant-numeric:normal;font-variant-alternates:normal;font-variant-east-asian:normal;font-feature-settings:normal;font-variation-settings:normal;text-indent:0;text-align:start;text-decoration:none;text-decoration-line:none;text-decoration-style:solid;text-decoration-color:#000000;letter-spacing:normal;word-spacing:normal;text-transform:none;writing-mode:lr-tb;direction:ltr;text-orientation:mixed;dominant-baseline:auto;baseline-shift:baseline;text-anchor:start;white-space:normal;shape-padding:0;shape-margin:0;inline-size:0;clip-rule:nonzero;display:inline;overflow:visible;visibility:visible;opacity:1;isolation:auto;mix-blend-mode:normal;color-interpolation:sRGB;color-interpolation-filters:linearRGB;solid-color:#000000;solid-opacity:1;vector-effect:none;fill:#2b2a29;fill-opacity:1;fill-rule:nonzero;stroke:none;stroke-width:1.50713;stroke-linecap:round;stroke-linejoin:round;stroke-miterlimit:4;stroke-dasharray:none;stroke-dashoffset:0;stroke-opacity:1;color-rendering:auto;image-rendering:auto;shape-rendering:auto;text-rendering:auto;enable-background:accumulate;stop-color:#000000;stop-opacity:1" />
   <path
   id="path922"
   d="m 61.998047,88.246094 a 0.75356501,0.75356501 0 0 0 -0.363281,0.0957 c -4.81901,2.677227 -8.830781,9.323038 -10.494141,16.488286 -1.66336,7.16524 -0.926139,14.97702 4.355469,19.73047 a 0.75356501,0.75356501 0 0 0 1.064453,-0.0566 0.75356501,0.75356501 0 0 0 -0.05664,-1.06446 c -4.718392,-4.24655 -5.481171,-11.43477 -3.894531,-18.26953 1.58664,-6.834758 5.574869,-13.188947 9.755859,-15.51172 a 0.75356501,0.75356501 0 0 0 0.292969,-1.023437 0.75356501,0.75356501 0 0 0 -0.660156,-0.388672 z"
   style="color:#000000;font-style:normal;font-variant:normal;font-weight:normal;font-stretch:normal;font-size:medium;line-height:normal;font-family:sans-serif;font-variant-ligatures:normal;font-variant-position:normal;font-variant-caps:normal;font-variant-numeric:normal;font-variant-alternates:normal;font-variant-east-asian:normal;font-feature-settings:normal;font-variation-settings:normal;text-indent:0;text-align:start;text-decoration:none;text-decoration-line:none;text-decoration-style:solid;text-decoration-color:#000000;letter-spacing:normal;word-spacing:normal;text-transform:none;writing-mode:lr-tb;direction:ltr;text-orientation:mixed;dominant-baseline:auto;baseline-shift:baseline;text-anchor:start;white-space:normal;shape-padding:0;shape-margin:0;inline-size:0;clip-rule:nonzero;display:inline;overflow:visible;visibility:visible;opacity:1;isolation:auto;mix-blend-mode:normal;color-interpolation:sRGB;color-interpolation-filters:linearRGB;solid-color:#000000;solid-opacity:1;vector-effect:none;fill:#2b2a29;fill-opacity:1;fill-rule:nonzero;stroke:none;stroke-width:1.50713;stroke-linecap:round;stroke-linejoin:round;stroke-miterlimit:4;stroke-dasharray:none;stroke-dashoffset:0;stroke-opacity:1;color-rendering:auto;image-rendering:auto;shape-rendering:auto;text-rendering:auto;enable-background:accumulate;stop-color:#000000;stop-opacity:1" />
   <path
   id="path926"
   d="m 82.007812,90.246094 a 0.75356501,0.75356501 0 0 0 -0.541015,0.220703 0.75356501,0.75356501 0 0 0 0,1.066406 c 3.922292,3.922293 7.867743,9.598487 9.945312,15.708987 1.917548,5.63984 2.122615,11.58229 -0.484375,17.00781 a 0.75356501,0.75356501 0 0 0 -0.68164,0.75 v 1 a 0.75364037,0.75364037 0 0 0 1.404297,0.37891 c 3.631812,-6.22597 3.35993,-13.2316 1.1875,-19.6211 -2.172431,-6.3895 -6.22698,-12.213306 -10.304688,-16.291013 a 0.75356501,0.75356501 0 0 0 -0.525391,-0.220703 z"
   style="color:#000000;font-style:normal;font-variant:normal;font-weight:normal;font-stretch:normal;font-size:medium;line-height:normal;font-family:sans-serif;font-variant-ligatures:normal;font-variant-position:normal;font-variant-caps:normal;font-variant-numeric:normal;font-variant-alternates:normal;font-variant-east-asian:normal;font-feature-settings:normal;font-variation-settings:normal;text-indent:0;text-align:start;text-decoration:none;text-decoration-line:none;text-decoration-style:solid;text-decoration-color:#000000;letter-spacing:normal;word-spacing:normal;text-transform:none;writing-mode:lr-tb;direction:ltr;text-orientation:mixed;dominant-baseline:auto;baseline-shift:baseline;text-anchor:start;white-space:normal;shape-padding:0;shape-margin:0;inline-size:0;clip-rule:nonzero;display:inline;overflow:visible;visibility:visible;opacity:1;isolation:auto;mix-blend-mode:normal;color-interpolation:sRGB;color-interpolation-filters:linearRGB;solid-color:#000000;solid-opacity:1;vector-effect:none;fill:#2b2a29;fill-opacity:1;fill-rule:nonzero;stroke:none;stroke-width:1.50713;stroke-linecap:round;stroke-linejoin:round;stroke-miterlimit:4;stroke-dasharray:none;stroke-dashoffset:0;stroke-opacity:1;color-rendering:auto;image-rendering:auto;shape-rendering:auto;text-rendering:auto;enable-background:accumulate;stop-color:#000000;stop-opacity:1" />
   <path
   id="path930"
   d="m 90.96875,85.248047 a 0.75356501,0.75356501 0 0 0 -0.419922,0.148437 0.75356501,0.75356501 0 0 0 -0.152344,1.054688 c 7.568726,10.091633 15.156986,15.502778 21.509766,16.296878 3.17639,0.39705 6.05955,-0.41649 8.2832,-2.4043 2.22366,-1.98781 3.77956,-5.091883 4.55078,-9.205078 a 0.75356501,0.75356501 0 0 0 -0.60156,-0.878906 0.75356501,0.75356501 0 0 0 -0.8789,0.601562 c -0.72878,3.886805 -2.17288,6.657732 -4.07422,8.357422 -1.90135,1.69969 -4.26819,2.38615 -7.0918,2.0332 -5.64722,-0.7059 -13.05896,-5.794755 -20.490234,-15.703122 A 0.75356501,0.75356501 0 0 0 90.96875,85.248047 Z"
   style="color:#000000;font-style:normal;font-variant:normal;font-weight:normal;font-stretch:normal;font-size:medium;line-height:normal;font-family:sans-serif;font-variant-ligatures:normal;font-variant-position:normal;font-variant-caps:normal;font-variant-numeric:normal;font-variant-alternates:normal;font-variant-east-asian:normal;font-feature-settings:normal;font-variation-settings:normal;text-indent:0;text-align:start;text-decoration:none;text-decoration-line:none;text-decoration-style:solid;text-decoration-color:#000000;letter-spacing:normal;word-spacing:normal;text-transform:none;writing-mode:lr-tb;direction:ltr;text-orientation:mixed;dominant-baseline:auto;baseline-shift:baseline;text-anchor:start;white-space:normal;shape-padding:0;shape-margin:0;inline-size:0;clip-rule:nonzero;display:inline;overflow:visible;visibility:visible;opacity:1;isolation:auto;mix-blend-mode:normal;color-interpolation:sRGB;color-interpolation-filters:linearRGB;solid-color:#000000;solid-opacity:1;vector-effect:none;fill:#2b2a29;fill-opacity:1;fill-rule:nonzero;stroke:none;stroke-width:1.50713;stroke-linecap:round;stroke-linejoin:round;stroke-miterlimit:4;stroke-dasharray:none;stroke-dashoffset:0;stroke-opacity:1;color-rendering:auto;image-rendering:auto;shape-rendering:auto;text-rendering:auto;enable-background:accumulate;stop-color:#000000;stop-opacity:1" />
   <g
   style="opacity:1"
   id="g932"><path
     id="path934"
     d="M 79,91 C 92,89 99,72 95,58 92,50 86,43 70,42 34,42 40,96 79,91 Z"
     style="color:#000000;font-style:normal;font-variant:normal;font-weight:normal;font-stretch:normal;font-size:medium;line-height:normal;font-family:sans-serif;font-variant-ligatures:normal;font-variant-position:normal;font-variant-caps:normal;font-variant-numeric:normal;font-variant-alternates:normal;font-variant-east-asian:normal;font-feature-settings:normal;font-variation-settings:normal;text-indent:0;text-align:start;text-decoration:none;text-decoration-line:none;text-decoration-style:solid;text-decoration-color:#000000;letter-spacing:normal;word-spacing:normal;text-transform:none;writing-mode:lr-tb;direction:ltr;text-orientation:mixed;dominant-baseline:auto;baseline-shift:baseline;text-anchor:start;white-space:normal;shape-padding:0;shape-margin:0;inline-size:0;clip-rule:nonzero;display:inline;overflow:visible;visibility:visible;isolation:auto;mix-blend-mode:normal;color-interpolation:sRGB;color-interpolation-filters:linearRGB;solid-color:#000000;solid-opacity:1;vector-effect:none;fill:#f08143;fill-opacity:1;fill-rule:nonzero;stroke:none;stroke-width:1.50713;stroke-linecap:round;stroke-linejoin:round;stroke-miterlimit:4;stroke-dasharray:none;stroke-dashoffset:0;stroke-opacity:1;color-rendering:auto;image-rendering:auto;shape-rendering:auto;text-rendering:auto;enable-background:accumulate;stop-color:#000000;stop-opacity:1" /><path
     id="path936"
     d="m 70,41.246094 c -9.188391,0 -15.824598,3.481339 -19.859375,8.65039 -4.034777,5.169052 -5.47528,11.971434 -4.511719,18.587891 1.927124,13.232913 13.622565,25.807804 33.466797,23.263672 a 0.75364037,0.75364037 0 0 0 0.01953,-0.0039 c 6.79706,-1.045702 11.992268,-6.010024 14.945313,-12.429688 2.953045,-6.419664 3.718096,-14.332367 1.664062,-21.521484 a 0.75364037,0.75364037 0 0 0 -0.01953,-0.05664 C 94.172457,53.649338 91.83894,49.748195 87.824219,46.769531 83.809498,43.790867 78.150276,41.754509 70.046875,41.248047 A 0.75364037,0.75364037 0 0 0 70,41.246094 Z m -0.01563,1.509765 c 7.877971,0.497035 13.21148,2.457245 16.941406,5.22461 3.726144,2.764558 5.888266,6.353949 7.355469,10.255859 1.935698,6.803475 1.201222,14.377439 -1.591797,20.449219 -2.795071,6.076242 -7.596086,10.607932 -13.792969,11.566406 -19.15062,2.451387 -29.952775,-9.471039 -31.77539,-21.986328 -0.911439,-6.258543 0.460558,-12.643661 4.207031,-17.443359 3.74407,-4.79662 9.853751,-8.062216 18.65625,-8.066407 z"
     style="color:#000000;font-style:normal;font-variant:normal;font-weight:normal;font-stretch:normal;font-size:medium;line-height:normal;font-family:sans-serif;font-variant-ligatures:normal;font-variant-position:normal;font-variant-caps:normal;font-variant-numeric:normal;font-variant-alternates:normal;font-variant-east-asian:normal;font-feature-settings:normal;font-variation-settings:normal;text-indent:0;text-align:start;text-decoration:none;text-decoration-line:none;text-decoration-style:solid;text-decoration-color:#000000;letter-spacing:normal;word-spacing:normal;text-transform:none;writing-mode:lr-tb;direction:ltr;text-orientation:mixed;dominant-baseline:auto;baseline-shift:baseline;text-anchor:start;white-space:normal;shape-padding:0;shape-margin:0;inline-size:0;clip-rule:nonzero;display:inline;overflow:visible;visibility:visible;isolation:auto;mix-blend-mode:normal;color-interpolation:sRGB;color-interpolation-filters:linearRGB;solid-color:#000000;solid-opacity:1;vector-effect:none;fill:#2b2a29;fill-opacity:1;fill-rule:nonzero;stroke:none;stroke-width:1.50713;stroke-linecap:round;stroke-linejoin:round;stroke-miterlimit:4;stroke-dasharray:none;stroke-dashoffset:0;stroke-opacity:1;color-rendering:auto;image-rendering:auto;shape-rendering:auto;text-rendering:auto;enable-background:accumulate;stop-color:#000000;stop-opacity:1" /></g>
   <path
   id="path940"
   d="m 26.84375,33.847656 c -1.870728,0.275686 -3.0029,1.962638 -3.216797,3.816406 -0.213896,1.853769 0.383322,3.995338 1.935547,5.634766 1.545765,1.632606 4.051119,2.700851 7.458984,2.449219 0.741761,-0.0091 1.403659,-0.447409 1.751954,-1.035156 0.351925,-0.593874 0.480468,-1.30905 0.480468,-2.087891 0,-1.557682 -0.541209,-3.414353 -1.626953,-5.042969 a 0.75364037,0.75364037 0 0 0 -0.07031,-0.08984 C 30.971392,34.648414 28.714478,33.57197 26.84375,33.847656 Z m 0.21875,1.492188 c 1.090288,-0.160674 2.945872,0.521023 5.335938,3.130859 0.89216,1.361114 1.347656,2.976508 1.347656,4.154297 0,0.596159 -0.121457,1.068483 -0.269532,1.318359 C 33.328488,44.193236 33.248812,44.246094 33,44.246094 a 0.75364037,0.75364037 0 0 0 -0.05859,0.002 c -3.07027,0.236127 -5.056135,-0.686351 -6.28516,-1.984422 -1.229025,-1.298072 -1.694307,-3.031503 -1.533203,-4.427734 0.161103,-1.396232 0.841431,-2.33428 1.939453,-2.496094 z"
   style="color:#000000;font-style:normal;font-variant:normal;font-weight:normal;font-stretch:normal;font-size:medium;line-height:normal;font-family:sans-serif;font-variant-ligatures:normal;font-variant-position:normal;font-variant-caps:normal;font-variant-numeric:normal;font-variant-alternates:normal;font-variant-east-asian:normal;font-feature-settings:normal;font-variation-settings:normal;text-indent:0;text-align:start;text-decoration:none;text-decoration-line:none;text-decoration-style:solid;text-decoration-color:#000000;letter-spacing:normal;word-spacing:normal;text-transform:none;writing-mode:lr-tb;direction:ltr;text-orientation:mixed;dominant-baseline:auto;baseline-shift:baseline;text-anchor:start;white-space:normal;shape-padding:0;shape-margin:0;inline-size:0;clip-rule:nonzero;display:inline;overflow:visible;visibility:visible;opacity:1;isolation:auto;mix-blend-mode:normal;color-interpolation:sRGB;color-interpolation-filters:linearRGB;solid-color:#000000;solid-opacity:1;vector-effect:none;fill:#2b2a29;fill-opacity:1;fill-rule:nonzero;stroke:none;stroke-width:1.50713;stroke-linecap:round;stroke-linejoin:round;stroke-miterlimit:4;stroke-dasharray:none;stroke-dashoffset:0;stroke-opacity:1;color-rendering:auto;image-rendering:auto;shape-rendering:auto;text-rendering:auto;enable-background:accumulate;stop-color:#000000;stop-opacity:1" />
   <path
   id="path944"
   d="m 21,65.246094 a 0.75364037,0.75364037 0 0 0 -0.201172,0.02734 c -2.29837,0.638436 -3.911616,1.327177 -5.015625,2.076171 -1.104009,0.748994 -1.747014,1.616091 -1.816406,2.564453 -0.06939,0.948363 0.455558,1.772272 1.160156,2.384766 0.704598,0.612494 1.625776,1.079686 2.634766,1.416016 2.017979,0.672659 4.385455,0.871392 6.113281,-0.01172 0.863913,-0.441555 1.558655,-1.247488 1.724609,-2.308594 0.165955,-1.061105 -0.139808,-2.293425 -0.9375,-3.755859 L 24.753906,68 c 0,-0.501188 -0.235106,-0.909348 -0.511718,-1.228516 -0.276613,-0.319167 -0.615336,-0.57506 -0.978516,-0.792968 C 22.537311,65.542699 21.751188,65.246094 21,65.246094 Z m 0.07227,1.533203 c 0.278375,0.01863 0.915907,0.193294 1.414062,0.492187 0.26182,0.157092 0.485597,0.338699 0.615234,0.488282 C 23.2312,67.909348 23.246094,68.001188 23.246094,68 a 0.75364037,0.75364037 0 0 0 0.0918,0.361328 c 0.702308,1.287566 0.865295,2.211496 0.773437,2.798828 -0.09186,0.587332 -0.381491,0.922024 -0.923828,1.199219 -1.084674,0.554389 -3.217198,0.503122 -4.949219,-0.07422 -0.86601,-0.28867 -1.632332,-0.696478 -2.123047,-1.123047 -0.490714,-0.426568 -0.668888,-0.805784 -0.644531,-1.138671 0.02436,-0.332888 0.271978,-0.825166 1.160156,-1.427735 0.863127,-0.585572 2.341242,-1.219729 4.441407,-1.816406 z"
   style="color:#000000;font-style:normal;font-variant:normal;font-weight:normal;font-stretch:normal;font-size:medium;line-height:normal;font-family:sans-serif;font-variant-ligatures:normal;font-variant-position:normal;font-variant-caps:normal;font-variant-numeric:normal;font-variant-alternates:normal;font-variant-east-asian:normal;font-feature-settings:normal;font-variation-settings:normal;text-indent:0;text-align:start;text-decoration:none;text-decoration-line:none;text-decoration-style:solid;text-decoration-color:#000000;letter-spacing:normal;word-spacing:normal;text-transform:none;writing-mode:lr-tb;direction:ltr;text-orientation:mixed;dominant-baseline:auto;baseline-shift:baseline;text-anchor:start;white-space:normal;shape-padding:0;shape-margin:0;inline-size:0;clip-rule:nonzero;display:inline;overflow:visible;visibility:visible;opacity:1;isolation:auto;mix-blend-mode:normal;color-interpolation:sRGB;color-interpolation-filters:linearRGB;solid-color:#000000;solid-opacity:1;vector-effect:none;fill:#2b2a29;fill-opacity:1;fill-rule:nonzero;stroke:none;stroke-width:1.50713;stroke-linecap:round;stroke-linejoin:round;stroke-miterlimit:4;stroke-dasharray:none;stroke-dashoffset:0;stroke-opacity:1;color-rendering:auto;image-rendering:auto;shape-rendering:auto;text-rendering:auto;enable-background:accumulate;stop-color:#000000;stop-opacity:1" />
   <path
   id="path948"
   d="m 40.007812,89.246094 a 0.75364037,0.75364037 0 0 0 -0.03906,0.002 c -3.047302,0.126971 -5.311315,0.503091 -6.974609,1.064453 -1.663295,0.561362 -2.75704,1.312877 -3.328125,2.271484 -0.571085,0.958607 -0.502393,2.078126 -0.04297,2.992188 0.459424,0.914062 1.257935,1.690927 2.21875,2.308594 1.921629,1.235332 4.552195,1.886617 6.759765,0.966796 1.103786,-0.45991 2.0668,-1.351437 2.636719,-2.673828 0.56992,-1.322391 0.770409,-3.050161 0.509766,-5.265625 a 0.75364037,0.75364037 0 0 0 -0.214844,-0.445312 l -1,-1 a 0.75364037,0.75364037 0 0 0 -0.525391,-0.220703 z m -0.277343,1.550781 0.52539,0.525391 c 0.191276,1.895444 0.01056,3.304273 -0.40039,4.257812 -0.430081,0.997922 -1.060817,1.55952 -1.832031,1.88086 -1.54243,0.642679 -3.786864,0.168964 -5.365235,-0.845704 -0.789185,-0.507333 -1.396924,-1.136718 -1.6875,-1.714843 -0.290576,-0.578126 -0.315634,-1.036732 -0.01172,-1.546875 0.303915,-0.510143 1.05392,-1.118003 2.515625,-1.611328 1.394667,-0.470701 3.509302,-0.806387 6.255861,-0.945313 z"
   style="color:#000000;font-style:normal;font-variant:normal;font-weight:normal;font-stretch:normal;font-size:medium;line-height:normal;font-family:sans-serif;font-variant-ligatures:normal;font-variant-position:normal;font-variant-caps:normal;font-variant-numeric:normal;font-variant-alternates:normal;font-variant-east-asian:normal;font-feature-settings:normal;font-variation-settings:normal;text-indent:0;text-align:start;text-decoration:none;text-decoration-line:none;text-decoration-style:solid;text-decoration-color:#000000;letter-spacing:normal;word-spacing:normal;text-transform:none;writing-mode:lr-tb;direction:ltr;text-orientation:mixed;dominant-baseline:auto;baseline-shift:baseline;text-anchor:start;white-space:normal;shape-padding:0;shape-margin:0;inline-size:0;clip-rule:nonzero;display:inline;overflow:visible;visibility:visible;opacity:1;isolation:auto;mix-blend-mode:normal;color-interpolation:sRGB;color-interpolation-filters:linearRGB;solid-color:#000000;solid-opacity:1;vector-effect:none;fill:#2b2a29;fill-opacity:1;fill-rule:nonzero;stroke:none;stroke-width:1.50713;stroke-linecap:round;stroke-linejoin:round;stroke-miterlimit:4;stroke-dasharray:none;stroke-dashoffset:0;stroke-opacity:1;color-rendering:auto;image-rendering:auto;shape-rendering:auto;text-rendering:auto;enable-background:accumulate;stop-color:#000000;stop-opacity:1" />
   <path
   id="path952"
   d="m 62.367188,98.050781 c -0.327546,0.02127 -0.664381,0.180005 -0.900391,0.416016 l 0.134765,-0.105469 c -4.116077,2.572552 -6.152776,5.406692 -6.757812,7.982422 -0.605036,2.57573 0.253975,4.86027 1.806641,6.11719 1.552665,1.25692 3.864004,1.41648 5.6875,-0.082 1.823495,-1.49852 3.157589,-4.46685 3.414062,-9.33985 a 0.75364037,0.75364037 0 0 0 0.002,-0.0391 c 0,-1.25119 -0.553814,-2.56596 -1.265625,-3.5625 -0.355905,-0.498268 -0.745714,-0.920467 -1.248047,-1.183594 -0.251166,-0.131563 -0.545501,-0.224394 -0.873046,-0.203125 z m 0.126953,1.517578 c 0.0084,0.0019 -4.27e-4,-0.0033 0.04687,0.02148 0.153917,0.08062 0.451608,0.345924 0.720703,0.722661 0.536212,0.75069 0.977205,1.92848 0.980469,2.67772 -0.248487,4.60331 -1.532163,7.13233 -2.861329,8.22461 -1.332754,1.09524 -2.708915,0.9423 -3.78125,0.0742 -1.072334,-0.86808 -1.775823,-2.52103 -1.287109,-4.60156 0.488714,-2.08051 2.202015,-4.62138 6.085938,-7.048823 a 0.75364037,0.75364037 0 0 0 0.0957,-0.07031 z"
   style="color:#000000;font-style:normal;font-variant:normal;font-weight:normal;font-stretch:normal;font-size:medium;line-height:normal;font-family:sans-serif;font-variant-ligatures:normal;font-variant-position:normal;font-variant-caps:normal;font-variant-numeric:normal;font-variant-alternates:normal;font-variant-east-asian:normal;font-feature-settings:normal;font-variation-settings:normal;text-indent:0;text-align:start;text-decoration:none;text-decoration-line:none;text-decoration-style:solid;text-decoration-color:#000000;letter-spacing:normal;word-spacing:normal;text-transform:none;writing-mode:lr-tb;direction:ltr;text-orientation:mixed;dominant-baseline:auto;baseline-shift:baseline;text-anchor:start;white-space:normal;shape-padding:0;shape-margin:0;inline-size:0;clip-rule:nonzero;display:inline;overflow:visible;visibility:visible;opacity:1;isolation:auto;mix-blend-mode:normal;color-interpolation:sRGB;color-interpolation-filters:linearRGB;solid-color:#000000;solid-opacity:1;vector-effect:none;fill:#2b2a29;fill-opacity:1;fill-rule:nonzero;stroke:none;stroke-width:1.50713;stroke-linecap:round;stroke-linejoin:round;stroke-miterlimit:4;stroke-dasharray:none;stroke-dashoffset:0;stroke-opacity:1;color-rendering:auto;image-rendering:auto;shape-rendering:auto;text-rendering:auto;enable-background:accumulate;stop-color:#000000;stop-opacity:1" />
   <path
   id="path956"
   d="m 82.861328,101.23242 c -0.693311,0.25999 -1.217755,0.79489 -1.535156,1.42969 -0.372817,0.74563 -0.451233,1.63908 -0.390625,2.57227 -0.973946,3.31067 -1.127747,5.63148 -0.201172,6.91015 0.539295,0.74423 1.421184,1.07551 2.257813,1.02735 0.836628,-0.0482 1.6613,-0.3986 2.43164,-0.92383 1.54068,-1.05047 2.903502,-2.83249 3.226563,-4.89649 0.32306,-2.064 -0.5685,-4.38211 -3.261719,-5.99804 a 0.75364037,0.75364037 0 0 0 -0.150391,-0.0684 c -0.869149,-0.28972 -1.683642,-0.31273 -2.376953,-0.0527 z m 0.527344,1.41016 c 0.287501,-0.10781 0.718501,-0.10187 1.287109,0.0684 2.220794,1.36881 2.72227,2.89884 2.486328,4.40625 -0.239439,1.52975 -1.376617,3.06023 -2.585937,3.88476 -0.60466,0.41227 -1.217488,0.63997 -1.669922,0.66602 -0.452434,0.026 -0.71117,-0.0724 -0.953125,-0.40625 -0.308282,-0.42543 -0.320759,-1.74112 -0.04883,-3.51563 a 0.75356501,0.75356501 0 0 0 0.333984,-0.0312 0.75356501,0.75356501 0 0 0 0.476563,-0.95312 c -0.170152,-0.51046 -0.207479,-0.99123 -0.246094,-1.46484 0.12138,-0.40608 0.08257,-0.59464 0.242188,-1.04688 a 0.75356501,0.75356501 0 0 0 -0.08398,-0.66602 c 0.02589,-0.0689 0.01646,-0.18525 0.04687,-0.24609 0.182599,-0.3652 0.408155,-0.5803 0.714844,-0.69531 z"
   style="color:#000000;font-style:normal;font-variant:normal;font-weight:normal;font-stretch:normal;font-size:medium;line-height:normal;font-family:sans-serif;font-variant-ligatures:normal;font-variant-position:normal;font-variant-caps:normal;font-variant-numeric:normal;font-variant-alternates:normal;font-variant-east-asian:normal;font-feature-settings:normal;font-variation-settings:normal;text-indent:0;text-align:start;text-decoration:none;text-decoration-line:none;text-decoration-style:solid;text-decoration-color:#000000;letter-spacing:normal;word-spacing:normal;text-transform:none;writing-mode:lr-tb;direction:ltr;text-orientation:mixed;dominant-baseline:auto;baseline-shift:baseline;text-anchor:start;white-space:normal;shape-padding:0;shape-margin:0;inline-size:0;clip-rule:nonzero;display:inline;overflow:visible;visibility:visible;opacity:1;isolation:auto;mix-blend-mode:normal;color-interpolation:sRGB;color-interpolation-filters:linearRGB;solid-color:#000000;solid-opacity:1;vector-effect:none;fill:#2b2a29;fill-opacity:1;fill-rule:nonzero;stroke:none;stroke-width:1.50713;stroke-linecap:round;stroke-linejoin:round;stroke-miterlimit:4;stroke-dasharray:none;stroke-dashoffset:0;stroke-opacity:1;color-rendering:auto;image-rendering:auto;shape-rendering:auto;text-rendering:auto;enable-background:accumulate;stop-color:#000000;stop-opacity:1" />
   <path
   id="path960"
   d="m 104.91797,85.472656 c -1.72585,0.07243 -2.89435,0.410688 -3.58203,1.205078 -0.34384,0.397196 -0.51285,0.914078 -0.50196,1.40625 0.0109,0.492173 0.17273,0.958322 0.41407,1.402344 0.48268,0.888044 1.29813,1.723622 2.29297,2.486328 1.98966,1.525413 4.68602,2.761206 7.08007,2.671875 1.19703,-0.04466 2.36466,-0.474137 3.14258,-1.445312 0.77145,-0.963096 1.11078,-2.366003 0.98633,-4.210938 -0.004,-0.494385 -0.22824,-0.885397 -0.47461,-1.193359 -0.24873,-0.31092 -0.54207,-0.561824 -0.82422,-0.773438 -0.5643,-0.423228 -1.11328,-0.695312 -1.11328,-0.695312 a 0.75364037,0.75364037 0 0 0 -0.18945,-0.06445 c -3.16148,-0.632295 -5.50463,-0.86149 -7.23047,-0.789063 z m 0.0625,1.503906 c 1.50845,-0.0633 3.7498,0.15413 6.76562,0.75 0.0733,0.03794 0.40835,0.206164 0.80274,0.501954 0.21785,0.163386 0.42451,0.349982 0.55078,0.507812 0.12626,0.157831 0.14648,0.26486 0.14648,0.263672 a 0.75364037,0.75364037 0 0 0 0.002,0.05273 c 0.11657,1.632038 -0.19589,2.625472 -0.66016,3.205078 -0.46427,0.579607 -1.12476,0.845447 -2.02148,0.878907 -1.79345,0.06692 -4.34709,-1.009788 -6.10743,-2.359375 -0.88016,-0.674794 -1.56471,-1.417341 -1.88671,-2.009766 -0.16101,-0.296212 -0.22867,-0.547348 -0.23243,-0.716797 -0.004,-0.169448 0.0274,-0.258523 0.13672,-0.384765 0.21857,-0.252485 0.97194,-0.625162 2.50391,-0.689454 z"
   style="color:#000000;font-style:normal;font-variant:normal;font-weight:normal;font-stretch:normal;font-size:medium;line-height:normal;font-family:sans-serif;font-variant-ligatures:normal;font-variant-position:normal;font-variant-caps:normal;font-variant-numeric:normal;font-variant-alternates:normal;font-variant-east-asian:normal;font-feature-settings:normal;font-variation-settings:normal;text-indent:0;text-align:start;text-decoration:none;text-decoration-line:none;text-decoration-style:solid;text-decoration-color:#000000;letter-spacing:normal;word-spacing:normal;text-transform:none;writing-mode:lr-tb;direction:ltr;text-orientation:mixed;dominant-baseline:auto;baseline-shift:baseline;text-anchor:start;white-space:normal;shape-padding:0;shape-margin:0;inline-size:0;clip-rule:nonzero;display:inline;overflow:visible;visibility:visible;opacity:1;isolation:auto;mix-blend-mode:normal;color-interpolation:sRGB;color-interpolation-filters:linearRGB;solid-color:#000000;solid-opacity:1;vector-effect:none;fill:#2b2a29;fill-opacity:1;fill-rule:nonzero;stroke:none;stroke-width:1.50713;stroke-linecap:round;stroke-linejoin:round;stroke-miterlimit:4;stroke-dasharray:none;stroke-dashoffset:0;stroke-opacity:1;color-rendering:auto;image-rendering:auto;shape-rendering:auto;text-rendering:auto;enable-background:accumulate;stop-color:#000000;stop-opacity:1" />
   <path
   id="path964"
   d="m 114.31055,61.777344 c -2.64227,-0.218021 -4.59727,0.350481 -5.90625,1.40039 -1.74531,1.39988 -2.20688,3.597177 -1.6211,5.427735 0.58578,1.830557 2.25486,3.35517 4.5625,3.445312 2.30285,0.08996 5.10917,-1.191645 8.19141,-4.523437 0.58512,-0.587244 0.91473,-1.233303 0.88867,-1.884766 -0.0261,-0.653641 -0.38403,-1.167234 -0.76758,-1.550781 -0.76709,-0.767094 -1.80261,-1.302617 -2.125,-1.625 a 0.75364037,0.75364037 0 0 0 -0.34961,-0.197266 c -1.03494,-0.258735 -1.99229,-0.419514 -2.87304,-0.492187 z m -2.20508,1.52539 c 1.20132,-0.147128 2.73587,-0.0374 4.60742,0.417969 0.64884,0.55839 1.45185,1.010443 1.87891,1.4375 0.24145,0.241453 0.32106,0.41536 0.32617,0.542969 0.005,0.127609 -0.04,0.354433 -0.45117,0.765625 a 0.75364037,0.75364037 0 0 0 -0.0215,0.02148 c -2.91018,3.152701 -5.34865,4.120796 -7.04101,4.054688 -1.69236,-0.06611 -2.77328,-1.103995 -3.1875,-2.398438 -0.41422,-1.294442 -0.12579,-2.784645 1.1289,-3.791015 0.62735,-0.503186 1.53145,-0.900346 2.75977,-1.050782 z"
   style="color:#000000;font-style:normal;font-variant:normal;font-weight:normal;font-stretch:normal;font-size:medium;line-height:normal;font-family:sans-serif;font-variant-ligatures:normal;font-variant-position:normal;font-variant-caps:normal;font-variant-numeric:normal;font-variant-alternates:normal;font-variant-east-asian:normal;font-feature-settings:normal;font-variation-settings:normal;text-indent:0;text-align:start;text-decoration:none;text-decoration-line:none;text-decoration-style:solid;text-decoration-color:#000000;letter-spacing:normal;word-spacing:normal;text-transform:none;writing-mode:lr-tb;direction:ltr;text-orientation:mixed;dominant-baseline:auto;baseline-shift:baseline;text-anchor:start;white-space:normal;shape-padding:0;shape-margin:0;inline-size:0;clip-rule:nonzero;display:inline;overflow:visible;visibility:visible;opacity:1;isolation:auto;mix-blend-mode:normal;color-interpolation:sRGB;color-interpolation-filters:linearRGB;solid-color:#000000;solid-opacity:1;vector-effect:none;fill:#2b2a29;fill-opacity:1;fill-rule:nonzero;stroke:none;stroke-width:1.50713;stroke-linecap:round;stroke-linejoin:round;stroke-miterlimit:4;stroke-dasharray:none;stroke-dashoffset:0;stroke-opacity:1;color-rendering:auto;image-rendering:auto;shape-rendering:auto;text-rendering:auto;enable-background:accumulate;stop-color:#000000;stop-opacity:1" />
   <path
   id="path968"
   d="m 106.23438,39.787109 c -0.86976,-0.06588 -1.6351,-0.04126 -2.3086,0.06445 -1.347,0.211423 -2.35451,0.774523 -2.94531,1.59961 -0.5908,0.825087 -0.7249,1.844214 -0.56445,2.818359 0.16044,0.974145 0.60231,1.933336 1.22265,2.794922 1.24069,1.723173 3.23427,3.115075 5.4375,2.984375 2.20323,-0.1307 4.33545,-1.900887 5.63867,-5.810547 0.26192,-0.785744 0.41407,-1.401929 0.41407,-1.972656 0,-0.570727 -0.23483,-1.161956 -0.67774,-1.494141 -0.44291,-0.332184 -0.94775,-0.422287 -1.50586,-0.474609 -0.54017,-0.05064 -1.16389,-0.04891 -1.88281,-0.04883 -1.04473,-0.240616 -1.99075,-0.397509 -2.82812,-0.460938 z m -2.07422,1.552735 c 1.06706,-0.167484 2.6059,-0.09066 4.66796,0.394531 A 0.75364037,0.75364037 0 0 0 109,41.753906 c 0.75,0 1.36279,0.0015 1.80469,0.04297 0.44189,0.04143 0.68705,0.138825 0.74414,0.181641 0.0571,0.04282 0.0723,0.01409 0.0723,0.287109 0,0.273023 -0.0978,0.781838 -0.33593,1.496094 -1.19678,3.59034 -2.81456,4.695153 -4.29883,4.783203 -1.48427,0.08805 -3.11569,-0.957548 -4.125,-2.359375 -0.50466,-0.700914 -0.84404,-1.476098 -0.95703,-2.162109 -0.11299,-0.686012 -0.0127,-1.252822 0.30273,-1.69336 0.31545,-0.440538 0.88607,-0.822751 1.95313,-0.990234 z"
   style="color:#000000;font-style:normal;font-variant:normal;font-weight:normal;font-stretch:normal;font-size:medium;line-height:normal;font-family:sans-serif;font-variant-ligatures:normal;font-variant-position:normal;font-variant-caps:normal;font-variant-numeric:normal;font-variant-alternates:normal;font-variant-east-asian:normal;font-feature-settings:normal;font-variation-settings:normal;text-indent:0;text-align:start;text-decoration:none;text-decoration-line:none;text-decoration-style:solid;text-decoration-color:#000000;letter-spacing:normal;word-spacing:normal;text-transform:none;writing-mode:lr-tb;direction:ltr;text-orientation:mixed;dominant-baseline:auto;baseline-shift:baseline;text-anchor:start;white-space:normal;shape-padding:0;shape-margin:0;inline-size:0;clip-rule:nonzero;display:inline;overflow:visible;visibility:visible;opacity:1;isolation:auto;mix-blend-mode:normal;color-interpolation:sRGB;color-interpolation-filters:linearRGB;solid-color:#000000;solid-opacity:1;vector-effect:none;fill:#2b2a29;fill-opacity:1;fill-rule:nonzero;stroke:none;stroke-width:1.50713;stroke-linecap:round;stroke-linejoin:round;stroke-miterlimit:4;stroke-dasharray:none;stroke-dashoffset:0;stroke-opacity:1;color-rendering:auto;image-rendering:auto;shape-rendering:auto;text-rendering:auto;enable-background:accumulate;stop-color:#000000;stop-opacity:1" />
   <path
   id="path972"
   d="m 88,23.246094 c -2.989771,0 -5.002027,1.513747 -5.984375,3.443359 -0.982348,1.929612 -1.045824,4.212888 -0.486328,6.03125 0.279748,0.909181 0.718234,1.714793 1.357422,2.289063 0.639187,0.57427 1.533074,0.885058 2.451172,0.697265 1.836195,-0.375585 3.561455,-2.312623 5.351562,-6.404297 A 0.75364037,0.75364037 0 0 0 90.753906,29 c 0,0 0.0081,-1.015903 -0.134765,-1.873047 -0.03571,-0.214286 -0.081,-0.42173 -0.154297,-0.626953 -0.07329,-0.205223 -0.141205,-0.43984 -0.46875,-0.658203 -0.163773,-0.109182 -0.421536,-0.179139 -0.646485,-0.144531 -0.224949,0.03461 -0.390115,0.139629 -0.509765,0.242187 -0.239302,0.205116 -0.366205,0.427722 -0.513672,0.722656 a 0.75356501,0.75356501 0 0 0 0.335937,1.011719 0.75356501,0.75356501 0 0 0 0.494141,0.0625 c 0.04515,0.489151 0.07636,0.962313 0.07813,1.091797 -1.681016,3.770896 -3.297807,5.218364 -4.197266,5.402344 -0.456902,0.09346 -0.781765,-0.01763 -1.142578,-0.341797 -0.360812,-0.324168 -0.703576,-0.893556 -0.923828,-1.609375 -0.440504,-1.431638 -0.37898,-3.398362 0.388672,-4.90625 C 84.127027,25.865159 85.489771,24.753906 88,24.753906 A 0.75356501,0.75356501 0 0 0 88.753906,24 0.75356501,0.75356501 0 0 0 88,23.246094 Z"
   style="color:#000000;font-style:normal;font-variant:normal;font-weight:normal;font-stretch:normal;font-size:medium;line-height:normal;font-family:sans-serif;font-variant-ligatures:normal;font-variant-position:normal;font-variant-caps:normal;font-variant-numeric:normal;font-variant-alternates:normal;font-variant-east-asian:normal;font-feature-settings:normal;font-variation-settings:normal;text-indent:0;text-align:start;text-decoration:none;text-decoration-line:none;text-decoration-style:solid;text-decoration-color:#000000;letter-spacing:normal;word-spacing:normal;text-transform:none;writing-mode:lr-tb;direction:ltr;text-orientation:mixed;dominant-baseline:auto;baseline-shift:baseline;text-anchor:start;white-space:normal;shape-padding:0;shape-margin:0;inline-size:0;clip-rule:nonzero;display:inline;overflow:visible;visibility:visible;opacity:1;isolation:auto;mix-blend-mode:normal;color-interpolation:sRGB;color-interpolation-filters:linearRGB;solid-color:#000000;solid-opacity:1;vector-effect:none;fill:#2b2a29;fill-opacity:1;fill-rule:nonzero;stroke:none;stroke-width:1.50713;stroke-linecap:round;stroke-linejoin:round;stroke-miterlimit:4;stroke-dasharray:none;stroke-dashoffset:0;stroke-opacity:1;color-rendering:auto;image-rendering:auto;shape-rendering:auto;text-rendering:auto;enable-background:accumulate;stop-color:#000000;stop-opacity:1" />
   <path
   id="path976"
   d="m 55.875,22.246094 c -0.724572,0 -1.417357,0.433812 -1.986328,1.167968 -0.06039,0.07793 -0.110603,0.269876 -0.169922,0.355469 a 0.75356501,0.75356501 0 0 0 -0.255859,-0.365234 0.75356501,0.75356501 0 0 0 -1.058594,0.132812 c -1.841343,2.367441 -2.385436,4.529821 -2.033203,6.253907 0.352232,1.724086 1.608168,2.929781 3.0625,3.3125 1.454332,0.382719 3.138715,-0.06957 4.236328,-1.464844 1.097613,-1.395271 1.59654,-3.627789 1.074219,-6.761719 a 0.75364037,0.75364037 0 0 0 -0.07031,-0.214844 C 58.401361,24.117175 58.062951,23.562546 57.623047,23.103516 57.183143,22.644485 56.599572,22.246094 55.875,22.246094 Z m 0,1.507812 c 0.150428,0 0.379357,0.101609 0.658203,0.392578 0.254993,0.26608 0.507896,0.676304 0.724609,1.089844 0.439061,2.785056 -0.03738,4.535568 -0.771484,5.46875 -0.746137,0.948479 -1.749254,1.183687 -2.669922,0.941406 -0.920668,-0.242281 -1.727232,-0.974086 -1.96875,-2.15625 -0.139592,-0.683269 0.01976,-1.589183 0.408203,-2.605468 a 0.75356501,0.75356501 0 0 0 0.50586,0.830078 0.75356501,0.75356501 0 0 0 0.953125,-0.476563 c 0.484113,-1.45234 0.965455,-2.3865 1.365234,-2.902343 0.399779,-0.515844 0.644494,-0.582032 0.794922,-0.582032 z"
   style="color:#000000;font-style:normal;font-variant:normal;font-weight:normal;font-stretch:normal;font-size:medium;line-height:normal;font-family:sans-serif;font-variant-ligatures:normal;font-variant-position:normal;font-variant-caps:normal;font-variant-numeric:normal;font-variant-alternates:normal;font-variant-east-asian:normal;font-feature-settings:normal;font-variation-settings:normal;text-indent:0;text-align:start;text-decoration:none;text-decoration-line:none;text-decoration-style:solid;text-decoration-color:#000000;letter-spacing:normal;word-spacing:normal;text-transform:none;writing-mode:lr-tb;direction:ltr;text-orientation:mixed;dominant-baseline:auto;baseline-shift:baseline;text-anchor:start;white-space:normal;shape-padding:0;shape-margin:0;inline-size:0;clip-rule:nonzero;display:inline;overflow:visible;visibility:visible;opacity:1;isolation:auto;mix-blend-mode:normal;color-interpolation:sRGB;color-interpolation-filters:linearRGB;solid-color:#000000;solid-opacity:1;vector-effect:none;fill:#2b2a29;fill-opacity:1;fill-rule:nonzero;stroke:none;stroke-width:1.50713;stroke-linecap:round;stroke-linejoin:round;stroke-miterlimit:4;stroke-dasharray:none;stroke-dashoffset:0;stroke-opacity:1;color-rendering:auto;image-rendering:auto;shape-rendering:auto;text-rendering:auto;enable-background:accumulate;stop-color:#000000;stop-opacity:1" />
   
   
  </g>
 </g><path
     style="clip-rule:evenodd;fill:#d36120;fill-rule:evenodd;stroke-width:1;image-rendering:optimizeQuality;shape-rendering:geometricPrecision;text-rendering:geometricPrecision"
     class="fil2"
     d="m 84.000002,48.000001 c 3,11 1,18 -2,23 -7,13 -24.000001,13 -23.000001,14 5,2 10.000001,4 15.000001,4 7,0 14,-4 19,-15 1,-3 1,-11 -1,-16 -2,-7 -8,-10 -8,-10 z"
     id="path51" /><path
     style="clip-rule:evenodd;fill:#f7aa47;fill-rule:evenodd;stroke-width:1;image-rendering:optimizeQuality;shape-rendering:geometricPrecision;text-rendering:geometricPrecision"
     class="fil3"
     d="m 51.000001,64.000001 c -2,-10 8,-18 18.000001,-18 -3.000001,0 -17.000001,24 -18.000001,18 z"
     id="path53" /></g></svg>
