<?xml version="1.0" encoding="UTF-8" standalone="no"?>
<svg
   xmlns:dc="http://purl.org/dc/elements/1.1/"
   xmlns:cc="http://creativecommons.org/ns#"
   xmlns:rdf="http://www.w3.org/1999/02/22-rdf-syntax-ns#"
   xmlns:svg="http://www.w3.org/2000/svg"
   xmlns="http://www.w3.org/2000/svg"
   xmlns:sodipodi="http://sodipodi.sourceforge.net/DTD/sodipodi-0.dtd"
   xmlns:inkscape="http://www.inkscape.org/namespaces/inkscape"
   inkscape:version="1.0 (4035a4fb49, 2020-05-01)"
   sodipodi:docname="2020-DE-07-red.svg"
   id="svg21"
   viewBox="0 0 131.19875 119.03203"
   style="clip-rule:evenodd;fill-rule:evenodd;image-rendering:optimizeQuality;shape-rendering:geometricPrecision;text-rendering:geometricPrecision"
   version="1.1"
   height="60.098095"
   width="66.350159"
   xml:space="preserve"><metadata
   id="metadata25"><rdf:RDF><cc:Work
       rdf:about=""><dc:format>image/svg+xml</dc:format><dc:type
         rdf:resource="http://purl.org/dc/dcmitype/StillImage" /><dc:title /></cc:Work></rdf:RDF></metadata><sodipodi:namedview
   inkscape:current-layer="svg21"
   inkscape:window-maximized="1"
   inkscape:window-y="-8"
   inkscape:window-x="-8"
   inkscape:cy="-10.734464"
   inkscape:cx="-18.873587"
   inkscape:zoom="2.3034214"
   units="px"
   fit-margin-bottom="0.5"
   fit-margin-right="0.5"
   fit-margin-left="0.5"
   lock-margins="true"
   fit-margin-top="0.5"
   showgrid="false"
   id="namedview23"
   inkscape:window-height="972"
   inkscape:window-width="1280"
   inkscape:pageshadow="2"
   inkscape:pageopacity="0"
   guidetolerance="10"
   gridtolerance="10"
   objecttolerance="10"
   borderopacity="1"
   bordercolor="#666666"
   pagecolor="#ffffff"
   inkscape:document-rotation="0" />
 <defs
   id="defs4">
  <style
   id="style2"
   type="text/css">
   <![CDATA[
    .str1 {stroke:#2B2A29;stroke-width:1.86777;stroke-linecap:round;stroke-linejoin:round}
    .str0 {stroke:#2B2A29;stroke-width:3.73554;stroke-linecap:round;stroke-linejoin:round}
    .fil0 {fill:#E31E24}
    .fil2 {fill:#F08683}
    .fil1 {fill:#B12322}
   ]]>
  </style>
 
  
  
  
  
  
  
 </defs>
 
<g
   id="g1650"><g
     id="g844"><g
       id="g838"
       style="opacity:1"><path
         style="color:#000000;font-style:normal;font-variant:normal;font-weight:normal;font-stretch:normal;font-size:medium;line-height:normal;font-family:sans-serif;font-variant-ligatures:normal;font-variant-position:normal;font-variant-caps:normal;font-variant-numeric:normal;font-variant-alternates:normal;font-variant-east-asian:normal;font-feature-settings:normal;font-variation-settings:normal;text-indent:0;text-align:start;text-decoration:none;text-decoration-line:none;text-decoration-style:solid;text-decoration-color:#000000;letter-spacing:normal;word-spacing:normal;text-transform:none;writing-mode:lr-tb;direction:ltr;text-orientation:mixed;dominant-baseline:auto;baseline-shift:baseline;text-anchor:start;white-space:normal;shape-padding:0;shape-margin:0;inline-size:0;clip-rule:nonzero;display:inline;overflow:visible;visibility:visible;isolation:auto;mix-blend-mode:normal;color-interpolation:sRGB;color-interpolation-filters:linearRGB;solid-color:#000000;solid-opacity:1;vector-effect:none;fill:#e31e24;fill-opacity:1;fill-rule:nonzero;stroke:none;stroke-width:3.73554;stroke-linecap:round;stroke-linejoin:round;stroke-miterlimit:4;stroke-dasharray:none;stroke-dashoffset:0;stroke-opacity:1.0;color-rendering:auto;image-rendering:auto;shape-rendering:auto;text-rendering:auto;enable-background:accumulate;stop-color:#000000;stop-opacity:1;"
         d="m 49.09731,46.25042 c 0.743247,0 2.972987,0 1.486494,-2.22974 C 40.921598,32.871982 37.948612,2.3988718 64.705489,2.3988718 93.692105,1.6556252 95.921845,20.980036 87.746133,34.358475 c 0,0 -11.148699,14.864931 -7.432466,11.148698 8.918959,-9.662205 51.284013,-34.189342 48.311023,7.432466 -0.74324,14.864932 -34.932585,17.094672 -42.365051,14.864932 19.324411,6.689219 36.419081,11.148698 26.013631,33.446099 -3.71623,8.17571 -34.189343,29.72986 -42.365055,0.74324 -7.432466,-26.756873 -5.202726,-23.040641 -4.45948,-7.432462 0,16.351422 -17.837918,29.729862 -35.675836,17.094672 C 3.0160225,91.588461 29.029653,75.980283 44.637831,71.520804 37.948612,73.750543 -8.8759228,82.669502 4.5025157,44.02068 15.651214,12.061077 39.435105,36.588214 49.09731,46.25042 Z"
         id="path840" /><path
         style="color:#000000;font-style:normal;font-variant:normal;font-weight:normal;font-stretch:normal;font-size:medium;line-height:normal;font-family:sans-serif;font-variant-ligatures:normal;font-variant-position:normal;font-variant-caps:normal;font-variant-numeric:normal;font-variant-alternates:normal;font-variant-east-asian:normal;font-feature-settings:normal;font-variation-settings:normal;text-indent:0;text-align:start;text-decoration:none;text-decoration-line:none;text-decoration-style:solid;text-decoration-color:#000000;letter-spacing:normal;word-spacing:normal;text-transform:none;writing-mode:lr-tb;direction:ltr;text-orientation:mixed;dominant-baseline:auto;baseline-shift:baseline;text-anchor:start;white-space:normal;shape-padding:0;shape-margin:0;inline-size:0;clip-rule:nonzero;display:inline;overflow:visible;visibility:visible;isolation:auto;mix-blend-mode:normal;color-interpolation:sRGB;color-interpolation-filters:linearRGB;solid-color:#000000;solid-opacity:1;vector-effect:none;fill:#2b2a29;fill-opacity:1;fill-rule:nonzero;stroke:none;stroke-width:3.73554;stroke-linecap:round;stroke-linejoin:round;stroke-miterlimit:4;stroke-dasharray:none;stroke-dashoffset:0;stroke-opacity:1.0;color-rendering:auto;image-rendering:auto;shape-rendering:auto;text-rendering:auto;enable-background:accumulate;stop-color:#000000;stop-opacity:1;"
         d="M 64.695312 0.53125 C 57.656654 0.53325103 52.303403 2.5813143 48.595703 5.953125 C 44.88619 9.3265846 42.888535 13.920288 42.142578 18.744141 C 40.926463 26.608351 42.918129 35.043785 46.544922 41.269531 C 41.640318 36.459483 35.347321 30.647627 28.037109 27.787109 C 23.453115 25.993373 18.481548 25.527038 13.957031 27.869141 C 9.4325143 30.211244 5.6179521 35.151193 2.7382812 43.40625 A 1.8679567 1.8679567 0 0 0 2.7382812 43.410156 C -0.70923238 53.36964 -0.39291427 60.690923 2.5683594 65.863281 C 5.529633 71.035639 10.916882 73.699838 16.654297 74.925781 C 21.206227 75.898416 25.920557 75.925083 30.330078 75.667969 C 26.240693 78.086228 22.442735 81.044175 19.8125 84.630859 C 17.026468 88.429994 15.575122 93.061794 16.798828 97.996094 C 18.022534 102.93039 21.753934 107.97658 28.652344 113.15039 A 1.8679567 1.8679567 0 0 0 28.693359 113.17969 C 38.105684 119.84675 47.937706 119.75105 55.224609 115.60156 C 61.571347 111.98745 65.822837 105.36867 66.869141 97.884766 C 67.340091 99.623026 67.524583 100.38889 68.109375 102.49414 A 1.8679567 1.8679567 0 0 0 68.111328 102.5 C 70.253964 110.09662 74.034367 114.75219 78.654297 116.94336 C 83.274226 119.13453 88.470249 118.82547 93.310547 117.34375 C 98.150844 115.86203 102.72012 113.2041 106.37891 110.36914 C 110.03571 107.53573 112.76869 104.66405 113.96875 102.02734 C 116.65798 96.260264 117.66789 91.463807 117.16992 87.335938 C 116.67154 83.204597 114.59807 79.86513 111.64844 77.271484 C 108.2378 74.272473 103.57876 72.132273 98.501953 70.189453 C 102.2721 69.955775 106.32562 69.505774 110.35742 68.605469 C 115.2826 67.505671 120.04164 65.867207 123.76758 63.404297 C 127.49062 60.943301 130.26313 57.465268 130.48828 53.042969 C 131.24653 42.35428 129.12107 35.421986 124.84961 31.486328 C 120.57388 27.546738 114.56883 27.027592 108.58203 28.15625 C 101.32236 29.524876 93.989438 33.205399 88.078125 37.064453 C 88.330022 36.726718 89.240234 35.478516 89.240234 35.478516 A 1.8679567 1.8679567 0 0 0 89.339844 35.332031 C 93.675747 28.236917 95.377683 19.441509 91.837891 12.257812 C 88.302008 5.0820512 79.584162 0.16109201 64.705078 0.53125 L 64.695312 0.53125 z M 64.753906 4.265625 C 78.831336 3.9046652 85.708525 8.270896 88.486328 13.908203 C 91.259678 19.536472 89.993396 27.076201 86.167969 33.353516 C 86.078594 33.472709 83.42093 37.014995 81.117188 40.240234 C 79.946084 41.879779 78.902652 43.374486 78.304688 44.371094 C 78.155196 44.620246 78.035362 44.831969 77.919922 45.085938 C 77.862202 45.212922 77.801709 45.337776 77.742188 45.595703 C 77.712427 45.724667 77.67449 45.888202 77.691406 46.175781 C 77.708323 46.46336 77.799505 46.969427 78.246094 47.416016 C 78.692683 47.862604 79.354793 47.991061 79.71875 47.966797 C 80.082707 47.942533 80.269794 47.855705 80.412109 47.791016 C 80.696741 47.661638 80.809914 47.563426 80.931641 47.46875 C 81.175094 47.279397 81.374986 47.087904 81.634766 46.828125 A 1.8679567 1.8679567 0 0 0 81.685547 46.773438 C 85.679563 42.446587 98.579964 33.844476 109.27539 31.828125 C 114.6231 30.819949 119.20808 31.368614 122.31836 34.234375 C 125.42864 37.100136 127.48343 42.70263 126.76172 52.806641 A 1.8679567 1.8679567 0 0 0 126.75977 52.845703 C 126.6095 55.85096 124.83289 58.222813 121.70703 60.289062 C 118.58117 62.355312 114.18709 63.921948 109.54297 64.958984 C 104.89885 65.99602 100.00338 66.522102 95.853516 66.646484 C 91.703653 66.770867 88.195432 66.435192 86.796875 66.015625 A 1.8679567 1.8679567 0 0 0 85.648438 69.570312 C 95.35028 72.928643 104.30384 75.789022 109.18164 80.078125 C 111.62054 82.222676 113.07672 84.59821 113.46094 87.783203 C 113.84516 90.968197 113.08847 95.085801 110.58008 100.46094 A 1.8679567 1.8679567 0 0 0 110.57227 100.47852 C 109.91319 101.92848 107.4474 104.81598 104.0918 107.41602 C 100.7362 110.01605 96.48127 112.46603 92.216797 113.77148 C 87.952323 115.07693 83.763237 115.23279 80.253906 113.56836 C 76.746022 111.90462 73.652396 108.38521 71.707031 101.49414 L 71.705078 101.48633 C 69.852052 94.815151 68.602484 90.044118 67.779297 86.878906 C 67.367484 85.295458 67.061984 84.115763 66.837891 83.283203 C 66.725844 82.866923 66.635693 82.539297 66.554688 82.273438 C 66.473682 82.007578 66.522898 81.943111 66.214844 81.429688 C 66.13783 81.301332 66.092377 81.101848 65.582031 80.78125 C 65.326858 80.620951 64.855522 80.433367 64.3125 80.511719 C 63.769478 80.59007 63.340777 80.923801 63.134766 81.171875 C 62.722743 81.668024 62.756351 81.886745 62.726562 82.039062 C 62.696774 82.19138 62.691792 82.278921 62.6875 82.357422 C 62.670332 82.671424 62.690969 82.850496 62.710938 83.130859 C 62.750875 83.691585 62.829418 84.490476 62.927734 85.548828 C 63.12268 87.64736 63.394287 90.756741 63.578125 94.572266 C 63.573691 102.06402 59.463249 108.88855 53.375 112.35547 C 47.289112 115.82104 39.292006 116.09557 30.875 110.14453 C 24.410778 105.29129 21.361025 100.86685 20.425781 97.095703 C 19.489427 93.320082 20.50043 90.008646 22.824219 86.839844 C 27.471796 80.502239 37.636207 75.463316 45.150391 73.316406 L 45.148438 73.3125 C 45.166057 73.306691 45.211265 73.298719 45.228516 73.292969 A 1.8679567 1.8679567 0 0 0 44.125 69.724609 C 44.100945 69.731482 44.072928 69.745033 44.048828 69.751953 L 44.046875 69.748047 C 41.233842 70.685724 27.70068 73.466842 17.435547 71.273438 C 12.30298 70.176735 8.0752258 67.963452 5.8105469 64.007812 C 3.5463923 60.053089 3.0264107 53.997946 6.265625 44.636719 L 6.2675781 44.634766 C 6.2680365 44.633441 6.2671196 44.632184 6.2675781 44.630859 C 8.9618665 36.910342 12.302287 32.930815 15.673828 31.185547 C 19.046306 29.439794 22.71244 29.716705 26.675781 31.267578 C 34.602465 34.369324 42.929309 42.722277 47.777344 47.570312 A 1.8679567 1.8679567 0 0 0 49.097656 48.119141 C 49.46928 48.119141 50.418496 48.305152 51.636719 47.574219 C 52.24583 47.208752 52.914878 46.306104 52.949219 45.378906 C 52.98356 44.451708 52.62984 43.721127 52.138672 42.984375 A 1.8679567 1.8679567 0 0 0 51.996094 42.796875 C 47.654502 37.787346 44.538723 27.690477 45.833984 19.314453 C 46.481615 15.126441 48.152895 11.405442 51.109375 8.7167969 C 54.065855 6.0281515 58.370389 4.2675781 64.705078 4.2675781 A 1.8679567 1.8679567 0 0 0 64.753906 4.265625 z M 49.029297 45.056641 C 49.09962 45.162125 49.053786 45.047218 49.082031 45.107422 C 49.115634 45.146759 49.138101 45.20517 49.171875 45.244141 L 49.029297 45.056641 z "
         id="path842" /></g><g
       transform="matrix(0.74324658,0,0,0.74324658,0.78628277,0.91237859)"
       id="_1240725104">
   <g
   id="g845"
   style="opacity:1"><path
     style="color:#000000;font-style:normal;font-variant:normal;font-weight:normal;font-stretch:normal;font-size:medium;line-height:normal;font-family:sans-serif;font-variant-ligatures:normal;font-variant-position:normal;font-variant-caps:normal;font-variant-numeric:normal;font-variant-alternates:normal;font-variant-east-asian:normal;font-feature-settings:normal;font-variation-settings:normal;text-indent:0;text-align:start;text-decoration:none;text-decoration-line:none;text-decoration-style:solid;text-decoration-color:#000000;letter-spacing:normal;word-spacing:normal;text-transform:none;writing-mode:lr-tb;direction:ltr;text-orientation:mixed;dominant-baseline:auto;baseline-shift:baseline;text-anchor:start;white-space:normal;shape-padding:0;shape-margin:0;inline-size:0;clip-rule:nonzero;display:inline;overflow:visible;visibility:visible;isolation:auto;mix-blend-mode:normal;color-interpolation:sRGB;color-interpolation-filters:linearRGB;solid-color:#000000;solid-opacity:1;vector-effect:none;fill:#2b2a29;fill-opacity:1;fill-rule:nonzero;stroke:none;stroke-width:1.86777;stroke-linecap:round;stroke-linejoin:round;stroke-miterlimit:4;stroke-dasharray:none;stroke-dashoffset:0;stroke-opacity:1.0;color-rendering:auto;image-rendering:auto;shape-rendering:auto;text-rendering:auto;enable-background:accumulate;stop-color:#000000;stop-opacity:1;"
     d="M 86 8.0664062 A 0.93397837 0.93397837 0 0 0 85.867188 8.0761719 C 78.780901 9.0884985 71.448463 11.143712 67.222656 17.482422 A 0.93397837 0.93397837 0 0 0 67.199219 17.519531 C 64.043769 22.778614 63.303401 29.720352 64.199219 36.375 C 65.095037 43.029648 67.624539 49.418279 71.296875 53.615234 A 0.93397837 0.93397837 0 0 0 72 53.933594 L 72.373047 53.933594 C 74.108143 57.639526 74.830962 61.926771 72.279297 65.382812 C 69.56795 68.048582 65.158455 68.950384 61.560547 66.251953 A 0.93397837 0.93397837 0 0 0 61 66.066406 L 60.933594 66.066406 L 60.933594 66 A 0.93397837 0.93397837 0 0 0 60.660156 65.339844 C 55.616132 60.29582 49.595842 55.28097 44.583984 51.271484 A 0.93397837 0.93397837 0 0 0 44.560547 51.251953 C 36.473384 45.186581 29.964979 42.475002 24.382812 43.972656 C 18.800646 45.470311 14.664256 51.065881 11.123047 60.677734 A 0.93397837 0.93397837 0 0 0 11.101562 60.744141 C 10.099949 64.249788 8.8263937 68.806665 8.5683594 73.322266 C 8.3103251 77.837866 9.0830385 82.403351 12.339844 85.660156 A 0.93397837 0.93397837 0 0 0 12.378906 85.697266 C 17.203032 89.985378 25.382313 91.432018 33.736328 91.558594 C 42.019341 91.684094 50.46205 90.445494 56.072266 88.933594 L 57 88.933594 A 0.93397837 0.93397837 0 0 0 57.255859 88.898438 L 63.414062 87.138672 L 67.841797 99.535156 L 66.673828 100.11914 L 62.884766 101.06641 L 62 101.06641 A 0.93397837 0.93397837 0 0 0 61.339844 101.33984 C 60.949903 101.72978 60.58695 101.90266 60.330078 101.98828 C 60.073206 102.07391 60 102.06641 60 102.06641 A 0.93397837 0.93397837 0 0 0 59.816406 102.08398 C 54.699002 103.10747 49.578913 105.14736 45.439453 108.25195 L 45.519531 108.19922 C 43.01168 109.70393 39.717854 111.72458 36.888672 114.16797 C 34.071367 116.6011 31.662518 119.46593 31.089844 122.80469 C 30.016789 127.14912 31.65358 131.42165 34.240234 135.04297 C 36.830494 138.66933 40.395112 141.71646 43.472656 143.76953 C 43.475809 143.77163 43.47927 143.77524 43.482422 143.77734 C 51.724261 149.93549 62.208073 150.98574 70.527344 144.76953 C 76.819062 140.56915 79.933594 133.26272 79.933594 126 C 79.933594 121.84435 78.933594 117.84435 78.933594 114 C 78.933594 111.84435 78.469857 109.17833 78.914062 107.06836 C 79.136165 106.01337 79.54989 105.12631 80.318359 104.42188 C 81.086829 103.71744 82.253047 103.15855 84.115234 102.92578 A 0.93397837 0.93397837 0 0 0 84.294922 102.88672 C 86.870602 102.02816 89.266982 102.78979 91.066406 105.33984 L 91.066406 106 A 0.93397837 0.93397837 0 0 0 91.339844 106.66016 L 92.066406 107.38672 L 92.066406 109 A 0.93397837 0.93397837 0 0 0 92.339844 109.66016 C 92.619725 109.94004 92.858017 110.52845 93.101562 111.38086 C 93.329117 112.1773 93.609311 113.18587 94.09375 114.21875 C 95.112009 121.27839 97.116479 127.30807 99.101562 134.25586 A 0.93397837 0.93397837 0 0 0 99.113281 134.29492 C 100.11328 137.29492 101.12616 140.37032 102.8418 143.00977 C 104.55744 145.64921 107.02954 147.83712 110.74414 148.89844 A 0.93397837 0.93397837 0 0 0 110.81641 148.91602 C 116.1921 149.99115 122.3066 147.89162 126.41797 145.83594 C 130.52934 143.78025 134.56055 140.74805 138.56055 137.74805 A 0.93397837 0.93397837 0 0 0 138.66016 137.66016 C 139.66016 136.66016 142.66888 133.75209 143.83594 131.41797 A 0.93397837 0.93397837 0 0 0 143.86719 131.34766 C 144.8632 128.85762 146.13871 125.8131 146.78906 122.69141 C 147.4369 119.5818 147.46641 116.32832 145.81641 113.55273 C 143.63884 109.23166 138.59199 106.24153 134.38281 105.14844 C 127.29369 101.1126 120.27203 99.101796 113.36719 96.142578 A 0.93397837 0.93397837 0 0 0 113.25586 96.101562 L 107.1543 94.359375 L 110.64062 82.154297 L 116.70508 83.886719 C 119.19626 84.717112 123.22314 84.998005 128.03125 84.839844 C 132.83936 84.681682 138.38394 84.052214 143.69531 82.914062 C 149.00668 81.775911 154.07964 80.138291 157.96484 77.904297 C 161.84426 75.673633 164.63718 72.765539 164.92773 69.087891 C 165.43963 65.978477 165.69026 61.210427 164.91992 56.716797 C 164.14655 52.205447 162.31996 47.855612 158.38672 46.15625 C 155.35965 44.52969 151.43562 44.375527 147.1582 45.09375 C 142.85417 45.816442 138.166 47.437831 133.61133 49.525391 C 124.62883 53.642367 116.24807 59.489765 112.46484 64.216797 C 111.94983 64.377621 111.52559 64.654096 111.33984 64.839844 C 111.08984 65.089844 111.18871 65.066406 111 65.066406 A 0.93397837 0.93397837 0 0 0 110.33984 65.339844 C 109.55996 66.119725 107.9786 66.832286 106.3125 66.943359 C 104.6464 67.054433 102.94004 66.619725 101.66016 65.339844 A 0.93397837 0.93397837 0 0 0 101.51758 65.222656 C 100.31644 64.421897 99.667714 62.978597 99.556641 61.3125 C 99.445567 59.646403 99.910171 57.818337 100.77734 56.517578 A 0.93397837 0.93397837 0 0 0 100.93359 56 C 100.93359 55.811295 101.08047 55.437882 101.27734 55.142578 C 101.47421 54.847274 101.66016 54.660156 101.66016 54.660156 A 0.93397837 0.93397837 0 0 0 101.83594 54.417969 C 102.7235 52.642849 104.71986 50.645319 105.83203 48.425781 C 105.83337 48.42311 105.8346 48.42064 105.83594 48.417969 C 107.90694 46.223465 108.93905 43.381265 110.66016 41.660156 A 0.93397837 0.93397837 0 0 0 110.77734 41.517578 C 114.87746 35.367398 117.00465 28.111386 114.89258 21.734375 C 113.28653 15.87998 108.46376 12.423949 102.93164 10.494141 C 97.392814 8.5619917 91.062259 8.0664063 86 8.0664062 z M 86.0625 9.9375 C 90.990565 9.9414154 97.127403 10.445061 102.31836 12.255859 C 107.52953 14.07371 111.69979 17.113416 113.09961 22.246094 A 0.93397837 0.93397837 0 0 0 113.11328 22.294922 C 114.98531 27.911005 113.11639 34.641815 109.22266 40.482422 L 109.33984 40.339844 C 107.11972 42.559963 106.11972 45.559963 104.33984 47.339844 A 0.93397837 0.93397837 0 0 0 104.16406 47.582031 C 103.29593 49.3183 101.3806 51.281912 100.25586 53.443359 C 100.18761 53.513828 99.984762 53.714263 99.722656 54.107422 C 99.419525 54.562118 99.066406 55.188705 99.066406 56 L 99.222656 55.482422 C 98.089829 57.181663 97.554433 59.353597 97.693359 61.4375 C 97.830385 63.492883 98.679037 65.507065 100.42773 66.712891 C 102.1388 68.373044 104.38493 68.943479 106.4375 68.806641 C 108.41217 68.674996 110.1957 67.927066 111.41992 66.814453 C 111.99467 66.671701 112.46061 66.359704 112.66016 66.160156 C 112.91016 65.910156 112.81129 65.933594 113 65.933594 A 0.93397837 0.93397837 0 0 0 113.73633 65.574219 C 117.03345 61.335061 125.49802 55.29949 134.38867 51.224609 C 138.834 49.187169 143.39583 47.621058 147.4668 46.9375 C 151.53777 46.253942 155.08733 46.475548 157.55273 47.820312 A 0.93397837 0.93397837 0 0 0 157.63281 47.857422 C 160.68389 49.165027 162.35494 52.803218 163.08008 57.033203 C 163.80522 61.263188 163.56014 65.953589 163.07812 68.845703 A 0.93397837 0.93397837 0 0 0 163.06836 68.927734 C 162.85185 71.742292 160.64995 74.204697 157.03516 76.283203 C 153.42036 78.361709 148.49332 79.974089 143.30469 81.085938 C 138.11606 82.197786 132.66064 82.818318 127.96875 82.972656 C 123.27686 83.126995 119.30374 82.782888 117.29492 82.113281 A 0.93397837 0.93397837 0 0 0 117.25586 82.101562 L 110.25586 80.101562 A 0.93397837 0.93397837 0 0 0 109.10156 80.744141 L 105.10156 94.744141 A 0.93397837 0.93397837 0 0 0 105.74414 95.898438 L 112.71875 97.890625 C 119.75806 100.89949 126.68158 102.8931 133.53711 106.81055 A 0.93397837 0.93397837 0 0 0 133.77344 106.90625 C 137.52473 107.84407 142.35896 110.80777 144.16406 114.41797 A 0.93397837 0.93397837 0 0 0 144.19922 114.48047 C 145.52964 116.69783 145.56058 119.43029 144.96094 122.30859 C 144.36566 125.16591 143.15606 128.09567 142.15625 130.59375 C 141.3248 132.24639 138.40964 135.26428 137.38477 136.29102 C 133.40324 139.27706 129.45298 142.22859 125.58203 144.16406 C 121.70431 146.10292 115.84298 147.99243 111.22461 147.08594 C 107.96141 146.14419 105.93668 144.34173 104.4082 141.99023 C 102.87516 139.63171 101.88779 136.71018 100.88867 133.71289 C 100.88781 133.71031 100.88758 133.70766 100.88672 133.70508 C 98.884306 126.70046 96.907805 120.75503 95.923828 113.86719 A 0.93397837 0.93397837 0 0 0 95.835938 113.58203 C 95.391624 112.6934 95.154892 111.76673 94.898438 110.86914 C 94.69862 110.16978 94.353956 109.51747 93.933594 108.89844 L 93.933594 107 A 0.93397837 0.93397837 0 0 0 93.660156 106.33984 L 92.933594 105.61328 L 92.933594 105 A 0.93397837 0.93397837 0 0 0 92.777344 104.48242 C 90.606203 101.22571 87.107407 100.02231 83.773438 101.10156 C 81.699591 101.37994 80.141211 102.05269 79.056641 103.04688 C 77.95011 104.06119 77.363835 105.36163 77.085938 106.68164 C 76.530143 109.32167 77.066406 112.15565 77.066406 114 C 77.066406 118.15565 78.066406 122.15565 78.066406 126 C 78.066406 132.73318 75.183561 139.4219 69.482422 143.22266 A 0.93397837 0.93397837 0 0 0 69.439453 143.25195 C 61.778142 148.99794 52.301549 148.05771 44.560547 142.25195 A 0.93397837 0.93397837 0 0 0 44.517578 142.22266 C 41.597274 140.27579 38.166852 137.32695 35.759766 133.95703 C 33.352679 130.58711 31.995074 126.87127 32.90625 123.22656 A 0.93397837 0.93397837 0 0 0 32.921875 123.1543 C 33.3624 120.51115 35.44051 117.88865 38.111328 115.58203 C 40.782146 113.27542 43.98832 111.29607 46.480469 109.80078 A 0.93397837 0.93397837 0 0 0 46.560547 109.74805 C 50.421087 106.85264 55.300998 104.89253 60.183594 103.91602 L 60 103.93359 C 60 103.93359 60.426794 103.92609 60.919922 103.76172 C 61.29071 103.63812 61.767703 103.29204 62.228516 102.93359 L 63 102.93359 A 0.93397837 0.93397837 0 0 0 63.226562 102.90625 L 67.226562 101.90625 A 0.93397837 0.93397837 0 0 0 67.417969 101.83594 L 69.417969 100.83594 A 0.93397837 0.93397837 0 0 0 69.878906 99.685547 L 64.878906 85.685547 A 0.93397837 0.93397837 0 0 0 63.744141 85.101562 L 56.869141 87.066406 L 56 87.066406 A 0.93397837 0.93397837 0 0 0 55.753906 87.099609 C 50.362486 88.569997 41.909657 89.81483 33.763672 89.691406 C 25.629318 89.568158 17.82288 88.016842 13.642578 84.316406 C 10.916878 81.57417 10.190301 77.65118 10.431641 73.427734 C 10.672709 69.209041 11.890375 64.787215 12.886719 61.298828 C 16.343024 51.927894 20.203734 47.028514 24.867188 45.777344 C 29.535021 44.524998 35.526616 46.813419 43.439453 52.748047 C 48.337335 56.666936 54.169013 61.544078 59.066406 66.408203 L 59.066406 67 A 0.93397837 0.93397837 0 0 0 60 67.933594 L 60.820312 67.933594 C 65.13824 70.894212 70.457608 69.862704 73.660156 66.660156 A 0.93397837 0.93397837 0 0 0 73.748047 66.560547 C 77.031948 62.182012 75.919467 56.74909 73.835938 52.582031 A 0.93397837 0.93397837 0 0 0 73 52.066406 L 72.476562 52.066406 C 69.271541 48.247451 66.884088 42.315277 66.050781 36.125 C 65.197877 29.789137 65.956943 23.243158 68.791016 18.503906 C 72.554138 12.875031 79.181192 10.927399 86.0625 9.9375 z "
     id="path849" /></g>
   <g
   id="g851"
   style="opacity:1"><path
     style="color:#000000;font-style:normal;font-variant:normal;font-weight:normal;font-stretch:normal;font-size:medium;line-height:normal;font-family:sans-serif;font-variant-ligatures:normal;font-variant-position:normal;font-variant-caps:normal;font-variant-numeric:normal;font-variant-alternates:normal;font-variant-east-asian:normal;font-feature-settings:normal;font-variation-settings:normal;text-indent:0;text-align:start;text-decoration:none;text-decoration-line:none;text-decoration-style:solid;text-decoration-color:#000000;letter-spacing:normal;word-spacing:normal;text-transform:none;writing-mode:lr-tb;direction:ltr;text-orientation:mixed;dominant-baseline:auto;baseline-shift:baseline;text-anchor:start;white-space:normal;shape-padding:0;shape-margin:0;inline-size:0;clip-rule:nonzero;display:inline;overflow:visible;visibility:visible;isolation:auto;mix-blend-mode:normal;color-interpolation:sRGB;color-interpolation-filters:linearRGB;solid-color:#000000;solid-opacity:1;vector-effect:none;fill:#2b2a29;fill-opacity:1;fill-rule:nonzero;stroke:none;stroke-width:1.86777;stroke-linecap:round;stroke-linejoin:round;stroke-miterlimit:4;stroke-dasharray:none;stroke-dashoffset:0;stroke-opacity:1.0;color-rendering:auto;image-rendering:auto;shape-rendering:auto;text-rendering:auto;enable-background:accumulate;stop-color:#000000;stop-opacity:1;"
     d="M 86 16.066406 C 83.922176 16.066406 81.573601 16.318103 79.421875 17.125 C 77.27641 17.929549 75.30471 19.327306 74.177734 21.566406 C 72.033934 25.338474 71.557509 30.488802 72.199219 35.494141 C 72.84245 40.511342 74.610053 45.389876 77.283203 48.597656 A 0.93397837 0.93397837 0 0 0 77.339844 48.660156 L 78.291016 49.611328 C 82.970651 55.239211 83.004626 63.708227 78.277344 70.384766 C 72.571698 76.040828 64.164931 76.970207 57.542969 72.240234 A 0.93397837 0.93397837 0 0 0 57 72.066406 L 55.578125 72.066406 L 54.835938 70.582031 A 0.93397837 0.93397837 0 0 0 54.583984 70.271484 C 49.643272 66.318915 44.643272 61.318915 39.583984 57.271484 A 0.93397837 0.93397837 0 0 0 39.517578 57.222656 C 38.017578 56.222656 35.749334 54.709266 33.453125 53.433594 C 31.156916 52.157922 28.91506 51.066406 27 51.066406 C 25.783058 51.066406 24.829349 51.846488 23.941406 52.802734 C 23.053463 53.758981 22.218061 54.988127 21.449219 56.269531 C 19.911534 58.832339 18.636219 61.637717 18.164062 62.582031 A 0.93397837 0.93397837 0 0 0 18.09375 62.773438 C 17.607074 64.720143 16.585809 68.025201 16.197266 71.392578 C 15.808722 74.759955 16.009666 78.329978 18.339844 80.660156 A 0.93397837 0.93397837 0 0 0 18.402344 80.716797 C 20.131686 82.157916 22.701598 82.970523 25.707031 83.46875 C 28.712464 83.966977 32.165581 84.121812 35.642578 84.058594 C 42.549023 83.933022 49.473962 82.955204 53.152344 81.917969 C 53.616473 81.921073 54.114427 81.946884 54.669922 81.761719 C 54.97555 81.659843 55.313946 81.474425 55.564453 81.152344 C 55.644248 81.04975 55.628254 80.90451 55.681641 80.785156 L 69.353516 77.138672 L 75.101562 97.255859 A 0.93397837 0.93397837 0 0 0 76.660156 97.660156 C 76.940037 97.380275 77.887522 96.851241 79.097656 96.367188 C 80.285285 95.892136 81.745209 95.404654 83.216797 94.914062 C 87.85332 94.000083 92.467853 95.848414 95.251953 99.560547 A 0.93397837 0.93397837 0 0 0 96.070312 99.929688 A 0.93397837 0.93397837 0 0 0 96.724609 100.89258 L 97.410156 101.10352 C 97.517635 101.36175 97.557897 101.70564 97.664062 101.91797 C 97.914062 102.41797 98.066406 102.81129 98.066406 103 A 0.93397837 0.93397837 0 0 0 98.339844 103.66016 C 98.839844 104.16016 99.025435 104.39071 99.039062 104.41797 C 99.05269 104.44522 99.066406 104.5 99.066406 105 C 99.066406 105.5 99.05269 105.94522 99.289062 106.41797 C 99.468649 106.77714 99.771277 107.04644 100.08789 107.36133 C 100.09275 108.4506 100.14193 110.3737 101.16406 112.41797 L 101.10156 112.25586 C 103.08543 119.19938 104.08543 125.19938 106.10156 132.25586 A 0.93397837 0.93397837 0 0 0 106.16406 132.41797 C 106.60838 133.3066 107.38224 135.35433 108.28906 137.16797 C 108.74247 138.07479 109.2294 138.93266 109.79102 139.62109 C 110.34262 140.29726 111.01537 140.89826 111.95508 140.91992 C 115.94568 141.95007 121.17921 140.07855 125.95117 137.44141 C 130.80235 134.76049 135.09823 131.31806 136.80078 128.48047 A 0.93397837 0.93397837 0 0 0 136.83594 128.41797 C 137.36378 127.36228 138.36301 125.11113 139.13086 122.93555 C 139.51479 121.84776 139.8396 120.7892 140.01172 119.87695 C 140.09778 119.42083 140.14915 119.00326 140.13281 118.59766 C 140.11716 118.20903 140.03596 117.77996 139.67969 117.39258 C 138.70288 115.8703 136.81545 114.55011 134.36523 113.16992 C 131.8433 111.74934 128.75507 110.33404 125.61133 109.01367 C 119.32385 106.37293 112.77789 104.10491 110.34766 103.13281 A 0.93397837 0.93397837 0 0 0 110.27539 103.10742 L 98.837891 99.587891 A 0.93397837 0.93397837 0 0 0 98 99.066406 L 97 99.066406 A 0.93397837 0.93397837 0 0 0 96.962891 99.068359 L 104.88672 75.294922 A 0.93397837 0.93397837 0 0 0 104 74.066406 C 101.20753 74.066406 99.550097 73.229784 97.660156 71.339844 A 0.93397837 0.93397837 0 0 0 97.542969 71.240234 C 90.892127 66.489633 89.995882 59.138555 93.810547 52.462891 L 93.660156 52.660156 C 94.270216 52.050097 94.585938 51.417969 94.835938 50.917969 C 95.085938 50.417969 95.270216 50.050097 95.660156 49.660156 A 0.93397837 0.93397837 0 0 0 95.835938 49.417969 C 96.780251 47.529341 97.660156 46.660156 99.660156 44.660156 A 0.93397837 0.93397837 0 0 0 99.886719 44.294922 C 100.80797 41.531178 102.72421 39.597274 104.77734 36.517578 C 106.88361 33.358185 109.02172 28.235321 107.90625 23.773438 A 0.93397837 0.93397837 0 0 0 107.88672 23.705078 C 107.28582 21.902375 105.82727 20.565468 104.03516 19.560547 C 102.24305 18.555626 100.07657 17.852436 97.833984 17.339844 C 93.348803 16.31466 88.562259 16.066406 86 16.066406 z M 86 17.933594 C 88.437741 17.933594 93.151197 18.18534 97.416016 19.160156 C 99.548425 19.647564 101.56945 20.319374 103.12109 21.189453 C 104.66067 22.052767 105.6898 23.083997 106.0957 24.269531 C 106.95636 27.804324 105.10927 32.6525 103.22266 35.482422 C 101.34105 38.304825 99.370116 40.367737 98.263672 43.421875 C 96.322304 45.36387 95.203114 46.503927 94.164062 48.582031 L 94.339844 48.339844 C 93.729784 48.949903 93.414062 49.582031 93.164062 50.082031 C 92.914062 50.582031 92.729784 50.949903 92.339844 51.339844 A 0.93397837 0.93397837 0 0 0 92.189453 51.537109 C 88.028872 58.818127 89.107549 67.401987 96.339844 72.660156 C 96.3423 72.662613 96.345199 72.663561 96.347656 72.666016 C 98.153592 74.469601 100.24144 75.410121 102.78516 75.691406 L 95.589844 97.275391 C 92.33304 93.850809 87.610978 92.12507 82.816406 93.083984 A 0.93397837 0.93397837 0 0 0 82.705078 93.113281 C 81.205078 93.613281 79.69221 94.116866 78.402344 94.632812 C 77.636464 94.939164 77.162899 95.310361 76.583984 95.646484 L 71.126953 76.544922 C 74.249808 75.746637 77.205411 74.114902 79.660156 71.660156 A 0.93397837 0.93397837 0 0 0 79.759766 71.542969 C 84.979824 64.234888 85.010826 54.755178 79.716797 48.402344 A 0.93397837 0.93397837 0 0 0 79.660156 48.339844 L 78.705078 47.384766 C 76.384614 44.590992 74.656448 39.980059 74.050781 35.255859 C 73.444012 30.52306 73.967369 25.688453 75.810547 22.462891 A 0.93397837 0.93397837 0 0 0 75.835938 22.417969 C 76.710644 20.668556 78.229851 19.568103 80.078125 18.875 C 81.926399 18.181897 84.077824 17.933594 86 17.933594 z M 150.58398 52.552734 C 149.08237 52.669527 147.41515 53.026449 145.75781 53.472656 C 142.44313 54.36507 139.14601 55.632969 137.70508 56.113281 A 0.93397837 0.93397837 0 0 0 137.58203 56.164062 C 131.58203 59.164062 121.55607 64.060288 117.27148 69.416016 L 117.33984 69.339844 L 115.44727 71.232422 C 115.24944 71.290815 115.02774 71.296597 114.87109 71.40625 C 114.56423 71.621057 114.37422 71.880074 114.22266 72.107422 C 113.91953 72.562118 113.72978 72.949903 113.33984 73.339844 A 0.93397837 0.93397837 0 0 0 113.70508 74.886719 L 119.70508 76.886719 A 0.93397837 0.93397837 0 0 0 119.81641 76.916016 C 122.57469 77.467673 126.8235 77.181955 131.10938 76.677734 C 135.39525 76.173514 139.66011 75.420712 142.18359 74.916016 L 142 74.933594 C 143.81129 74.933594 146.76424 74.148957 149.82812 73 C 152.89201 71.851043 155.94004 70.380275 157.66016 68.660156 A 0.93397837 0.93397837 0 0 0 157.93359 68 C 157.93359 67 157.93686 63.714723 157.55273 60.513672 C 157.36067 58.913147 157.0761 57.333842 156.61523 56.019531 C 156.16578 54.73776 155.5444 53.606793 154.36719 53.167969 C 153.31968 52.53552 152.02293 52.440817 150.58398 52.552734 z M 27 52.933594 C 28.08494 52.933594 30.343084 53.842078 32.546875 55.066406 C 34.737369 56.283348 36.947567 57.754133 38.447266 58.753906 C 43.322038 62.657716 48.255901 67.56575 53.246094 71.580078 L 54.164062 73.417969 A 0.93397837 0.93397837 0 0 0 55 73.933594 L 56.751953 73.933594 C 58.889233 75.401633 61.200403 76.30577 63.560547 76.751953 L 54.759766 79.097656 A 0.93397837 0.93397837 0 0 0 54.066406 79.988281 C 53.921933 80.033561 53.493704 80.066406 53 80.066406 A 0.93397837 0.93397837 0 0 0 52.744141 80.101562 C 49.402271 81.056382 42.403428 82.067842 35.607422 82.191406 C 32.209419 82.253188 28.850036 82.095523 26.011719 81.625 C 23.193471 81.157804 20.910941 80.35068 19.634766 79.302734 C 17.99261 77.627691 17.693556 74.720299 18.052734 71.607422 C 18.40998 68.511292 19.366856 65.379714 19.884766 63.324219 C 20.42533 62.236038 21.610634 59.630715 23.050781 57.230469 C 23.781939 56.011873 24.571537 54.866019 25.308594 54.072266 C 26.045651 53.278512 26.716942 52.933594 27 52.933594 z M 150.72852 54.416016 C 152.0394 54.314058 153.05121 54.489867 153.48242 54.777344 A 0.93397837 0.93397837 0 0 0 153.70508 54.886719 C 153.9678 54.974293 154.47063 55.544779 154.85352 56.636719 C 155.2364 57.728658 155.51433 59.211853 155.69727 60.736328 C 156.04012 63.593433 156.04134 66.353544 156.04297 67.542969 C 154.67205 68.780876 151.96076 70.204168 149.17188 71.25 C 146.23576 72.351043 143.18871 73.066406 142 73.066406 A 0.93397837 0.93397837 0 0 0 141.81641 73.083984 C 139.33989 73.579288 135.10475 74.326486 130.89062 74.822266 C 126.689 75.316574 122.45787 75.529033 120.21094 75.085938 L 115.50195 73.515625 C 115.56686 73.409364 115.7289 73.21524 115.77734 73.142578 C 115.87578 72.994926 115.93577 72.941443 115.94141 72.9375 C 115.94704 72.933557 115.90565 72.933594 116 72.933594 A 0.93397837 0.93397837 0 0 0 116.66016 72.660156 L 118.66016 70.660156 A 0.93397837 0.93397837 0 0 0 118.72852 70.583984 C 122.43538 65.950405 132.36476 60.866026 138.36914 57.863281 C 139.94386 57.335392 143.0865 56.126951 146.24219 55.277344 C 147.83485 54.848551 149.41763 54.517973 150.72852 54.416016 z M 99.546875 101.76172 L 109.69336 104.88281 C 112.27701 105.9144 118.69285 108.13408 124.88867 110.73633 C 127.99493 112.04096 131.0317 113.43816 133.44727 114.79883 C 135.86283 116.1595 137.64706 117.56021 138.19922 118.48047 A 0.93397837 0.93397837 0 0 0 138.33984 118.66016 C 138.1897 118.51001 138.25852 118.49545 138.26562 118.67188 C 138.27273 118.8483 138.24597 119.1573 138.17578 119.5293 C 138.0354 120.2733 137.73521 121.27724 137.36914 122.31445 C 136.64327 124.37108 135.66063 126.57881 135.18359 127.53711 C 133.87658 129.70083 129.68776 133.24497 125.04883 135.80859 C 120.40001 138.37768 115.24194 139.95473 112.25586 139.10156 A 0.93397837 0.93397837 0 0 0 112 139.06641 C 111.96694 139.06641 111.64737 138.94048 111.24023 138.44141 C 110.8331 137.94234 110.38253 137.17521 109.96094 136.33203 C 109.13758 134.68533 108.43714 132.81662 107.88672 131.69336 C 105.91282 124.77213 104.90948 118.78278 102.89844 111.74414 A 0.93397837 0.93397837 0 0 0 102.83594 111.58203 C 101.94731 109.80478 101.93359 108 101.93359 107 A 0.93397837 0.93397837 0 0 0 101.66016 106.33984 C 101.16016 105.83984 100.97457 105.60929 100.96094 105.58203 C 100.94731 105.55478 100.93359 105.5 100.93359 105 C 100.93359 104.5 100.94731 104.05478 100.71094 103.58203 C 100.49873 103.15761 100.18328 102.87753 99.767578 102.4668 C 99.709012 102.20753 99.643867 101.97786 99.546875 101.76172 z M 70.003906 107.06641 A 0.93397837 0.93397837 0 0 0 69.816406 107.08398 L 64.816406 108.08398 A 0.93397837 0.93397837 0 0 0 64.339844 108.33984 L 63.613281 109.06641 L 62 109.06641 A 0.93397837 0.93397837 0 0 0 61.582031 109.16406 C 57.693404 111.10838 53.693404 112.10838 49.582031 114.16406 A 0.93397837 0.93397837 0 0 0 49.482422 114.22266 C 47.962498 115.23594 45.444161 116.99836 43.152344 118.9082 C 40.860526 120.81805 38.770785 122.73257 38.113281 124.70508 C 37.710699 125.91282 38.197336 127.12274 38.896484 128.31641 C 39.595633 129.51007 40.602128 130.73314 41.695312 131.89062 C 42.788497 133.04811 43.967659 134.13263 45.011719 135 C 46.050225 135.86276 46.902822 136.49123 47.568359 136.82617 C 50.600592 138.83843 53.676208 140.39363 56.845703 140.92188 C 60.044877 141.45507 63.338261 140.89689 66.517578 138.77734 A 0.93397837 0.93397837 0 0 0 66.660156 138.66016 C 69.806902 135.51341 71.933594 131.24904 71.933594 126 L 71.933594 115 A 0.93397837 0.93397837 0 0 0 71.835938 114.58203 C 71.002996 112.91615 70.933594 110 70.933594 108 A 0.93397837 0.93397837 0 0 0 70.003906 107.06641 z M 69.101562 109.13281 C 69.110224 110.95304 69.235723 113.13402 70.066406 115.03906 L 70.066406 126 C 70.066406 130.70567 68.221523 134.40923 65.414062 137.25195 C 62.618279 139.09373 59.932218 139.54111 57.154297 139.07812 C 54.353471 138.61132 51.457806 137.18281 48.517578 135.22266 A 0.93397837 0.93397837 0 0 0 48.417969 135.16406 C 48.085027 134.99759 47.194222 134.38263 46.207031 133.5625 C 45.219841 132.74237 44.086503 131.70189 43.054688 130.60938 C 42.022872 129.51686 41.091867 128.36493 40.509766 127.37109 C 39.927664 126.37726 39.789301 125.58718 39.886719 125.29492 C 40.229215 124.26743 42.139474 122.18195 44.347656 120.3418 C 46.536957 118.51738 48.98053 116.80739 50.464844 115.81641 C 54.263181 113.92484 58.17283 112.90157 62.183594 110.93359 L 64 110.93359 A 0.93397837 0.93397837 0 0 0 64.660156 110.66016 L 65.458984 109.86133 L 69.101562 109.13281 z "
     id="path855" /></g>
  </g><g
       id="g857"
       style="opacity:1"><path
         style="color:#000000;font-style:normal;font-variant:normal;font-weight:normal;font-stretch:normal;font-size:medium;line-height:normal;font-family:sans-serif;font-variant-ligatures:normal;font-variant-position:normal;font-variant-caps:normal;font-variant-numeric:normal;font-variant-alternates:normal;font-variant-east-asian:normal;font-feature-settings:normal;font-variation-settings:normal;text-indent:0;text-align:start;text-decoration:none;text-decoration-line:none;text-decoration-style:solid;text-decoration-color:#000000;letter-spacing:normal;word-spacing:normal;text-transform:none;writing-mode:lr-tb;direction:ltr;text-orientation:mixed;dominant-baseline:auto;baseline-shift:baseline;text-anchor:start;white-space:normal;shape-padding:0;shape-margin:0;inline-size:0;clip-rule:nonzero;display:inline;overflow:visible;visibility:visible;isolation:auto;mix-blend-mode:normal;color-interpolation:sRGB;color-interpolation-filters:linearRGB;solid-color:#000000;solid-opacity:1;vector-effect:none;fill:#e31e24;fill-opacity:1;fill-rule:nonzero;stroke:none;stroke-width:1.86777;stroke-linecap:round;stroke-linejoin:round;stroke-miterlimit:4;stroke-dasharray:none;stroke-dashoffset:0;stroke-opacity:1.0;color-rendering:auto;image-rendering:auto;shape-rendering:auto;text-rendering:auto;enable-background:accumulate;stop-color:#000000;stop-opacity:1;"
         d="M 72.881201,84.155996 C 84.773146,82.669502 91.462366,67.061324 87.746133,54.426132 84.773146,46.25042 79.57042,39.561201 64.705489,39.561201 c -33.446096,0 -27.500124,49.054274 8.175712,44.594795 z"
         id="path859" /><path
         style="color:#000000;font-style:normal;font-variant:normal;font-weight:normal;font-stretch:normal;font-size:medium;line-height:normal;font-family:sans-serif;font-variant-ligatures:normal;font-variant-position:normal;font-variant-caps:normal;font-variant-numeric:normal;font-variant-alternates:normal;font-variant-east-asian:normal;font-feature-settings:normal;font-variation-settings:normal;text-indent:0;text-align:start;text-decoration:none;text-decoration-line:none;text-decoration-style:solid;text-decoration-color:#000000;letter-spacing:normal;word-spacing:normal;text-transform:none;writing-mode:lr-tb;direction:ltr;text-orientation:mixed;dominant-baseline:auto;baseline-shift:baseline;text-anchor:start;white-space:normal;shape-padding:0;shape-margin:0;inline-size:0;clip-rule:nonzero;display:inline;overflow:visible;visibility:visible;isolation:auto;mix-blend-mode:normal;color-interpolation:sRGB;color-interpolation-filters:linearRGB;solid-color:#000000;solid-opacity:1;vector-effect:none;fill:#2b2a29;fill-opacity:1;fill-rule:nonzero;stroke:none;stroke-width:1.86777;stroke-linecap:round;stroke-linejoin:round;stroke-miterlimit:4;stroke-dasharray:none;stroke-dashoffset:0;stroke-opacity:1.0;color-rendering:auto;image-rendering:auto;shape-rendering:auto;text-rendering:auto;enable-background:accumulate;stop-color:#000000;stop-opacity:1;"
         d="M 64.705078 38.626953 C 56.115271 38.626953 49.893536 41.817303 46.123047 46.576172 C 42.352558 51.335041 41.032789 57.592548 41.949219 63.669922 C 43.782077 75.824669 54.733648 87.364837 72.996094 85.082031 C 79.319864 84.29156 84.214946 79.751805 87.009766 73.873047 C 89.804585 67.994289 90.572866 60.725089 88.642578 54.162109 A 0.93397837 0.93397837 0 0 0 88.623047 54.107422 C 87.104716 49.932014 84.973415 46.02561 81.251953 43.185547 C 77.530492 40.345484 72.277626 38.626953 64.705078 38.626953 z M 64.705078 40.494141 C 71.997461 40.494141 76.77976 42.121447 80.119141 44.669922 C 83.449321 47.211375 85.40206 50.72817 86.855469 54.714844 C 88.632108 60.780866 87.914382 67.622039 85.324219 73.070312 C 82.7305 78.526065 78.3338 82.532493 72.765625 83.228516 C 55.352234 85.405189 45.494437 74.650098 43.796875 63.392578 C 42.948094 57.763818 44.181405 52.035777 47.587891 47.736328 C 50.994377 43.43688 56.571837 40.494141 64.705078 40.494141 z "
         id="path861" /></g></g><path
     id="path18"
     d="M 46.867571,59.628858 C 45.381078,50.709899 54.300037,43.277434 63.218995,43.277434 60.989256,42.534187 47.610817,64.831584 46.867571,59.628858 Z"
     class="fil2"
     style="clip-rule:evenodd;fill:#f08683;fill-rule:evenodd;stroke-width:0.743247;image-rendering:optimizeQuality;shape-rendering:geometricPrecision;text-rendering:geometricPrecision" /><path
     id="path16"
     d="m 78.083926,44.763927 c 2.972986,10.405452 0.743247,16.351425 -1.486494,20.810905 -6.689218,11.891944 -22.297395,12.635191 -21.554149,12.635191 4.45948,2.22974 8.918959,4.459479 13.378438,4.459479 6.68922,-0.743247 13.378438,-3.716232 17.094672,-13.378438 1.486492,-2.972985 1.486492,-11.148699 0,-15.608178 -2.972988,-6.689219 -7.432467,-8.918959 -7.432467,-8.918959 z"
     class="fil1"
     style="clip-rule:evenodd;fill:#b12322;fill-rule:evenodd;stroke-width:0.743247;image-rendering:optimizeQuality;shape-rendering:geometricPrecision;text-rendering:geometricPrecision" /></g></svg>
