<?xml version="1.0" encoding="UTF-8" standalone="no"?>
<svg
   xmlns:dc="http://purl.org/dc/elements/1.1/"
   xmlns:cc="http://creativecommons.org/ns#"
   xmlns:rdf="http://www.w3.org/1999/02/22-rdf-syntax-ns#"
   xmlns:svg="http://www.w3.org/2000/svg"
   xmlns="http://www.w3.org/2000/svg"
   xmlns:sodipodi="http://sodipodi.sourceforge.net/DTD/sodipodi-0.dtd"
   xmlns:inkscape="http://www.inkscape.org/namespaces/inkscape"
   xml:space="preserve"
   width="66.461304"
   height="60.201389"
   version="1.1"
   style="clip-rule:evenodd;fill-rule:evenodd;image-rendering:optimizeQuality;shape-rendering:geometricPrecision;text-rendering:geometricPrecision"
   viewBox="0 0 88.367633 79.994186"
   id="svg49"
   sodipodi:docname="2020-DE-07-yellow.svg"
   inkscape:version="1.0 (4035a4fb49, 2020-05-01)"><metadata
   id="metadata53"><rdf:RDF><cc:Work
       rdf:about=""><dc:format>image/svg+xml</dc:format><dc:type
         rdf:resource="http://purl.org/dc/dcmitype/StillImage" /><dc:title></dc:title></cc:Work></rdf:RDF></metadata><sodipodi:namedview
   inkscape:window-maximized="1"
   inkscape:window-y="-8"
   inkscape:window-x="-8"
   inkscape:cy="18.756595"
   inkscape:cx="19.511142"
   inkscape:zoom="1.6287649"
   units="px"
   fit-margin-bottom="0.5"
   fit-margin-right="0.5"
   fit-margin-left="0.5"
   fit-margin-top="0.5"
   lock-margins="true"
   inkscape:document-rotation="0"
   pagecolor="#ffffff"
   bordercolor="#666666"
   borderopacity="1"
   objecttolerance="10"
   gridtolerance="10"
   guidetolerance="10"
   inkscape:pageopacity="0"
   inkscape:pageshadow="2"
   inkscape:window-width="1280"
   inkscape:window-height="972"
   id="namedview51"
   showgrid="false"
   inkscape:current-layer="svg49" />
 <defs
   id="defs4">
  <style
   type="text/css"
   id="style2">
   <![CDATA[
    .str1 {stroke:#2B2A29;stroke-width:1.25658;stroke-linecap:round;stroke-linejoin:round}
    .str0 {stroke:#2B2A29;stroke-width:2.51317;stroke-linecap:round;stroke-linejoin:round}
    .fil1 {fill:none}
    .fil2 {fill:#FECC00}
    .fil0 {fill:#FFED00}
    .fil3 {fill:#D7AD05}
    .fil4 {fill:#FCEF64}
   ]]>
  </style>
 </defs>
 
<g
   transform="matrix(0.73931399,0,0,0.73931399,0.95787451,0.78944603)"
   id="g995"><g
     id="Layer_x0020_1">
  <metadata
   id="CorelCorpID_0Corel-Layer" />
  <g
   id="_1240724464">
   <g
   id="g41">
    <g
   style="opacity:1"
   id="g944"><path
     id="path946"
     d="m 46,39 c 0,0 0,2 -1,0 C 36,29 33,2 58,1 c 26,0 28,17 20,29 0,0 -9,14 -6,10 8,-9 46,-31 44,7 -1,14 -33,19 -39,15 22,3 33,9 24,29 -4,7 -31,27 -39,1 C 56,67 58,70 58,84 59,99 42,112 26,100 2,82 26,68 40,64 33,66 -9,74 3,39 13,10 37,31 46,39 Z"
     style="color:#000000;font-style:normal;font-variant:normal;font-weight:normal;font-stretch:normal;font-size:medium;line-height:normal;font-family:sans-serif;font-variant-ligatures:normal;font-variant-position:normal;font-variant-caps:normal;font-variant-numeric:normal;font-variant-alternates:normal;font-variant-east-asian:normal;font-feature-settings:normal;font-variation-settings:normal;text-indent:0;text-align:start;text-decoration:none;text-decoration-line:none;text-decoration-style:solid;text-decoration-color:#000000;letter-spacing:normal;word-spacing:normal;text-transform:none;writing-mode:lr-tb;direction:ltr;text-orientation:mixed;dominant-baseline:auto;baseline-shift:baseline;text-anchor:start;white-space:normal;shape-padding:0;shape-margin:0;inline-size:0;clip-rule:nonzero;display:inline;overflow:visible;visibility:visible;isolation:auto;mix-blend-mode:normal;color-interpolation:sRGB;color-interpolation-filters:linearRGB;solid-color:#000000;solid-opacity:1;vector-effect:none;fill:#ffed00;fill-opacity:1;fill-rule:nonzero;stroke:none;stroke-width:2.51317;stroke-linecap:round;stroke-linejoin:round;stroke-miterlimit:4;stroke-dasharray:none;stroke-dashoffset:0;stroke-opacity:1;color-rendering:auto;image-rendering:auto;shape-rendering:auto;text-rendering:auto;enable-background:accumulate;stop-color:#000000;stop-opacity:1" /><path
     id="path948"
     d="M 57.949219,-0.25585938 C 51.472572,0.00320648 46.646076,1.9744601 43.308594,5.0253906 39.971112,8.0763211 38.166683,12.150937 37.507812,16.433594 36.689499,21.752631 37.683819,27.31785 39.613281,32.136719 35.379262,28.846265 30.579952,25.596363 25.25,23.925781 20.859818,22.549754 16.249357,22.353442 12.089844,24.527344 7.9303307,26.701246 4.3782331,31.149218 1.8125,38.589844 a 1.2567107,1.2567107 0 0 0 -0.00195,0.002 c -3.0681716,8.948834 -2.76019281,15.435108 -0.1679688,19.984375 2.5922241,4.549267 7.3276975,6.921041 12.4687498,8.027344 4.890215,1.052324 10.184146,0.991492 14.832031,0.5625 -4.328744,2.292694 -8.443139,5.205508 -11.193359,8.824218 -2.531283,3.330636 -3.879736,7.331216 -2.880859,11.636719 0.998876,4.305503 4.233981,8.771678 10.376953,13.37891 8.345142,6.25886 17.240706,6.06517 23.769531,2.20117 6.167679,-3.650261 10.148319,-10.512476 10.136719,-17.998049 0.528899,2.327667 0.853267,3.868432 1.625,7.083985 a 1.2567107,1.2567107 0 0 0 0.02148,0.07617 c 2.071745,6.73317 5.498407,10.733914 9.591797,12.574224 4.09339,1.84031 8.67702,1.50129 12.990234,0.12891 4.313215,-1.37239 8.413573,-3.78319 11.72461,-6.30665 3.311036,-2.52346 5.812082,-5.087652 6.986332,-7.142578 a 1.2567107,1.2567107 0 0 0 0.0547,-0.107422 c 2.29896,-5.108794 3.36822,-9.404972 3.25,-13.103516 -0.11821,-3.698543 -1.49221,-6.785186 -3.88281,-9.175781 -2.316546,-2.316547 -5.536471,-4.00501 -9.464843,-5.322266 2.189831,-0.349843 4.443144,-0.828916 6.666016,-1.455078 4.539607,-1.278762 8.942487,-3.125228 12.357427,-5.632812 3.41493,-2.507585 5.89808,-5.766571 6.18164,-9.736328 a 1.2567107,1.2567107 0 0 0 0,-0.02344 c 0.51064,-9.702208 -1.52062,-15.888275 -5.3086,-19.380859 -3.78797,-3.492585 -9.07725,-4.02455 -14.421873,-3.046875 -7.487091,1.36959 -15.219125,5.569473 -20.742188,9.628906 0.926152,-1.454689 2.256879,-3.559746 2.263672,-3.570312 4.178725,-6.268088 5.842011,-13.958892 2.83789,-20.240235 C 78.878692,4.1756887 71.273871,-0.25585938 58,-0.25585938 a 1.2567107,1.2567107 0 0 0 -0.05078,0 z m 0.08008,2.51367188 c 12.704023,0.00708 19.094185,4.0710449 21.587891,9.2851565 2.495879,5.218657 1.159165,12.027853 -2.66211,17.759765 a 1.2567107,1.2567107 0 0 0 -0.01172,0.01758 c 0,0 -2.253114,3.50303 -4.134765,6.513672 -0.940826,1.505322 -1.781298,2.873784 -2.232422,3.675782 -0.112781,0.200499 -0.198501,0.359667 -0.273438,0.519531 -0.03747,0.07993 -0.07232,0.142104 -0.11914,0.308594 -0.02341,0.08324 -0.07657,0.171517 -0.04687,0.488281 0.0074,0.07919 0.02343,0.175573 0.06445,0.294922 0.04103,0.119348 0.227801,0.405403 0.228516,0.40625 7.14e-4,8.47e-4 0.469706,0.345278 0.470703,0.345703 9.97e-4,4.25e-4 0.355191,0.101562 0.496093,0.101562 0.56361,0 0.654234,-0.174086 0.75,-0.242187 0.09577,-0.0681 0.141668,-0.113641 0.183594,-0.154297 0.08385,-0.08131 0.138894,-0.144578 0.203125,-0.220703 0.113792,-0.134865 0.254334,-0.318428 0.417969,-0.535156 3.690513,-4.143971 15.222048,-11.917643 25.02539,-13.710938 4.905375,-0.897325 9.241095,-0.36679 12.265625,2.421875 3.02192,2.786269 4.98862,8.095947 4.5039,17.378906 -0.21711,3.029423 -2.10894,5.644781 -5.16211,7.886719 -3.05381,2.242416 -7.21343,4.02095 -11.548821,5.242188 -4.335392,1.221237 -8.849172,1.894406 -12.591797,2.015625 -0.223214,0.0072 -0.368055,-0.03365 -0.585937,-0.03125 -2.396578,-0.482779 -4.958944,-0.897456 -7.6875,-1.269532 a 1.2567107,1.2567107 0 0 0 -0.867188,2.289063 c 0.139459,0.09297 0.382674,0.09842 0.533204,0.18164 l -0.0059,0.01758 c 0.04192,0.0057 0.07535,0.01379 0.117188,0.01953 1.8134,0.964112 4.380875,1.292693 7.49414,1.263672 7.054555,1.464239 12.316296,3.507702 15.294922,6.486328 1.984399,1.984405 3.047899,4.335262 3.148439,7.480469 0.1,3.128152 -0.83046,7.063381 -3.005861,11.917968 -0.839815,1.449867 -3.189966,3.98563 -6.296875,6.353516 -3.126463,2.38279 -7.026105,4.659493 -10.96289,5.912103 -3.936786,1.25262 -7.853156,1.4761 -11.197266,-0.0273 -3.339012,-1.50115 -6.282519,-4.746041 -8.210937,-10.994138 -1.488416,-6.204176 -2.486013,-10.690328 -3.138672,-13.689453 -0.327541,-1.505127 -0.570558,-2.638722 -0.748047,-3.445313 -0.17749,-0.80659 -0.216963,-1.13518 -0.408203,-1.613281 -0.0239,-0.05976 -0.04614,-0.125581 -0.125,-0.25 -0.03943,-0.06221 -0.09088,-0.142035 -0.207032,-0.251953 -0.05808,-0.05496 -0.133827,-0.118583 -0.24414,-0.181641 -0.110313,-0.06306 -0.442101,-0.152156 -0.44336,-0.152343 -0.0013,-1.87e-4 -0.582807,0.05039 -0.583984,0.05078 -0.0012,3.91e-4 -0.334358,0.157396 -0.439453,0.25 -0.210191,0.185207 -0.275787,0.336994 -0.322266,0.441406 -0.09296,0.208824 -0.09451,0.294244 -0.105469,0.369141 -0.04384,0.299585 -0.02399,0.409016 -0.01758,0.638672 0.01282,0.459311 0.05097,1.142443 0.09766,2.068359 0.09337,1.851832 0.21875,4.639294 0.21875,8.109375 a 1.2567107,1.2567107 0 0 0 0.002,0.08398 c 0.46696,7.004397 -3.290544,13.572983 -9.011719,16.958989 -5.721175,3.386 -13.325611,3.69231 -20.980469,-2.048832 C 20.896878,94.601369 18.131983,90.567544 17.318359,87.060547 16.504736,83.55355 17.531283,80.42913 19.75,77.509766 24.187434,71.671037 33.535677,67.154706 40.345703,65.208984 a 1.2567107,1.2567107 0 0 0 0.175781,-0.06836 1.2567107,1.2567107 0 0 0 0.08398,-0.04297 1.2567107,1.2567107 0 0 0 0.355469,-0.304687 1.2567107,1.2567107 0 0 0 0.05664,-0.07422 1.2567107,1.2567107 0 0 0 0.0957,-0.164062 1.2567107,1.2567107 0 0 0 0.06836,-0.173829 1.2567107,1.2567107 0 0 0 0.02539,-0.0918 1.2567107,1.2567107 0 0 0 0.01758,-0.0918 1.2567107,1.2567107 0 0 0 0.01172,-0.283204 1.2567107,1.2567107 0 0 0 -0.0098,-0.09375 1.2567107,1.2567107 0 0 0 -0.111328,-0.359374 1.2567107,1.2567107 0 0 0 -0.210937,-0.310547 1.2567107,1.2567107 0 0 0 -0.136719,-0.126953 1.2567107,1.2567107 0 0 0 -0.07617,-0.05664 1.2567107,1.2567107 0 0 0 -0.25,-0.132813 1.2567107,1.2567107 0 0 0 -0.179687,-0.05469 1.2567107,1.2567107 0 0 0 -0.28125,-0.03125 1.2567107,1.2567107 0 0 0 -0.09375,0.0039 1.2567107,1.2567107 0 0 0 -0.09375,0.0098 1.2567107,1.2567107 0 0 0 -0.138672,0.0293 C 36.367068,63.730224 24.106567,66.183879 14.638672,64.146484 9.9047244,63.127787 5.9526978,61.062061 3.8261719,57.330078 1.6996459,53.598095 1.2576247,47.959369 4.1894531,39.408203 6.6236062,32.35053 9.8200997,28.548529 13.253906,26.753906 16.688143,24.959058 20.515182,25.075246 24.5,26.324219 c 6.931303,2.172498 13.622007,7.626898 18.3125,11.695312 0.365078,0.500182 0.673567,1.094075 1.064453,1.542969 0.287464,0.574928 0.434341,0.946462 1.003906,1.326172 0.284783,0.189855 0.863834,0.347435 1.341797,0.15625 0.477963,-0.191185 0.669213,-0.520065 0.775391,-0.732422 0.212356,-0.424713 0.2141,-0.683975 0.236328,-0.90625 C 47.256603,39.183975 47.255859,39 47.255859,39 a 1.2567107,1.2567107 0 0 0 -0.421875,-0.939453 c -0.534966,-0.475526 -1.545369,-1.231895 -2.18164,-1.789063 -3.4274,-4.924534 -5.709762,-12.632639 -4.660156,-19.455078 0.591129,-3.842343 2.1617,-7.3302271 5.011718,-9.9355466 2.846363,-2.6019782 7.014502,-4.3784835 13.025391,-4.6230469 z"
     style="color:#000000;font-style:normal;font-variant:normal;font-weight:normal;font-stretch:normal;font-size:medium;line-height:normal;font-family:sans-serif;font-variant-ligatures:normal;font-variant-position:normal;font-variant-caps:normal;font-variant-numeric:normal;font-variant-alternates:normal;font-variant-east-asian:normal;font-feature-settings:normal;font-variation-settings:normal;text-indent:0;text-align:start;text-decoration:none;text-decoration-line:none;text-decoration-style:solid;text-decoration-color:#000000;letter-spacing:normal;word-spacing:normal;text-transform:none;writing-mode:lr-tb;direction:ltr;text-orientation:mixed;dominant-baseline:auto;baseline-shift:baseline;text-anchor:start;white-space:normal;shape-padding:0;shape-margin:0;inline-size:0;clip-rule:nonzero;display:inline;overflow:visible;visibility:visible;isolation:auto;mix-blend-mode:normal;color-interpolation:sRGB;color-interpolation-filters:linearRGB;solid-color:#000000;solid-opacity:1;vector-effect:none;fill:#2b2a29;fill-opacity:1;fill-rule:nonzero;stroke:none;stroke-width:2.51317;stroke-linecap:round;stroke-linejoin:round;stroke-miterlimit:4;stroke-dasharray:none;stroke-dashoffset:0;stroke-opacity:1;color-rendering:auto;image-rendering:auto;shape-rendering:auto;text-rendering:auto;enable-background:accumulate;stop-color:#000000;stop-opacity:1" /></g>
    <path
   id="path880"
   d="m 112.01367,30.371094 a 0.62835283,0.62835283 0 0 0 -0.11719,0.0098 c -3.06141,0.510236 -4.9051,1.295364 -6.32226,2.06836 -1.41716,0.772995 -2.37278,1.488192 -3.77344,1.955078 l 0.11133,-0.02539 c -3.636835,0.519548 -9.36876,2.527211 -14.744141,4.402344 -2.687691,0.937567 -5.277231,1.843294 -7.431641,2.509766 C 77.581918,41.957488 75.816749,42.371094 75,42.371094 A 0.62829,0.62829 0 0 0 74.371094,43 0.62829,0.62829 0 0 0 75,43.628906 c 1.183251,0 2.918082,-0.461394 5.107422,-1.138672 2.18934,-0.677278 4.7873,-1.584051 7.474609,-2.521484 5.374619,-1.874867 11.142694,-3.867204 14.505859,-4.347656 a 0.62835283,0.62835283 0 0 0 0.11133,-0.02539 c 1.59934,-0.533114 2.64372,-1.317917 3.97656,-2.044922 1.00947,-0.550622 2.40021,-1.061632 4.19727,-1.505859 a 0.62829,0.62829 0 0 0 0.18359,0.398437 0.62829,0.62829 0 0 0 0.88672,0 l 1,-1 a 0.62835283,0.62835283 0 0 0 -0.42969,-1.072266 z"
   style="color:#000000;font-style:normal;font-variant:normal;font-weight:normal;font-stretch:normal;font-size:medium;line-height:normal;font-family:sans-serif;font-variant-ligatures:normal;font-variant-position:normal;font-variant-caps:normal;font-variant-numeric:normal;font-variant-alternates:normal;font-variant-east-asian:normal;font-feature-settings:normal;font-variation-settings:normal;text-indent:0;text-align:start;text-decoration:none;text-decoration-line:none;text-decoration-style:solid;text-decoration-color:#000000;letter-spacing:normal;word-spacing:normal;text-transform:none;writing-mode:lr-tb;direction:ltr;text-orientation:mixed;dominant-baseline:auto;baseline-shift:baseline;text-anchor:start;white-space:normal;shape-padding:0;shape-margin:0;inline-size:0;clip-rule:nonzero;display:inline;overflow:visible;visibility:visible;opacity:1;isolation:auto;mix-blend-mode:normal;color-interpolation:sRGB;color-interpolation-filters:linearRGB;solid-color:#000000;solid-opacity:1;vector-effect:none;fill:#2b2a29;fill-opacity:1;fill-rule:nonzero;stroke:none;stroke-width:1.25658;stroke-linecap:round;stroke-linejoin:round;stroke-miterlimit:4;stroke-dasharray:none;stroke-dashoffset:0;stroke-opacity:1;color-rendering:auto;image-rendering:auto;shape-rendering:auto;text-rendering:auto;enable-background:accumulate;stop-color:#000000;stop-opacity:1" />
    <path
   id="path884"
   d="m 115,40.371094 a 0.62829,0.62829 0 0 0 -0.43164,0.171875 c -0.42836,0.05566 -0.71201,0.06227 -1.24805,0.15039 -1.15089,0.189189 -2.4982,0.439111 -3.8125,0.689453 -1.3143,0.250343 -2.59512,0.500975 -3.60547,0.6875 -0.50517,0.09326 -0.94328,0.169502 -1.27929,0.222657 -0.33602,0.05316 -0.60276,0.07813 -0.62305,0.07813 a 0.62835283,0.62835283 0 0 0 -0.0625,0.0039 c -10.136176,1.013618 -17.199544,5.028785 -24.025391,6.003906 a 0.62829,0.62829 0 0 0 -0.533203,0.708985 0.62829,0.62829 0 0 0 0.708985,0.533203 C 87.262044,48.596215 94.198676,44.611382 104.0625,43.625 L 104,43.628906 c 0.22971,0 0.46297,-0.03753 0.81836,-0.09375 0.35539,-0.05622 0.80009,-0.136231 1.31055,-0.230468 1.0209,-0.188475 2.30258,-0.437843 3.61328,-0.6875 1.3107,-0.249658 2.65089,-0.499736 3.78125,-0.685547 1.13035,-0.185812 2.08127,-0.302735 2.47656,-0.302735 a 0.628906,0.628906 0 0 0 0,-1.257812 z"
   style="color:#000000;font-style:normal;font-variant:normal;font-weight:normal;font-stretch:normal;font-size:medium;line-height:normal;font-family:sans-serif;font-variant-ligatures:normal;font-variant-position:normal;font-variant-caps:normal;font-variant-numeric:normal;font-variant-alternates:normal;font-variant-east-asian:normal;font-feature-settings:normal;font-variation-settings:normal;text-indent:0;text-align:start;text-decoration:none;text-decoration-line:none;text-decoration-style:solid;text-decoration-color:#000000;letter-spacing:normal;word-spacing:normal;text-transform:none;writing-mode:lr-tb;direction:ltr;text-orientation:mixed;dominant-baseline:auto;baseline-shift:baseline;text-anchor:start;white-space:normal;shape-padding:0;shape-margin:0;inline-size:0;clip-rule:nonzero;display:inline;overflow:visible;visibility:visible;opacity:1;isolation:auto;mix-blend-mode:normal;color-interpolation:sRGB;color-interpolation-filters:linearRGB;solid-color:#000000;solid-opacity:1;vector-effect:none;fill:#2b2a29;fill-opacity:1;fill-rule:nonzero;stroke:none;stroke-width:1.25658;stroke-linecap:round;stroke-linejoin:round;stroke-miterlimit:4;stroke-dasharray:none;stroke-dashoffset:0;stroke-opacity:1;color-rendering:auto;image-rendering:auto;shape-rendering:auto;text-rendering:auto;enable-background:accumulate;stop-color:#000000;stop-opacity:1" />
    <path
   id="path888"
   d="m 110,51.371094 a 0.62835283,0.62835283 0 0 0 -0.28125,0.06641 c -3.84078,1.920389 -9.02206,2.436269 -14.386719,2.810547 -5.364655,0.374278 -10.905417,0.614306 -15.53125,2.15625 a 0.62829,0.62829 0 0 0 -0.396484,0.794922 0.62829,0.62829 0 0 0 0.794922,0.396484 c 4.374167,-1.458056 9.833405,-1.718028 15.21875,-2.09375 5.315651,-0.37086 10.556591,-0.860852 14.691411,-2.873047 H 113 A 0.62829,0.62829 0 0 0 113.62891,52 0.62829,0.62829 0 0 0 113,51.371094 Z"
   style="color:#000000;font-style:normal;font-variant:normal;font-weight:normal;font-stretch:normal;font-size:medium;line-height:normal;font-family:sans-serif;font-variant-ligatures:normal;font-variant-position:normal;font-variant-caps:normal;font-variant-numeric:normal;font-variant-alternates:normal;font-variant-east-asian:normal;font-feature-settings:normal;font-variation-settings:normal;text-indent:0;text-align:start;text-decoration:none;text-decoration-line:none;text-decoration-style:solid;text-decoration-color:#000000;letter-spacing:normal;word-spacing:normal;text-transform:none;writing-mode:lr-tb;direction:ltr;text-orientation:mixed;dominant-baseline:auto;baseline-shift:baseline;text-anchor:start;white-space:normal;shape-padding:0;shape-margin:0;inline-size:0;clip-rule:nonzero;display:inline;overflow:visible;visibility:visible;opacity:1;isolation:auto;mix-blend-mode:normal;color-interpolation:sRGB;color-interpolation-filters:linearRGB;solid-color:#000000;solid-opacity:1;vector-effect:none;fill:#2b2a29;fill-opacity:1;fill-rule:nonzero;stroke:none;stroke-width:1.25658;stroke-linecap:round;stroke-linejoin:round;stroke-miterlimit:4;stroke-dasharray:none;stroke-dashoffset:0;stroke-opacity:1;color-rendering:auto;image-rendering:auto;shape-rendering:auto;text-rendering:auto;enable-background:accumulate;stop-color:#000000;stop-opacity:1" />
    <path
   id="path892"
   d="M 65,75.371094 A 0.62829,0.62829 0 0 0 64.371094,76 c 0,2.170162 0.847224,4.893742 2.080078,7.865234 1.232853,2.971493 2.865872,6.173954 4.496094,9.183594 1.630221,3.00964 3.258033,5.827721 4.472656,8.007812 0.607311,1.09005 1.111608,2.02053 1.457031,2.72656 0.172712,0.35302 0.304756,0.65186 0.388672,0.87305 0.08392,0.22119 0.105469,0.38891 0.105469,0.34375 A 0.62829,0.62829 0 0 0 78,105.62891 0.62829,0.62829 0 0 0 78.628906,105 c 0,-0.29516 -0.08099,-0.51026 -0.1875,-0.79102 -0.106514,-0.28076 -0.252789,-0.60301 -0.435547,-0.97656 -0.365514,-0.74709 -0.876842,-1.69161 -1.488281,-2.78906 -1.222877,-2.194909 -2.845065,-5.001828 -4.464844,-7.992188 -1.619778,-2.99036 -3.236759,-6.162899 -4.441406,-9.066406 C 66.406682,80.481258 65.628906,77.829838 65.628906,76 A 0.62829,0.62829 0 0 0 65,75.371094 Z"
   style="color:#000000;font-style:normal;font-variant:normal;font-weight:normal;font-stretch:normal;font-size:medium;line-height:normal;font-family:sans-serif;font-variant-ligatures:normal;font-variant-position:normal;font-variant-caps:normal;font-variant-numeric:normal;font-variant-alternates:normal;font-variant-east-asian:normal;font-feature-settings:normal;font-variation-settings:normal;text-indent:0;text-align:start;text-decoration:none;text-decoration-line:none;text-decoration-style:solid;text-decoration-color:#000000;letter-spacing:normal;word-spacing:normal;text-transform:none;writing-mode:lr-tb;direction:ltr;text-orientation:mixed;dominant-baseline:auto;baseline-shift:baseline;text-anchor:start;white-space:normal;shape-padding:0;shape-margin:0;inline-size:0;clip-rule:nonzero;display:inline;overflow:visible;visibility:visible;opacity:1;isolation:auto;mix-blend-mode:normal;color-interpolation:sRGB;color-interpolation-filters:linearRGB;solid-color:#000000;solid-opacity:1;vector-effect:none;fill:#2b2a29;fill-opacity:1;fill-rule:nonzero;stroke:none;stroke-width:1.25658;stroke-linecap:round;stroke-linejoin:round;stroke-miterlimit:4;stroke-dasharray:none;stroke-dashoffset:0;stroke-opacity:1;color-rendering:auto;image-rendering:auto;shape-rendering:auto;text-rendering:auto;enable-background:accumulate;stop-color:#000000;stop-opacity:1" />
    <path
   id="path896"
   d="M 70.958984,72.373047 A 0.62829,0.62829 0 0 0 70.4375,72.71875 0.62829,0.62829 0 0 0 70.71875,73.5625 c 0.02522,0.01261 0.562273,0.435693 1.181641,1.072266 0.619367,0.636572 1.412764,1.509136 2.314453,2.542968 1.803377,2.067666 4.049176,4.782662 6.294922,7.589844 2.245745,2.807182 4.491116,5.708343 6.296875,8.152344 1.798354,2.43398 3.165602,4.446564 3.615234,5.339844 0.02963,0.238371 0.06092,0.481059 0.132813,0.667968 0.09983,0.25955 0.166363,0.430036 0.376953,0.640625 0.05265,0.05265 0.10099,0.129479 0.308593,0.189453 0.103802,0.02999 0.275515,0.04516 0.44336,-0.0293 0.167844,-0.07446 0.280571,-0.221554 0.328125,-0.326172 0.09511,-0.209236 0.06472,-0.300349 0.05664,-0.378906 -0.0081,-0.07856 -0.02336,-0.140351 -0.04102,-0.205079 -0.06523,-0.239166 -0.20716,-0.563402 -0.429688,-1.015625 a 0.62835283,0.62835283 0 0 0 -0.03516,-0.08398 0.62829,0.62829 0 0 0 -0.08398,-0.125 C 90.899265,96.468802 89.596653,94.580657 87.818359,92.173828 85.999118,89.711579 83.744489,86.80024 81.490234,83.982422 79.23598,81.164604 76.981779,78.4421 75.160156,76.353516 74.249345,75.309223 73.448992,74.423974 72.802734,73.759766 72.156477,73.095557 71.756034,72.674892 71.28125,72.4375 a 0.62829,0.62829 0 0 0 -0.322266,-0.06445 z"
   style="color:#000000;font-style:normal;font-variant:normal;font-weight:normal;font-stretch:normal;font-size:medium;line-height:normal;font-family:sans-serif;font-variant-ligatures:normal;font-variant-position:normal;font-variant-caps:normal;font-variant-numeric:normal;font-variant-alternates:normal;font-variant-east-asian:normal;font-feature-settings:normal;font-variation-settings:normal;text-indent:0;text-align:start;text-decoration:none;text-decoration-line:none;text-decoration-style:solid;text-decoration-color:#000000;letter-spacing:normal;word-spacing:normal;text-transform:none;writing-mode:lr-tb;direction:ltr;text-orientation:mixed;dominant-baseline:auto;baseline-shift:baseline;text-anchor:start;white-space:normal;shape-padding:0;shape-margin:0;inline-size:0;clip-rule:nonzero;display:inline;overflow:visible;visibility:visible;opacity:1;isolation:auto;mix-blend-mode:normal;color-interpolation:sRGB;color-interpolation-filters:linearRGB;solid-color:#000000;solid-opacity:1;vector-effect:none;fill:#2b2a29;fill-opacity:1;fill-rule:nonzero;stroke:none;stroke-width:1.25658;stroke-linecap:round;stroke-linejoin:round;stroke-miterlimit:4;stroke-dasharray:none;stroke-dashoffset:0;stroke-opacity:1;color-rendering:auto;image-rendering:auto;shape-rendering:auto;text-rendering:auto;enable-background:accumulate;stop-color:#000000;stop-opacity:1" />
    <path
   id="path900"
   d="m 76.001953,67.371094 a 0.62829,0.62829 0 0 0 -0.597656,0.429687 0.62829,0.62829 0 0 0 0.396484,0.794922 c 8.907282,2.969094 16.806037,7.909778 22.722657,14.8125 a 0.62835283,0.62835283 0 0 0 0.128906,0.115235 c 0,0 0.741634,0.494861 1.607426,1.113281 0.86578,0.61842 1.87092,1.380685 2.29687,1.80664 a 0.62829,0.62829 0 0 0 0.88672,0 0.62829,0.62829 0 0 0 0,-0.886718 c -0.57405,-0.574045 -1.56891,-1.31178 -2.45313,-1.94336 -0.85998,-0.614278 -1.557748,-1.078838 -1.597652,-1.105469 C 93.317997,75.458023 85.253234,70.422302 76.199219,67.404297 a 0.62829,0.62829 0 0 0 -0.197266,-0.0332 z"
   style="color:#000000;font-style:normal;font-variant:normal;font-weight:normal;font-stretch:normal;font-size:medium;line-height:normal;font-family:sans-serif;font-variant-ligatures:normal;font-variant-position:normal;font-variant-caps:normal;font-variant-numeric:normal;font-variant-alternates:normal;font-variant-east-asian:normal;font-feature-settings:normal;font-variation-settings:normal;text-indent:0;text-align:start;text-decoration:none;text-decoration-line:none;text-decoration-style:solid;text-decoration-color:#000000;letter-spacing:normal;word-spacing:normal;text-transform:none;writing-mode:lr-tb;direction:ltr;text-orientation:mixed;dominant-baseline:auto;baseline-shift:baseline;text-anchor:start;white-space:normal;shape-padding:0;shape-margin:0;inline-size:0;clip-rule:nonzero;display:inline;overflow:visible;visibility:visible;opacity:1;isolation:auto;mix-blend-mode:normal;color-interpolation:sRGB;color-interpolation-filters:linearRGB;solid-color:#000000;solid-opacity:1;vector-effect:none;fill:#2b2a29;fill-opacity:1;fill-rule:nonzero;stroke:none;stroke-width:1.25658;stroke-linecap:round;stroke-linejoin:round;stroke-miterlimit:4;stroke-dasharray:none;stroke-dashoffset:0;stroke-opacity:1;color-rendering:auto;image-rendering:auto;shape-rendering:auto;text-rendering:auto;enable-background:accumulate;stop-color:#000000;stop-opacity:1" />
    <path
   id="path904"
   d="m 41.960938,67.373047 a 0.62829,0.62829 0 0 0 -0.404297,0.183594 c -2.950637,2.950637 -7.955766,6.957473 -12.71875,11.09375 -4.339333,3.768367 -8.263447,7.572943 -10.548829,10.998047 -0.122761,0.06713 -0.29438,0.07407 -0.396484,0.154296 -0.285245,0.224121 -0.505271,0.483492 -0.666016,0.72461 -0.08037,0.120558 -0.145399,0.233617 -0.197265,0.363281 -0.02593,0.06483 -0.05015,0.131254 -0.06445,0.232422 -0.01431,0.101167 -0.04532,0.264046 0.105468,0.490234 0.150793,0.226188 0.501925,0.312815 0.664063,0.28711 0.162138,-0.02571 0.23807,-0.07633 0.310547,-0.121094 0.144954,-0.08953 0.254926,-0.192426 0.398437,-0.335938 a 0.62835283,0.62835283 0 0 0 0.10156,-0.130859 c 0.119011,-0.20827 0.422121,-0.480114 0.560547,-0.695312 A 0.62829,0.62829 0 0 0 19.628906,90 a 0.62829,0.62829 0 0 0 -0.002,-0.02734 c 2.191459,-3.117926 5.868108,-6.754295 10.035156,-10.373047 4.737016,-4.113723 9.731887,-8.106887 12.78125,-11.15625 a 0.62829,0.62829 0 0 0 0,-0.886718 0.62829,0.62829 0 0 0 -0.482421,-0.183594 z"
   style="color:#000000;font-style:normal;font-variant:normal;font-weight:normal;font-stretch:normal;font-size:medium;line-height:normal;font-family:sans-serif;font-variant-ligatures:normal;font-variant-position:normal;font-variant-caps:normal;font-variant-numeric:normal;font-variant-alternates:normal;font-variant-east-asian:normal;font-feature-settings:normal;font-variation-settings:normal;text-indent:0;text-align:start;text-decoration:none;text-decoration-line:none;text-decoration-style:solid;text-decoration-color:#000000;letter-spacing:normal;word-spacing:normal;text-transform:none;writing-mode:lr-tb;direction:ltr;text-orientation:mixed;dominant-baseline:auto;baseline-shift:baseline;text-anchor:start;white-space:normal;shape-padding:0;shape-margin:0;inline-size:0;clip-rule:nonzero;display:inline;overflow:visible;visibility:visible;opacity:1;isolation:auto;mix-blend-mode:normal;color-interpolation:sRGB;color-interpolation-filters:linearRGB;solid-color:#000000;solid-opacity:1;vector-effect:none;fill:#2b2a29;fill-opacity:1;fill-rule:nonzero;stroke:none;stroke-width:1.25658;stroke-linecap:round;stroke-linejoin:round;stroke-miterlimit:4;stroke-dasharray:none;stroke-dashoffset:0;stroke-opacity:1;color-rendering:auto;image-rendering:auto;shape-rendering:auto;text-rendering:auto;enable-background:accumulate;stop-color:#000000;stop-opacity:1" />
    <path
   id="path908"
   d="m 52.005859,73.371094 a 0.62829,0.62829 0 0 0 -0.544921,0.304687 c -0.822891,1.371484 -1.620234,3.691056 -2.46875,6.535157 -0.848517,2.8441 -1.724859,6.192349 -2.59961,9.503906 -0.874751,3.311556 -1.748465,6.586516 -2.585937,9.269531 -0.837473,2.683015 -1.684252,4.806215 -2.308594,5.638675 a 0.62829,0.62829 0 0 0 0.125,0.8789 0.62829,0.62829 0 0 0 0.878906,-0.125 c 0.875658,-1.16754 1.653879,-3.29434 2.503906,-6.017575 0.850028,-2.723235 1.726314,-6.010775 2.601563,-9.324219 0.875249,-3.313443 1.748907,-6.652694 2.58789,-9.464844 0.838984,-2.812149 1.666641,-5.117577 2.34375,-6.246093 a 0.62829,0.62829 0 0 0 -0.214843,-0.863281 0.62829,0.62829 0 0 0 -0.31836,-0.08984 z"
   style="color:#000000;font-style:normal;font-variant:normal;font-weight:normal;font-stretch:normal;font-size:medium;line-height:normal;font-family:sans-serif;font-variant-ligatures:normal;font-variant-position:normal;font-variant-caps:normal;font-variant-numeric:normal;font-variant-alternates:normal;font-variant-east-asian:normal;font-feature-settings:normal;font-variation-settings:normal;text-indent:0;text-align:start;text-decoration:none;text-decoration-line:none;text-decoration-style:solid;text-decoration-color:#000000;letter-spacing:normal;word-spacing:normal;text-transform:none;writing-mode:lr-tb;direction:ltr;text-orientation:mixed;dominant-baseline:auto;baseline-shift:baseline;text-anchor:start;white-space:normal;shape-padding:0;shape-margin:0;inline-size:0;clip-rule:nonzero;display:inline;overflow:visible;visibility:visible;opacity:1;isolation:auto;mix-blend-mode:normal;color-interpolation:sRGB;color-interpolation-filters:linearRGB;solid-color:#000000;solid-opacity:1;vector-effect:none;fill:#2b2a29;fill-opacity:1;fill-rule:nonzero;stroke:none;stroke-width:1.25658;stroke-linecap:round;stroke-linejoin:round;stroke-miterlimit:4;stroke-dasharray:none;stroke-dashoffset:0;stroke-opacity:1;color-rendering:auto;image-rendering:auto;shape-rendering:auto;text-rendering:auto;enable-background:accumulate;stop-color:#000000;stop-opacity:1" />
    <path
   id="path912"
   d="m 46.966797,72.373047 a 0.62829,0.62829 0 0 0 -0.119141,0.01758 c -0.691225,0.172806 -1.35069,0.636478 -2.103515,1.289063 -0.752826,0.652584 -1.578559,1.508687 -2.464844,2.513671 -1.772571,2.009969 -3.779025,4.613527 -5.783203,7.306641 -4.008356,5.386228 -8.069032,11.186219 -9.939453,13.056641 A 0.62835283,0.62835283 0 0 0 26.371094,97 c 0,0.29057 -0.0522,0.262428 -0.152344,0.3125 C 26.118606,97.362572 26,97.371094 26,97.371094 A 0.62829,0.62829 0 0 0 25.371094,98 0.62829,0.62829 0 0 0 26,98.628906 c 0,0 0.381394,0.0085 0.78125,-0.191406 0.325237,-0.162619 0.624279,-0.579946 0.746094,-1.097656 2.143436,-2.176909 6.023422,-7.777811 9.976562,-13.089844 1.995822,-2.681886 3.989368,-5.265828 5.716797,-7.224609 0.863715,-0.979391 1.662982,-1.802976 2.347656,-2.396485 0.684675,-0.593509 1.27521,-0.942337 1.583985,-1.019531 a 0.62829,0.62829 0 0 0 0.457031,-0.761719 0.62829,0.62829 0 0 0 -0.642578,-0.474609 z"
   style="color:#000000;font-style:normal;font-variant:normal;font-weight:normal;font-stretch:normal;font-size:medium;line-height:normal;font-family:sans-serif;font-variant-ligatures:normal;font-variant-position:normal;font-variant-caps:normal;font-variant-numeric:normal;font-variant-alternates:normal;font-variant-east-asian:normal;font-feature-settings:normal;font-variation-settings:normal;text-indent:0;text-align:start;text-decoration:none;text-decoration-line:none;text-decoration-style:solid;text-decoration-color:#000000;letter-spacing:normal;word-spacing:normal;text-transform:none;writing-mode:lr-tb;direction:ltr;text-orientation:mixed;dominant-baseline:auto;baseline-shift:baseline;text-anchor:start;white-space:normal;shape-padding:0;shape-margin:0;inline-size:0;clip-rule:nonzero;display:inline;overflow:visible;visibility:visible;opacity:1;isolation:auto;mix-blend-mode:normal;color-interpolation:sRGB;color-interpolation-filters:linearRGB;solid-color:#000000;solid-opacity:1;vector-effect:none;fill:#2b2a29;fill-opacity:1;fill-rule:nonzero;stroke:none;stroke-width:1.25658;stroke-linecap:round;stroke-linejoin:round;stroke-miterlimit:4;stroke-dasharray:none;stroke-dashoffset:0;stroke-opacity:1;color-rendering:auto;image-rendering:auto;shape-rendering:auto;text-rendering:auto;enable-background:accumulate;stop-color:#000000;stop-opacity:1" />
    <path
   id="path916"
   d="m 5.078125,40.304688 c -0.9831601,-0.07454 -1.6937269,-0.09493 -2.2773438,0.09961 a 0.62829,0.62829 0 0 0 -0.3964843,0.794922 0.62829,0.62829 0 0 0 0.7949219,0.396484 c 0.1663831,-0.05546 0.8620663,-0.107098 1.7851562,-0.03711 0.9230899,0.06999 2.1127075,0.226446 3.4765625,0.451172 2.7277105,0.449452 6.1552495,1.166097 9.6464845,1.976562 6.910495,1.604222 14.033714,3.587153 16.488281,4.550781 0.04767,0.07653 0.05254,0.19216 0.107422,0.253907 0.170788,0.192136 0.370416,0.33942 0.589844,0.476562 0.438855,0.274284 0.964838,0.499754 1.486328,0.695313 1.04298,0.391117 2.068359,0.646484 2.068359,0.646484 A 0.62835283,0.62835283 0 0 0 39.628906,50 V 49 A 0.62829,0.62829 0 0 0 39,48.371094 0.62829,0.62829 0 0 0 38.371094,49 v 0.146484 C 37.998203,49.041268 37.790651,49.00084 37.220703,48.787109 36.742193,48.607668 36.268176,48.395638 35.957031,48.201172 35.801459,48.103939 35.688587,48.009036 35.640625,47.955078 35.592663,47.90112 35.628906,47.91557 35.628906,48 A 0.62835283,0.62835283 0 0 0 35.232422,47.416016 C 32.611728,46.367738 25.410108,44.392741 18.392578,42.763672 14.883813,41.949137 11.436352,41.228282 8.6640625,40.771484 7.2779175,40.543085 6.0612851,40.37923 5.078125,40.304688 Z"
   style="color:#000000;font-style:normal;font-variant:normal;font-weight:normal;font-stretch:normal;font-size:medium;line-height:normal;font-family:sans-serif;font-variant-ligatures:normal;font-variant-position:normal;font-variant-caps:normal;font-variant-numeric:normal;font-variant-alternates:normal;font-variant-east-asian:normal;font-feature-settings:normal;font-variation-settings:normal;text-indent:0;text-align:start;text-decoration:none;text-decoration-line:none;text-decoration-style:solid;text-decoration-color:#000000;letter-spacing:normal;word-spacing:normal;text-transform:none;writing-mode:lr-tb;direction:ltr;text-orientation:mixed;dominant-baseline:auto;baseline-shift:baseline;text-anchor:start;white-space:normal;shape-padding:0;shape-margin:0;inline-size:0;clip-rule:nonzero;display:inline;overflow:visible;visibility:visible;opacity:1;isolation:auto;mix-blend-mode:normal;color-interpolation:sRGB;color-interpolation-filters:linearRGB;solid-color:#000000;solid-opacity:1;vector-effect:none;fill:#2b2a29;fill-opacity:1;fill-rule:nonzero;stroke:none;stroke-width:1.25658;stroke-linecap:round;stroke-linejoin:round;stroke-miterlimit:4;stroke-dasharray:none;stroke-dashoffset:0;stroke-opacity:1;color-rendering:auto;image-rendering:auto;shape-rendering:auto;text-rendering:auto;enable-background:accumulate;stop-color:#000000;stop-opacity:1" />
    <path
   id="path920"
   d="m 10.003906,28.371094 a 0.62829,0.62829 0 0 0 -0.5058591,0.251953 0.62829,0.62829 0 0 0 0.125,0.878906 c 2.1943511,1.645763 5.9581771,2.604197 10.1992191,3.851563 4.241041,1.247365 8.93949,2.738304 12.845703,5.179687 l -0.01563,-0.0098 c 1.553617,1.035744 2.288806,1.103147 2.99414,1.220703 0.696056,0.116009 1.569686,0.332442 3.958985,1.757812 0.906842,0.919681 1.378349,1.606586 1.621093,1.970703 0.0625,0.09375 0.10962,0.166002 0.173829,0.248047 0.0321,0.04102 0.06128,0.08523 0.152343,0.15625 0.04553,0.03551 0.109562,0.08268 0.228516,0.117188 0.118954,0.03451 0.314988,0.03587 0.46875,-0.04102 0.307524,-0.153762 0.326233,-0.358427 0.347656,-0.445313 0.02142,-0.08689 0.02233,-0.136912 0.02539,-0.1875 0.0061,-0.101174 0.0059,-0.195312 0.0059,-0.320312 A 0.62829,0.62829 0 0 0 42,42.371094 0.62829,0.62829 0 0 0 41.941406,42.375 C 41.644715,41.94476 41.29239,41.405671 40.443359,40.556641 a 0.62835283,0.62835283 0 0 0 -0.11914,-0.0957 c -2.536974,-1.522184 -3.676037,-1.822634 -4.470703,-1.955079 -0.794666,-0.132444 -1.059477,-0.06504 -2.50586,-1.029297 a 0.62835283,0.62835283 0 0 0 -0.01563,-0.0098 C 29.238244,34.90818 24.436693,33.399119 20.177734,32.146484 15.918776,30.89385 12.182602,29.852284 10.376953,28.498047 a 0.62829,0.62829 0 0 0 -0.373047,-0.126953 z"
   style="color:#000000;font-style:normal;font-variant:normal;font-weight:normal;font-stretch:normal;font-size:medium;line-height:normal;font-family:sans-serif;font-variant-ligatures:normal;font-variant-position:normal;font-variant-caps:normal;font-variant-numeric:normal;font-variant-alternates:normal;font-variant-east-asian:normal;font-feature-settings:normal;font-variation-settings:normal;text-indent:0;text-align:start;text-decoration:none;text-decoration-line:none;text-decoration-style:solid;text-decoration-color:#000000;letter-spacing:normal;word-spacing:normal;text-transform:none;writing-mode:lr-tb;direction:ltr;text-orientation:mixed;dominant-baseline:auto;baseline-shift:baseline;text-anchor:start;white-space:normal;shape-padding:0;shape-margin:0;inline-size:0;clip-rule:nonzero;display:inline;overflow:visible;visibility:visible;opacity:1;isolation:auto;mix-blend-mode:normal;color-interpolation:sRGB;color-interpolation-filters:linearRGB;solid-color:#000000;solid-opacity:1;vector-effect:none;fill:#2b2a29;fill-opacity:1;fill-rule:nonzero;stroke:none;stroke-width:1.25658;stroke-linecap:round;stroke-linejoin:round;stroke-miterlimit:4;stroke-dasharray:none;stroke-dashoffset:0;stroke-opacity:1;color-rendering:auto;image-rendering:auto;shape-rendering:auto;text-rendering:auto;enable-background:accumulate;stop-color:#000000;stop-opacity:1" />
    <path
   id="path924"
   d="m 0.95507812,52.373047 a 0.62829,0.62829 0 0 0 -0.57617187,0.539062 0.62829,0.62829 0 0 0 0.53320313,0.708985 C 7.8457653,54.611616 20.842928,57.628906 29,57.628906 c 0.895285,0 2.679396,0.246075 4.583984,0.373047 1.904589,0.126973 3.956289,0.146732 5.615235,-0.40625 a 0.62829,0.62829 0 0 0 0.396484,-0.794922 0.62829,0.62829 0 0 0 -0.794922,-0.396484 c -1.341054,0.447018 -3.289354,0.466777 -5.134765,0.34375 C 31.820604,56.625019 30.104715,56.371094 29,56.371094 c -7.842928,0 -20.8457653,-2.98271 -27.9121094,-3.992188 a 0.62829,0.62829 0 0 0 -0.13281248,-0.0059 z"
   style="color:#000000;font-style:normal;font-variant:normal;font-weight:normal;font-stretch:normal;font-size:medium;line-height:normal;font-family:sans-serif;font-variant-ligatures:normal;font-variant-position:normal;font-variant-caps:normal;font-variant-numeric:normal;font-variant-alternates:normal;font-variant-east-asian:normal;font-feature-settings:normal;font-variation-settings:normal;text-indent:0;text-align:start;text-decoration:none;text-decoration-line:none;text-decoration-style:solid;text-decoration-color:#000000;letter-spacing:normal;word-spacing:normal;text-transform:none;writing-mode:lr-tb;direction:ltr;text-orientation:mixed;dominant-baseline:auto;baseline-shift:baseline;text-anchor:start;white-space:normal;shape-padding:0;shape-margin:0;inline-size:0;clip-rule:nonzero;display:inline;overflow:visible;visibility:visible;opacity:1;isolation:auto;mix-blend-mode:normal;color-interpolation:sRGB;color-interpolation-filters:linearRGB;solid-color:#000000;solid-opacity:1;vector-effect:none;fill:#2b2a29;fill-opacity:1;fill-rule:nonzero;stroke:none;stroke-width:1.25658;stroke-linecap:round;stroke-linejoin:round;stroke-miterlimit:4;stroke-dasharray:none;stroke-dashoffset:0;stroke-opacity:1;color-rendering:auto;image-rendering:auto;shape-rendering:auto;text-rendering:auto;enable-background:accumulate;stop-color:#000000;stop-opacity:1" />
    <path
   id="path928"
   d="M 62,1.3710938 A 0.62829,0.62829 0 0 0 61.371094,2 c 0,0.68019 -0.123275,3.0875403 -0.326172,6.2558594 -0.202897,3.1683186 -0.484657,7.1363666 -0.796875,11.0703126 -0.312218,3.933945 -0.655416,7.836565 -0.982422,10.873047 -0.163503,1.518241 -0.322708,2.820459 -0.470703,3.794922 -0.074,0.487231 -0.145731,0.892617 -0.210938,1.195312 -0.06521,0.302695 -0.142521,0.521372 -0.146484,0.529297 A 0.62835283,0.62835283 0 0 0 58.371094,36 c 0,0.08868 0.0029,0.169371 0.02734,0.279297 0.02443,0.109926 0.0499,0.327683 0.363281,0.484375 0.156692,0.07835 0.358353,0.07882 0.484375,0.04102 0.126022,-0.03781 0.196325,-0.09166 0.248047,-0.134766 0.103443,-0.0862 0.144237,-0.150926 0.185547,-0.212891 0.165239,-0.247859 0.273932,-0.523699 0.404296,-0.849609 0.260729,-0.651821 0.511719,-1.408203 0.511719,-1.408203 a 0.62829,0.62829 0 0 0 -0.396484,-0.794922 0.62829,0.62829 0 0 0 -0.0625,-0.01758 c 0.123694,-0.896208 0.248282,-1.841746 0.378906,-3.054688 0.329244,-3.057268 0.673546,-6.967148 0.986328,-10.908203 0.312782,-3.941054 0.593522,-7.910506 0.796875,-11.0859374 C 62.502181,5.1624597 62.628906,2.81981 62.628906,2 A 0.62829,0.62829 0 0 0 62,1.3710938 Z"
   style="color:#000000;font-style:normal;font-variant:normal;font-weight:normal;font-stretch:normal;font-size:medium;line-height:normal;font-family:sans-serif;font-variant-ligatures:normal;font-variant-position:normal;font-variant-caps:normal;font-variant-numeric:normal;font-variant-alternates:normal;font-variant-east-asian:normal;font-feature-settings:normal;font-variation-settings:normal;text-indent:0;text-align:start;text-decoration:none;text-decoration-line:none;text-decoration-style:solid;text-decoration-color:#000000;letter-spacing:normal;word-spacing:normal;text-transform:none;writing-mode:lr-tb;direction:ltr;text-orientation:mixed;dominant-baseline:auto;baseline-shift:baseline;text-anchor:start;white-space:normal;shape-padding:0;shape-margin:0;inline-size:0;clip-rule:nonzero;display:inline;overflow:visible;visibility:visible;opacity:1;isolation:auto;mix-blend-mode:normal;color-interpolation:sRGB;color-interpolation-filters:linearRGB;solid-color:#000000;solid-opacity:1;vector-effect:none;fill:#2b2a29;fill-opacity:1;fill-rule:nonzero;stroke:none;stroke-width:1.25658;stroke-linecap:round;stroke-linejoin:round;stroke-miterlimit:4;stroke-dasharray:none;stroke-dashoffset:0;stroke-opacity:1;color-rendering:auto;image-rendering:auto;shape-rendering:auto;text-rendering:auto;enable-background:accumulate;stop-color:#000000;stop-opacity:1" />
    <path
   id="path932"
   d="M 75.001953,3.3710938 A 0.62829,0.62829 0 0 0 74.404297,3.8007812 C 71.515766,12.466374 67.804457,26.436172 65.726562,36.435547 A 0.62829,0.62829 0 0 0 65.371094,37 v 1 a 0.62835283,0.62835283 0 0 0 1.24414,0.123047 C 68.607336,28.16254 72.608949,13.159482 75.595703,4.1992188 A 0.62829,0.62829 0 0 0 75.199219,3.4042969 0.62829,0.62829 0 0 0 75.001953,3.3710938 Z"
   style="color:#000000;font-style:normal;font-variant:normal;font-weight:normal;font-stretch:normal;font-size:medium;line-height:normal;font-family:sans-serif;font-variant-ligatures:normal;font-variant-position:normal;font-variant-caps:normal;font-variant-numeric:normal;font-variant-alternates:normal;font-variant-east-asian:normal;font-feature-settings:normal;font-variation-settings:normal;text-indent:0;text-align:start;text-decoration:none;text-decoration-line:none;text-decoration-style:solid;text-decoration-color:#000000;letter-spacing:normal;word-spacing:normal;text-transform:none;writing-mode:lr-tb;direction:ltr;text-orientation:mixed;dominant-baseline:auto;baseline-shift:baseline;text-anchor:start;white-space:normal;shape-padding:0;shape-margin:0;inline-size:0;clip-rule:nonzero;display:inline;overflow:visible;visibility:visible;opacity:1;isolation:auto;mix-blend-mode:normal;color-interpolation:sRGB;color-interpolation-filters:linearRGB;solid-color:#000000;solid-opacity:1;vector-effect:none;fill:#2b2a29;fill-opacity:1;fill-rule:nonzero;stroke:none;stroke-width:1.25658;stroke-linecap:round;stroke-linejoin:round;stroke-miterlimit:4;stroke-dasharray:none;stroke-dashoffset:0;stroke-opacity:1;color-rendering:auto;image-rendering:auto;shape-rendering:auto;text-rendering:auto;enable-background:accumulate;stop-color:#000000;stop-opacity:1" />
    <path
   id="path936"
   d="m 46.996094,3.3710938 a 0.62829,0.62829 0 0 0 -0.119141,0.013672 0.62829,0.62829 0 0 0 -0.492187,0.7382813 c 1.967084,9.8354239 0.97782,21.7759299 2.988281,30.9238279 a 0.62829,0.62829 0 0 0 0.01367,0.08594 c 2.66e-4,0.0012 -2.66e-4,0.0027 0,0.0039 a 0.62835283,0.62835283 0 0 0 0,0.002 0.62829,0.62829 0 0 0 0.01758,0.06055 0.62835283,0.62835283 0 0 0 0.0059,0.01563 c 0.249592,0.747576 0.439847,1.257038 0.574219,1.576172 0.06785,0.161154 0.113533,0.266659 0.177734,0.375 0.0321,0.05417 -0.03072,0.09547 0.25586,0.265625 0.03582,0.02127 0.143677,0.0642 0.144531,0.06445 8.54e-4,2.53e-4 0.239502,0.02351 0.240234,0.02344 7.33e-4,-7e-5 0.28064,-0.09727 0.28125,-0.09766 6.11e-4,-3.91e-4 0.1792,-0.173119 0.179688,-0.173828 4.88e-4,-7.1e-4 0.06152,-0.107444 0.07617,-0.148438 0.01465,-0.04099 0.02223,-0.07356 0.02734,-0.101562 0.01023,-0.05601 0.01172,-0.09296 0.01172,-0.123047 0,-0.24068 -0.03697,-0.263317 -0.07422,-0.386719 -0.03725,-0.123401 -0.08766,-0.272352 -0.154297,-0.447265 -0.12324,-0.323459 -0.312191,-0.752338 -0.543004,-1.222704 C 48.655038,25.981055 49.638909,13.995328 47.615234,3.8769531 a 0.62829,0.62829 0 0 0 -0.61914,-0.5058593 z"
   style="color:#000000;font-style:normal;font-variant:normal;font-weight:normal;font-stretch:normal;font-size:medium;line-height:normal;font-family:sans-serif;font-variant-ligatures:normal;font-variant-position:normal;font-variant-caps:normal;font-variant-numeric:normal;font-variant-alternates:normal;font-variant-east-asian:normal;font-feature-settings:normal;font-variation-settings:normal;text-indent:0;text-align:start;text-decoration:none;text-decoration-line:none;text-decoration-style:solid;text-decoration-color:#000000;letter-spacing:normal;word-spacing:normal;text-transform:none;writing-mode:lr-tb;direction:ltr;text-orientation:mixed;dominant-baseline:auto;baseline-shift:baseline;text-anchor:start;white-space:normal;shape-padding:0;shape-margin:0;inline-size:0;clip-rule:nonzero;display:inline;overflow:visible;visibility:visible;opacity:1;isolation:auto;mix-blend-mode:normal;color-interpolation:sRGB;color-interpolation-filters:linearRGB;solid-color:#000000;solid-opacity:1;vector-effect:none;fill:#2b2a29;fill-opacity:1;fill-rule:nonzero;stroke:none;stroke-width:1.25658;stroke-linecap:round;stroke-linejoin:round;stroke-miterlimit:4;stroke-dasharray:none;stroke-dashoffset:0;stroke-opacity:1;color-rendering:auto;image-rendering:auto;shape-rendering:auto;text-rendering:auto;enable-background:accumulate;stop-color:#000000;stop-opacity:1" />
    <g
   style="opacity:1"
   id="g938"><path
     id="path940"
     d="M 65,75 C 76,74 82,60 79,48 76,41 71,35 58,35 28,35 33,79 65,75 Z"
     style="color:#000000;font-style:normal;font-variant:normal;font-weight:normal;font-stretch:normal;font-size:medium;line-height:normal;font-family:sans-serif;font-variant-ligatures:normal;font-variant-position:normal;font-variant-caps:normal;font-variant-numeric:normal;font-variant-alternates:normal;font-variant-east-asian:normal;font-feature-settings:normal;font-variation-settings:normal;text-indent:0;text-align:start;text-decoration:none;text-decoration-line:none;text-decoration-style:solid;text-decoration-color:#000000;letter-spacing:normal;word-spacing:normal;text-transform:none;writing-mode:lr-tb;direction:ltr;text-orientation:mixed;dominant-baseline:auto;baseline-shift:baseline;text-anchor:start;white-space:normal;shape-padding:0;shape-margin:0;inline-size:0;clip-rule:nonzero;display:inline;overflow:visible;visibility:visible;isolation:auto;mix-blend-mode:normal;color-interpolation:sRGB;color-interpolation-filters:linearRGB;solid-color:#000000;solid-opacity:1;vector-effect:none;fill:#fecc00;fill-opacity:1;fill-rule:nonzero;stroke:none;stroke-width:1.25658;stroke-linecap:round;stroke-linejoin:round;stroke-miterlimit:4;stroke-dasharray:none;stroke-dashoffset:0;stroke-opacity:1;color-rendering:auto;image-rendering:auto;shape-rendering:auto;text-rendering:auto;enable-background:accumulate;stop-color:#000000;stop-opacity:1" /><path
     id="path942"
     d="m 58,34.371094 c -7.653582,0 -13.180496,2.833529 -16.552734,7.048828 -3.372239,4.215298 -4.589981,9.766621 -3.81836,15.167969 1.542723,10.799057 11.158221,21.061857 27.433594,19.035156 5.74993,-0.52532 10.182833,-4.45596 12.751953,-9.722656 2.570067,-5.268637 3.332769,-11.901348 1.794922,-18.052735 a 0.62835283,0.62835283 0 0 0 -0.03125,-0.0957 C 78.053944,44.195532 75.992409,40.830841 72.621094,38.367188 69.249778,35.903534 64.59666,34.371094 58,34.371094 Z m 0,1.257812 c 6.40334,0 10.750222,1.46756 13.878906,3.753906 3.114869,2.276251 5.046145,5.396615 6.519532,8.822266 1.444862,5.834359 0.709856,12.1779 -1.712891,17.144531 -2.429933,4.981364 -6.495207,8.548393 -11.742188,9.025391 a 0.62835283,0.62835283 0 0 0 -0.02148,0.002 C 49.207218,76.341285 40.327852,66.609415 38.871094,56.412109 38.142715,51.313457 39.299973,46.11478 42.427734,42.205078 45.555496,38.295377 50.653582,35.628906 58,35.628906 Z"
     style="color:#000000;font-style:normal;font-variant:normal;font-weight:normal;font-stretch:normal;font-size:medium;line-height:normal;font-family:sans-serif;font-variant-ligatures:normal;font-variant-position:normal;font-variant-caps:normal;font-variant-numeric:normal;font-variant-alternates:normal;font-variant-east-asian:normal;font-feature-settings:normal;font-variation-settings:normal;text-indent:0;text-align:start;text-decoration:none;text-decoration-line:none;text-decoration-style:solid;text-decoration-color:#000000;letter-spacing:normal;word-spacing:normal;text-transform:none;writing-mode:lr-tb;direction:ltr;text-orientation:mixed;dominant-baseline:auto;baseline-shift:baseline;text-anchor:start;white-space:normal;shape-padding:0;shape-margin:0;inline-size:0;clip-rule:nonzero;display:inline;overflow:visible;visibility:visible;isolation:auto;mix-blend-mode:normal;color-interpolation:sRGB;color-interpolation-filters:linearRGB;solid-color:#000000;solid-opacity:1;vector-effect:none;fill:#2b2a29;fill-opacity:1;fill-rule:nonzero;stroke:none;stroke-width:1.25658;stroke-linecap:round;stroke-linejoin:round;stroke-miterlimit:4;stroke-dasharray:none;stroke-dashoffset:0;stroke-opacity:1;color-rendering:auto;image-rendering:auto;shape-rendering:auto;text-rendering:auto;enable-background:accumulate;stop-color:#000000;stop-opacity:1" /></g>
   </g>
   
   
  </g>
 </g><path
     style="clip-rule:evenodd;fill:#d7ad05;fill-rule:evenodd;stroke-width:1;image-rendering:optimizeQuality;shape-rendering:geometricPrecision;text-rendering:geometricPrecision"
     class="fil3"
     d="m 69,39.999999 c 1.999999,9 0,14 -2,19 -6,10 -20,10.999999 -19,10.999999 4,2 7.999999,4.000001 12,4.000001 5.999999,0 11.999999,-4.000001 15.999999,-13.000001 1.000001,-1.999999 1.000001,-9 -1,-12.999999 -2,-6 -5.999999,-9 -5.999999,-8 z"
     id="path43" /><path
     style="clip-rule:evenodd;fill:#fcef64;fill-rule:evenodd;stroke-width:1;image-rendering:optimizeQuality;shape-rendering:geometricPrecision;text-rendering:geometricPrecision"
     class="fil4"
     d="m 40,52.999999 c -1,-8 7,-15 14.999999,-15 -1.999999,0 -13.999999,20 -14.999999,15 z"
     id="path45" /></g></svg>
