<?xml version="1.0" encoding="UTF-8" standalone="no"?>
<svg
   xmlns:dc="http://purl.org/dc/elements/1.1/"
   xmlns:cc="http://creativecommons.org/ns#"
   xmlns:rdf="http://www.w3.org/1999/02/22-rdf-syntax-ns#"
   xmlns:svg="http://www.w3.org/2000/svg"
   xmlns="http://www.w3.org/2000/svg"
   xmlns:sodipodi="http://sodipodi.sourceforge.net/DTD/sodipodi-0.dtd"
   xmlns:inkscape="http://www.inkscape.org/namespaces/inkscape"
   sodipodi:docname="2021-HU-02_broken.svg"
   inkscape:version="1.0.1 (c497b03c, 2020-09-10)"
   id="svg3581"
   version="1.1"
   viewBox="0 0 9.0422 8.2559738"
   height="8.2559738mm"
   width="9.0422001mm">
  <defs
     id="defs3575" />
  <sodipodi:namedview
     inkscape:window-maximized="0"
     inkscape:window-y="181"
     inkscape:window-x="1957"
     inkscape:window-height="1027"
     inkscape:window-width="1920"
     fit-margin-bottom="0"
     fit-margin-right="0"
     fit-margin-left="0"
     fit-margin-top="0"
     inkscape:snap-global="false"
     showgrid="false"
     inkscape:document-rotation="0"
     inkscape:current-layer="layer1"
     inkscape:document-units="mm"
     inkscape:cy="23.471591"
     inkscape:cx="23.948888"
     inkscape:zoom="5.6"
     inkscape:pageshadow="2"
     inkscape:pageopacity="0.0"
     borderopacity="1.0"
     bordercolor="#666666"
     pagecolor="#ffffff"
     id="base" />
  <metadata
     id="metadata3578">
    <rdf:RDF>
      <cc:Work
         rdf:about="">
        <dc:format>image/svg+xml</dc:format>
        <dc:type
           rdf:resource="http://purl.org/dc/dcmitype/StillImage" />
        <dc:title></dc:title>
      </cc:Work>
    </rdf:RDF>
  </metadata>
  <g
     transform="translate(-76.379495,-92.415879)"
     id="layer1"
     inkscape:groupmode="layer"
     inkscape:label="Ebene 1">
    <path
       d="m 85.066045,92.415925 a 0.35198436,0.35198436 0 0 0 -0.20171,0.06724 c -1.33497,0.962668 -2.58933,2.011569 -3.8088,3.094234 -1.44225,-1.176147 -2.95047,-2.214477 -4.14102,-2.939326 a 0.35198436,0.35198436 0 0 0 -0.15952,-0.05273 0.35198436,0.35198436 0 0 0 -0.32432,0.169414 0.35198436,0.35198436 0 0 0 0.11736,0.483185 c 1.13183,0.689106 2.57378,1.705152 3.95776,2.831874 -1.25403,1.132828 -2.47719,2.294526 -3.71123,3.434374 a 0.35198436,0.35198436 0 0 0 -0.0198,0.49835 0.35198436,0.35198436 0 0 0 0.4957,0.0171 c 1.26627,-1.169618 2.51305,-2.354571 3.78639,-3.501612 1.53831,1.305074 2.93426,2.726418 3.64531,3.974912 a 0.35198436,0.35198436 0 0 0 0.48121,0.13249 0.35198436,0.35198436 0 0 0 0.13185,-0.47857 c -0.775,-1.360739 -2.17655,-2.805137 -3.71322,-4.113994 1.18321,-1.0472 2.39413,-2.056194 3.67366,-2.978875 a 0.35198436,0.35198436 0 0 0 0.0797,-0.491096 0.35198436,0.35198436 0 0 0 -0.28938,-0.147001 z"
       style="color:#000000;font-style:normal;font-variant:normal;font-weight:normal;font-stretch:normal;font-size:medium;line-height:normal;font-family:sans-serif;font-variant-ligatures:normal;font-variant-position:normal;font-variant-caps:normal;font-variant-numeric:normal;font-variant-alternates:normal;font-variant-east-asian:normal;font-feature-settings:normal;font-variation-settings:normal;text-indent:0;text-align:start;text-decoration:none;text-decoration-line:none;text-decoration-style:solid;text-decoration-color:#000000;letter-spacing:normal;word-spacing:normal;text-transform:none;writing-mode:lr-tb;direction:ltr;text-orientation:mixed;dominant-baseline:auto;baseline-shift:baseline;text-anchor:start;white-space:normal;shape-padding:0;shape-margin:0;inline-size:0;clip-rule:nonzero;display:inline;overflow:visible;visibility:visible;opacity:1;isolation:auto;mix-blend-mode:normal;color-interpolation:sRGB;color-interpolation-filters:linearRGB;solid-color:#000000;solid-opacity:1;vector-effect:none;fill:#be0000;fill-opacity:1;fill-rule:nonzero;stroke:none;stroke-width:1;stroke-linecap:round;stroke-linejoin:round;stroke-miterlimit:4;stroke-dasharray:none;stroke-dashoffset:0;stroke-opacity:1;paint-order:markers fill stroke;color-rendering:auto;image-rendering:auto;shape-rendering:auto;text-rendering:auto;enable-background:accumulate;stop-color:#000000;stop-opacity:1"
       id="path3401" />
  </g>
</svg>
