<?xml version="1.0" encoding="UTF-8" standalone="no"?>
<svg
   xmlns:dc="http://purl.org/dc/elements/1.1/"
   xmlns:cc="http://creativecommons.org/ns#"
   xmlns:rdf="http://www.w3.org/1999/02/22-rdf-syntax-ns#"
   xmlns:svg="http://www.w3.org/2000/svg"
   xmlns="http://www.w3.org/2000/svg"
   xmlns:sodipodi="http://sodipodi.sourceforge.net/DTD/sodipodi-0.dtd"
   xmlns:inkscape="http://www.inkscape.org/namespaces/inkscape"
   sodipodi:docname="2021-HU-02_unknown.svg"
   inkscape:version="1.0.1 (c497b03c, 2020-09-10)"
   id="svg3581"
   version="1.1"
   viewBox="0 0 3.4702544 6.7179489"
   height="6.7179489mm"
   width="3.4702544mm">
  <defs
     id="defs3575" />
  <sodipodi:namedview
     inkscape:window-maximized="0"
     inkscape:window-y="176"
     inkscape:window-x="1985"
     inkscape:window-height="1027"
     inkscape:window-width="1920"
     fit-margin-bottom="0"
     fit-margin-right="0"
     fit-margin-left="0"
     fit-margin-top="0"
     inkscape:snap-global="false"
     showgrid="false"
     inkscape:document-rotation="0"
     inkscape:current-layer="layer1"
     inkscape:document-units="mm"
     inkscape:cy="-172.73934"
     inkscape:cx="26.746319"
     inkscape:zoom="1.4"
     inkscape:pageshadow="2"
     inkscape:pageopacity="0.0"
     borderopacity="1.0"
     bordercolor="#666666"
     pagecolor="#ffffff"
     id="base" />
  <metadata
     id="metadata3578">
    <rdf:RDF>
      <cc:Work
         rdf:about="">
        <dc:format>image/svg+xml</dc:format>
        <dc:type
           rdf:resource="http://purl.org/dc/dcmitype/StillImage" />
        <dc:title></dc:title>
      </cc:Work>
    </rdf:RDF>
  </metadata>
  <g
     transform="translate(-77.133846,-84.113504)"
     id="layer1"
     inkscape:groupmode="layer"
     inkscape:label="Ebene 1">
    <path
       d="m 78.810449,84.117358 c -0.74378,0.05025 -1.48568,0.606828 -1.67105,1.638744 a 0.35198436,0.35198436 0 0 0 0.2841,0.408697 0.35198436,0.35198436 0 0 0 0.40871,-0.284111 c 0.15969,-0.888991 0.70526,-1.120955 1.20565,-1.05602 0.49883,0.06472 0.93565,0.43431 0.85233,1.160832 -0.0398,0.266081 -0.41078,0.684643 -0.76466,1.121279 -0.17738,0.218876 -0.3504,0.447375 -0.42385,0.742247 -0.0735,0.294875 0.0128,0.659479 0.26697,0.924183 a 0.35198436,0.35198436 0 0 0 0.49769,0.0099 0.35198436,0.35198436 0 0 0 0.0102,-0.495709 c -0.12526,-0.130502 -0.11837,-0.161601 -0.0922,-0.266314 0.026,-0.104714 0.1301,-0.27886 0.28608,-0.471319 0.31196,-0.384918 0.82659,-0.819468 0.91957,-1.467356 a 0.35201958,0.35201958 0 0 0 0,-0.0073 c 0.12718,-1.069817 -0.62498,-1.839846 -1.46274,-1.94856 -0.10473,-0.01358 -0.21082,-0.0164 -0.31706,-0.0092 z m 0.21027,5.71253 c -0.20448,-0.01148 -0.31732,0.117994 -0.36849,0.193802 -0.0511,0.07582 -0.0745,0.141941 -0.0903,0.212259 -0.0158,0.07031 -0.0245,0.141156 -0.0102,0.234013 0.0149,0.09285 0.0694,0.24688 0.23665,0.326298 a 0.35201897,0.35201897 0 0 0 0.16677,0.03494 c 0.12954,-0.0063 0.25415,-0.0388 0.36388,-0.114703 0.1097,-0.0759 0.20232,-0.207228 0.21424,-0.358598 0.0115,-0.15137 -0.0583,-0.298909 -0.15953,-0.388921 -0.10128,-0.09001 -0.22817,-0.132123 -0.35333,-0.13909 z"
       style="color:#000000;font-style:normal;font-variant:normal;font-weight:normal;font-stretch:normal;font-size:medium;line-height:normal;font-family:sans-serif;font-variant-ligatures:normal;font-variant-position:normal;font-variant-caps:normal;font-variant-numeric:normal;font-variant-alternates:normal;font-variant-east-asian:normal;font-feature-settings:normal;font-variation-settings:normal;text-indent:0;text-align:start;text-decoration:none;text-decoration-line:none;text-decoration-style:solid;text-decoration-color:#000000;letter-spacing:normal;word-spacing:normal;text-transform:none;writing-mode:lr-tb;direction:ltr;text-orientation:mixed;dominant-baseline:auto;baseline-shift:baseline;text-anchor:start;white-space:normal;shape-padding:0;shape-margin:0;inline-size:0;clip-rule:nonzero;display:inline;overflow:visible;visibility:visible;opacity:1;isolation:auto;mix-blend-mode:normal;color-interpolation:sRGB;color-interpolation-filters:linearRGB;solid-color:#000000;solid-opacity:1;vector-effect:none;fill:#4d4d4d;fill-opacity:1;fill-rule:nonzero;stroke:none;stroke-width:0.903999;stroke-linecap:round;stroke-linejoin:round;stroke-miterlimit:4;stroke-dasharray:none;stroke-dashoffset:0;stroke-opacity:1;paint-order:markers fill stroke;color-rendering:auto;image-rendering:auto;shape-rendering:auto;text-rendering:auto;enable-background:accumulate;stop-color:#000000;stop-opacity:1"
       id="path3392-6" />
  </g>
</svg>
