<?xml version="1.0" encoding="utf-8"?>
<!-- Generator: Adobe Illustrator 25.2.3, SVG Export Plug-In . SVG Version: 6.00 Build 0)  -->
<svg version="1.1" id="圖層_1" xmlns="http://www.w3.org/2000/svg" xmlns:xlink="http://www.w3.org/1999/xlink" x="0px" y="0px"
	 viewBox="0 0 42 35" style="enable-background:new 0 0 42 35;" xml:space="preserve">
<style type="text/css">
	.st0{fill-rule:evenodd;clip-rule:evenodd;fill:#B9E5F9;}
	.st1{fill-rule:evenodd;clip-rule:evenodd;fill:#87D5F5;}
	.st2{fill-rule:evenodd;clip-rule:evenodd;fill:#CDECFB;}
	.st3{fill-rule:evenodd;clip-rule:evenodd;fill:#EED7E8;}
	.st4{fill-rule:evenodd;clip-rule:evenodd;fill:#F3E6D1;}
	.st5{fill-rule:evenodd;clip-rule:evenodd;fill:#DDDCDE;}
	.st6{fill-rule:evenodd;clip-rule:evenodd;fill:#FFF8BC;}
	.st7{fill-rule:evenodd;clip-rule:evenodd;}
	.st8{font-family:'Arial-BoldMT';}
	.st9{font-size:2.518px;}
	.st10{fill:#F02137;}
</style>
<g transform="matrix(1,0,0,1,-119.997,-79.5261)">
	<g>
		<g>
			<path class="st0" d="M144.4,84.2c0,0,0.1,0.4,0,0.8c-0.1,0.5-0.2,1.2-0.2,1.7c0,0.7-0.4,4.9,0,5.3c0.5,0.5,2.7,0,3.5,0.2
				c0.3,0.1,2.8,0.3,3.2,0.2c0.5-0.1,1.4-0.3,2-0.2c1.3,0.3,2.7,0.2,4,0.2c1.1,0,2.5,0.4,3.2-0.7c0.4-0.6-0.2-2.7-0.2-3.4
				c0-0.7,0.1-3.8-0.4-4.3c-0.9-0.9-3.6-0.2-4.7-0.1C151.4,84.3,147.9,84.2,144.4,84.2"/>
			<path class="st1" d="M138,92.5c0-0.2,0,0.1,0,0.2c0,0.5,0,1.1-0.1,1.7c-0.1,0.7-0.3,3.2,0,3.8c0.3,0.5,4.2,0.4,4.9,0.4
				c0.4,0,1.4,0,1.4,0c0.3-0.6,0.2-1.7,0.2-2.4c0-0.3-0.1-3.6-0.2-3.7c-0.5-0.5-5.4-0.1-6.4-0.1"/>
			<path class="st1" d="M129.7,83.9c0,0-0.1,0.5-0.1,0.7c-0.1,0.5-0.1,1-0.1,1.5c0,0.3-0.1,4.8-0.1,4.8c-0.2,0.5-1.2,0.2-1.7,0.2
				c-0.7,0-5.2,0.5-5.3,0.5c-0.1-0.1-0.3-2.6-0.3-3c-0.1-0.6-0.2-4.1,0.2-4.6c0.1-0.1,0.7-0.1,0.9-0.1c1.1-0.1,2.2-0.2,3.3-0.1
				c0.8,0.1,2,0.4,2.8,0.2"/>
			<path class="st2" d="M129.8,95.4c-0.3,0.1-0.3,3.6-0.3,4.1c0,1.4-0.3,5.1,0.3,6.3c0.2,0.4,2.6,0.6,3.1,0.5
				c0.5-0.1,0.9-0.2,1.4-0.2c0,0,0,0,0,0c0.5-0.5,0.5-6.8,0.4-7.8c-0.1-0.8,0.3-2.2-0.2-2.8c-0.1-0.1-0.4,0-0.5,0
				c-0.7,0-1.3,0-2-0.1C131.4,95.3,130.5,95.5,129.8,95.4"/>
			<path class="st1" d="M136.7,106.3c0,0-0.2,0.9-0.2,1.8c0,0.3,0,2.9,0.1,3c0.2,0.2,0.8,0,1,0.1c0.3,0,3.4,0.2,3.5,0.1
				c0.5-0.3,0.3-1.7,0.3-2.2c0-0.5,0.2-1.8,0-2.3c-0.3-0.8-3.7-0.4-4.6-0.4"/>
			<path class="st3" d="M150.6,92.7c0.1-0.2-0.1,1-0.1,1.2c0,1.1,0,2.1-0.1,3.2c-0.2,2.5,0,5.1,0.2,7.6c0,0.5-0.1,1.1,0.1,1.6
				c0.2,0.5,2,0.3,2.3,0.3c1.7,0,5.3,0.7,6.7,0c0.7-0.3,0.3-2,0.3-2.6c0-2.8,0.1-5.5,0-8.3c-0.1-1,0-2,0-3c0,0,0-0.2,0-0.2
				c-0.2-0.1-0.8,0.1-1,0.1c-1.2,0-2.4-0.3-3.5-0.1c-0.6,0.1-1.2,0.3-1.8,0.3c-0.7,0-1.4-0.2-2-0.1c-0.3,0-0.5,0-0.8,0
				c-0.1,0-0.4,0-0.2,0"/>
			<path class="st3" d="M138.1,84.3c0.1,0.3-0.1,1.3-0.1,1.7c0,0.1,0,5.8,0,5.9c0.1,0.1,0.4,0.4,0.6,0.4c0.9,0.2,2.1-0.7,3-0.4
				c0.6,0.3,2,0.4,2.6,0.1c0.4-0.2,0.1-1.9,0.1-2.2c0-0.8,0.3-5.1,0.1-5.6c0,0-0.3-0.1-0.3-0.1c-1.3-0.1-2.8,0.1-4.1,0.1
				c-0.4,0-0.9-0.1-1.3-0.1L138.1,84.3c0-0.1-0.2-0.1-0.1-0.1"/>
			<path class="st3" d="M131.4,106.4c0-0.1-0.1,0.2-0.1,0.3c0,0.4-0.1,0.8-0.1,1.2c0,0.5-0.2,2.3,0,2.7c0.2,0.3,2.4,0.2,2.9,0.3
				c0.2,0,2.2,0,2.2-0.1c0.3-0.5,0.2-1.2,0.2-1.7c0.1-1.1,0.3-2.2,0-2.6c-0.4-0.6-1.4-0.3-2.8-0.3c-0.3,0-2.1,0-2.3,0.2"/>
			<path class="st4" d="M141.5,106.6c-0.1,0.7-0.5,3.4-0.3,4.1c0,0.1,0.2,0.1,0.3,0.2c0.4,0.1,1,0.2,1.5,0.3c0.4,0,3.6-0.1,3.7-0.3
				c0.1-0.2,0.5-4.2,0.2-4.4c-0.4-0.2-4.4-0.1-5.4-0.1"/>
			<path class="st4" d="M131.3,106.3c-0.4,0-0.8-0.2-1.3-0.1c-1.6,0.1-3.3,0.2-4.9,0c-0.2,0-0.4-0.2-0.6-0.2c-0.7,0-1.3,0.2-2,0.2
				c0,0-0.2,0-0.2,0c-0.2,0.5-0.2,1.2-0.2,1.8c0,0.4-0.2,1.9-0.1,2.3c0.5,1.3,3.8,0.8,4.9,0.8c0.5,0,3.9,0.4,4.1-0.1
				c0.4-1.3,0.2-2.9,0.2-4.2"/>
			<path class="st4" d="M129.5,92.4c0-0.1,0,0.2,0,0.2c0,0.2-0.1,0.5-0.2,0.7c0,0.2,0.1,2,0.2,2.1c0.9,0.4,3.6-0.5,4.8,0.1
				c0.2,0.1,0.2,2.3,0.4,2.7c0.1,0.2,2,0.3,2.3,0.3c0.1,0,0.6,0,0.7-0.1c0.3-0.7,0.6-6,0.2-6.1c-0.7-0.2-1.4,0.1-2.1,0
				c-1.1-0.1-2.3-0.1-3.5-0.1c-0.6,0-1.2,0.2-1.9,0.2h-0.7c0,0-0.3,0-0.2,0"/>
			<path class="st4" d="M144.3,92.4c0,0-0.2,0.9-0.1,1.8c0.2,1.1-0.2,2.9,0.2,3.9c0.1,0.3,0.5,0.4,0.8,0.5c0.3,0,4.9-0.1,5.1-0.3
				c0.1-0.1,0.1-2.1,0.2-2.3c0-0.6,0.3-3,0-3.5c-0.4-0.5-5.1-0.3-6.2-0.3"/>
			<path class="st5" d="M129.6,84.5c0-0.1-0.2,0.7-0.2,0.9c-0.1,0.4-0.1,0.9-0.1,1.4c0,0.7,0,4.8,0.4,5.3c0.1,0.2,1.2,0.1,1.4,0.2
				c0.5,0.1,1.1,0,1.7,0c1.1-0.2,2.3,0.1,3.4,0c0.2,0,1.8-0.2,1.9-0.2c0.4-0.8,0.2-4.8,0.2-6c0-0.4,0.2-1.5-0.3-1.7
				c-1.7-0.7-3.8,0.1-5.5,0.1c-0.7,0-1.3,0.1-2,0.1c-0.1,0-1.2-0.1-0.8-0.1"/>
			<path class="st5" d="M122.3,91.7c-0.1-0.1-0.1,1.4-0.1,2.3c0,0.5-0.2,3.9,0,4.4c0.1,0.2,1.3,0.1,1.6,0.1c0.5,0,5.4,0.1,5.6-0.1
				c0.3-0.3,0.2-2.7,0.2-3.2c0-0.5,0.1-3.4-0.1-3.7c-0.2-0.3-1.5,0-1.7,0c-0.5,0-0.9-0.3-1.3-0.3c-1,0.1-2.2,0.3-3.2,0.4
				c-0.2,0-0.5,0.2-0.7,0.2"/>
			<path class="st5" d="M122.5,102.3c-0.1,0-0.1,0.3-0.1,0.4c0,0.2-0.1,3.3,0,3.4c0.1,0.1,0.2,0.2,0.4,0.3c0.2,0,6.4,0,6.5,0
				c0.2-0.1,0.4-0.4,0.5-0.6c0.2-0.7,0.1-1.6,0.1-2.3c0-1.1,0.1-1.5-1.1-1.5c-0.8,0-1.5-0.1-2.3-0.1c-0.6,0-1.2-0.1-1.8-0.1
				c-0.4,0-0.7,0.2-1.1,0.3c-0.3,0-0.6,0.1-0.9,0.1C122.7,102.3,122.4,102.3,122.5,102.3"/>
			<path class="st6" d="M122.3,98.6c0,0-0.1-0.1-0.1-0.1c-0.3,0.4-0.1,2.2-0.1,2.8c0,0.2-0.2,1.3,0,1.3c0.1,0,2-0.3,2.3-0.4
				c1.4-0.2,2.9,0.5,4.3,0.2c0.1,0,0.7-0.1,0.7-0.2c0,0,0,0,0-0.1c0.2-0.4,0.3-3,0.3-3.6c0,0,0.1-0.2,0-0.2c0,0-1.7,0-1.7,0
				c-1.9-0.1-3.8-0.2-5.8-0.2"/>
			<g>
				<g transform="matrix(1.45816,0,0,1.55294,-504.604,-50.0834)">
					<path class="st7" d="M429.4,86.2c-0.1,0.8,0.1,15.2,0.1,17.3c0,0.1,0.1,0.3,0.3,0.3c0.2,0,0.3-0.1,0.3-0.3
						c0-2.1-0.2-16.5-0.1-17.3c0-0.1-0.1-0.3-0.2-0.3C429.6,86,429.4,86.1,429.4,86.2z"/>
					<g transform="matrix(1.00307,0,0,0.203612,-1.34634,74.5394)">
						<path class="st7" d="M429.7,56.3L429.7,56.3c-0.1,0-0.5,2.6,0,2.6c0,0,0.3,0,0.7,0c3.9,0.1,23.9,0.3,25.2,0.3
							c0.2,0,0.3-0.6,0.3-1.3c0-0.7-0.1-1.3-0.3-1.3c-1.4,0-21.3-0.2-25.2-0.3C430,56.3,429.7,56.3,429.7,56.3L429.7,56.3z
							 M429.9,58.4c0,0.3-0.1,0.5-0.2,0.5C429.8,58.9,429.9,58.5,429.9,58.4z M430,57.6c0,0.3,0,0.5,0,0.7
							C430,58.1,430,57.8,430,57.6z M430,57.6L430,57.6L430,57.6L430,57.6z M429.8,56.4c0.1,0.1,0.2,0.5,0.2,1
							C429.9,57.1,429.9,56.6,429.8,56.4z"/>
					</g>
					<path class="st7" d="M455.5,100.8C455.5,100.8,455.5,100.8,455.5,100.8c0,0.3,0.1,0.3,0.1,0.3c0.1,0,0.2,0,0.3,0
						c0,0,0.1,0,0.1-0.1c0,0,0-0.2,0-0.2v-0.4c0-0.4,0-0.7,0-1.1c0-1.1,0-2.2,0-3.3c0.2-3.3-0.2-6.5-0.1-9.7c0-0.1-0.1-0.3-0.3-0.3
						c-0.2,0-0.3,0.1-0.3,0.3c-0.1,3.2,0.3,6.5,0.1,9.7c-0.1,1.1,0,2.2,0,3.3c0,0.4,0,0.7,0,1.1L455.5,100.8
						C455.5,100.7,455.5,100.8,455.5,100.8z M456.1,100.9L456.1,100.9C456.1,100.9,456.1,100.9,456.1,100.9z"/>
					<path class="st7" d="M446.9,101.2L446.9,101.2c0,0,0.1,0,0.2,0c1.1,0,6.9-0.2,8.7-0.1c0.2,0,0.3-0.1,0.3-0.3
						c0-0.1-0.1-0.3-0.3-0.3c-1.9,0-7.6,0.1-8.7,0.1c-0.1,0-0.2,0-0.2,0S446.9,101.2,446.9,101.2L446.9,101.2z"/>
					<path class="st7" d="M447.2,101C447.2,100.9,447.2,100.9,447.2,101c0-0.2-0.1-0.3-0.1-0.3c-0.1,0-0.2,0-0.2,0
						c0,0-0.1,0-0.2,0.2c0,0,0,0,0,0.1c0,0.3,0,2.1,0,2.7c0,0.1,0.1,0.3,0.3,0.3c0.2,0,0.3-0.1,0.3-0.3
						C447.2,103.1,447.2,101.3,447.2,101C447.2,101,447.2,101,447.2,101z"/>
					<path class="st7" d="M446.9,104c0,0,0.1,0.1,0.2,0.1c0.2,0,0.3-0.1,0.3-0.3c0-0.1,0-0.3-0.3-0.3c-0.6-0.1-3.5,0-4.5,0
						c-0.2,0-0.3,0.1-0.3,0.3c0,0.1,0.1,0.3,0.3,0.3C443.5,104,446.3,103.9,446.9,104z M446.8,103.9L446.8,103.9L446.8,103.9
						L446.8,103.9z M446.8,103.8L446.8,103.8L446.8,103.8L446.8,103.8z"/>
					<path class="st7" d="M440.1,103.5c-1.2,0.1-9.8-0.1-10.3-0.1c-0.2,0-0.3,0.1-0.3,0.3c0,0.1,0.1,0.3,0.3,0.3
						c0.5,0,9.2,0.2,10.3,0.1c0.2,0,0.3-0.1,0.3-0.3C440.4,103.6,440.2,103.5,440.1,103.5z"/>
				</g>
				<g>
					<g transform="matrix(1.45816,0,0,1.55294,-504.604,-50.0834)">
						<path class="st7" d="M440.5,86.6c0,0.1,0,0.2,0,0.3c0,0.2,0,0.5,0,0.6c0,0.1,0.1,0.1,0.2,0.1c0.1,0,0.2-0.1,0.2-0.1
							c0-0.2,0-0.5,0-0.7c0-0.1,0-0.2-0.1-0.3c0-0.1-0.1-0.1-0.2-0.1C440.5,86.4,440.4,86.5,440.5,86.6z"/>
					</g>
					<g transform="matrix(1.45816,0,0,1.55294,-504.604,-50.0834)">
						<path class="st7" d="M440.5,87.7c0,0,0.2,0,0.3,0c0.1,0,0.1,0,0.2,0c0.1,0,0.1-0.1,0.1-0.2c0-0.1-0.1-0.1-0.2-0.1
							c0,0-0.1,0-0.1,0c-0.1,0-0.2,0-0.3,0c-0.1,0-0.1,0-0.1,0.1c0,0,0,0.1,0,0.2C440.4,87.6,440.5,87.7,440.5,87.7z M440.6,87.4
							c0,0,0,0.1,0,0.1C440.6,87.5,440.6,87.5,440.6,87.4z"/>
					</g>
					<g transform="matrix(1.45816,0,0,1.55294,-504.604,-50.0834)">
						<path class="st7" d="M445.2,86.6C445.2,86.6,445.2,86.6,445.2,86.6c0-0.2,0-0.2-0.1-0.2c-0.1-0.1-0.1,0-0.2,0
							c0,0-0.1,0-0.1,0.1c0,0,0,0.1,0,0.2v0.6c0,0.1,0.1,0.1,0.2,0.1c0.1,0,0.2-0.1,0.2-0.1L445.2,86.6
							C445.2,86.7,445.2,86.7,445.2,86.6z"/>
					</g>
					<g transform="matrix(1.45816,0,0,1.55294,-504.604,-50.0834)">
						<path class="st7" d="M444.9,87.3C444.9,87.3,444.9,87.3,444.9,87.3c0,0-0.2,0.3,0,0.3c0,0,0.3,0,0.4,0c0.1,0,0.2-0.1,0.2-0.1
							c0-0.1-0.1-0.1-0.2-0.1C445.2,87.3,444.9,87.3,444.9,87.3C444.9,87.3,444.9,87.3,444.9,87.3L444.9,87.3z M445,87.5
							C445,87.6,444.9,87.6,445,87.5C445,87.6,445,87.5,445,87.5L445,87.5z M445,87.5C445,87.5,445,87.5,445,87.5
							C445,87.5,445,87.5,445,87.5z M444.9,87.3c0.1,0,0.1,0,0.1,0.1C445,87.3,445,87.3,444.9,87.3z M444.9,87.3L444.9,87.3
							L444.9,87.3L444.9,87.3z"/>
					</g>
					<g transform="matrix(1.45816,0,0,1.55294,-504.604,-50.0834)">
						<path class="st7" d="M444.9,89.3C444.9,89.3,444.9,89.3,444.9,89.3c-0.1,0-0.1,0.1-0.1,0.1c0,0,0,0.2,0.2,0.2c0,0,0.1,0,0.2,0
							c0,0,0.1,0,0.1,0c0.1,0,0.1,0,0.2,0c0.1-0.1,0.1-0.1,0-0.2c0,0-0.1-0.1-0.2-0.1C445.1,89.3,444.9,89.3,444.9,89.3z M445,89.5
							C445,89.6,445,89.6,445,89.5C445,89.6,445,89.6,445,89.5z"/>
					</g>
					<g transform="matrix(1.45816,0,0,1.55294,-504.604,-50.0834)">
						<path class="st7" d="M444.9,89.5c-0.1,0.8-0.1,1.5-0.1,2.3c0,0.1,0.1,0.1,0.2,0.1c0.1,0,0.2-0.1,0.2-0.1c0-0.7,0-1.5,0.1-2.3
							c0-0.1-0.1-0.1-0.1-0.2C445,89.4,444.9,89.5,444.9,89.5z"/>
					</g>
					<g transform="matrix(1.45816,0,0,1.55294,-504.604,-50.0834)">
						<path class="st7" d="M440.5,89.7C440.6,89.7,440.6,89.7,440.5,89.7c0.2,0.1,0.3,0,0.4,0c0.1,0,0.2-0.1,0.2-0.1
							c0-0.1-0.1-0.1-0.2-0.1c-0.1,0-0.2,0-0.3,0c0,0-0.1,0-0.1,0c-0.1,0-0.1,0-0.1,0c0,0-0.1,0.1,0,0.2
							C440.4,89.6,440.5,89.7,440.5,89.7z M440.7,89.5C440.7,89.5,440.7,89.5,440.7,89.5L440.7,89.5z"/>
					</g>
					<g transform="matrix(1.45816,0,0,1.55294,-504.604,-50.0834)">
						<path class="st7" d="M440.6,89.6c-0.1,0.7,0,1.5,0,2.3c0,0.1,0.1,0.1,0.2,0.1c0.1,0,0.2-0.1,0.2-0.1c0-0.7-0.1-1.5,0-2.2
							c0-0.1,0-0.2-0.1-0.2C440.7,89.4,440.6,89.5,440.6,89.6z"/>
					</g>
					<g transform="matrix(1.45816,0,0,1.55294,-504.604,-50.0834)">
						<path class="st7" d="M435.1,89.3c0,0-0.3,0-0.4,0c-0.1,0-0.1,0.1-0.1,0.1c0,0.1,0,0.2,0.1,0.2c0,0,0,0,0.1,0c0,0,0.3,0,0.4,0
							c0.1,0,0.1,0,0.1,0c0.1,0,0.1-0.1,0-0.2C435.2,89.3,435.2,89.3,435.1,89.3z M434.9,89.5C434.9,89.5,434.9,89.6,434.9,89.5
							C434.9,89.6,434.9,89.5,434.9,89.5z"/>
					</g>
					<g transform="matrix(1.45816,0,0,1.55294,-504.604,-50.0834)">
						<path class="st7" d="M434.8,89.5c-0.2,0.8-0.1,1.8-0.1,2.7c0,0.1,0.1,0.1,0.2,0.1c0.1,0,0.2-0.1,0.2-0.1c0-0.8-0.1-1.8,0-2.6
							c0-0.1,0-0.2-0.1-0.2C434.9,89.4,434.8,89.5,434.8,89.5z"/>
					</g>
					<g transform="matrix(1.45816,0,0,1.55294,-504.604,-50.0834)">
						<path class="st7" d="M434.8,92.2c-0.1,0-0.1,0-0.2,0.1c0,0.1,0,0.1,0,0.1c0,0,0,0,0.1,0.1c0,0,0.1,0,0.1,0c0.1,0,0.2,0,0.2,0
							c0.1,0,0.2-0.1,0.2-0.1c0-0.1-0.1-0.1-0.2-0.1C435,92.2,434.8,92.2,434.8,92.2z M434.9,92.3c0,0,0,0.1,0,0.1
							C434.9,92.3,434.9,92.3,434.9,92.3z"/>
					</g>
					<g transform="matrix(1.45816,0,0,1.55294,-507.928,-58.9569)">
						<path class="st7" d="M437.3,92.8c0-0.1,0-0.3,0-0.4c0,0,0-0.2,0-0.2c0,0,0,0,0,0c0-0.1-0.1-0.1-0.1-0.2c-0.1,0-0.1,0-0.2,0.1
							c0,0,0,0.1,0,0.1c0,0.1,0,0.2,0,0.2c0,0,0,0.2,0,0.3c0,0.1,0,0.1,0,0.2c0,0.1,0.1,0.1,0.2,0.1C437.2,93,437.3,93,437.3,92.8
							C437.3,92.9,437.3,92.8,437.3,92.8z M437.2,92.7L437.2,92.7L437.2,92.7L437.2,92.7z M437.2,92.7L437.2,92.7
							C437.2,92.7,437.2,92.7,437.2,92.7L437.2,92.7z M437.2,92.7L437.2,92.7L437.2,92.7L437.2,92.7z M437.1,92.3
							C437.1,92.3,437.1,92.3,437.1,92.3C437.1,92.3,437.1,92.3,437.1,92.3z"/>
					</g>
					<g transform="matrix(1.74735,0,0,-0.0594433,-689.521,162.596)">
						<path class="st7" d="M468.6,1293.6c0.1,0,0.2,0.2,0.3,0.1c0.1-0.1,0.1,1.5,0.1,3.6s-0.1,3.8-0.1,3.9c-0.1,0.1-0.2-0.1-0.3-0.1
							c-0.1,0-0.1-1.7-0.1-3.7C468.4,1295.3,468.5,1293.6,468.6,1293.6z"/>
					</g>
					<g transform="matrix(1.45816,0,0,1.55294,-504.604,-50.0834)">
						<path class="st7" d="M429.9,91.4c0,0,0.1,0,0.1,0c0.2,0,0.4,0.1,0.5,0.1c0.1,0,0.2-0.1,0.2-0.1c0-0.1-0.1-0.1-0.2-0.1
							c-0.1,0-0.4-0.1-0.6,0c-0.1,0-0.2,0.1-0.3,0.1c0,0.1,0,0.2,0.1,0.2C429.8,91.5,429.8,91.5,429.9,91.4z"/>
					</g>
					<g transform="matrix(1.45816,0,0,1.55294,-504.604,-50.0834)">
						<path class="st7" d="M430.7,91.2c0.1,0,0.1-0.1,0-0.2c0-0.1-0.1-0.1-0.2-0.1c-0.1,0-0.1,0.1-0.1,0.2c0,0.1,0,0.3,0,0.4
							c0,0.1,0.1,0.1,0.2,0.1c0.1,0,0.2-0.1,0.2-0.1C430.7,91.5,430.7,91.4,430.7,91.2C430.7,91.2,430.7,91.2,430.7,91.2z"/>
					</g>
					<g transform="matrix(1.45816,0,0,1.55294,-504.604,-50.0834)">
						<path class="st7" d="M432.8,91c0,0,0.1-0.1,0.1-0.1c0-0.1-0.1-0.1-0.2-0.1c-0.1,0-0.2,0-0.2,0.1c0,0.1,0,0.5,0,0.5
							c0,0.1,0.1,0.1,0.2,0.1c0.1,0,0.1-0.1,0.1-0.2C432.8,91.4,432.8,91.1,432.8,91z"/>
					</g>
					<g transform="matrix(1.45816,0,0,1.55294,-504.604,-50.0834)">
						<path class="st7" d="M432.8,91.3c0.1,0,0.2,0,0.4-0.1c0.5,0,1.2,0,1.6,0c0.1,0,0.2-0.1,0.2-0.1c0-0.1-0.1-0.1-0.2-0.1
							c-0.3,0-1.1,0-1.6,0c-0.2,0-0.4,0-0.5,0.1c-0.1,0-0.1,0.1-0.1,0.2S432.7,91.3,432.8,91.3z"/>
					</g>
					<g transform="matrix(1.45816,0,0,1.55294,-504.604,-50.0834)">
						<path class="st7" d="M430,95.7c0.1,0,0.4,0,0.5,0l0,0c0,0,0,0,0,0c0.1,0,0.2-0.1,0.2-0.1c0,0,0-0.1-0.1-0.1
							c-0.1,0-0.3,0-0.5,0c-0.1,0-0.1,0-0.1,0c0,0-0.1,0-0.1,0c0,0-0.1,0.1,0,0.1C429.8,95.7,429.8,95.7,430,95.7
							C430,95.7,430,95.7,430,95.7z M430.1,95.6C430.1,95.6,430.1,95.5,430.1,95.6C430.1,95.5,430.1,95.6,430.1,95.6z"/>
					</g>
					<g transform="matrix(1.45816,0,0,1.55294,-504.604,-50.0834)">
						<path class="st7" d="M430.7,95.4c0,0,0.1-0.1,0-0.2c0-0.1-0.1-0.1-0.2-0.1c0,0-0.1,0.1-0.1,0.1c0,0.1,0,0.1,0,0.2
							c0,0.1,0,0.1,0,0.1c0,0.1,0,0.2,0.1,0.2c0.1,0,0.2,0,0.2-0.1c0,0,0-0.1,0-0.2C430.7,95.5,430.7,95.4,430.7,95.4z"/>
					</g>
					<g transform="matrix(1.45816,0,0,1.55294,-504.604,-50.0834)">
						<path class="st7" d="M432.9,95.5C432.9,95.5,432.9,95.5,432.9,95.5c0-0.1,0-0.2-0.1-0.2c0,0-0.1,0-0.1,0c0,0-0.1,0-0.1,0.1
							c0,0.1,0,0.3,0,0.4c0,0.1,0.1,0.1,0.2,0.1s0.2-0.1,0.2-0.1C432.9,95.7,432.9,95.5,432.9,95.5z M432.8,95.5L432.8,95.5
							L432.8,95.5L432.8,95.5z M432.8,95.5L432.8,95.5L432.8,95.5L432.8,95.5z M432.8,95.5L432.8,95.5L432.8,95.5L432.8,95.5z
							 M432.8,95.5L432.8,95.5C432.8,95.5,432.8,95.5,432.8,95.5z"/>
					</g>
					<g transform="matrix(1.45816,0,0,1.55294,-504.604,-50.0834)">
						<path class="st7" d="M432.9,95.7c0.8,0,1.5,0,2.1-0.1c0.1,0,0.1-0.1,0.1-0.2c0-0.1-0.1-0.1-0.2-0.1c-0.6,0.1-1.3,0.1-2.1,0.1
							c-0.1,0-0.1,0.1-0.1,0.1C432.7,95.7,432.8,95.7,432.9,95.7z"/>
					</g>
					<g transform="matrix(0.394797,0,0,1.41819,172.671,13.1738)">
						<path class="st7" d="M-108.5,58.1c0,0,0-0.1-0.1-0.1c-0.2-0.1-0.3-0.1-0.5-0.1c-0.1,0-0.3,0-0.4,0.1c0,0-0.1,0-0.1,0.1
							c0,0,0,0.1,0,0.1V59c0,0.6,0.1,0.9,0.1,1.5c0,0.1,0.3,0.2,0.6,0.2c0.3,0,0.6-0.1,0.6-0.2c0-0.6-0.1-0.9-0.1-1.5L-108.5,58.1
							L-108.5,58.1z M-109.1,58.2c-0.1,0-0.3,0-0.3-0.1C-109.3,58.2-109.2,58.2-109.1,58.2z"/>
					</g>
					<g transform="matrix(1.45816,0,0,13.8062,-504.575,-5682.54)">
						<path class="st7" d="M434.8,418.8c0.2,0,0.3,0,0.3,0c0.1,0,0.2,0,0.2,0c0,0-0.1,0-0.2,0C435,418.8,434.9,418.7,434.8,418.8
							c-0.1,0-0.2,0-0.2,0C434.7,418.8,434.7,418.8,434.8,418.8z"/>
					</g>
					<g transform="matrix(1.56282,0,0,5.84747,-569.946,-1593.22)">
						<path class="st7" d="M447.7,288.8c0,0,0.1,0,0.3,0c0.7,0,2.3,0,2.7,0l0.1,0.5c0,0,0.1,0,0.1,0c0.1,0,0.1,0,0.1,0l-0.1-0.5
							c0,0-0.1,0-0.1,0C450.8,288.7,448.2,288.7,447.7,288.8c-0.1-0.1-0.2-0.1-0.2-0.1c0,0,0,0,0,0
							C447.5,288.8,447.6,288.8,447.7,288.8C447.7,288.8,447.7,288.8,447.7,288.8z M447.8,288.8L447.8,288.8L447.8,288.8
							L447.8,288.8z M447.8,288.8L447.8,288.8L447.8,288.8L447.8,288.8z"/>
					</g>
					<g transform="matrix(0.821547,0,0,1.0665,-10.0707,257.274)">
						<path class="st7" d="M176.9-141.7L176.9-141.7c0-0.9,0.1-5.7,0-7.1c0-0.2-0.2-0.4-0.5-0.4c-0.3,0-0.5,0.2-0.5,0.4
							c0.1,1.4,0,6.2,0,7c0,0.2,0,0.3,0,0.3c0.1,0.2,0.3,0.2,0.4,0.2c0.1,0,0.3,0,0.5-0.2c0,0,0-0.1,0-0.1
							C176.9-141.6,176.9-141.6,176.9-141.7z M175.9-141.7C175.9-141.7,175.9-141.7,175.9-141.7L175.9-141.7z M175.9-141.7
							L175.9-141.7L175.9-141.7L175.9-141.7z M175.9-141.7L175.9-141.7L175.9-141.7L175.9-141.7z M175.9-141.7L175.9-141.7
							L175.9-141.7z M176.7-141.9c-0.1,0-0.1-0.1-0.2-0.1c0,0-0.1,0-0.1,0C176.5-142,176.6-142,176.7-141.9z"/>
					</g>
					<g transform="matrix(1.45816,0,0,1.55294,-504.604,-50.0834)">
						<path class="st7" d="M435,91.8c0,0,0.1,0,0.2,0c1.5,0,8.9,0,9.8,0c0.1,0,0.2-0.1,0.2-0.1c0-0.1-0.1-0.1-0.2-0.1
							c-0.9,0-8.3,0-9.8,0c-0.1,0-0.2,0-0.3,0c0,0,0,0,0,0c-0.1,0-0.1,0.1-0.1,0.1c0,0,0,0.1,0,0.1C434.8,91.8,434.9,91.8,435,91.8
							C434.9,91.8,434.9,91.8,435,91.8z"/>
					</g>
					<g transform="matrix(1.45816,0,0,1.55294,-504.604,-50.0834)">
						<path class="st7" d="M447.3,91.5c0,0.2,0,0.3,0,0.5c0,0.1,0.1,0.1,0.2,0.1c0.1,0,0.2-0.1,0.2-0.1c0-0.2,0-0.3,0-0.5
							c0-0.1-0.1-0.1-0.2-0.1C447.4,91.3,447.3,91.4,447.3,91.5z"/>
					</g>
					<g transform="matrix(1.45816,0,0,1.55294,-504.604,-50.0834)">
						<path class="st7" d="M447.4,91.6L447.4,91.6L447.4,91.6c-0.1,0-0.1,0.1-0.1,0.2c0,0.1,0,0.1,0.1,0.1l0,0c0,0,0,0,0,0l0,0
							c0.1,0,0.4,0,0.5,0c0.4,0,0.7,0,1.1,0c1.1,0,2.3,0,3.4,0c0.1,0,0.2-0.1,0.2-0.1c0-0.1-0.1-0.1-0.2-0.1c-1.1,0-2.3,0-3.4,0
							c-0.4,0-0.8,0-1.1,0C447.8,91.6,447.5,91.6,447.4,91.6L447.4,91.6z"/>
					</g>
					<g transform="matrix(1.45816,0,0,1.55294,-504.604,-50.0834)">
						<path class="st7" d="M452.7,91.5C452.7,91.5,452.7,91.5,452.7,91.5c0-0.1,0-0.1-0.1-0.1c-0.1,0-0.1,0-0.2,0c0,0-0.1,0-0.1,0.1
							c0,0.1,0,0.4,0,0.6c0,0.1,0.1,0.1,0.2,0.1c0.1,0,0.2-0.1,0.2-0.1C452.7,91.9,452.7,91.6,452.7,91.5z M452.5,91.6
							C452.5,91.6,452.5,91.6,452.5,91.6C452.5,91.6,452.5,91.6,452.5,91.6z M452.4,91.5C452.4,91.6,452.4,91.6,452.4,91.5
							C452.4,91.6,452.4,91.6,452.4,91.5z"/>
					</g>
					<g transform="matrix(1.45816,0,0,1.55294,-504.604,-50.0834)">
						<path class="st7" d="M454.5,91.6c0,0,0,0.1,0,0.1c0,0.1,0,0.1,0,0.2c0,0.1,0.1,0.1,0.2,0.1c0.1,0,0.2-0.1,0.2-0.1
							c0-0.1,0-0.1,0-0.2c0-0.1,0-0.1,0-0.2c0-0.1-0.1-0.1-0.2-0.1C454.6,91.5,454.5,91.6,454.5,91.6z"/>
					</g>
					<g transform="matrix(1.45816,0,0,1.55294,-504.604,-50.0834)">
						<path class="st7" d="M454.9,91.9c0,0,0.1,0,0.1,0c0.1,0,0.3,0,0.4,0c0.1,0,0.2-0.1,0.2-0.1c0-0.1-0.1-0.1-0.2-0.1
							c-0.1,0-0.5,0-0.6,0.1c-0.1,0-0.1,0.1-0.2,0.2c0,0.1,0,0.2,0.1,0.2C454.8,92,454.9,91.9,454.9,91.9z M455,91.8L455,91.8
							L455,91.8L455,91.8z"/>
					</g>
					<g transform="matrix(1.45816,0,0,1.55294,-504.604,-50.0834)">
						<path class="st7" d="M449.6,92.8C449.6,92.8,449.6,92.8,449.6,92.8c0-0.2-0.1-0.4-0.1-0.6c0-0.1,0-0.1,0-0.2c0,0,0-0.1,0-0.1
							c0-0.1,0-0.2-0.1-0.2c-0.1,0-0.2,0-0.2,0.1c0,0.1,0,0.2,0,0.3c0,0.2,0.1,0.5,0.1,0.7c0,0,0,0.1,0,0.1c0,0,0,0.1,0,0.1
							c0,0.1,0.1,0.1,0.1,0.1c0,0,0.1,0,0.2-0.1C449.6,92.9,449.6,92.8,449.6,92.8z"/>
					</g>
					<g transform="matrix(1.45816,0,0,1.55294,-504.604,-50.0834)">
						<path class="st7" d="M449.6,93.2C449.6,93.2,449.6,93.2,449.6,93.2c0.1,0,0.2-0.1,0.2-0.1c0-0.1,0-0.1,0-0.1
							c0,0-0.1-0.1-0.2,0c0,0-0.1,0-0.2,0.1c0,0,0,0-0.1-0.1c-0.1,0-0.2,0-0.2,0.1c0,0.1,0,0.2,0,0.2c0,0.1,0.1,0.1,0.3,0.1
							C449.4,93.2,449.5,93.2,449.6,93.2z M449.5,93.1L449.5,93.1L449.5,93.1L449.5,93.1z M449.5,93.1L449.5,93.1L449.5,93.1
							L449.5,93.1z M449.4,93L449.4,93L449.4,93L449.4,93z"/>
					</g>
					<g transform="matrix(1.45816,0,0,1.55294,-504.604,-50.0834)">
						<path class="st7" d="M449.4,95.4c0.1,0,0.1,0,0.2,0c0.1-0.1,0.1-0.1,0-0.2c0,0,0,0,0,0s0,0-0.1-0.1c0,0-0.1,0-0.2,0
							c0,0-0.1,0-0.1,0c0,0,0,0,0,0c-0.2-0.1-0.3,0-0.3,0.1c0,0.1,0,0.1,0,0.2c0,0,0.1,0.1,0.2,0.1
							C449.2,95.4,449.3,95.4,449.4,95.4C449.4,95.4,449.4,95.4,449.4,95.4z M449.1,95.3L449.1,95.3
							C449.1,95.3,449.1,95.3,449.1,95.3z"/>
					</g>
					<g transform="matrix(1.45816,0,0,1.55294,-504.604,-50.0834)">
						<path class="st7" d="M449.1,95.3c0,0.1-0.1,0.3-0.1,0.7c-0.1,1.2,0,3.9,0,5c0,0.1,0.1,0.3,0.3,0.3c0.2,0,0.3-0.1,0.3-0.3
							c0-0.9,0-3.1,0-4.4c0-0.5,0-0.9,0.1-1c0.1-0.1,0-0.3-0.2-0.3C449.3,95.1,449.1,95.1,449.1,95.3z"/>
					</g>
					<g transform="matrix(1.42456,0,0,1.07947,-465.413,161.629)">
						<path class="st7" d="M421.5-58c0,0,0.1,0,0.3,0c1.6,0,9.8,0.1,10.5,0.1c0.2,0,0.3-0.2,0.3-0.4c0-0.2-0.1-0.4-0.3-0.4
							c-0.8,0-8.9-0.1-10.5-0.1c-0.2,0-0.3,0-0.3,0c-0.3,0-0.3,0.4-0.3,0.4C421.2-58.1,421.3-58,421.5-58L421.5-58z"/>
					</g>
					<g transform="matrix(1.45816,0,0,1.55294,-504.604,-50.0834)">
						<path class="st7" d="M445,95.3C445,95.3,445.1,95.3,445,95.3c0.1,0,0.2,0,0.2,0c0.1,0,0.2-0.1,0.2-0.1c0-0.1-0.1-0.1-0.2-0.1
							c0,0-0.1,0-0.2,0c-0.1,0-0.1,0-0.2,0c-0.1,0-0.1,0.1-0.1,0.1c0,0,0,0.1,0,0.1c0,0.1,0.1,0.1,0.2,0.1
							C445,95.3,445,95.3,445,95.3z"/>
					</g>
					<g transform="matrix(1.45816,0,0,1.55294,-504.604,-50.0834)">
						<path class="st7" d="M444.9,95.2L444.9,95.2c0,0.1,0,0.4,0,0.5c0,0.1,0.1,0.1,0.2,0.1c0.1,0,0.2-0.1,0.2-0.1c0,0,0,0,0,0
							c0-0.1,0-0.4,0-0.4c0,0,0,0,0,0c0-0.1,0-0.1,0-0.1c0,0-0.1-0.1-0.1,0C445,95.1,445,95.1,444.9,95.2
							C444.9,95.2,444.9,95.2,444.9,95.2z M445.2,95.6C445.1,95.6,445.1,95.6,445.2,95.6C445.1,95.6,445.1,95.6,445.2,95.6z"/>
					</g>
					<g transform="matrix(1.45816,0,0,1.55294,-504.604,-50.0834)">
						<path class="st7" d="M440.4,95.2c0.1,0,0.2,0,0.3,0c0.1,0,0.3,0,0.4,0c0.1,0,0.2,0,0.2-0.1c0-0.1,0-0.2-0.1-0.2
							c-0.1,0-0.3,0-0.4,0c-0.1,0-0.2,0-0.3,0c-0.1,0-0.2,0-0.2,0.1C440.3,95.1,440.3,95.2,440.4,95.2z"/>
					</g>
					<g transform="matrix(1.45816,0,0,1.55294,-504.604,-50.0834)">
						<path class="st7" d="M440.9,95.3C440.9,95.3,440.9,95.2,440.9,95.3c0-0.2,0-0.2-0.1-0.2c-0.1,0-0.2,0-0.2,0.2
							c0,0.1,0,0.5,0,0.6c0,0.1,0.1,0.1,0.2,0.1c0.1,0,0.2-0.1,0.2-0.1C440.9,95.7,440.9,95.4,440.9,95.3z M440.8,95.3L440.8,95.3
							L440.8,95.3L440.8,95.3z"/>
					</g>
					<g transform="matrix(1.45816,0,0,1.55294,-504.604,-50.0834)">
						<path class="st7" d="M440.6,91.6c-0.1,0.4,0,0.9,0,1.3c0,0.1,0.1,0.1,0.2,0.1c0.1,0,0.2-0.1,0.2-0.1c0-0.4-0.1-0.9,0-1.2
							c0-0.1,0-0.2-0.1-0.2C440.6,91.4,440.6,91.5,440.6,91.6z"/>
					</g>
					<g transform="matrix(1.45816,0,0,1.55294,-504.604,-50.0834)">
						<path class="st7" d="M440.5,93c0.1,0,0.1,0,0.2,0c0.1,0,0.2,0,0.2,0c0.1,0,0.2-0.1,0.2-0.1s-0.1-0.1-0.2-0.1c0,0-0.1,0-0.2,0
							c0,0-0.1,0-0.1,0c-0.1,0-0.2,0-0.2,0.1C440.4,92.9,440.4,93,440.5,93z"/>
					</g>
					<g transform="matrix(1.45816,0,0,1.55294,-504.604,-50.0834)">
						<path class="st7" d="M445.1,91.8C445.1,91.8,445.1,91.8,445.1,91.8c0-0.1,0-0.2-0.1-0.2c-0.1,0-0.1,0-0.1,0c0,0,0,0-0.1,0.1
							c0,0,0,0.1,0,0.1c-0.1,0.4,0,0.8,0,1.2c0,0.1,0.1,0.1,0.2,0.1s0.2-0.1,0.2-0.1C445.1,92.6,445,92.2,445.1,91.8
							C445.1,91.9,445.1,91.8,445.1,91.8z M445,91.9C445,91.9,445,91.9,445,91.9C445,91.9,445,91.9,445,91.9z"/>
					</g>
					<g transform="matrix(1.45816,0,0,1.55294,-504.604,-50.0834)">
						<path class="st7" d="M444.6,93C444.6,93,444.6,93,444.6,93C444.6,93,444.6,93,444.6,93c-0.1,0-0.1,0.1-0.1,0.1
							c0,0.1,0,0.1,0.1,0.1l0,0l0,0l0,0c0.1,0,0.5,0,0.7,0c0.1,0,0.2-0.1,0.2-0.1c0-0.1-0.1-0.1-0.2-0.1
							C445.2,92.9,444.7,92.9,444.6,93L444.6,93z"/>
					</g>
					<g transform="matrix(1.45816,0,0,1.55294,-504.604,-50.0834)">
						<path class="st7" d="M432.9,98.3l0-0.4c0,0,0,0,0-0.1c0-0.1,0-0.2-0.1-0.2c-0.1,0-0.1,0-0.2,0c0,0,0,0-0.1,0.1
							c0,0,0,0.1,0,0.2c0,0.1,0,0.2,0,0.3c0,0.1,0,0.1,0,0.1c0,0.1,0.1,0.1,0.1,0.1C432.9,98.5,433,98.5,432.9,98.3
							C433,98.4,433,98.3,432.9,98.3z M432.9,98.3L432.9,98.3L432.9,98.3L432.9,98.3z M432.8,98.3L432.8,98.3L432.8,98.3L432.8,98.3
							L432.8,98.3z M432.8,98.3L432.8,98.3L432.8,98.3L432.8,98.3z M432.8,98.3L432.8,98.3L432.8,98.3L432.8,98.3z M432.8,98
							L432.8,98L432.8,98L432.8,98z M432.8,98L432.8,98C432.8,98,432.8,98,432.8,98z"/>
					</g>
					<g transform="matrix(1.45816,0,0,1.45816,-504.604,0.913167)">
						<path class="st7" d="M432.8,69.6c0.6,0,1.4,0,2.2,0c0.1,0,0.2-0.1,0.2-0.1c0-0.1-0.1-0.2-0.1-0.2c-0.7,0-1.5,0-2.2,0
							c-0.1,0-0.2,0.1-0.2,0.2S432.7,69.6,432.8,69.6z"/>
					</g>
					<g transform="matrix(1.45816,0,0,1.55294,-504.604,-50.0834)">
						<path class="st7" d="M434.8,97.9c0.1,0,0.3,0,0.5,0c0.1,0,0.2-0.1,0.2-0.1c0-0.1-0.1-0.1-0.2-0.1c-0.1,0-0.4,0-0.5,0
							c-0.1,0-0.1,0.1-0.1,0.2C434.6,97.8,434.7,97.9,434.8,97.9z"/>
					</g>
					<g transform="matrix(1.45816,0,0,1.55294,-504.604,-50.0834)">
						<path class="st7" d="M435.1,97.8C435.1,97.8,435.1,97.8,435.1,97.8c0-0.2-0.1-0.2-0.1-0.2c0,0-0.1,0-0.1,0.1
							c0,0.1,0,0.7,0,0.9c0,0.7,0.1,1.4,0.1,2c0,0.1,0.1,0.1,0.2,0.1s0.2-0.1,0.2-0.1c0-0.7-0.1-1.3-0.1-2
							C435.1,98.5,435.1,98,435.1,97.8z M434.8,97.9L434.8,97.9L434.8,97.9L434.8,97.9z M434.8,97.9L434.8,97.9L434.8,97.9
							L434.8,97.9z M434.8,97.9L434.8,97.9L434.8,97.9L434.8,97.9z M434.8,97.8L434.8,97.8L434.8,97.8L434.8,97.8z"/>
					</g>
					<g transform="matrix(1.45816,0,0,1.55294,-504.604,-50.0834)">
						<path class="st7" d="M434.5,100.4c0,0.1,0,0.3,0,0.4c0,0.1,0.1,0.1,0.2,0.1c0.1,0,0.1-0.1,0.1-0.2c0-0.1,0-0.3,0-0.4
							c0-0.1-0.1-0.1-0.1-0.2C434.5,100.3,434.5,100.3,434.5,100.4z"/>
					</g>
					<g transform="matrix(1.45816,0,0,1.55294,-504.604,-50.0834)">
						<path class="st7" d="M434.7,100.8c0.7,0,1.3,0,2,0c0.1,0,0.2-0.1,0.2-0.1c0-0.1-0.1-0.1-0.2-0.1c-0.7,0-1.3,0-2,0
							c-0.1,0-0.2,0.1-0.2,0.1C434.6,100.7,434.6,100.8,434.7,100.8z"/>
					</g>
					<g transform="matrix(1.45816,0,0,1.55294,-504.604,-50.0834)">
						<path class="st7" d="M436.7,100.5c0,0,0-0.1,0-0.2c-0.1-0.1-0.1-0.1-0.2-0.1c0,0-0.1,0-0.1,0.1c0,0,0,0.1,0,0.1
							c0,0.1,0,0.2,0,0.2c0,0.1,0.1,0.1,0.2,0.1s0.2-0.1,0.2-0.1C436.7,100.7,436.7,100.6,436.7,100.5z"/>
					</g>
					<g transform="matrix(1.45816,0,0,1.55294,-504.604,-50.0834)">
						<path class="st7" d="M436.2,100.7C436.2,100.7,436.2,100.7,436.2,100.7c0-0.2-0.1-0.2-0.1-0.2c0,0-0.1,0-0.2,0.1
							c0,0.1,0,0.5,0,0.6c0,0.1,0.1,0.1,0.2,0.1c0.1,0,0.2-0.1,0.2-0.1C436.2,101.2,436.2,100.8,436.2,100.7z M436,100.8
							C436,100.8,436,100.8,436,100.8C436,100.8,436,100.8,436,100.8z"/>
					</g>
					<g transform="matrix(1.45816,0,0,1.55294,-504.604,-50.0834)">
						<path class="st7" d="M436,101.4c0.1,0,0.2,0,0.2,0c0.1,0,0.2-0.1,0.2-0.1c0-0.1-0.1-0.1-0.2-0.1c0,0-0.3,0-0.3,0c0,0,0,0,0,0
							c-0.1,0-0.1,0.1-0.1,0.1c0,0,0,0.1,0,0.1C435.9,101.4,435.9,101.4,436,101.4C436,101.4,436,101.4,436,101.4z"/>
					</g>
					<g transform="matrix(1.45816,0,0,1.55294,-504.604,-50.0834)">
						<path class="st7" d="M429.9,98.3c0,0,0.1,0,0.2,0c0.1,0,0.3,0,0.3,0.1c0,0,0.1,0,0.1,0c0.1,0,0.2-0.1,0.2-0.1
							c0,0,0-0.1-0.1-0.1c0,0-0.1-0.1-0.2-0.1c-0.2,0-0.5-0.1-0.6,0c-0.1,0-0.1,0.1-0.2,0.1c0,0.1,0,0.2,0.1,0.2
							C429.8,98.4,429.9,98.4,429.9,98.3z"/>
					</g>
					<g transform="matrix(1.45816,0,0,1.55294,-500.068,-50.6026)">
						<path class="st7" d="M427.6,98.5c0,0,0.1-0.1,0.1-0.1c0-0.1-0.1-0.1-0.2-0.1c-0.1,0-0.2,0.1-0.2,0.1c0,0,0,0.1,0,0.1
							c0,0,0,0.1,0,0.1c0,0.1,0.1,0.1,0.2,0.1c0.1,0,0.2-0.1,0.2-0.1C427.6,98.7,427.6,98.6,427.6,98.5
							C427.6,98.6,427.6,98.6,427.6,98.5z"/>
					</g>
					<g transform="matrix(1.45816,0,0,1.55294,-504.604,-50.0834)">
						<path class="st7" d="M429.9,100.8c0.1,0,0.5-0.1,0.6-0.1c0.1,0,0.2-0.1,0.2-0.1c0-0.1-0.1-0.1-0.2-0.1c-0.2,0-0.6,0.1-0.7,0.1
							c-0.1,0-0.1,0.1-0.1,0.1c0,0,0,0.1,0,0.1C429.7,100.8,429.7,100.8,429.9,100.8C429.8,100.8,429.9,100.8,429.9,100.8z
							 M429.9,100.6C429.9,100.6,430,100.6,429.9,100.6C430,100.6,429.9,100.6,429.9,100.6z"/>
					</g>
					<g transform="matrix(1.45816,0,0,1.55294,-504.604,-50.0834)">
						<path class="st7" d="M430.8,100.4c0,0,0-0.1,0-0.1c-0.1-0.1-0.1-0.1-0.1-0.1c0,0-0.1,0-0.1,0c0,0,0,0-0.1,0.1c0,0,0,0.1,0,0.1
							c0,0.2,0,0.3,0,0.5c0,0.1,0.1,0.1,0.2,0.1s0.2-0.1,0.2-0.1C430.7,100.7,430.8,100.6,430.8,100.4
							C430.8,100.4,430.8,100.4,430.8,100.4z"/>
					</g>
					<g transform="matrix(1.45816,0,0,1.55294,-504.604,-50.0834)">
						<path class="st7" d="M432.3,100.8c0.3,0,0.6,0,0.9,0c0.1,0,0.2-0.1,0.2-0.1c0-0.1-0.1-0.1-0.2-0.1c-0.2,0-0.6,0-0.9,0
							c-0.1,0-0.2,0.1-0.2,0.1C432.1,100.7,432.2,100.8,432.3,100.8z"/>
					</g>
					<g transform="matrix(1.45816,0,0,1.55294,-504.604,-50.0834)">
						<path class="st7" d="M433,100.7c0,0.1,0,0.2,0,0.2c0.1,0,0.2,0,0.2,0c0,0,0-0.1,0.1-0.2c0-0.1,0-0.2,0-0.2
							c0-0.1,0-0.2-0.1-0.2c0,0-0.1,0-0.1,0c0,0-0.1,0-0.1,0.1c0,0,0,0.1,0,0.2C433,100.6,433,100.7,433,100.7
							C433,100.7,433,100.7,433,100.7z M433.2,100.6c0,0-0.1,0-0.1,0C433.2,100.6,433.2,100.6,433.2,100.6z"/>
					</g>
					<g transform="matrix(1.45816,0,0,1.55294,-504.604,-50.0834)">
						<path class="st7" d="M432.3,100.4c0-0.1,0-0.1-0.1-0.2c-0.1,0-0.2,0-0.2,0.1c0,0,0,0.3,0,0.4c0,0.1,0.1,0.1,0.1,0.2
							c0.1,0,0.2,0,0.2-0.1C432.3,100.7,432.3,100.4,432.3,100.4z"/>
					</g>
					<g transform="matrix(1.45816,0,0,1.55294,-504.604,-50.0834)">
						<path class="st7" d="M436.1,103.3c0.1,0,0.2,0,0.2,0c0.1,0,0.2-0.1,0.2-0.1c0-0.1-0.1-0.1-0.2-0.1c-0.1,0-0.3,0-0.4,0
							c-0.1,0-0.1,0.1-0.1,0.1c0,0,0,0.1,0,0.1C435.9,103.4,436,103.4,436.1,103.3z M436.1,103.2
							C436.1,103.2,436.1,103.2,436.1,103.2C436.1,103.2,436.1,103.2,436.1,103.2z"/>
					</g>
					<g transform="matrix(1.45816,0,0,1.55294,-504.604,-50.0834)">
						<path class="st7" d="M436.3,103.3C436.3,103.3,436.3,103.3,436.3,103.3c0-0.2,0-0.2-0.1-0.2c0,0-0.1,0-0.1,0
							c0,0-0.1,0.1-0.1,0.1c0,0.1,0,0.5,0,0.6c0,0.1,0.1,0.1,0.2,0.1s0.2-0.1,0.2-0.1C436.3,103.8,436.3,103.6,436.3,103.3
							C436.3,103.4,436.3,103.4,436.3,103.3z M436.3,103.4C436.2,103.4,436.2,103.4,436.3,103.4
							C436.2,103.4,436.2,103.4,436.3,103.4z"/>
					</g>
					<g transform="matrix(1.45816,0,0,1.55294,-504.604,-50.0834)">
						<path class="st7" d="M439.7,100.7c0,0.1,0,0.2,0,0.3c0,0.2,0,0.5,0,0.7c0,0.1,0.1,0.1,0.2,0.1c0.1,0,0.2-0.1,0.2-0.1
							c0-0.2,0-0.5,0-0.7c0,0,0-0.2,0-0.3C440,100.6,439.7,100.3,439.7,100.7C439.7,100.7,439.7,100.7,439.7,100.7z"/>
					</g>
					<g transform="matrix(1.45816,0,0,1.55294,-504.604,-50.0834)">
						<path class="st7" d="M439.8,101.7c0.1,0,0.2,0,0.2,0c0.1,0,0.2-0.1,0.2-0.1c0-0.1-0.1-0.1-0.2-0.1c0,0-0.3,0-0.3,0
							c-0.1,0-0.1,0.1-0.1,0.1c0,0,0,0.1,0,0.1C439.5,101.6,439.6,101.7,439.8,101.7C439.7,101.7,439.8,101.7,439.8,101.7z"/>
					</g>
					<g transform="matrix(1.84009,0,0,-1.19109,-798.34,1687.69)">
						<path class="st7" d="M507,1327.2c0,0,0.1,0,0.2,0c0.3,0,0.5,0,0.8,0c0.6,0,1.2,0,1.9,0c1.9,0,3.8,0.2,5.7,0.2
							c0.1,0,0.2,0.2,0.2,0.3s-0.1,0.3-0.2,0.3c-1.9,0-3.8-0.2-5.7-0.2c-0.6,0-1.2,0-1.9,0c-0.2,0-0.5,0-0.7,0c-0.1,0-0.2,0-0.2,0
							c-0.1,0-0.1-0.1-0.1-0.1c0-0.1-0.1-0.2-0.1-0.3c0,0,0-0.2,0.1-0.3C506.9,1327.3,507,1327.2,507,1327.2z M507.2,1327.8
							c0,0,0,0.1-0.1,0.1C507.1,1327.9,507.1,1327.8,507.2,1327.8z"/>
					</g>
					<g transform="matrix(1.45816,0,0,1.55294,-504.604,-50.0834)">
						<path class="st7" d="M443.1,101.3c0,0,0-0.1,0-0.1c0-0.1,0-0.3,0-0.4c0,0,0-0.1,0-0.1c0,0,0,0-0.1,0c0,0-0.2,0-0.2,0.1
							c0,0.1-0.1,0.4-0.1,0.6c0,0.1,0.1,0.2,0.2,0.3c0.1,0,0.2,0,0.2-0.1C443.2,101.4,443.2,101.3,443.1,101.3z M443,100.9
							c-0.1,0-0.1,0-0.1-0.1C443,100.9,443,100.9,443,100.9z"/>
					</g>
					<g transform="matrix(1.45816,0,0,1.55294,-504.604,-50.0834)">
						<path class="st7" d="M442.9,101.4C442.9,101.3,442.9,101.3,442.9,101.4c-0.2,0-0.2,0.1-0.2,0.2c0,0,0,0.1,0.1,0.1
							c0,0,0.3,0,0.4,0c0.1,0,0.2-0.1,0.2-0.1c0-0.1-0.1-0.1-0.2-0.1C443.2,101.3,443,101.3,442.9,101.4z M443,101.6L443,101.6
							L443,101.6L443,101.6z"/>
					</g>
					<g transform="matrix(1.45816,0,0,1.55294,-504.604,-50.0834)">
						<path class="st7" d="M443.2,103.8c0,0,0-0.1,0-0.2c0,0,0-0.1,0-0.1l0,0c0.1,0,0.1-0.1,0.1-0.2c0-0.1-0.1-0.1-0.2-0.1
							c0,0-0.1,0-0.1,0.1c0,0-0.1,0.2-0.1,0.3c0,0.1,0,0.3,0,0.3c0,0.1,0.1,0.1,0.2,0.1C443.2,103.9,443.2,103.8,443.2,103.8z
							 M443,103.4L443,103.4L443,103.4z M443,103.4L443,103.4L443,103.4L443,103.4z M443,103.4L443,103.4
							C443,103.4,443,103.4,443,103.4z"/>
					</g>
					<g transform="matrix(1.45816,0,0,1.55294,-504.604,-50.0834)">
						<path class="st7" d="M443,103.3c0.1,0,0.2,0,0.2,0c0.1,0,0.1-0.1,0.1-0.2c0-0.1-0.1-0.1-0.2-0.1c-0.1,0-0.2,0-0.2,0
							c0,0-0.1,0-0.1,0c-0.1,0-0.1,0.1-0.1,0.2c0,0,0,0.1,0.1,0.1C442.9,103.4,443,103.4,443,103.3z"/>
					</g>
					<g transform="matrix(1.45816,0,0,1.55294,-504.604,-50.0834)">
						<path class="st7" d="M439.6,103.3l0,0.1c0,0.1,0,0.2,0,0.3c0,0.1,0.1,0.2,0.1,0.2c0.1,0,0.2,0,0.2-0.1c0-0.1,0-0.1,0-0.2
							c0,0,0-0.1,0-0.1c0-0.1,0-0.2,0-0.2c0,0,0-0.1,0-0.2c0,0,0-0.1-0.1-0.1c0,0-0.1,0-0.1,0c0,0-0.1,0-0.1,0.1
							C439.6,103.2,439.6,103.2,439.6,103.3z M439.9,103.3C439.9,103.3,439.9,103.3,439.9,103.3
							C439.9,103.4,439.9,103.3,439.9,103.3z"/>
					</g>
					<g transform="matrix(1.45816,0,0,1.55294,-504.604,-50.0834)">
						<path class="st7" d="M439.6,103.3c0,0,0.1,0,0.1,0c0.1,0,0.2,0,0.2,0c0.1,0,0.2-0.1,0.2-0.1c0-0.1-0.1-0.1-0.2-0.1
							c-0.1,0-0.2,0-0.3,0c-0.1,0-0.2,0-0.2,0.1c-0.1,0-0.1,0.1-0.1,0.2C439.4,103.3,439.5,103.3,439.6,103.3z"/>
					</g>
				</g>
			</g>
		</g>
	</g>
	<g transform="matrix(0.467529,0,0,0.467529,293.769,886.601)">
		<text transform="matrix(2.1389 0 0 2.1389 -324.5437 -1661.9716)" class="st8 st9">129</text>
	</g>
	<g transform="matrix(0.467529,0,0,0.467529,100.469,886.889)">
		<text transform="matrix(2.1389 0 0 2.1389 77.8121 -1662.5708)" class="st8 st9">130</text>
	</g>
	<g transform="matrix(0.467529,0,0,0.467529,-92.8315,887.177)">
		<text transform="matrix(2.1389 0 0 2.1389 480.1689 -1663.1702)" class="st8 st9">131</text>
	</g>
	<g transform="matrix(0.467529,0,0,0.467529,-374.482,882.406)">
		<text transform="matrix(2.1389 0 0 2.1389 1066.4275 -1653.2391)" class="st8 st9">132</text>
	</g>
	<g transform="matrix(0.467529,0,0,0.467529,-392.393,718.115)">
		<text transform="matrix(2.1389 0 0 2.1389 1103.7097 -1311.265)" class="st8 st9">133</text>
	</g>
	<g transform="matrix(0.467529,0,0,0.467529,-395.553,571.986)">
		<text transform="matrix(2.1389 0 0 2.1389 1110.287 -1007.0955)" class="st8 st9">134</text>
	</g>
	<g transform="matrix(0.467529,0,0,0.467529,-399.557,375.176)">
		<text transform="matrix(2.1389 0 0 2.1389 1118.6213 -597.4337)" class="st8 st9">136</text>
	</g>
	<g transform="matrix(0.467529,0,0,0.467529,-397.567,107.873)">
		<text transform="matrix(2.1389 0 0 2.1389 1114.4788 -41.0401)" class="st8 st9">137</text>
	</g>
	<g transform="matrix(0.467529,0,0,0.467529,-106.383,113.811)">
		<text transform="matrix(2.1389 0 0 2.1389 508.3762 -53.4004)" class="st8 st9">138</text>
	</g>
	<g transform="matrix(0.467529,0,0,0.467529,184.801,119.749)">
		<text transform="matrix(2.1389 0 0 2.1389 -97.7263 -65.7597)" class="st8 st9">140</text>
	</g>
	<g transform="matrix(0.467529,0,0,0.467529,605.151,114.846)">
		<text transform="matrix(2.1389 0 0 2.1389 -972.6886 -55.5536)" class="st8 st9">142</text>
	</g>
	<g transform="matrix(0.467529,0,0,0.467529,710.19,542.387)">
		<text transform="matrix(2.1389 0 0 2.1389 -1191.3289 -945.4863)" class="st8 st9">144</text>
	</g>
	<g transform="matrix(0.467529,0,0,0.467529,421.506,387.346)">
		<text transform="matrix(2.1389 0 0 2.1389 -590.4294 -622.7665)" class="st8 st9">143</text>
	</g>
	<g transform="matrix(0.467529,0,0,0.467529,177.892,392.417)">
		<text transform="matrix(2.1389 0 0 2.1389 -83.3445 -633.3215)" class="st8 st9">141</text>
	</g>
	<g transform="matrix(0.467529,0,0,0.467529,-83.0284,328.889)">
		<text transform="matrix(2.1389 0 0 2.1389 459.7639 -501.0871)" class="st8 st9">139</text>
	</g>
	<g transform="matrix(0.467529,0,0,0.467529,-154.051,576.73)">
		<text transform="matrix(2.1389 0 0 2.1389 607.5983 -1016.9708)" class="st8 st9">135</text>
	</g>
</g>
<polygon class="st10" points="19.5,33.7 19.5,32.3 20,32.3 19,30.9 18,32.3 18.5,32.3 18.5,33.7 "/>
</svg>
